<?xml version="1.0" standalone="no"?>
<!DOCTYPE svg PUBLIC "-//W3C//DTD SVG 20010904//EN"
 "http://www.w3.org/TR/2001/REC-SVG-20010904/DTD/svg10.dtd">
<svg version="1.0" xmlns="http://www.w3.org/2000/svg"
 width="300.000000pt" height="300.000000pt" viewBox="0 0 300.000000 300.000000"
 preserveAspectRatio="xMidYMid meet">
<metadata>
Created by potrace 1.10, written by Peter Selinger 2001-2011
</metadata>
<g transform="translate(0.000000,300.000000) scale(0.100000,-0.100000)"
fill="#000000" stroke="none">
<path d="M1185 2280 c-60 -14 -104 -39 -145 -80 -51 -51 -60 -75 -59 -153 1
-110 4 -110 104 -5 87 91 136 158 117 158 -5 0 -33 -28 -63 -62 -101 -117
-119 -134 -130 -118 -11 19 -4 72 16 109 31 62 124 117 205 123 l45 3 -3 -54
c-4 -75 -42 -152 -92 -185 -22 -14 -48 -26 -57 -25 -15 0 -14 2 5 11 12 6 22
15 22 20 0 5 18 33 40 62 22 29 40 58 40 64 0 7 4 12 8 12 5 0 9 7 9 15 0 25
-11 17 -47 -37 -19 -29 -68 -86 -109 -127 -66 -66 -71 -73 -45 -68 16 3 51 9
78 12 42 6 56 14 100 58 59 60 86 129 86 220 l0 57 -47 -1 c-27 -1 -61 -4 -78
-9z"/>
<path d="M722 2139 c9 -111 72 -199 144 -199 27 0 34 -4 34 -20 0 -18 7 -20
75 -20 67 0 75 -2 75 -19 0 -15 -10 -19 -51 -23 -54 -6 -63 -11 -73 -44 -5
-15 1 -31 19 -52 22 -26 29 -29 68 -25 30 4 46 1 55 -10 31 -36 -33 -70 -88
-47 -31 13 -60 8 -60 -10 0 -6 12 -15 28 -21 15 -6 51 -23 80 -37 45 -23 54
-25 62 -12 8 11 4 17 -15 24 -27 11 -34 26 -12 26 8 0 21 8 30 18 44 48 -3
115 -76 110 -28 -2 -42 2 -50 14 -17 25 -4 31 63 29 l60 -2 0 41 c0 36 2 40
25 40 16 0 25 6 25 15 0 12 -20 15 -117 16 -65 1 -110 3 -100 6 9 2 17 7 17
10 0 12 -107 136 -138 160 -30 23 -33 23 -23 5 6 -12 25 -36 42 -54 17 -18 39
-45 50 -60 19 -26 19 -28 3 -28 -31 0 -83 44 -99 83 -16 40 -20 107 -7 107 16
0 104 -86 148 -143 l44 -59 0 44 c0 100 -80 182 -190 195 l-53 6 5 -64z"/>
<path d="M1234 1947 c-67 -80 -131 -286 -106 -342 10 -22 15 -25 27 -15 8 7
15 18 15 25 0 23 31 75 75 122 46 52 67 52 46 0 -7 -18 -18 -45 -24 -60 -10
-25 -9 -31 7 -43 17 -12 23 -12 45 3 14 9 35 27 47 40 17 20 22 22 32 10 17
-20 147 -21 163 -1 10 12 14 12 28 1 10 -9 40 -15 81 -15 52 0 69 4 88 21 19
18 30 47 18 47 -3 0 -18 -14 -35 -31 -32 -32 -56 -31 -46 2 12 35 -6 39 -35 6
-16 -18 -30 -27 -30 -20 0 7 16 28 35 48 38 37 39 49 4 58 -22 6 -35 -5 -113
-92 -30 -34 -52 -36 -49 -5 5 41 -7 45 -37 12 -16 -18 -30 -28 -30 -21 0 7 16
28 35 48 38 37 39 49 3 58 -16 5 -29 -2 -52 -30 -104 -121 -155 -151 -121 -70
8 20 15 48 15 62 0 21 -5 25 -27 25 -20 0 -38 -11 -65 -42 -48 -55 -49 -31 -2
48 41 69 72 104 91 104 19 0 -10 56 -36 70 -16 8 -24 4 -47 -23z"/>
<path d="M930 1448 l0 -123 67 1 c65 1 68 2 68 25 0 22 -4 23 -42 21 -40 -3
-43 -2 -43 22 0 24 4 26 40 26 36 0 40 3 40 25 0 23 -4 25 -40 25 -36 0 -40 3
-40 25 0 23 4 25 46 25 41 0 45 2 42 23 -3 20 -9 22 -70 25 l-68 3 0 -123z"/>
<path d="M1137 1453 c-26 -65 -47 -121 -47 -125 0 -5 11 -8 26 -8 18 0 28 7
35 28 9 25 13 28 56 26 41 -2 48 -5 56 -28 7 -20 15 -26 38 -26 16 0 29 1 29
3 0 1 -22 56 -49 122 -42 102 -53 120 -73 123 -22 3 -28 -7 -71 -115z m91 -5
c11 -27 10 -28 -18 -28 -17 0 -30 2 -30 4 0 1 5 18 11 35 12 34 18 33 37 -11z"/>
<path d="M1352 1448 l3 -123 29 -3 c28 -4 28 -3 25 47 -2 28 -2 51 1 51 3 0
13 -12 22 -27 30 -50 58 -73 88 -73 17 0 30 3 30 7 0 4 -18 26 -41 49 l-41 41
26 26 c61 61 13 127 -94 127 l-51 0 3 -122z m103 41 c0 -17 -6 -25 -22 -27
-20 -3 -23 1 -23 32 0 32 2 35 23 27 14 -5 22 -17 22 -32z"/>
<path d="M1560 1545 c0 -21 5 -25 30 -25 l30 0 0 -100 c0 -100 0 -100 25 -100
25 0 25 0 25 100 l0 100 30 0 c25 0 30 4 30 25 0 25 -1 25 -85 25 -84 0 -85 0
-85 -25z"/>
<path d="M1762 1448 l3 -123 25 0 c23 0 25 3 25 48 l0 47 40 0 40 0 0 -47 c0
-44 2 -47 25 -47 l25 0 3 122 3 122 -32 0 -32 0 5 -50 5 -50 -41 0 -41 0 3 50
4 50 -31 0 -32 0 3 -122z"/>
<path d="M973 1290 c-5 -18 -14 -20 -89 -20 l-83 0 2 -26 c1 -15 -4 -29 -10
-31 -9 -3 -11 4 -6 27 5 28 3 32 -13 28 -13 -3 -18 -11 -16 -28 3 -29 9 -35
40 -45 20 -6 22 -3 22 29 0 32 3 36 25 36 14 0 25 -4 25 -10 0 -5 -7 -10 -15
-10 -20 0 -19 -13 5 -40 21 -24 42 -21 22 3 -12 14 -5 57 9 57 5 0 9 -8 9 -19
0 -22 25 -45 40 -36 5 3 10 17 10 31 0 13 5 24 11 24 7 0 9 -12 5 -34 -4 -20
-2 -37 4 -41 9 -5 16 53 11 93 -1 6 3 12 9 12 10 0 14 -26 11 -72 -1 -14 2
-29 7 -32 6 -3 12 14 14 40 2 33 -1 50 -15 65 -22 24 -28 24 -34 -1z"/>
<path d="M1150 1296 c0 -8 6 -17 13 -19 6 -3 -13 -6 -43 -7 -30 -1 -47 -4 -37
-7 20 -5 23 -19 5 -25 -8 -3 -6 -13 9 -31 11 -14 23 -24 27 -20 3 3 1 12 -5
20 -9 10 -8 13 5 13 9 0 16 -8 16 -21 0 -11 5 -17 10 -14 6 4 8 21 4 41 -5 27
-3 34 10 34 12 0 16 -10 16 -41 0 -26 4 -38 11 -33 6 3 9 22 7 40 -3 28 -1 34
15 34 16 0 18 -5 13 -26 -6 -23 -4 -25 14 -19 12 4 26 2 33 -3 7 -5 22 -13 35
-16 20 -7 22 -4 22 28 0 20 5 36 10 36 6 0 10 -16 10 -35 0 -48 17 -44 22 5
l4 40 -91 0 c-79 0 -92 2 -103 20 -14 23 -32 26 -32 6z m128 -48 c-7 -19 -38
-22 -38 -4 0 10 9 16 21 16 12 0 19 -5 17 -12z"/>
<path d="M1913 1290 c-4 -16 -14 -20 -47 -22 l-41 -1 45 -7 c25 -4 37 -8 26
-8 -13 -2 -17 -8 -13 -22 6 -25 -8 -26 -22 -3 -5 10 -13 15 -17 11 -10 -11 16
-38 36 -38 10 0 21 8 23 18 3 10 5 6 6 -11 1 -18 5 -26 12 -21 6 4 8 20 4 40
-5 27 -3 34 10 34 11 0 15 -11 15 -41 0 -24 4 -38 10 -34 6 3 10 22 10 41 0
32 2 34 33 34 32 0 32 0 8 -13 -28 -14 -30 -28 -4 -42 10 -5 21 -14 25 -20 9
-12 11 -3 8 43 -1 30 0 32 34 32 20 0 36 -4 36 -10 0 -5 -9 -10 -20 -10 -11 0
-20 -7 -20 -16 0 -11 6 -14 20 -9 16 5 20 2 20 -15 0 -12 4 -19 9 -15 5 3 7
21 4 40 -4 28 -2 35 11 35 12 0 16 -10 16 -41 0 -22 4 -38 8 -35 5 3 7 19 4
37 -3 20 0 34 9 40 9 5 -29 9 -96 9 -99 0 -111 2 -123 20 -7 11 -17 20 -23 20
-6 0 -13 -9 -16 -20z"/>
<path d="M1483 1263 c19 -5 23 -19 6 -25 -13 -4 -2 -35 16 -42 9 -3 12 0 8 10
-3 8 1 14 11 14 9 0 16 -8 16 -19 0 -11 6 -22 13 -25 6 -3 -1 -4 -17 0 -26 5
-28 3 -17 -10 15 -18 47 -21 56 -5 4 5 -1 19 -10 29 -12 13 -15 27 -11 45 6
23 11 25 59 25 37 0 48 -3 37 -10 -8 -5 -28 -10 -43 -10 -19 0 -27 -4 -24 -12
2 -7 14 -12 25 -10 12 2 22 -1 22 -6 0 -7 42 -32 55 -32 2 0 1 9 -2 20 -4 15
-11 19 -24 15 -27 -9 -23 10 6 29 27 18 65 21 65 6 0 -5 -7 -10 -15 -10 -22 0
-18 -13 10 -40 23 -22 37 -16 15 6 -13 13 -1 54 17 54 10 0 14 -10 12 -34 -2
-19 0 -38 4 -42 4 -4 7 11 7 33 0 24 5 43 13 46 6 3 -64 5 -158 5 -93 0 -162
-2 -152 -5z"/>
<path d="M1392 1190 c1 -32 12 -40 22 -14 10 26 7 44 -8 44 -10 0 -14 -10 -14
-30z"/>
</g>
</svg>
