<svg width="116" height="89" viewBox="0 0 116 89" fill="none" xmlns="http://www.w3.org/2000/svg">
<circle cx="3.78034" cy="85.1005" r="3.78034" transform="rotate(-90 3.78034 85.1005)" fill="#D9D9D9"/>
<circle cx="3.78034" cy="57.9936" r="3.78034" transform="rotate(-90 3.78034 57.9936)" fill="#D9D9D9"/>
<circle cx="3.78034" cy="30.8867" r="3.78034" transform="rotate(-90 3.78034 30.8867)" fill="#D9D9D9"/>
<circle cx="3.78034" cy="3.7802" r="3.78034" transform="rotate(-90 3.78034 3.7802)" fill="#D9D9D9"/>
<circle cx="30.8868" cy="85.1003" r="3.78034" transform="rotate(-90 30.8868 85.1003)" fill="#D9D9D9"/>
<circle cx="30.8868" cy="57.9936" r="3.78034" transform="rotate(-90 30.8868 57.9936)" fill="#D9D9D9"/>
<circle cx="30.8868" cy="30.8867" r="3.78034" transform="rotate(-90 30.8868 30.8867)" fill="#D9D9D9"/>
<circle cx="30.8868" cy="3.7802" r="3.78034" transform="rotate(-90 30.8868 3.7802)" fill="#D9D9D9"/>
<circle cx="57.9942" cy="85.1003" r="3.78034" transform="rotate(-90 57.9942 85.1003)" fill="#D9D9D9"/>
<circle cx="57.9942" cy="57.9936" r="3.78034" transform="rotate(-90 57.9942 57.9936)" fill="#D9D9D9"/>
<circle cx="57.9942" cy="30.8867" r="3.78034" transform="rotate(-90 57.9942 30.8867)" fill="#D9D9D9"/>
<circle cx="57.9942" cy="3.7802" r="3.78034" transform="rotate(-90 57.9942 3.7802)" fill="#D9D9D9"/>
<circle cx="85.1007" cy="85.1003" r="3.78034" transform="rotate(-90 85.1007 85.1003)" fill="#D9D9D9"/>
<circle cx="85.1007" cy="57.9936" r="3.78034" transform="rotate(-90 85.1007 57.9936)" fill="#D9D9D9"/>
<circle cx="85.1007" cy="30.8867" r="3.78034" transform="rotate(-90 85.1007 30.8867)" fill="#D9D9D9"/>
<circle cx="85.1007" cy="3.7802" r="3.78034" transform="rotate(-90 85.1007 3.7802)" fill="#D9D9D9"/>
<circle cx="112.207" cy="85.1003" r="3.78034" transform="rotate(-90 112.207 85.1003)" fill="#D9D9D9"/>
<circle cx="112.207" cy="57.9936" r="3.78034" transform="rotate(-90 112.207 57.9936)" fill="#D9D9D9"/>
<circle cx="112.207" cy="30.8867" r="3.78034" transform="rotate(-90 112.207 30.8867)" fill="#D9D9D9"/>
<circle cx="112.207" cy="3.7802" r="3.78034" transform="rotate(-90 112.207 3.7802)" fill="#D9D9D9"/>
</svg>
