<svg width="16" height="8" viewBox="0 0 16 8" fill="none" xmlns="http://www.w3.org/2000/svg">
<path d="M0.183321 3.54332L0.183883 3.54271L3.44963 0.187869C3.69429 -0.0634537 4.09001 -0.0625185 4.33354 0.190062C4.57704 0.442611 4.5761 0.851095 4.33144 1.10245L2.13882 3.35484H15.375C15.7202 3.35484 16 3.64368 16 4C16 4.35632 15.7202 4.64516 15.375 4.64516H2.13885L4.33141 6.89755C4.57607 7.14891 4.57701 7.55739 4.33351 7.80994C4.08997 8.06255 3.69423 8.06342 3.4496 7.81213L0.183851 4.45729L0.183289 4.45668C-0.0614922 4.20448 -0.0607104 3.79468 0.183321 3.54332Z" fill="black"/>
</svg>
