<svg width="1458" height="132" viewBox="0 0 1458 132" fill="none" xmlns="http://www.w3.org/2000/svg">
<path d="M-79.2 58.8H-78.2V54.9676L-80.0725 58.3114L-79.2 58.8ZM-104.4 103.8V104.8H-103.814L-103.527 104.289L-104.4 103.8ZM-129.6 103.8L-130.473 104.289L-130.186 104.8H-129.6V103.8ZM-154.8 58.8L-153.927 58.3114L-155.8 54.9676V58.8H-154.8ZM-154.8 129V130H-153.8V129H-154.8ZM-187.2 129H-188.2V130H-187.2V129ZM-187.2 2.99999V1.99999H-188.2V2.99999H-187.2ZM-153 2.99999L-152.12 2.52448L-152.404 1.99999H-153V2.99999ZM-117 69.6L-117.88 70.0755L-117 71.703L-116.12 70.0755L-117 69.6ZM-81 2.99999V1.99999H-81.5962L-81.8797 2.52448L-81 2.99999ZM-46.8 2.99999H-45.8V1.99999H-46.8V2.99999ZM-46.8 129V130H-45.8V129H-46.8ZM-79.2 129H-80.2V130H-79.2V129ZM-80.0725 58.3114L-105.272 103.311L-103.527 104.289L-78.3275 59.2886L-80.0725 58.3114ZM-104.4 102.8H-129.6V104.8H-104.4V102.8ZM-128.727 103.311L-153.927 58.3114L-155.673 59.2886L-130.473 104.289L-128.727 103.311ZM-155.8 58.8V129H-153.8V58.8H-155.8ZM-154.8 128H-187.2V130H-154.8V128ZM-186.2 129V2.99999H-188.2V129H-186.2ZM-187.2 3.99999H-153V1.99999H-187.2V3.99999ZM-153.88 3.47551L-117.88 70.0755L-116.12 69.1245L-152.12 2.52448L-153.88 3.47551ZM-116.12 70.0755L-80.1203 3.47551L-81.8797 2.52448L-117.88 69.1245L-116.12 70.0755ZM-81 3.99999H-46.8V1.99999H-81V3.99999ZM-47.8 2.99999V129H-45.8V2.99999H-47.8ZM-46.8 128H-79.2V130H-46.8V128ZM-78.2 129V58.8H-80.2V129H-78.2ZM-2.62968 129V130H-1.92686L-1.6888 129.339L-2.62968 129ZM-37.7297 129L-38.6649 128.646L-39.1775 130H-37.7297V129ZM9.97032 2.99999V1.99999H9.27963L9.0351 2.64594L9.97032 2.99999ZM45.9703 2.99999L46.9055 2.64594L46.661 1.99999H45.9703V2.99999ZM93.6703 129V130H95.1181L94.6055 128.646L93.6703 129ZM58.5703 129L57.6294 129.339L57.8675 130H58.5703V129ZM50.4703 106.5L51.4112 106.161L51.1731 105.5H50.4703V106.5ZM5.47031 106.5V105.5H4.76749L4.52942 106.161L5.47031 106.5ZM13.5703 83.1L12.6237 82.7777L12.1735 84.1H13.5703V83.1ZM42.3703 83.1V84.1H43.7671L43.317 82.7777L42.3703 83.1ZM27.9703 40.8L28.917 40.4777L27.9703 37.697L27.0237 40.4777L27.9703 40.8ZM-2.62968 128H-37.7297V130H-2.62968V128ZM-36.7945 129.354L10.9055 3.35404L9.0351 2.64594L-38.6649 128.646L-36.7945 129.354ZM9.97032 3.99999H45.9703V1.99999H9.97032V3.99999ZM45.0351 3.35404L92.7351 129.354L94.6055 128.646L46.9055 2.64594L45.0351 3.35404ZM93.6703 128H58.5703V130H93.6703V128ZM59.5112 128.661L51.4112 106.161L49.5294 106.839L57.6294 129.339L59.5112 128.661ZM50.4703 105.5H5.47031V107.5H50.4703V105.5ZM4.52942 106.161L-3.57057 128.661L-1.6888 129.339L6.41119 106.839L4.52942 106.161ZM13.5703 84.1H42.3703V82.1H13.5703V84.1ZM43.317 82.7777L28.917 40.4777L27.0237 41.1223L41.4237 83.4223L43.317 82.7777ZM27.0237 40.4777L12.6237 82.7777L14.517 83.4223L28.917 41.1223L27.0237 40.4777ZM180.148 2.99999V1.99999H179.148V2.99999H180.148ZM212.548 2.99999H213.548V1.99999H212.548V2.99999ZM203.908 122.34L203.201 121.633L203.908 122.34ZM107.608 122.34L106.893 123.04L106.901 123.047L106.908 123.055L107.608 122.34ZM99.1476 2.99999V1.99999H98.1476V2.99999H99.1476ZM131.548 2.99999H132.548V1.99999H131.548V2.99999ZM180.148 3.99999H212.548V1.99999H180.148V3.99999ZM211.548 2.99999V94.8H213.548V2.99999H211.548ZM211.548 94.8C211.548 107.276 208.692 116.141 203.201 121.633L204.615 123.047C210.643 117.019 213.548 107.524 213.548 94.8H211.548ZM203.201 121.633C197.832 127.001 189.031 129.8 176.548 129.8V131.8C189.264 131.8 198.703 128.959 204.615 123.047L203.201 121.633ZM176.548 129.8H135.148V131.8H176.548V129.8ZM135.148 129.8C122.667 129.8 113.799 127.002 108.307 121.625L106.908 123.055C112.937 128.958 122.429 131.8 135.148 131.8V129.8ZM108.322 121.64C102.945 116.149 100.148 107.281 100.148 94.8H98.1476C98.1476 107.519 100.99 117.011 106.893 123.04L108.322 121.64ZM100.148 94.8V2.99999H98.1476V94.8H100.148ZM99.1476 3.99999H131.548V1.99999H99.1476V3.99999ZM130.548 2.99999V94.8H132.548V2.99999H130.548ZM130.548 94.8C130.548 98.5541 131.487 101.553 133.541 103.607C135.594 105.661 138.594 106.6 142.348 106.6V104.6C138.902 104.6 136.501 103.739 134.955 102.193C133.408 100.647 132.548 98.2458 132.548 94.8H130.548ZM142.348 106.6H169.348V104.6H142.348V106.6ZM169.348 106.6C173.102 106.6 176.101 105.661 178.155 103.607C180.208 101.553 181.148 98.5541 181.148 94.8H179.148C179.148 98.2458 178.287 100.647 176.741 102.193C175.194 103.739 172.794 104.6 169.348 104.6V106.6ZM181.148 94.8V2.99999H179.148V94.8H181.148ZM343.948 129V130H344.948V129H343.948ZM309.748 129L308.879 129.496L309.167 130H309.748V129ZM266.548 53.4L267.416 52.9039L265.548 49.6344V53.4H266.548ZM266.548 129V130H267.548V129H266.548ZM234.148 129H233.148V130H234.148V129ZM234.148 2.99999V1.99999H233.148V2.99999H234.148ZM268.348 2.99999L269.216 2.50385L268.928 1.99999H268.348V2.99999ZM311.548 78.6L310.679 79.0961L312.548 82.3656V78.6H311.548ZM311.548 2.99999V1.99999H310.548V2.99999H311.548ZM343.948 2.99999H344.948V1.99999H343.948V2.99999ZM343.948 128H309.748V130H343.948V128ZM310.616 128.504L267.416 52.9039L265.679 53.8961L308.879 129.496L310.616 128.504ZM265.548 53.4V129H267.548V53.4H265.548ZM266.548 128H234.148V130H266.548V128ZM235.148 129V2.99999H233.148V129H235.148ZM234.148 3.99999H268.348V1.99999H234.148V3.99999ZM267.479 3.49613L310.679 79.0961L312.416 78.1039L269.216 2.50385L267.479 3.49613ZM312.548 78.6V2.99999H310.548V78.6H312.548ZM311.548 3.99999H343.948V1.99999H311.548V3.99999ZM342.948 2.99999V129H344.948V2.99999H342.948ZM473.632 126.3L473.738 127.294L474.632 127.199V126.3H473.632ZM370.312 122.52L371.019 121.813L370.312 122.52ZM370.492 11.64L371.199 12.3471V12.3471L370.492 11.64ZM462.832 2.99999H463.832V1.99999H462.832V2.99999ZM462.832 28.2V29.2H463.832V28.2H462.832ZM396.772 103.26L396.039 103.94L396.064 103.968L396.092 103.993L396.772 103.26ZM441.232 104.7L441.285 105.699L442.232 105.649V104.7H441.232ZM441.232 78.6H442.232V77.6H441.232V78.6ZM417.832 78.6H416.832V79.6H417.832V78.6ZM417.832 57V56H416.832V57H417.832ZM473.632 57H474.632V56H473.632V57ZM473.526 125.306C445.474 128.303 419.71 129.8 396.232 129.8V131.8C419.794 131.8 445.63 130.297 473.738 127.294L473.526 125.306ZM396.232 129.8C384.605 129.8 376.275 127.069 371.019 121.813L369.605 123.227C375.389 129.011 384.339 131.8 396.232 131.8V129.8ZM371.019 121.813C365.763 116.557 363.032 108.227 363.032 96.6H361.032C361.032 108.493 363.821 117.443 369.605 123.227L371.019 121.813ZM363.032 96.6V39H361.032V96.6H363.032ZM363.032 39C363.032 26.5165 365.831 17.7156 371.199 12.3471L369.785 10.9329C363.873 16.8444 361.032 26.2835 361.032 39H363.032ZM371.199 12.3471C376.691 6.85535 385.556 3.99999 398.032 3.99999V1.99999C385.308 1.99999 375.813 4.90464 369.785 10.9329L371.199 12.3471ZM398.032 3.99999H462.832V1.99999H398.032V3.99999ZM461.832 2.99999V28.2H463.832V2.99999H461.832ZM462.832 27.2H405.232V29.2H462.832V27.2ZM405.232 27.2C401.478 27.2 398.479 28.1392 396.425 30.1929C394.371 32.2466 393.432 35.2459 393.432 39H395.432C395.432 35.5541 396.293 33.1534 397.839 31.6071C399.385 30.0608 401.786 29.2 405.232 29.2V27.2ZM393.432 39V96.6H395.432V39H393.432ZM393.432 96.6C393.432 99.558 394.274 102.039 396.039 103.94L397.505 102.58C396.15 101.121 395.432 99.162 395.432 96.6H393.432ZM396.092 103.993C397.993 105.758 400.474 106.6 403.432 106.6V104.6C400.87 104.6 398.911 103.882 397.453 102.527L396.092 103.993ZM403.432 106.6C417.246 106.6 429.864 106.3 441.285 105.699L441.18 103.701C429.8 104.3 417.218 104.6 403.432 104.6V106.6ZM442.232 104.7V78.6H440.232V104.7H442.232ZM441.232 77.6H417.832V79.6H441.232V77.6ZM418.832 78.6V57H416.832V78.6H418.832ZM417.832 58H473.632V56H417.832V58ZM472.632 57V126.3H474.632V57H472.632ZM541.852 102.9L541.907 101.901L540.852 101.844V102.9H541.852ZM615.112 103.26L614.405 102.553L615.112 103.26ZM617.632 80.4H618.632V79.4H617.632V80.4ZM548.692 71.94L547.978 72.6396L547.985 72.6471L547.992 72.6545L548.692 71.94ZM548.692 11.64L549.399 12.3471L549.399 12.3471L548.692 11.64ZM639.412 2.99999H640.412V1.99999H639.412V2.99999ZM639.412 28.2V29.2H640.412V28.2H639.412ZM641.752 122.52L641.045 121.813L641.752 122.52ZM596.392 130.44L596.349 131.439L596.357 131.439L596.392 130.44ZM579.832 129.72L579.783 130.719L579.789 130.719L579.832 129.72ZM541.852 127.2H540.852V128.121L541.77 128.197L541.852 127.2ZM541.797 103.898C574.674 105.698 596.961 106.6 608.632 106.6V104.6C597.024 104.6 574.79 103.702 541.907 101.901L541.797 103.898ZM608.632 106.6C611.587 106.6 614.027 105.759 615.819 103.967L614.405 102.553C613.077 103.881 611.197 104.6 608.632 104.6V106.6ZM615.819 103.967C617.717 102.069 618.632 99.5789 618.632 96.6H616.632C616.632 99.1411 615.867 101.091 614.405 102.553L615.819 103.967ZM618.632 96.6V80.4H616.632V96.6H618.632ZM617.632 79.4H576.232V81.4H617.632V79.4ZM576.232 79.4C563.751 79.4 554.883 76.6024 549.392 71.2255L547.992 72.6545C554.021 78.5576 563.513 81.4 576.232 81.4V79.4ZM549.407 71.2404C544.03 65.7491 541.232 56.8811 541.232 44.4H539.232C539.232 57.1189 542.074 66.6109 547.978 72.6396L549.407 71.2404ZM541.232 44.4V39H539.232V44.4H541.232ZM541.232 39C541.232 26.5165 544.031 17.7156 549.399 12.3471L547.985 10.9329C542.073 16.8444 539.232 26.2835 539.232 39H541.232ZM549.399 12.3471C554.891 6.85535 563.756 3.99999 576.232 3.99999V1.99999C563.508 1.99999 554.013 4.90464 547.985 10.9329L549.399 12.3471ZM576.232 3.99999H639.412V1.99999H576.232V3.99999ZM638.412 2.99999V28.2H640.412V2.99999H638.412ZM639.412 27.2H583.432V29.2H639.412V27.2ZM583.432 27.2C579.678 27.2 576.679 28.1392 574.625 30.1929C572.571 32.2466 571.632 35.2459 571.632 39H573.632C573.632 35.5541 574.493 33.1534 576.039 31.6071C577.585 30.0608 579.986 29.2 583.432 29.2V27.2ZM571.632 39V42.6H573.632V39H571.632ZM571.632 42.6C571.632 46.3541 572.571 49.3534 574.625 51.4071C576.679 53.4608 579.678 54.4 583.432 54.4V52.4C579.986 52.4 577.585 51.5392 576.039 49.9929C574.493 48.4466 573.632 46.0459 573.632 42.6H571.632ZM583.432 54.4H615.832V52.4H583.432V54.4ZM615.832 54.4C627.459 54.4 635.789 57.1312 641.045 62.3871L642.459 60.9729C636.675 55.1888 627.725 52.4 615.832 52.4V54.4ZM641.045 62.3871C646.301 67.643 649.032 75.9727 649.032 87.6H651.032C651.032 75.7073 648.243 66.757 642.459 60.9729L641.045 62.3871ZM649.032 87.6V96.6H651.032V87.6H649.032ZM649.032 96.6C649.032 108.227 646.301 116.557 641.045 121.813L642.459 123.227C648.243 117.443 651.032 108.493 651.032 96.6H649.032ZM641.045 121.813C635.789 127.069 627.459 129.8 615.832 129.8V131.8C627.725 131.8 636.675 129.011 642.459 123.227L641.045 121.813ZM615.832 129.8C609.725 129.8 603.257 129.68 596.427 129.441L596.357 131.439C603.207 131.68 609.699 131.8 615.832 131.8V129.8ZM596.435 129.441L579.875 128.721L579.789 130.719L596.349 131.439L596.435 129.441ZM579.881 128.721C567.653 128.122 555.004 127.283 541.934 126.203L541.77 128.197C554.86 129.277 567.531 130.118 579.783 130.719L579.881 128.721ZM542.852 127.2V102.9H540.852V127.2H542.852ZM666.218 2.99999V1.99999H665.218V2.99999H666.218ZM769.178 11.64L768.463 12.3396L768.471 12.3471L768.478 12.3545L769.178 11.64ZM769.178 84.54L769.885 85.2471L769.178 84.54ZM698.618 93V92H697.618V93H698.618ZM698.618 129V130H699.618V129H698.618ZM666.218 129H665.218V130H666.218V129ZM698.618 28.2V27.2H697.618V28.2H698.618ZM698.618 67.8H697.618V68.8H698.618V67.8ZM666.218 3.99999H741.818V1.99999H666.218V3.99999ZM741.818 3.99999C754.297 3.99999 763.094 6.85634 768.463 12.3396L769.892 10.9404C763.982 4.90365 754.539 1.99999 741.818 1.99999V3.99999ZM768.478 12.3545C773.962 17.7236 776.818 26.5213 776.818 39H778.818C778.818 26.2787 775.914 16.8364 769.878 10.9255L768.478 12.3545ZM776.818 39V57H778.818V39H776.818ZM776.818 57C776.818 69.4763 773.963 78.3411 768.471 83.8329L769.885 85.2471C775.913 79.2189 778.818 69.7237 778.818 57H776.818ZM768.471 83.8329C763.102 89.2014 754.302 92 741.818 92V94C754.534 94 763.974 91.1586 769.885 85.2471L768.471 83.8329ZM741.818 92H698.618V94H741.818V92ZM697.618 93V129H699.618V93H697.618ZM698.618 128H666.218V130H698.618V128ZM667.218 129V2.99999H665.218V129H667.218ZM746.418 39C746.418 35.2459 745.479 32.2466 743.425 30.1929C741.371 28.1392 738.372 27.2 734.618 27.2V29.2C738.064 29.2 740.465 30.0608 742.011 31.6071C743.557 33.1534 744.418 35.5541 744.418 39H746.418ZM734.618 27.2H698.618V29.2H734.618V27.2ZM697.618 28.2V67.8H699.618V28.2H697.618ZM698.618 68.8H734.618V66.8H698.618V68.8ZM734.618 68.8C738.372 68.8 741.371 67.8608 743.425 65.8071C745.479 63.7534 746.418 60.7541 746.418 57H744.418C744.418 60.4459 743.557 62.8466 742.011 64.3929C740.465 65.9392 738.064 66.8 734.618 66.8V68.8ZM746.418 57V39H744.418V57H746.418ZM898.771 122.34L898.064 121.633L898.771 122.34ZM798.871 122.34L798.156 123.04L798.164 123.047L798.171 123.055L798.871 122.34ZM798.871 9.83999L798.164 9.13288L798.871 9.83999ZM898.771 9.83999L898.056 10.5396L898.064 10.5471L898.071 10.5545L898.771 9.83999ZM876.011 37.2C876.011 33.4458 875.072 30.4466 873.018 28.3929C870.964 26.3392 867.965 25.4 864.211 25.4V27.4C867.657 27.4 870.057 28.2608 871.604 29.8071C873.15 31.3534 874.011 33.7541 874.011 37.2H876.011ZM864.211 25.4H833.611V27.4H864.211V25.4ZM833.611 25.4C829.857 25.4 826.858 26.3392 824.804 28.3929C822.75 30.4466 821.811 33.4458 821.811 37.2H823.811C823.811 33.7541 824.672 31.3534 826.218 29.8071C827.764 28.2608 830.165 27.4 833.611 27.4V25.4ZM821.811 37.2V94.8H823.811V37.2H821.811ZM821.811 94.8C821.811 98.5541 822.75 101.553 824.804 103.607C826.858 105.661 829.857 106.6 833.611 106.6V104.6C830.165 104.6 827.764 103.739 826.218 102.193C824.672 100.647 823.811 98.2458 823.811 94.8H821.811ZM833.611 106.6H864.211V104.6H833.611V106.6ZM864.211 106.6C867.965 106.6 870.964 105.661 873.018 103.607C875.072 101.553 876.011 98.5541 876.011 94.8H874.011C874.011 98.2458 873.15 100.647 871.604 102.193C870.057 103.739 867.657 104.6 864.211 104.6V106.6ZM876.011 94.8V37.2H874.011V94.8H876.011ZM906.411 94.8C906.411 107.276 903.556 116.141 898.064 121.633L899.478 123.047C905.506 117.019 908.411 107.524 908.411 94.8H906.411ZM898.064 121.633C892.695 127.001 883.895 129.8 871.411 129.8V131.8C884.127 131.8 893.567 128.959 899.478 123.047L898.064 121.633ZM871.411 129.8H826.411V131.8H871.411V129.8ZM826.411 129.8C813.93 129.8 805.062 127.002 799.571 121.625L798.171 123.055C804.2 128.958 813.692 131.8 826.411 131.8V129.8ZM799.585 121.64C794.209 116.149 791.411 107.281 791.411 94.8H789.411C789.411 107.519 792.253 117.011 798.156 123.04L799.585 121.64ZM791.411 94.8V37.2H789.411V94.8H791.411ZM791.411 37.2C791.411 24.7165 794.21 15.9156 799.578 10.5471L798.164 9.13288C792.252 15.0444 789.411 24.4835 789.411 37.2H791.411ZM799.578 10.5471C805.07 5.05535 813.935 2.19999 826.411 2.19999V0.199993C813.687 0.199993 804.192 3.10464 798.164 9.13288L799.578 10.5471ZM826.411 2.19999H871.411V0.199993H826.411V2.19999ZM871.411 2.19999C883.89 2.19999 892.687 5.05634 898.056 10.5396L899.485 9.14037C893.574 3.10365 884.132 0.199993 871.411 0.199993V2.19999ZM898.071 10.5545C903.555 15.9235 906.411 24.7213 906.411 37.2H908.411C908.411 24.4787 905.507 15.0364 899.471 9.12548L898.071 10.5545ZM906.411 37.2V94.8H908.411V37.2H906.411ZM925.495 2.99999V1.99999H924.495V2.99999H925.495ZM1028.46 11.64L1027.74 12.3396L1027.75 12.3471L1027.76 12.3545L1028.46 11.64ZM1032.06 78.42L1031.2 77.9L1031.2 77.9069L1031.19 77.9138L1032.06 78.42ZM1016.4 89.4L1016.15 88.4299L1014.88 88.7492L1015.53 89.894L1016.4 89.4ZM1038.9 129V130H1040.61L1039.76 128.506L1038.9 129ZM1003.8 129L1002.92 129.48L1003.2 130H1003.8V129ZM983.095 91.2L983.972 90.7197L983.688 90.2H983.095V91.2ZM957.895 91.2V90.2H956.895V91.2H957.895ZM957.895 129V130H958.895V129H957.895ZM925.495 129H924.495V130H925.495V129ZM957.895 28.2V27.2H956.895V28.2H957.895ZM957.895 66H956.895V67H957.895V66ZM925.495 3.99999H1001.1V1.99999H925.495V3.99999ZM1001.1 3.99999C1013.57 3.99999 1022.37 6.85634 1027.74 12.3396L1029.17 10.9404C1023.26 4.90365 1013.82 1.99999 1001.1 1.99999V3.99999ZM1027.76 12.3545C1033.24 17.7236 1036.1 26.5213 1036.1 39H1038.1C1038.1 26.2787 1035.19 16.8364 1029.15 10.9255L1027.76 12.3545ZM1036.1 39V55.2H1038.1V39H1036.1ZM1036.1 55.2C1036.1 65.0679 1034.43 72.5997 1031.2 77.9L1032.91 78.9399C1036.4 73.2003 1038.1 65.2521 1038.1 55.2H1036.1ZM1031.19 77.9138C1028.11 83.165 1023.14 86.6837 1016.15 88.4299L1016.64 90.3701C1024.05 88.5163 1029.52 84.715 1032.92 78.9262L1031.19 77.9138ZM1015.53 89.894L1038.03 129.494L1039.76 128.506L1017.26 88.906L1015.53 89.894ZM1038.9 128H1003.8V130H1038.9V128ZM1004.67 128.52L983.972 90.7197L982.218 91.6803L1002.92 129.48L1004.67 128.52ZM983.095 90.2H957.895V92.2H983.095V90.2ZM956.895 91.2V129H958.895V91.2H956.895ZM957.895 128H925.495V130H957.895V128ZM926.495 129V2.99999H924.495V129H926.495ZM1005.7 39C1005.7 35.2459 1004.76 32.2466 1002.7 30.1929C1000.65 28.1392 997.649 27.2 993.895 27.2V29.2C997.341 29.2 999.742 30.0608 1001.29 31.6071C1002.83 33.1534 1003.7 35.5541 1003.7 39H1005.7ZM993.895 27.2H957.895V29.2H993.895V27.2ZM956.895 28.2V66H958.895V28.2H956.895ZM957.895 67H993.895V65H957.895V67ZM993.895 67C997.649 67 1000.65 66.0608 1002.7 64.0071C1004.76 61.9534 1005.7 58.9541 1005.7 55.2H1003.7C1003.7 58.6459 1002.83 61.0466 1001.29 62.5929C999.742 64.1392 997.341 65 993.895 65V67ZM1005.7 55.2V39H1003.7V55.2H1005.7ZM1116.25 129V130H1117.25V129H1116.25ZM1083.85 129H1082.85V130H1083.85V129ZM1083.85 28.2H1084.85V27.2H1083.85V28.2ZM1046.05 28.2H1045.05V29.2H1046.05V28.2ZM1046.05 2.99999V1.99999H1045.05V2.99999H1046.05ZM1154.05 2.99999H1155.05V1.99999H1154.05V2.99999ZM1154.05 28.2V29.2H1155.05V28.2H1154.05ZM1116.25 28.2V27.2H1115.25V28.2H1116.25ZM1116.25 128H1083.85V130H1116.25V128ZM1084.85 129V28.2H1082.85V129H1084.85ZM1083.85 27.2H1046.05V29.2H1083.85V27.2ZM1047.05 28.2V2.99999H1045.05V28.2H1047.05ZM1046.05 3.99999H1154.05V1.99999H1046.05V3.99999ZM1153.05 2.99999V28.2H1155.05V2.99999H1153.05ZM1154.05 27.2H1116.25V29.2H1154.05V27.2ZM1115.25 28.2V129H1117.25V28.2H1115.25ZM1150.54 78.6H1149.54V79.6H1150.54V78.6ZM1150.54 53.4V52.4H1149.54V53.4H1150.54ZM1224.34 53.4H1225.34V52.4H1224.34V53.4ZM1224.34 78.6V79.6H1225.34V78.6H1224.34ZM1151.54 78.6V53.4H1149.54V78.6H1151.54ZM1150.54 54.4H1224.34V52.4H1150.54V54.4ZM1223.34 53.4V78.6H1225.34V53.4H1223.34ZM1224.34 77.6H1150.54V79.6H1224.34V77.6ZM1348.5 126.3L1348.6 127.294L1349.5 127.199V126.3H1348.5ZM1245.18 122.52L1245.88 121.813L1245.18 122.52ZM1245.36 11.64L1246.06 12.3471V12.3471L1245.36 11.64ZM1337.7 2.99999H1338.7V1.99999H1337.7V2.99999ZM1337.7 28.2V29.2H1338.7V28.2H1337.7ZM1271.64 103.26L1270.9 103.94L1270.93 103.968L1270.95 103.993L1271.64 103.26ZM1316.1 104.7L1316.15 105.699L1317.1 105.649V104.7H1316.1ZM1316.1 78.6H1317.1V77.6H1316.1V78.6ZM1292.7 78.6H1291.7V79.6H1292.7V78.6ZM1292.7 57V56H1291.7V57H1292.7ZM1348.5 57H1349.5V56H1348.5V57ZM1348.39 125.306C1320.34 128.303 1294.57 129.8 1271.1 129.8V131.8C1294.66 131.8 1320.49 130.297 1348.6 127.294L1348.39 125.306ZM1271.1 129.8C1259.47 129.8 1251.14 127.069 1245.88 121.813L1244.47 123.227C1250.25 129.011 1259.2 131.8 1271.1 131.8V129.8ZM1245.88 121.813C1240.63 116.557 1237.9 108.227 1237.9 96.6H1235.9C1235.9 108.493 1238.68 117.443 1244.47 123.227L1245.88 121.813ZM1237.9 96.6V39H1235.9V96.6H1237.9ZM1237.9 39C1237.9 26.5165 1240.69 17.7156 1246.06 12.3471L1244.65 10.9329C1238.74 16.8444 1235.9 26.2835 1235.9 39H1237.9ZM1246.06 12.3471C1251.55 6.85535 1260.42 3.99999 1272.9 3.99999V1.99999C1260.17 1.99999 1250.68 4.90464 1244.65 10.9329L1246.06 12.3471ZM1272.9 3.99999H1337.7V1.99999H1272.9V3.99999ZM1336.7 2.99999V28.2H1338.7V2.99999H1336.7ZM1337.7 27.2H1280.1V29.2H1337.7V27.2ZM1280.1 27.2C1276.34 27.2 1273.34 28.1392 1271.29 30.1929C1269.23 32.2466 1268.3 35.2459 1268.3 39H1270.3C1270.3 35.5541 1271.16 33.1534 1272.7 31.6071C1274.25 30.0608 1276.65 29.2 1280.1 29.2V27.2ZM1268.3 39V96.6H1270.3V39H1268.3ZM1268.3 96.6C1268.3 99.558 1269.14 102.039 1270.9 103.94L1272.37 102.58C1271.01 101.121 1270.3 99.162 1270.3 96.6H1268.3ZM1270.95 103.993C1272.86 105.758 1275.34 106.6 1278.3 106.6V104.6C1275.73 104.6 1273.77 103.882 1272.32 102.527L1270.95 103.993ZM1278.3 106.6C1292.11 106.6 1304.73 106.3 1316.15 105.699L1316.04 103.701C1304.66 104.3 1292.08 104.6 1278.3 104.6V106.6ZM1317.1 104.7V78.6H1315.1V104.7H1317.1ZM1316.1 77.6H1292.7V79.6H1316.1V77.6ZM1293.7 78.6V57H1291.7V78.6H1293.7ZM1292.7 58H1348.5V56H1292.7V58ZM1347.5 57V126.3H1349.5V57H1347.5ZM1418.77 129V130H1419.77V129H1418.77ZM1386.37 129H1385.37V130H1386.37V129ZM1386.37 28.2H1387.37V27.2H1386.37V28.2ZM1348.57 28.2H1347.57V29.2H1348.57V28.2ZM1348.57 2.99999V1.99999H1347.57V2.99999H1348.57ZM1456.57 2.99999H1457.57V1.99999H1456.57V2.99999ZM1456.57 28.2V29.2H1457.57V28.2H1456.57ZM1418.77 28.2V27.2H1417.77V28.2H1418.77ZM1418.77 128H1386.37V130H1418.77V128ZM1387.37 129V28.2H1385.37V129H1387.37ZM1386.37 27.2H1348.57V29.2H1386.37V27.2ZM1349.57 28.2V2.99999H1347.57V28.2H1349.57ZM1348.57 3.99999H1456.57V1.99999H1348.57V3.99999ZM1455.57 2.99999V28.2H1457.57V2.99999H1455.57ZM1456.57 27.2H1418.77V29.2H1456.57V27.2ZM1417.77 28.2V129H1419.77V28.2H1417.77Z" fill="white" fill-opacity="0.11"/>
</svg>
