<svg width="179" height="27" viewBox="0 0 179 27" fill="none" xmlns="http://www.w3.org/2000/svg">
<path d="M3.14303 16.52L3.25236 14.523L1.14303 14.4075V16.52H3.14303ZM12.911 16.568L11.4968 15.1538L11.4968 15.1538L12.911 16.568ZM13.247 13.52H15.247V11.52H13.247V13.52ZM4.05503 12.392L2.62601 13.7912L2.64074 13.8063L2.65578 13.821L4.05503 12.392ZM4.05503 4.352L5.46924 5.76621L5.46925 5.76621L4.05503 4.352ZM16.151 3.2H18.151V1.2H16.151V3.2ZM16.151 6.56V8.56H18.151V6.56H16.151ZM16.463 19.136L15.0488 17.7218L15.0488 17.7218L16.463 19.136ZM10.415 20.192L10.3282 22.1901L10.3365 22.1905L10.3449 22.1908L10.415 20.192ZM8.20703 20.096L8.10911 22.0936L8.12016 22.0941L8.20703 20.096ZM3.14303 19.76H1.14303V21.6017L2.97845 21.7532L3.14303 19.76ZM3.03371 18.517C7.41101 18.7566 10.432 18.88 12.047 18.88V14.88C10.558 14.88 7.64306 14.7634 3.25236 14.523L3.03371 18.517ZM12.047 18.88C12.8049 18.88 13.6532 18.6542 14.3252 17.9822L11.4968 15.1538C11.6091 15.0415 11.7391 14.9645 11.8597 14.9209C11.9726 14.8802 12.0448 14.88 12.047 14.88V18.88ZM14.3252 17.9822C14.9852 17.3223 15.247 16.4857 15.247 15.68H11.247C11.247 15.6609 11.2502 15.582 11.2925 15.4702C11.3369 15.3528 11.4085 15.2421 11.4968 15.1538L14.3252 17.9822ZM15.247 15.68V13.52H11.247V15.68H15.247ZM13.247 11.52H7.72703V15.52H13.247V11.52ZM7.72703 11.52C6.28486 11.52 5.68491 11.1888 5.45428 10.963L2.65578 13.821C3.96116 15.0992 5.80921 15.52 7.72703 15.52V11.52ZM5.48405 10.9928C5.25823 10.7621 4.92703 10.1622 4.92703 8.72H0.927031C0.927031 10.6378 1.34783 12.4859 2.62601 13.7912L5.48405 10.9928ZM4.92703 8.72V8H0.927031V8.72H4.92703ZM4.92703 8C4.92703 6.55293 5.26027 5.97519 5.46924 5.76621L2.64082 2.93779C1.34579 4.23281 0.927031 6.08707 0.927031 8H4.92703ZM5.46925 5.76621C5.70075 5.53471 6.29439 5.2 7.72703 5.2V1.2C5.79967 1.2 3.94531 1.63329 2.64082 2.93779L5.46925 5.76621ZM7.72703 5.2H16.151V1.2H7.72703V5.2ZM14.151 3.2V6.56H18.151V3.2H14.151ZM16.151 4.56H8.68703V8.56H16.151V4.56ZM8.68703 4.56C7.89874 4.56 6.94018 4.75843 6.19282 5.50579C5.44546 6.25315 5.24703 7.21171 5.24703 8H9.24703C9.24703 7.82829 9.2886 8.06685 9.02125 8.33421C8.75389 8.60157 8.51532 8.56 8.68703 8.56V4.56ZM5.24703 8V8.48H9.24703V8H5.24703ZM5.24703 8.48C5.24703 9.26829 5.44546 10.2269 6.19282 10.9742C6.94018 11.7216 7.89874 11.92 8.68703 11.92V7.92C8.51532 7.92 8.75389 7.87843 9.02125 8.14579C9.2886 8.41315 9.24703 8.65171 9.24703 8.48H5.24703ZM8.68703 11.92H13.007V7.92H8.68703V11.92ZM13.007 11.92C14.3096 11.92 14.8409 12.2303 15.0488 12.4382L17.8772 9.60979C16.6131 8.34566 14.8405 7.92 13.007 7.92V11.92ZM15.0488 12.4382C15.2567 12.6461 15.567 13.1774 15.567 14.48H19.567C19.567 12.6466 19.1414 10.8739 17.8772 9.60979L15.0488 12.4382ZM15.567 14.48V15.68H19.567V14.48H15.567ZM15.567 15.68C15.567 16.9826 15.2567 17.5139 15.0488 17.7218L17.8772 20.5502C19.1414 19.2861 19.567 17.5134 19.567 15.68H15.567ZM15.0488 17.7218C14.8409 17.9297 14.3096 18.24 13.007 18.24V22.24C14.8405 22.24 16.6131 21.8143 17.8772 20.5502L15.0488 17.7218ZM13.007 18.24C12.217 18.24 11.3765 18.2245 10.4852 18.1932L10.3449 22.1908C11.2776 22.2235 12.1651 22.24 13.007 22.24V18.24ZM10.5019 18.1939L8.29391 18.0979L8.12016 22.0941L10.3282 22.1901L10.5019 18.1939ZM8.30495 18.0984C6.69669 18.0196 5.03096 17.9091 3.30761 17.7668L2.97845 21.7532C4.7431 21.8989 6.45337 22.0124 8.10911 22.0936L8.30495 18.0984ZM5.14303 19.76V16.52H1.14303V19.76H5.14303ZM23.6852 11L23.1131 9.08356L21.6852 9.50981V11H23.6852ZM23.6852 16.76H21.6852V18.76H23.6852V16.76ZM28.0052 10.76L29.4194 9.34579L29.4194 9.34578L28.0052 10.76ZM23.6852 20V18H21.6852V20H23.6852ZM23.6852 24.08V26.08H25.6852V24.08H23.6852ZM19.4852 24.08H17.4852V26.08H19.4852V24.08ZM19.4852 7.28V5.28H17.4852V7.28H19.4852ZM23.2052 7.28L25.1663 6.88777L24.8448 5.28H23.2052V7.28ZM23.4452 8.48L21.484 8.87223L22.0666 11.7851L24.5463 10.1495L23.4452 8.48ZM25.7492 7.4L26.2986 9.32305L26.3112 9.31943L26.3239 9.31565L25.7492 7.4ZM31.4612 8.024L30.0469 9.43821L30.0469 9.43821L31.4612 8.024ZM31.4132 18.992L32.8274 20.4062L32.8274 20.4062L31.4132 18.992ZM26.5652 8.52C25.473 8.52 24.3152 8.72471 23.1131 9.08356L24.2572 12.9164C25.1991 12.6353 25.9613 12.52 26.5652 12.52V8.52ZM21.6852 11V16.76H25.6852V11H21.6852ZM23.6852 18.76H27.2852V14.76H23.6852V18.76ZM27.2852 18.76C27.9134 18.76 28.752 18.6016 29.4194 17.9342C30.0867 17.2669 30.2452 16.4283 30.2452 15.8H26.2452C26.2452 15.7993 26.2445 15.7173 26.2878 15.5875C26.3343 15.4481 26.4266 15.2701 26.5909 15.1058C26.7553 14.9415 26.9333 14.8491 27.0727 14.8026C27.2024 14.7594 27.2845 14.76 27.2852 14.76V18.76ZM30.2452 15.8V11.36H26.2452V15.8H30.2452ZM30.2452 11.36C30.2452 10.6253 29.979 9.90538 29.4194 9.34579L26.5909 12.1742C26.4893 12.0725 26.3938 11.9369 26.3282 11.7728C26.2635 11.611 26.2452 11.4654 26.2452 11.36H30.2452ZM29.4194 9.34578C28.8598 8.7862 28.1399 8.52 27.4052 8.52V12.52C27.2997 12.52 27.1541 12.5017 26.9924 12.437C26.8283 12.3713 26.6926 12.2759 26.5909 12.1742L29.4194 9.34578ZM27.4052 8.52H26.5652V12.52H27.4052V8.52ZM21.6852 20V24.08H25.6852V20H21.6852ZM23.6852 22.08H19.4852V26.08H23.6852V22.08ZM21.4852 24.08V7.28H17.4852V24.08H21.4852ZM19.4852 9.28H23.2052V5.28H19.4852V9.28ZM21.244 7.67223L21.484 8.87223L25.4063 8.08777L25.1663 6.88777L21.244 7.67223ZM24.5463 10.1495C25.1461 9.75399 25.7297 9.48559 26.2986 9.32305L25.1997 5.47695C24.2006 5.76241 23.2483 6.21401 22.344 6.81045L24.5463 10.1495ZM26.3239 9.31565C27.0258 9.10506 27.4905 9.04 27.7652 9.04V5.04C26.9518 5.04 26.0725 5.21494 25.1745 5.48435L26.3239 9.31565ZM27.7652 9.04H28.8452V5.04H27.7652V9.04ZM28.8452 9.04C29.5015 9.04 29.8305 9.2218 30.0469 9.43821L32.8754 6.60979C31.7798 5.5142 30.3648 5.04 28.8452 5.04V9.04ZM30.0469 9.43821C30.2634 9.65463 30.4452 9.98364 30.4452 10.64H34.4452C34.4452 9.12035 33.971 7.70537 32.8754 6.60979L30.0469 9.43821ZM30.4452 10.64V16.16H34.4452V10.64H30.4452ZM30.4452 16.16C30.4452 16.9609 30.2282 17.3485 29.9989 17.5778L32.8274 20.4062C33.9741 19.2595 34.4452 17.7591 34.4452 16.16H30.4452ZM29.9989 17.5778C29.7944 17.7824 29.4214 18 28.6052 18V22C30.1889 22 31.6879 21.5456 32.8274 20.4062L29.9989 17.5778ZM28.6052 18H23.6852V22H28.6052V18ZM38.5623 12.32H36.5623V14.32H38.5623V12.32ZM42.6423 12.32V14.32H44.6423V12.32H42.6423ZM46.3623 19.76L46.5685 21.7493L48.3623 21.5635V19.76H46.3623ZM35.3463 19.256L33.9321 20.6702L33.9321 20.6702L35.3463 19.256ZM35.3703 8.072L36.7846 9.48621L36.7846 9.48621L35.3703 8.072ZM45.8103 8.072L44.3796 9.46948L44.396 9.48631L44.4129 9.50275L45.8103 8.072ZM46.8423 15.32V17.32H48.8423V15.32H46.8423ZM38.5623 15.32V13.32H36.5623V15.32H38.5623ZM38.8023 16.88L40.2166 15.4658L40.2166 15.4658L38.8023 16.88ZM46.3623 16.76H48.3623V14.5968L46.2058 14.7661L46.3623 16.76ZM39.5223 8.04C38.8941 8.04 38.0555 8.19843 37.3881 8.86579C36.7208 9.53314 36.5623 10.3717 36.5623 11H40.5623C40.5623 11.0007 40.563 11.0827 40.5197 11.2125C40.4732 11.3519 40.3809 11.5299 40.2166 11.6942C40.0522 11.8585 39.8742 11.9509 39.7348 11.9974C39.6051 12.0406 39.523 12.04 39.5223 12.04V8.04ZM36.5623 11V12.32H40.5623V11H36.5623ZM38.5623 14.32H42.6423V10.32H38.5623V14.32ZM44.6423 12.32V11H40.6423V12.32H44.6423ZM44.6423 11C44.6423 10.3717 44.4839 9.53315 43.8166 8.86579C43.1492 8.19843 42.3106 8.04 41.6823 8.04V12.04C41.6816 12.04 41.5996 12.0406 41.4699 11.9974C41.3305 11.9509 41.1525 11.8585 40.9881 11.6942C40.8238 11.5299 40.7314 11.3519 40.685 11.2125C40.6417 11.0827 40.6423 11.0007 40.6423 11H44.6423ZM41.6823 8.04H39.5223V12.04H41.6823V8.04ZM46.1562 17.7707C43.1214 18.0851 40.3917 18.24 37.9623 18.24V22.24C40.557 22.24 43.4272 22.0749 46.5685 21.7493L46.1562 17.7707ZM37.9623 18.24C37.306 18.24 36.977 18.0582 36.7606 17.8418L33.9321 20.6702C35.0277 21.7658 36.4427 22.24 37.9623 22.24V18.24ZM36.7606 17.8418C36.5441 17.6254 36.3623 17.2964 36.3623 16.64H32.3623C32.3623 18.1596 32.8365 19.5746 33.9321 20.6702L36.7606 17.8418ZM36.3623 16.64V10.88H32.3623V16.64H36.3623ZM36.3623 10.88C36.3623 10.0637 36.58 9.69079 36.7846 9.48621L33.9561 6.65779C32.8167 7.79721 32.3623 9.29625 32.3623 10.88H36.3623ZM36.7846 9.48621C37.0139 9.25692 37.4015 9.04 38.2023 9.04V5.04C36.6032 5.04 35.1028 5.51108 33.9561 6.65779L36.7846 9.48621ZM38.2023 9.04H43.0023V5.04H38.2023V9.04ZM43.0023 9.04C43.8053 9.04 44.1725 9.25746 44.3796 9.46948L47.2411 6.67452C46.1042 5.51054 44.5994 5.04 43.0023 5.04V9.04ZM44.4129 9.50275C44.6249 9.70984 44.8423 10.077 44.8423 10.88H48.8423C48.8423 9.28296 48.3718 7.77816 47.2078 6.64125L44.4129 9.50275ZM44.8423 10.88V15.32H48.8423V10.88H44.8423ZM46.8423 13.32H38.5623V17.32H46.8423V13.32ZM36.5623 15.32V16.28H40.5623V15.32H36.5623ZM36.5623 16.28C36.5623 17.0147 36.8285 17.7346 37.3881 18.2942L40.2166 15.4658C40.3182 15.5675 40.4137 15.7031 40.4793 15.8672C40.544 16.029 40.5623 16.1746 40.5623 16.28H36.5623ZM37.3881 18.2942C37.9477 18.8538 38.6676 19.12 39.4023 19.12V15.12C39.5078 15.12 39.6534 15.1383 39.8151 15.203C39.9792 15.2687 40.1149 15.3641 40.2166 15.4658L37.3881 18.2942ZM39.4023 19.12C41.0666 19.12 43.4494 18.9949 46.5189 18.7539L46.2058 14.7661C43.1633 15.0051 40.9061 15.12 39.4023 15.12V19.12ZM44.3623 16.76V19.76H48.3623V16.76H44.3623ZM60.273 19.76L60.4857 21.7487L62.273 21.5575V19.76H60.273ZM49.737 19.256L48.3228 20.6702L48.3228 20.6702L49.737 19.256ZM49.761 8.312L51.1752 9.72621L51.1752 9.72621L49.761 8.312ZM60.273 7.28H62.273V5.28H60.273V7.28ZM60.273 10.52V12.52H62.273V10.52H60.273ZM60.273 16.64H62.273V14.4664L60.1069 14.6469L60.273 16.64ZM60.0603 17.7713C57.1183 18.086 54.5519 18.24 52.353 18.24V22.24C54.7301 22.24 57.4436 22.074 60.4857 21.7487L60.0603 17.7713ZM52.353 18.24C51.6966 18.24 51.3676 18.0582 51.1512 17.8418L48.3228 20.6702C49.4183 21.7658 50.8333 22.24 52.353 22.24V18.24ZM51.1512 17.8418C50.9348 17.6254 50.753 17.2964 50.753 16.64H46.753C46.753 18.1596 47.2272 19.5746 48.3228 20.6702L51.1512 17.8418ZM50.753 16.64V11.12H46.753V16.64H50.753ZM50.753 11.12C50.753 10.3037 50.9706 9.93079 51.1752 9.72621L48.3468 6.89779C47.2073 8.03721 46.753 9.53625 46.753 11.12H50.753ZM51.1752 9.72621C51.4045 9.49692 51.7921 9.28 52.593 9.28V5.28C50.9938 5.28 49.4935 5.75108 48.3468 6.89779L51.1752 9.72621ZM52.593 9.28H60.273V5.28H52.593V9.28ZM58.273 7.28V10.52H62.273V7.28H58.273ZM60.273 8.52H53.913V12.52H60.273V8.52ZM53.913 8.52C53.2847 8.52 52.4461 8.67843 51.7788 9.34579C51.1114 10.0131 50.953 10.8517 50.953 11.48H54.953C54.953 11.4807 54.9536 11.5627 54.9103 11.6925C54.8639 11.8319 54.7715 12.0099 54.6072 12.1742C54.4429 12.3385 54.2648 12.4309 54.1254 12.4774C53.9957 12.5206 53.9137 12.52 53.913 12.52V8.52ZM50.953 11.48V16.16H54.953V11.48H50.953ZM50.953 16.16C50.953 16.8947 51.2192 17.6146 51.7788 18.1742L54.6072 15.3458C54.7089 15.4475 54.8043 15.5831 54.8699 15.7472C54.9346 15.909 54.953 16.0546 54.953 16.16H50.953ZM51.7788 18.1742C52.3383 18.7338 53.0582 19 53.793 19V15C53.8984 15 54.044 15.0183 54.2058 15.083C54.3698 15.1487 54.5055 15.2441 54.6072 15.3458L51.7788 18.1742ZM53.793 19C55.3194 19 57.5471 18.8741 60.4391 18.6331L60.1069 14.6469C57.2389 14.8859 55.1466 15 53.793 15V19ZM58.273 16.64V19.76H62.273V16.64H58.273ZM67.4683 7.76H69.4683V5.76H67.4683V7.76ZM67.4683 20V22H69.4683V20H67.4683ZM63.2683 20H61.2683V22H63.2683V20ZM63.2683 11H65.2683V9H63.2683V11ZM61.4683 11H59.4683V13H61.4683V11ZM61.4683 7.76V5.76H59.4683V7.76H61.4683ZM63.2683 2.96V0.959999H61.2683V2.96H63.2683ZM67.4683 2.96H69.4683V0.959999H67.4683V2.96ZM67.4683 6.32V8.32H69.4683V6.32H67.4683ZM63.2683 6.32H61.2683V8.32H63.2683V6.32ZM65.4683 7.76V20H69.4683V7.76H65.4683ZM67.4683 18H63.2683V22H67.4683V18ZM65.2683 20V11H61.2683V20H65.2683ZM63.2683 9H61.4683V13H63.2683V9ZM63.4683 11V7.76H59.4683V11H63.4683ZM61.4683 9.76H67.4683V5.76H61.4683V9.76ZM63.2683 4.96H67.4683V0.959999H63.2683V4.96ZM65.4683 2.96V6.32H69.4683V2.96H65.4683ZM67.4683 4.32H63.2683V8.32H67.4683V4.32ZM65.2683 6.32V2.96H61.2683V6.32H65.2683ZM77.7958 16.4L78.3679 18.3164L79.7958 17.8902V16.4H77.7958ZM77.7958 14.96H79.7958V12.96H77.7958V14.96ZM73.7158 15.2L75.13 16.6142L75.13 16.6142L73.7158 15.2ZM73.7158 16.64L72.3016 18.0542L72.3016 18.0542L73.7158 16.64ZM70.4758 7.52L70.2585 5.53184L68.4758 5.72667V7.52H70.4758ZM81.0118 8.024L79.5976 9.43821L79.5976 9.43821L81.0118 8.024ZM81.9958 20V22H83.9958V20H81.9958ZM78.2758 20L76.3146 20.3922L76.6362 22H78.2758V20ZM78.0358 18.8L79.9969 18.4078L79.4144 15.4949L76.9346 17.1305L78.0358 18.8ZM75.7078 19.904L76.2572 21.827L76.2699 21.8234L76.2825 21.8197L75.7078 19.904ZM70.2598 19.256L68.8456 20.6702L68.8456 20.6702L70.2598 19.256ZM70.2598 12.944L71.674 14.3582L71.674 14.3582L70.2598 12.944ZM77.7958 11.96V13.96H79.7958V11.96H77.7958ZM77.5558 10.4L76.1416 11.8142L76.1416 11.8142L77.5558 10.4ZM73.4998 10.304L73.3483 8.30974L73.3464 8.30989L73.4998 10.304ZM70.4758 10.52H68.4758V12.6489L70.6005 12.5161L70.4758 10.52ZM74.9158 18.88C76.008 18.88 77.1657 18.6753 78.3679 18.3164L77.2237 14.4836C76.2819 14.7647 75.5196 14.88 74.9158 14.88V18.88ZM79.7958 16.4V14.96H75.7958V16.4H79.7958ZM77.7958 12.96H74.3158V16.96H77.7958V12.96ZM74.3158 12.96C73.5811 12.96 72.8612 13.2262 72.3016 13.7858L75.13 16.6142C75.0283 16.7159 74.8927 16.8113 74.7286 16.877C74.5668 16.9417 74.4212 16.96 74.3158 16.96V12.96ZM72.3016 13.7858C71.742 14.3454 71.4758 15.0653 71.4758 15.8H75.4758C75.4758 15.9054 75.4574 16.051 75.3927 16.2128C75.3271 16.3769 75.2317 16.5125 75.13 16.6142L72.3016 13.7858ZM71.4758 15.8V16.04H75.4758V15.8H71.4758ZM71.4758 16.04C71.4758 16.7747 71.742 17.4946 72.3016 18.0542L75.13 15.2258C75.2317 15.3275 75.3271 15.4631 75.3927 15.6272C75.4574 15.789 75.4758 15.9346 75.4758 16.04H71.4758ZM72.3016 18.0542C72.8612 18.6138 73.5811 18.88 74.3158 18.88V14.88C74.4212 14.88 74.5668 14.8983 74.7286 14.963C74.8927 15.0287 75.0283 15.1241 75.13 15.2258L72.3016 18.0542ZM74.3158 18.88H74.9158V14.88H74.3158V18.88ZM70.6931 9.50816C73.566 9.19418 76.1318 9.04 78.3958 9.04V5.04C75.9558 5.04 73.2415 5.20582 70.2585 5.53184L70.6931 9.50816ZM78.3958 9.04C79.0521 9.04 79.3812 9.2218 79.5976 9.43821L82.426 6.60979C81.3304 5.5142 79.9154 5.04 78.3958 5.04V9.04ZM79.5976 9.43821C79.814 9.65463 79.9958 9.98364 79.9958 10.64H83.9958C83.9958 9.12035 83.5216 7.70537 82.426 6.60979L79.5976 9.43821ZM79.9958 10.64V20H83.9958V10.64H79.9958ZM81.9958 18H78.2758V22H81.9958V18ZM80.2369 19.6078L79.9969 18.4078L76.0746 19.1922L76.3146 20.3922L80.2369 19.6078ZM76.9346 17.1305C76.3324 17.5276 75.7325 17.8085 75.1331 17.9883L76.2825 21.8197C77.2831 21.5195 78.2351 21.0644 79.137 20.4695L76.9346 17.1305ZM75.1583 17.981C74.4734 18.1766 74.0062 18.24 73.7158 18.24V22.24C74.5134 22.24 75.3741 22.0794 76.2572 21.827L75.1583 17.981ZM73.7158 18.24H72.8758V22.24H73.7158V18.24ZM72.8758 18.24C72.2194 18.24 71.8904 18.0582 71.674 17.8418L68.8456 20.6702C69.9412 21.7658 71.3561 22.24 72.8758 22.24V18.24ZM71.674 17.8418C71.4576 17.6254 71.2758 17.2964 71.2758 16.64H67.2758C67.2758 18.1596 67.75 19.5746 68.8456 20.6702L71.674 17.8418ZM71.2758 16.64V15.56H67.2758V16.64H71.2758ZM71.2758 15.56C71.2758 14.9036 71.4576 14.5746 71.674 14.3582L68.8456 11.5298C67.75 12.6254 67.2758 14.0404 67.2758 15.56H71.2758ZM71.674 14.3582C71.8904 14.1418 72.2194 13.96 72.8758 13.96V9.96C71.3561 9.96 69.9412 10.4342 68.8456 11.5298L71.674 14.3582ZM72.8758 13.96H77.7958V9.96H72.8758V13.96ZM79.7958 11.96V11H75.7958V11.96H79.7958ZM79.7958 11C79.7958 10.2653 79.5296 9.54537 78.97 8.98578L76.1416 11.8142C76.0399 11.7125 75.9445 11.5769 75.8788 11.4128C75.8141 11.251 75.7958 11.1054 75.7958 11H79.7958ZM78.97 8.98579C78.4104 8.4262 77.6905 8.16 76.9558 8.16V12.16C76.8503 12.16 76.7048 12.1417 76.543 12.077C76.3789 12.0113 76.2432 11.9159 76.1416 11.8142L78.97 8.98579ZM76.9558 8.16C75.8557 8.16 74.6523 8.21071 73.3483 8.30974L73.6512 12.2983C74.8753 12.2053 75.9758 12.16 76.9558 12.16V8.16ZM73.3464 8.30989C72.1028 8.40555 71.1055 8.47674 70.351 8.52389L70.6005 12.5161C71.3821 12.4673 72.4007 12.3945 73.6532 12.2981L73.3464 8.30989ZM72.4758 10.52V7.52H68.4758V10.52H72.4758ZM90.6292 20L90.9245 21.9781L92.6292 21.7236V20H90.6292ZM85.1332 19.256L86.5474 17.8418L86.5474 17.8418L85.1332 19.256ZM84.1492 3.2V1.2H82.1492V3.2H84.1492ZM88.3492 3.2H90.3492V1.2H88.3492V3.2ZM90.6292 16.88H92.6292V14.88H90.6292V16.88ZM90.334 18.0219C89.3492 18.1689 88.4243 18.24 87.5572 18.24V22.24C88.6422 22.24 89.7653 22.1511 90.9245 21.9781L90.334 18.0219ZM87.5572 18.24C87.107 18.24 86.814 18.1084 86.5474 17.8418L83.719 20.6702C84.7644 21.7156 86.0874 22.24 87.5572 22.24V18.24ZM86.5474 17.8418C86.331 17.6254 86.1492 17.2964 86.1492 16.64H82.1492C82.1492 18.1596 82.6234 19.5746 83.719 20.6702L86.5474 17.8418ZM86.1492 16.64V3.2H82.1492V16.64H86.1492ZM84.1492 5.2H88.3492V1.2H84.1492V5.2ZM86.3492 3.2V16.04H90.3492V3.2H86.3492ZM86.3492 16.04C86.3492 16.7747 86.6154 17.4946 87.175 18.0542L90.0034 15.2258C90.1051 15.3275 90.2005 15.4631 90.2662 15.6272C90.3309 15.789 90.3492 15.9346 90.3492 16.04H86.3492ZM87.175 18.0542C87.7346 18.6138 88.4545 18.88 89.1892 18.88V14.88C89.2947 14.88 89.4402 14.8983 89.602 14.963C89.7661 15.0287 89.9018 15.1241 90.0034 15.2258L87.175 18.0542ZM89.1892 18.88H90.6292V14.88H89.1892V18.88ZM88.6292 16.88V20H92.6292V16.88H88.6292ZM113.709 19.112L112.295 17.6978L112.295 17.6978L113.709 19.112ZM100.389 19.112L98.9598 20.5112L98.9745 20.5263L98.9895 20.541L100.389 19.112ZM100.389 4.112L98.9746 2.69778L98.9746 2.69779L100.389 4.112ZM113.709 4.112L112.28 5.51125L112.294 5.52629L112.31 5.54102L113.709 4.112ZM112.541 7.76C112.541 6.97171 112.342 6.01314 111.595 5.26578C110.848 4.51843 109.889 4.32 109.101 4.32V8.32C109.272 8.32 109.034 8.36157 108.767 8.09421C108.499 7.82685 108.541 7.58829 108.541 7.76H112.541ZM109.101 4.32H105.021V8.32H109.101V4.32ZM105.021 4.32C104.232 4.32 103.274 4.51843 102.527 5.26579C101.779 6.01314 101.581 6.97171 101.581 7.76H105.581C105.581 7.58829 105.622 7.82685 105.355 8.09421C105.088 8.36157 104.849 8.32 105.021 8.32V4.32ZM101.581 7.76V15.44H105.581V7.76H101.581ZM101.581 15.44C101.581 16.2283 101.779 17.1869 102.527 17.9342C103.274 18.6816 104.232 18.88 105.021 18.88V14.88C104.849 14.88 105.088 14.8384 105.355 15.1058C105.622 15.3731 105.581 15.6117 105.581 15.44H101.581ZM105.021 18.88H109.101V14.88H105.021V18.88ZM109.101 18.88C109.889 18.88 110.848 18.6816 111.595 17.9342C112.342 17.1869 112.541 16.2283 112.541 15.44H108.541C108.541 15.6117 108.499 15.3731 108.767 15.1058C109.034 14.8384 109.272 14.88 109.101 14.88V18.88ZM112.541 15.44V7.76H108.541V15.44H112.541ZM112.861 15.44C112.861 16.8726 112.526 17.4663 112.295 17.6978L115.123 20.5262C116.427 19.2217 116.861 17.3674 116.861 15.44H112.861ZM112.295 17.6978C112.086 17.9068 111.508 18.24 110.061 18.24V22.24C111.974 22.24 113.828 21.8212 115.123 20.5262L112.295 17.6978ZM110.061 18.24H104.061V22.24H110.061V18.24ZM104.061 18.24C102.619 18.24 102.019 17.9088 101.788 17.683L98.9895 20.541C100.295 21.8192 102.143 22.24 104.061 22.24V18.24ZM101.818 17.7128C101.592 17.4821 101.261 16.8822 101.261 15.44H97.2608C97.2608 17.3578 97.6816 19.2059 98.9598 20.5112L101.818 17.7128ZM101.261 15.44V7.76H97.2608V15.44H101.261ZM101.261 7.76C101.261 6.31293 101.594 5.73519 101.803 5.52621L98.9746 2.69779C97.6795 3.99281 97.2608 5.84707 97.2608 7.76H101.261ZM101.803 5.52621C102.034 5.29471 102.628 4.96 104.061 4.96V0.959999C102.133 0.959999 100.279 1.39329 98.9746 2.69778L101.803 5.52621ZM104.061 4.96H110.061V0.959999H104.061V4.96ZM110.061 4.96C111.498 4.96 112.07 5.29669 112.28 5.51125L115.138 2.71275C113.844 1.39131 111.983 0.959999 110.061 0.959999V4.96ZM112.31 5.54102C112.524 5.75111 112.861 6.32258 112.861 7.76H116.861C116.861 5.83741 116.429 3.97689 115.108 2.68298L112.31 5.54102ZM112.861 7.76V15.44H116.861V7.76H112.861ZM127.352 6.44L127.214 8.43526L129.352 8.58268V6.44H127.352ZM122.432 6.44L123.846 7.85421L123.846 7.85421L122.432 6.44ZM122.192 8.24H120.192V10.24H122.192V8.24ZM126.152 8.24H128.152V6.24H126.152V8.24ZM126.152 11.48V13.48H128.152V11.48H126.152ZM122.192 11.48V9.48H120.192V11.48H122.192ZM122.192 20V22H124.192V20H122.192ZM117.992 20H115.992V22H117.992V20ZM117.992 11.48H119.992V9.48H117.992V11.48ZM116.312 11.48H114.312V13.48H116.312V11.48ZM116.312 8.24V6.24H114.312V8.24H116.312ZM117.992 8.24V10.24H119.992V8.24H117.992ZM118.976 3.944L120.39 5.35821L120.39 5.35821L118.976 3.944ZM127.352 3.2H129.352V1.29086L127.445 1.20216L127.352 3.2ZM127.49 4.44474C127.039 4.41368 126.434 4.36656 125.67 4.30291L125.338 8.28909C126.11 8.35344 126.737 8.40232 127.214 8.43526L127.49 4.44474ZM125.67 4.30291C124.866 4.23588 124.144 4.2 123.512 4.2V8.2C124 8.2 124.606 8.22812 125.338 8.28909L125.67 4.30291ZM123.512 4.2C123.153 4.2 122.764 4.22417 122.388 4.30763C122.048 4.38321 121.487 4.55654 121.018 5.02579L123.846 7.85421C123.682 8.01873 123.522 8.10716 123.428 8.15092C123.332 8.1949 123.268 8.20978 123.256 8.21237C123.24 8.21582 123.311 8.2 123.512 8.2V4.2ZM121.018 5.02579C120.458 5.58538 120.192 6.30528 120.192 7.04H124.192C124.192 7.14543 124.174 7.29103 124.109 7.45278C124.043 7.61687 123.948 7.75253 123.846 7.85421L121.018 5.02579ZM120.192 7.04V8.24H124.192V7.04H120.192ZM122.192 10.24H126.152V6.24H122.192V10.24ZM124.152 8.24V11.48H128.152V8.24H124.152ZM126.152 9.48H122.192V13.48H126.152V9.48ZM120.192 11.48V20H124.192V11.48H120.192ZM122.192 18H117.992V22H122.192V18ZM119.992 20V11.48H115.992V20H119.992ZM117.992 9.48H116.312V13.48H117.992V9.48ZM118.312 11.48V8.24H114.312V11.48H118.312ZM116.312 10.24H117.992V6.24H116.312V10.24ZM119.992 8.24V6.56H115.992V8.24H119.992ZM119.992 6.56C119.992 5.90364 120.174 5.57463 120.39 5.35821L117.562 2.52979C116.466 3.62537 115.992 5.04036 115.992 6.56H119.992ZM120.39 5.35821C120.607 5.1418 120.936 4.96 121.592 4.96V0.959999C120.072 0.959999 118.657 1.4342 117.562 2.52979L120.39 5.35821ZM121.592 4.96C122.525 4.96 123.517 4.99059 124.571 5.05255L124.805 1.05945C123.683 0.993411 122.611 0.959999 121.592 0.959999V4.96ZM124.571 5.05255C125.663 5.11679 126.56 5.16531 127.259 5.19784L127.445 1.20216C126.768 1.17069 125.889 1.12321 124.805 1.05945L124.571 5.05255ZM125.352 3.2V6.44H129.352V3.2H125.352ZM138.157 6.44L138.019 8.43526L140.157 8.58268V6.44H138.157ZM133.237 6.44L134.651 7.85421L134.651 7.85421L133.237 6.44ZM132.997 8.24H130.997V10.24H132.997V8.24ZM136.957 8.24H138.957V6.24H136.957V8.24ZM136.957 11.48V13.48H138.957V11.48H136.957ZM132.997 11.48V9.48H130.997V11.48H132.997ZM132.997 20V22H134.997V20H132.997ZM128.797 20H126.797V22H128.797V20ZM128.797 11.48H130.797V9.48H128.797V11.48ZM127.117 11.48H125.117V13.48H127.117V11.48ZM127.117 8.24V6.24H125.117V8.24H127.117ZM128.797 8.24V10.24H130.797V8.24H128.797ZM129.781 3.944L131.195 5.35821L131.195 5.35821L129.781 3.944ZM138.157 3.2H140.157V1.29086L138.25 1.20216L138.157 3.2ZM138.294 4.44474C137.844 4.41368 137.239 4.36656 136.475 4.30291L136.143 8.28909C136.915 8.35344 137.541 8.40232 138.019 8.43526L138.294 4.44474ZM136.475 4.30291C135.67 4.23588 134.948 4.2 134.317 4.2V8.2C134.805 8.2 135.411 8.22812 136.143 8.28909L136.475 4.30291ZM134.317 4.2C133.958 4.2 133.568 4.22417 133.193 4.30763C132.853 4.38321 132.292 4.55654 131.823 5.02579L134.651 7.85421C134.486 8.01873 134.327 8.10716 134.232 8.15092C134.137 8.1949 134.072 8.20978 134.061 8.21237C134.045 8.21582 134.116 8.2 134.317 8.2V4.2ZM131.823 5.02579C131.263 5.58538 130.997 6.30528 130.997 7.04H134.997C134.997 7.14543 134.978 7.29103 134.914 7.45278C134.848 7.61687 134.753 7.75253 134.651 7.85421L131.823 5.02579ZM130.997 7.04V8.24H134.997V7.04H130.997ZM132.997 10.24H136.957V6.24H132.997V10.24ZM134.957 8.24V11.48H138.957V8.24H134.957ZM136.957 9.48H132.997V13.48H136.957V9.48ZM130.997 11.48V20H134.997V11.48H130.997ZM132.997 18H128.797V22H132.997V18ZM130.797 20V11.48H126.797V20H130.797ZM128.797 9.48H127.117V13.48H128.797V9.48ZM129.117 11.48V8.24H125.117V11.48H129.117ZM127.117 10.24H128.797V6.24H127.117V10.24ZM130.797 8.24V6.56H126.797V8.24H130.797ZM130.797 6.56C130.797 5.90364 130.979 5.57463 131.195 5.35821L128.367 2.52979C127.271 3.62537 126.797 5.04036 126.797 6.56H130.797ZM131.195 5.35821C131.411 5.1418 131.74 4.96 132.397 4.96V0.959999C130.877 0.959999 129.462 1.4342 128.367 2.52979L131.195 5.35821ZM132.397 4.96C133.329 4.96 134.322 4.99059 135.375 5.05255L135.61 1.05945C134.487 0.993411 133.416 0.959999 132.397 0.959999V4.96ZM135.375 5.05255C136.467 5.11679 137.364 5.16531 138.064 5.19784L138.25 1.20216C137.573 1.17069 136.694 1.12321 135.61 1.05945L135.375 5.05255ZM136.157 3.2V6.44H140.157V3.2H136.157ZM142.601 12.32H140.601V14.32H142.601V12.32ZM146.681 12.32V14.32H148.681V12.32H146.681ZM150.401 19.76L150.608 21.7493L152.401 21.5635V19.76H150.401ZM139.385 19.256L137.971 20.6702L137.971 20.6702L139.385 19.256ZM139.409 8.072L140.824 9.48621L140.824 9.48621L139.409 8.072ZM149.849 8.072L148.419 9.46948L148.435 9.48631L148.452 9.50275L149.849 8.072ZM150.881 15.32V17.32H152.881V15.32H150.881ZM142.601 15.32V13.32H140.601V15.32H142.601ZM142.841 16.88L144.256 15.4658L144.256 15.4658L142.841 16.88ZM150.401 16.76H152.401V14.5968L150.245 14.7661L150.401 16.76ZM143.561 8.04C142.933 8.04 142.095 8.19843 141.427 8.86579C140.76 9.53314 140.601 10.3717 140.601 11H144.601C144.601 11.0007 144.602 11.0827 144.559 11.2125C144.512 11.3519 144.42 11.5299 144.256 11.6942C144.091 11.8585 143.913 11.9509 143.774 11.9974C143.644 12.0406 143.562 12.04 143.561 12.04V8.04ZM140.601 11V12.32H144.601V11H140.601ZM142.601 14.32H146.681V10.32H142.601V14.32ZM148.681 12.32V11H144.681V12.32H148.681ZM148.681 11C148.681 10.3717 148.523 9.53315 147.856 8.86579C147.188 8.19843 146.35 8.04 145.721 8.04V12.04C145.721 12.04 145.639 12.0406 145.509 11.9974C145.37 11.9509 145.192 11.8585 145.027 11.6942C144.863 11.5299 144.771 11.3519 144.724 11.2125C144.681 11.0827 144.681 11.0007 144.681 11H148.681ZM145.721 8.04H143.561V12.04H145.721V8.04ZM150.195 17.7707C147.161 18.0851 144.431 18.24 142.001 18.24V22.24C144.596 22.24 147.466 22.0749 150.608 21.7493L150.195 17.7707ZM142.001 18.24C141.345 18.24 141.016 18.0582 140.8 17.8418L137.971 20.6702C139.067 21.7658 140.482 22.24 142.001 22.24V18.24ZM140.8 17.8418C140.583 17.6254 140.401 17.2964 140.401 16.64H136.401C136.401 18.1596 136.876 19.5746 137.971 20.6702L140.8 17.8418ZM140.401 16.64V10.88H136.401V16.64H140.401ZM140.401 10.88C140.401 10.0637 140.619 9.69079 140.824 9.48621L137.995 6.65779C136.856 7.79721 136.401 9.29625 136.401 10.88H140.401ZM140.824 9.48621C141.053 9.25692 141.441 9.04 142.241 9.04V5.04C140.642 5.04 139.142 5.51108 137.995 6.65779L140.824 9.48621ZM142.241 9.04H147.041V5.04H142.241V9.04ZM147.041 9.04C147.844 9.04 148.212 9.25746 148.419 9.46948L151.28 6.67452C150.143 5.51054 148.638 5.04 147.041 5.04V9.04ZM148.452 9.50275C148.664 9.70984 148.881 10.077 148.881 10.88H152.881C152.881 9.28296 152.411 7.77816 151.247 6.64125L148.452 9.50275ZM148.881 10.88V15.32H152.881V10.88H148.881ZM150.881 13.32H142.601V17.32H150.881V13.32ZM140.601 15.32V16.28H144.601V15.32H140.601ZM140.601 16.28C140.601 17.0147 140.868 17.7346 141.427 18.2942L144.256 15.4658C144.357 15.5675 144.453 15.7031 144.518 15.8672C144.583 16.029 144.601 16.1746 144.601 16.28H140.601ZM141.427 18.2942C141.987 18.8538 142.707 19.12 143.441 19.12V15.12C143.547 15.12 143.692 15.1383 143.854 15.203C144.018 15.2687 144.154 15.3641 144.256 15.4658L141.427 18.2942ZM143.441 19.12C145.106 19.12 147.488 18.9949 150.558 18.7539L150.245 14.7661C147.202 15.0051 144.945 15.12 143.441 15.12V19.12ZM148.401 16.76V19.76H152.401V16.76H148.401ZM157.232 11.48L156.415 9.65463L155.232 10.1842V11.48H157.232ZM157.232 20V22H159.232V20H157.232ZM153.032 20H151.032V22H153.032V20ZM153.032 7.28V5.28H151.032V7.28H153.032ZM156.752 7.28L158.729 6.97589L158.468 5.28H156.752V7.28ZM156.992 8.84L155.015 9.14411L155.568 12.7357L158.307 10.3473L156.992 8.84ZM162.392 7.04H164.392V5.04H162.392V7.04ZM162.392 10.76V12.76H164.392V10.76H162.392ZM160.352 8.76C159.02 8.76 157.702 9.07837 156.415 9.65463L158.049 13.3054C158.906 12.9216 159.668 12.76 160.352 12.76V8.76ZM155.232 11.48V20H159.232V11.48H155.232ZM157.232 18H153.032V22H157.232V18ZM155.032 20V7.28H151.032V20H155.032ZM153.032 9.28H156.752V5.28H153.032V9.28ZM154.775 7.58411L155.015 9.14411L158.969 8.53589L158.729 6.97589L154.775 7.58411ZM158.307 10.3473C159.4 9.39397 160.389 9.04 161.312 9.04V5.04C159.227 5.04 157.336 5.88603 155.678 7.33268L158.307 10.3473ZM161.312 9.04H162.392V5.04H161.312V9.04ZM160.392 7.04V10.76H164.392V7.04H160.392ZM162.392 8.76H160.352V12.76H162.392V8.76ZM163.591 16.64L163.738 14.6454L161.591 14.4868V16.64H163.591ZM171.871 16.76L173.285 18.1742L173.285 18.1742L171.871 16.76ZM172.111 15.32H174.111V13.32H172.111V15.32ZM164.335 14.336L165.749 12.9218L165.749 12.9218L164.335 14.336ZM164.335 8.264L165.749 9.67821L164.335 8.264ZM175.111 7.28H177.111V5.28H175.111V7.28ZM175.111 10.4V12.4H177.111V10.4H175.111ZM167.791 10.64L169.205 12.0542L169.205 12.0542L167.791 10.64ZM167.791 11.84L166.377 13.2542L166.377 13.2542L167.791 11.84ZM175.327 13.064L176.741 11.6498L176.741 11.6498L175.327 13.064ZM175.327 19.256L176.741 20.6702L176.741 20.6702L175.327 19.256ZM163.591 19.76H161.591V21.5726L163.395 21.7504L163.591 19.76ZM163.444 18.6346C166.711 18.876 169.327 19 171.271 19V15C169.471 15 166.968 14.884 163.738 14.6454L163.444 18.6346ZM171.271 19C172.006 19 172.726 18.7338 173.285 18.1742L170.457 15.3458C170.559 15.2441 170.694 15.1487 170.858 15.083C171.02 15.0183 171.166 15 171.271 15V19ZM173.285 18.1742C173.845 17.6146 174.111 16.8947 174.111 16.16H170.111C170.111 16.0546 170.129 15.909 170.194 15.7472C170.26 15.5831 170.355 15.4475 170.457 15.3458L173.285 18.1742ZM174.111 16.16V15.32H170.111V16.16H174.111ZM172.111 13.32H166.951V17.32H172.111V13.32ZM166.951 13.32C166.295 13.32 165.966 13.1382 165.749 12.9218L162.921 15.7502C164.016 16.8458 165.431 17.32 166.951 17.32V13.32ZM165.749 12.9218C165.533 12.7054 165.351 12.3764 165.351 11.72H161.351C161.351 13.2396 161.825 14.6546 162.921 15.7502L165.749 12.9218ZM165.351 11.72V10.88H161.351V11.72H165.351ZM165.351 10.88C165.351 10.2236 165.533 9.89463 165.749 9.67821L162.921 6.84979C161.825 7.94537 161.351 9.36035 161.351 10.88H165.351ZM165.749 9.67821C165.966 9.4618 166.295 9.28 166.951 9.28V5.28C165.431 5.28 164.016 5.7542 162.921 6.84979L165.749 9.67821ZM166.951 9.28H175.111V5.28H166.951V9.28ZM173.111 7.28V10.4H177.111V7.28H173.111ZM175.111 8.4H168.391V12.4H175.111V8.4ZM168.391 8.4C167.656 8.4 166.936 8.66619 166.377 9.22579L169.205 12.0542C169.104 12.1559 168.968 12.2513 168.804 12.317C168.642 12.3817 168.497 12.4 168.391 12.4V8.4ZM166.377 9.22579C165.817 9.78538 165.551 10.5053 165.551 11.24H169.551C169.551 11.3454 169.533 11.491 169.468 11.6528C169.402 11.8169 169.307 11.9525 169.205 12.0542L166.377 9.22579ZM165.551 11.24C165.551 11.9747 165.817 12.6946 166.377 13.2542L169.205 10.4258C169.307 10.5275 169.402 10.6631 169.468 10.8272C169.533 10.989 169.551 11.1346 169.551 11.24H165.551ZM166.377 13.2542C166.936 13.8138 167.656 14.08 168.391 14.08V10.08C168.497 10.08 168.642 10.0983 168.804 10.163C168.968 10.2287 169.104 10.3241 169.205 10.4258L166.377 13.2542ZM168.391 14.08H172.711V10.08H168.391V14.08ZM172.711 14.08C173.367 14.08 173.696 14.2618 173.913 14.4782L176.741 11.6498C175.646 10.5542 174.231 10.08 172.711 10.08V14.08ZM173.913 14.4782C174.129 14.6946 174.311 15.0236 174.311 15.68H178.311C178.311 14.1604 177.837 12.7454 176.741 11.6498L173.913 14.4782ZM174.311 15.68V16.64H178.311V15.68H174.311ZM174.311 16.64C174.311 17.2964 174.129 17.6254 173.913 17.8418L176.741 20.6702C177.837 19.5746 178.311 18.1596 178.311 16.64H174.311ZM173.913 17.8418C173.696 18.0582 173.367 18.24 172.711 18.24V22.24C174.231 22.24 175.646 21.7658 176.741 20.6702L173.913 17.8418ZM172.711 18.24C169.954 18.24 166.98 18.0842 163.787 17.7696L163.395 21.7504C166.699 22.0758 169.805 22.24 172.711 22.24V18.24ZM165.591 19.76V16.64H161.591V19.76H165.591Z" fill="black" fill-opacity="0.06"/>
</svg>
