<svg width="352" height="48" viewBox="0 0 352 48" fill="none" xmlns="http://www.w3.org/2000/svg">
<path d="M3.28606 30.04L3.39539 28.043L1.28606 27.9275V30.04H3.28606ZM22.8221 30.136L21.4078 28.7218L21.4078 28.7218L22.8221 30.136ZM23.4941 24.04H25.4941V22.04H23.4941V24.04ZM5.11006 21.784L3.68104 23.1832L3.69577 23.1983L3.71081 23.213L5.11006 21.784ZM5.11006 5.704L6.52428 7.11821L6.52428 7.11821L5.11006 5.704ZM29.3021 3.4H31.3021V1.4H29.3021V3.4ZM29.3021 10.12V12.12H31.3021V10.12H29.3021ZM29.9261 35.272L28.5119 33.8578L28.5119 33.8578L29.9261 35.272ZM17.8301 37.384L17.7432 39.3821L17.7516 39.3825L17.7599 39.3828L17.8301 37.384ZM13.4141 37.192L13.3161 39.1896L13.3272 39.1901L13.4141 37.192ZM3.28606 36.52H1.28606V38.3617L3.12148 38.5132L3.28606 36.52ZM3.17674 32.037C11.938 32.5166 17.9271 32.76 21.0941 32.76V28.76C18.0531 28.76 12.1701 28.5234 3.39539 28.043L3.17674 32.037ZM21.0941 32.76C22.2199 32.76 23.3563 32.4302 24.2363 31.5502L21.4078 28.7218C21.4161 28.7135 21.4221 28.7145 21.3988 28.7229C21.3676 28.7342 21.2759 28.76 21.0941 28.76V32.76ZM24.2363 31.5502C25.1202 30.6663 25.4941 29.5337 25.4941 28.36H21.4941C21.4941 28.6583 21.4199 28.7097 21.4078 28.7218L24.2363 31.5502ZM25.4941 28.36V24.04H21.4941V28.36H25.4941ZM23.4941 22.04H12.4541V26.04H23.4941V22.04ZM12.4541 22.04C9.33189 22.04 7.50794 21.3328 6.50931 20.355L3.71081 23.213C5.78419 25.2432 8.85624 26.04 12.4541 26.04V22.04ZM6.53908 20.3848C5.56126 19.3861 4.85406 17.5622 4.85406 14.44H0.854063C0.854063 18.0378 1.65086 21.1099 3.68104 23.1832L6.53908 20.3848ZM4.85406 14.44V13H0.854063V14.44H4.85406ZM4.85406 13C4.85406 9.87293 5.5633 8.07919 6.52428 7.11821L3.69585 4.28979C1.64883 6.33681 0.854063 9.40707 0.854063 13H4.85406ZM6.52428 7.11821C7.52378 6.11871 9.34142 5.4 12.4541 5.4V1.4C8.8467 1.4 5.76834 2.21729 3.69585 4.28979L6.52428 7.11821ZM12.4541 5.4H29.3021V1.4H12.4541V5.4ZM27.3021 3.4V10.12H31.3021V3.4H27.3021ZM29.3021 8.12H14.3741V12.12H29.3021V8.12ZM14.3741 8.12C13.1058 8.12 11.7872 8.43843 10.7998 9.42579C9.81249 10.4131 9.49406 11.7317 9.49406 13H13.4941C13.4941 12.6807 13.5347 12.4827 13.5714 12.3725C13.5891 12.3193 13.6052 12.2888 13.614 12.274C13.6225 12.2599 13.6274 12.2551 13.6283 12.2542C13.6291 12.2534 13.6339 12.2485 13.6481 12.24C13.6629 12.2311 13.6934 12.2151 13.7465 12.1974C13.8568 12.1606 14.0548 12.12 14.3741 12.12V8.12ZM9.49406 13V13.96H13.4941V13H9.49406ZM9.49406 13.96C9.49406 15.2283 9.81249 16.5469 10.7998 17.5342C11.7872 18.5216 13.1058 18.84 14.3741 18.84V14.84C14.0548 14.84 13.8568 14.7994 13.7465 14.7626C13.6934 14.7449 13.6629 14.7289 13.6481 14.72C13.6339 14.7115 13.6291 14.7066 13.6283 14.7058C13.6274 14.7049 13.6225 14.7001 13.614 14.686C13.6052 14.6712 13.5891 14.6407 13.5714 14.5875C13.5347 14.4773 13.4941 14.2793 13.4941 13.96H9.49406ZM14.3741 18.84H23.0141V14.84H14.3741V18.84ZM23.0141 18.84C25.8846 18.84 27.568 19.5183 28.5119 20.4622L31.3403 17.6338C29.3401 15.6337 26.4155 14.84 23.0141 14.84V18.84ZM28.5119 20.4622C29.4557 21.4061 30.1341 23.0894 30.1341 25.96H34.1341C34.1341 22.5586 33.3404 19.6339 31.3403 17.6338L28.5119 20.4622ZM30.1341 25.96V28.36H34.1341V25.96H30.1341ZM30.1341 28.36C30.1341 31.2306 29.4557 32.9139 28.5119 33.8578L31.3403 36.6862C33.3404 34.6861 34.1341 31.7614 34.1341 28.36H30.1341ZM28.5119 33.8578C27.568 34.8017 25.8846 35.48 23.0141 35.48V39.48C26.4155 39.48 29.3401 38.6863 31.3403 36.6862L28.5119 33.8578ZM23.0141 35.48C21.408 35.48 19.7035 35.4485 17.9002 35.3852L17.7599 39.3828C19.6046 39.4475 21.3561 39.48 23.0141 39.48V35.48ZM17.9169 35.3859L13.5009 35.1939L13.3272 39.1901L17.7432 39.3821L17.9169 35.3859ZM13.512 35.1944C10.2717 35.0356 6.918 34.8131 3.45064 34.5268L3.12148 38.5132C6.63013 38.8029 10.0284 39.0284 13.3161 39.1896L13.512 35.1944ZM5.28606 36.52V30.04H1.28606V36.52H5.28606ZM44.3703 19L43.7982 17.0836L42.3703 17.5098V19H44.3703ZM44.3703 30.52H42.3703V32.52H44.3703V30.52ZM53.0103 18.52L54.4245 17.1058L54.4245 17.1058L53.0103 18.52ZM44.3703 37V35H42.3703V37H44.3703ZM44.3703 45.16V47.16H46.3703V45.16H44.3703ZM35.9703 45.16H33.9703V47.16H35.9703V45.16ZM35.9703 11.56V9.56H33.9703V11.56H35.9703ZM43.4103 11.56L45.3715 11.1678L45.0499 9.56H43.4103V11.56ZM43.8903 13.96L41.9292 14.3522L42.5117 17.2651L44.9915 15.6295L43.8903 13.96ZM48.4983 11.8L49.0478 13.723L49.0604 13.7194L49.073 13.7157L48.4983 11.8ZM59.9223 13.048L58.5081 14.4622L58.5081 14.4622L59.9223 13.048ZM59.8263 34.984L61.2405 36.3982L61.2405 36.3982L59.8263 34.984ZM50.1303 16.04C48.1901 16.04 46.0724 16.4047 43.7982 17.0836L44.9424 20.9164C46.9562 20.3153 48.6785 20.04 50.1303 20.04V16.04ZM42.3703 19V30.52H46.3703V19H42.3703ZM44.3703 32.52H51.5703V28.52H44.3703V32.52ZM51.5703 32.52C52.5186 32.52 53.5972 32.2816 54.4245 31.4542C55.2519 30.6269 55.4903 29.5483 55.4903 28.6H51.4903C51.4903 28.6774 51.4854 28.7321 51.4804 28.7672C51.4754 28.8021 51.4709 28.8138 51.4729 28.8075C51.4752 28.8007 51.4842 28.7762 51.5053 28.741C51.5269 28.7051 51.557 28.6649 51.5961 28.6258C51.6352 28.5866 51.6754 28.5565 51.7113 28.535C51.7465 28.5139 51.771 28.5049 51.7779 28.5026C51.7841 28.5006 51.7724 28.5051 51.7375 28.5101C51.7024 28.5151 51.6477 28.52 51.5703 28.52V32.52ZM55.4903 28.6V19.72H51.4903V28.6H55.4903ZM55.4903 19.72C55.4903 18.7453 55.1441 17.8254 54.4245 17.1058L51.5961 19.9342C51.5744 19.9125 51.539 19.8669 51.5134 19.8028C51.4887 19.741 51.4903 19.7054 51.4903 19.72H55.4903ZM54.4245 17.1058C53.7049 16.3862 52.785 16.04 51.8103 16.04V20.04C51.8249 20.04 51.7893 20.0417 51.7275 20.017C51.6634 19.9913 51.6178 19.9559 51.5961 19.9342L54.4245 17.1058ZM51.8103 16.04H50.1303V20.04H51.8103V16.04ZM42.3703 37V45.16H46.3703V37H42.3703ZM44.3703 43.16H35.9703V47.16H44.3703V43.16ZM37.9703 45.16V11.56H33.9703V45.16H37.9703ZM35.9703 13.56H43.4103V9.56H35.9703V13.56ZM41.4492 11.9522L41.9292 14.3522L45.8515 13.5678L45.3715 11.1678L41.4492 11.9522ZM44.9915 15.6295C46.3432 14.738 47.6948 14.1096 49.0478 13.723L47.9489 9.87695C46.1658 10.3864 44.4454 11.198 42.7891 12.2905L44.9915 15.6295ZM49.073 13.7157C50.575 13.2651 51.7116 13.08 52.5303 13.08V9.08C51.173 9.08 49.6217 9.37494 47.9236 9.88435L49.073 13.7157ZM52.5303 13.08H54.6903V9.08H52.5303V13.08ZM54.6903 13.08C56.4347 13.08 57.6357 13.5898 58.5081 14.4622L61.3365 11.6338C59.5849 9.8822 57.298 9.08 54.6903 9.08V13.08ZM58.5081 14.4622C59.3805 15.3346 59.8903 16.5356 59.8903 18.28H63.8903C63.8903 15.6724 63.0881 13.3854 61.3365 11.6338L58.5081 14.4622ZM59.8903 18.28V29.32H63.8903V18.28H59.8903ZM59.8903 29.32C59.8903 31.3209 59.3294 32.6525 58.4121 33.5698L61.2405 36.3982C63.0752 34.5635 63.8903 32.1191 63.8903 29.32H59.8903ZM58.4121 33.5698C57.5355 34.4464 56.2266 35 54.2103 35V39C56.9941 39 59.4291 38.2096 61.2405 36.3982L58.4121 33.5698ZM54.2103 35H44.3703V39H54.2103V35ZM74.1247 21.64H72.1247V23.64H74.1247V21.64ZM82.2847 21.64V23.64H84.2847V21.64H82.2847ZM89.7247 36.52L89.9308 38.5093L91.7247 38.3235V36.52H89.7247ZM67.6927 35.512L66.2785 36.9262L66.2785 36.9262L67.6927 35.512ZM67.7407 13.144L69.1549 14.5582L69.1549 14.5582L67.7407 13.144ZM88.6207 13.144L87.1899 14.5415L87.2064 14.5583L87.2232 14.5748L88.6207 13.144ZM90.6847 27.64V29.64H92.6847V27.64H90.6847ZM74.1247 27.64V25.64H72.1247V27.64H74.1247ZM74.6047 30.76L76.0189 29.3458L76.0189 29.3458L74.6047 30.76ZM89.7247 30.52H91.7247V28.3568L89.5681 28.5261L89.7247 30.52ZM76.0447 15.08C75.0964 15.08 74.0178 15.3184 73.1905 16.1458C72.3631 16.9731 72.1247 18.0517 72.1247 19H76.1247C76.1247 18.9226 76.1296 18.8679 76.1346 18.8328C76.1396 18.7979 76.1441 18.7862 76.1421 18.7925C76.1398 18.7993 76.1308 18.8238 76.1097 18.859C76.0881 18.8949 76.058 18.9351 76.0189 18.9742C75.9798 19.0134 75.9396 19.0435 75.9037 19.065C75.8685 19.0861 75.844 19.0951 75.8371 19.0974C75.8309 19.0994 75.8426 19.0949 75.8775 19.0899C75.9126 19.0849 75.9673 19.08 76.0447 19.08V15.08ZM72.1247 19V21.64H76.1247V19H72.1247ZM74.1247 23.64H82.2847V19.64H74.1247V23.64ZM84.2847 21.64V19H80.2847V21.64H84.2847ZM84.2847 19C84.2847 18.0517 84.0463 16.9731 83.2189 16.1458C82.3915 15.3184 81.313 15.08 80.3647 15.08V19.08C80.4421 19.08 80.4968 19.0849 80.5318 19.0899C80.5668 19.0949 80.5785 19.0994 80.5722 19.0974C80.5654 19.0951 80.5409 19.0861 80.5057 19.065C80.4698 19.0435 80.4296 19.0134 80.3905 18.9742C80.3513 18.9351 80.3212 18.8949 80.2997 18.859C80.2786 18.8238 80.2696 18.7993 80.2673 18.7925C80.2652 18.7862 80.2698 18.7979 80.2748 18.8328C80.2798 18.8679 80.2847 18.9226 80.2847 19H84.2847ZM80.3647 15.08H76.0447V19.08H80.3647V15.08ZM89.5185 34.5307C83.3958 35.1651 77.866 35.48 72.9247 35.48V39.48C78.0313 39.48 83.7016 39.1549 89.9308 38.5093L89.5185 34.5307ZM72.9247 35.48C71.1803 35.48 69.9793 34.9702 69.1069 34.0978L66.2785 36.9262C68.0301 38.6778 70.317 39.48 72.9247 39.48V35.48ZM69.1069 34.0978C68.2345 33.2254 67.7247 32.0244 67.7247 30.28H63.7247C63.7247 32.8876 64.5269 35.1746 66.2785 36.9262L69.1069 34.0978ZM67.7247 30.28V18.76H63.7247V30.28H67.7247ZM67.7247 18.76C67.7247 16.7437 68.2783 15.4348 69.1549 14.5582L66.3265 11.7298C64.5151 13.5412 63.7247 15.9763 63.7247 18.76H67.7247ZM69.1549 14.5582C70.0722 13.6409 71.4038 13.08 73.4047 13.08V9.08C70.6056 9.08 68.1612 9.89508 66.3265 11.7298L69.1549 14.5582ZM73.4047 13.08H83.0047V9.08H73.4047V13.08ZM83.0047 13.08C85.0076 13.08 86.3109 13.6415 87.1899 14.5415L90.0514 11.7465C88.2425 9.89454 85.8017 9.08 83.0047 9.08V13.08ZM87.2232 14.5748C88.1232 15.4538 88.6847 16.757 88.6847 18.76H92.6847C92.6847 15.963 91.8702 13.5222 90.0182 11.7132L87.2232 14.5748ZM88.6847 18.76V27.64H92.6847V18.76H88.6847ZM90.6847 25.64H74.1247V29.64H90.6847V25.64ZM72.1247 27.64V29.56H76.1247V27.64H72.1247ZM72.1247 29.56C72.1247 30.5347 72.4709 31.4546 73.1905 32.1742L76.0189 29.3458C76.0406 29.3675 76.076 29.4131 76.1016 29.4772C76.1263 29.539 76.1247 29.5746 76.1247 29.56H72.1247ZM73.1905 32.1742C73.9101 32.8938 74.83 33.24 75.8047 33.24V29.24C75.7901 29.24 75.8257 29.2383 75.8875 29.263C75.9516 29.2887 75.9972 29.3241 76.0189 29.3458L73.1905 32.1742ZM75.8047 33.24C79.053 33.24 83.7557 32.9949 89.8813 32.5139L89.5681 28.5261C83.4697 29.0051 78.8924 29.24 75.8047 29.24V33.24ZM87.7247 30.52V36.52H91.7247V30.52H87.7247ZM117.546 36.52L117.759 38.5087L119.546 38.3175V36.52H117.546ZM96.4739 35.512L95.0597 36.9262L95.0597 36.9262L96.4739 35.512ZM96.5219 13.624L97.9362 15.0382L97.9362 15.0382L96.5219 13.624ZM117.546 11.56H119.546V9.56H117.546V11.56ZM117.546 18.04V20.04H119.546V18.04H117.546ZM117.546 30.28H119.546V28.1064L117.38 28.2869L117.546 30.28ZM117.333 34.5313C111.399 35.166 106.193 35.48 101.706 35.48V39.48C106.371 39.48 111.725 39.154 117.759 38.5087L117.333 34.5313ZM101.706 35.48C99.9616 35.48 98.7606 34.9702 97.8882 34.0978L95.0597 36.9262C96.8113 38.6778 99.0983 39.48 101.706 39.48V35.48ZM97.8882 34.0978C97.0157 33.2254 96.5059 32.0244 96.5059 30.28H92.5059C92.5059 32.8876 93.3081 35.1746 95.0597 36.9262L97.8882 34.0978ZM96.5059 30.28V19.24H92.5059V30.28H96.5059ZM96.5059 19.24C96.5059 17.2237 97.0596 15.9148 97.9362 15.0382L95.1077 12.2098C93.2963 14.0212 92.5059 16.4563 92.5059 19.24H96.5059ZM97.9362 15.0382C98.8534 14.1209 100.185 13.56 102.186 13.56V9.56C99.3868 9.56 96.9424 10.3751 95.1077 12.2098L97.9362 15.0382ZM102.186 13.56H117.546V9.56H102.186V13.56ZM115.546 11.56V18.04H119.546V11.56H115.546ZM117.546 16.04H104.826V20.04H117.546V16.04ZM104.826 16.04C103.878 16.04 102.799 16.2784 101.972 17.1058C101.144 17.9331 100.906 19.0117 100.906 19.96H104.906C104.906 19.8826 104.911 19.8279 104.916 19.7928C104.921 19.7579 104.925 19.7462 104.923 19.7525C104.921 19.7593 104.912 19.7838 104.891 19.819C104.869 19.8549 104.839 19.8951 104.8 19.9342C104.761 19.9734 104.721 20.0035 104.685 20.025C104.65 20.0461 104.625 20.0551 104.618 20.0574C104.612 20.0594 104.624 20.0549 104.659 20.0499C104.694 20.0449 104.749 20.04 104.826 20.04V16.04ZM100.906 19.96V29.32H104.906V19.96H100.906ZM100.906 29.32C100.906 30.2947 101.252 31.2146 101.972 31.9342L104.8 29.1058C104.822 29.1275 104.857 29.1731 104.883 29.2372C104.908 29.299 104.906 29.3346 104.906 29.32H100.906ZM101.972 31.9342C102.691 32.6538 103.611 33 104.586 33V29C104.571 29 104.607 28.9983 104.669 29.023C104.733 29.0487 104.778 29.0841 104.8 29.1058L101.972 31.9342ZM104.586 33C107.552 33 111.94 32.7541 117.712 32.2731L117.38 28.2869C111.632 28.7659 107.38 29 104.586 29V33ZM115.546 30.28V36.52H119.546V30.28H115.546ZM131.937 12.52H133.937V10.52H131.937V12.52ZM131.937 37V39H133.937V37H131.937ZM123.537 37H121.537V39H123.537V37ZM123.537 19H125.537V17H123.537V19ZM119.937 19H117.937V21H119.937V19ZM119.937 12.52V10.52H117.937V12.52H119.937ZM123.537 2.92V0.919998H121.537V2.92H123.537ZM131.937 2.92H133.937V0.919998H131.937V2.92ZM131.937 9.64V11.64H133.937V9.64H131.937ZM123.537 9.64H121.537V11.64H123.537V9.64ZM129.937 12.52V37H133.937V12.52H129.937ZM131.937 35H123.537V39H131.937V35ZM125.537 37V19H121.537V37H125.537ZM123.537 17H119.937V21H123.537V17ZM121.937 19V12.52H117.937V19H121.937ZM119.937 14.52H131.937V10.52H119.937V14.52ZM123.537 4.92H131.937V0.919998H123.537V4.92ZM129.937 2.92V9.64H133.937V2.92H129.937ZM131.937 7.64H123.537V11.64H131.937V7.64ZM125.537 9.64V2.92H121.537V9.64H125.537ZM152.592 29.8L153.164 31.7164L154.592 31.2902V29.8H152.592ZM152.592 26.92H154.592V24.92H152.592V26.92ZM144.432 27.4L145.846 28.8142L145.846 28.8142L144.432 27.4ZM144.432 30.28L143.017 31.6942L143.017 31.6942L144.432 30.28ZM137.952 12.04L137.734 10.0518L135.952 10.2467V12.04H137.952ZM159.024 13.048L157.609 14.4622L157.609 14.4622L159.024 13.048ZM160.992 37V39H162.992V37H160.992ZM153.552 37L151.59 37.3922L151.912 39H153.552V37ZM153.072 34.6L155.033 34.2078L154.45 31.2949L151.97 32.9305L153.072 34.6ZM148.416 36.808L148.965 38.731L148.978 38.7274L148.99 38.7237L148.416 36.808ZM137.52 35.512L136.105 36.9262L136.105 36.9262L137.52 35.512ZM137.52 22.888L138.934 24.3022L138.934 24.3022L137.52 22.888ZM152.592 20.92V22.92H154.592V20.92H152.592ZM152.112 17.8L150.697 19.2142L150.697 19.2142L152.112 17.8ZM144 17.608L143.848 15.6137L143.846 15.6139L144 17.608ZM137.952 18.04H135.952V20.1689L138.076 20.0361L137.952 18.04ZM146.832 32.76C148.772 32.76 150.889 32.3953 153.164 31.7164L152.019 27.8836C150.006 28.4847 148.283 28.76 146.832 28.76V32.76ZM154.592 29.8V26.92H150.592V29.8H154.592ZM152.592 24.92H145.632V28.92H152.592V24.92ZM145.632 24.92C144.657 24.92 143.737 25.2662 143.017 25.9858L145.846 28.8142C145.824 28.8359 145.778 28.8713 145.714 28.897C145.653 28.9217 145.617 28.92 145.632 28.92V24.92ZM143.017 25.9858C142.298 26.7054 141.952 27.6253 141.952 28.6H145.952C145.952 28.5854 145.953 28.621 145.929 28.6828C145.903 28.7469 145.867 28.7925 145.846 28.8142L143.017 25.9858ZM141.952 28.6V29.08H145.952V28.6H141.952ZM141.952 29.08C141.952 30.0547 142.298 30.9746 143.017 31.6942L145.846 28.8658C145.867 28.8875 145.903 28.9331 145.929 28.9972C145.953 29.059 145.952 29.0946 145.952 29.08H141.952ZM143.017 31.6942C143.737 32.4138 144.657 32.76 145.632 32.76V28.76C145.617 28.76 145.653 28.7583 145.714 28.783C145.778 28.8087 145.824 28.8441 145.846 28.8658L143.017 31.6942ZM145.632 32.76H146.832V28.76H145.632V32.76ZM138.169 14.0282C143.97 13.3942 149.176 13.08 153.792 13.08V9.08C149 9.08 143.645 9.40582 137.734 10.0518L138.169 14.0282ZM153.792 13.08C155.536 13.08 156.737 13.5898 157.609 14.4622L160.438 11.6338C158.686 9.8822 156.399 9.08 153.792 9.08V13.08ZM157.609 14.4622C158.482 15.3346 158.992 16.5356 158.992 18.28H162.992C162.992 15.6724 162.189 13.3854 160.438 11.6338L157.609 14.4622ZM158.992 18.28V37H162.992V18.28H158.992ZM160.992 35H153.552V39H160.992V35ZM155.513 36.6078L155.033 34.2078L151.11 34.9922L151.59 37.3922L155.513 36.6078ZM151.97 32.9305C150.616 33.8236 149.24 34.4725 147.841 34.8923L148.99 38.7237C150.791 38.1835 152.519 37.3604 154.173 36.2695L151.97 32.9305ZM147.866 34.885C146.397 35.3046 145.266 35.48 144.432 35.48V39.48C145.773 39.48 147.298 39.2074 148.965 38.731L147.866 34.885ZM144.432 35.48H142.752V39.48H144.432V35.48ZM142.752 35.48C141.007 35.48 139.806 34.9702 138.934 34.0978L136.105 36.9262C137.857 38.6778 140.144 39.48 142.752 39.48V35.48ZM138.934 34.0978C138.061 33.2254 137.552 32.0244 137.552 30.28H133.552C133.552 32.8876 134.354 35.1746 136.105 36.9262L138.934 34.0978ZM137.552 30.28V28.12H133.552V30.28H137.552ZM137.552 28.12C137.552 26.3756 138.061 25.1746 138.934 24.3022L136.105 21.4738C134.354 23.2254 133.552 25.5124 133.552 28.12H137.552ZM138.934 24.3022C139.806 23.4298 141.007 22.92 142.752 22.92V18.92C140.144 18.92 137.857 19.7222 136.105 21.4738L138.934 24.3022ZM142.752 22.92H152.592V18.92H142.752V22.92ZM154.592 20.92V19H150.592V20.92H154.592ZM154.592 19C154.592 18.0253 154.245 17.1054 153.526 16.3858L150.697 19.2142C150.676 19.1925 150.64 19.1469 150.615 19.0828C150.59 19.021 150.592 18.9854 150.592 19H154.592ZM153.526 16.3858C152.806 15.6662 151.886 15.32 150.912 15.32V19.32C150.926 19.32 150.891 19.3217 150.829 19.297C150.765 19.2713 150.719 19.2359 150.697 19.2142L153.526 16.3858ZM150.912 15.32C148.772 15.32 146.416 15.4187 143.848 15.6137L144.151 19.6023C146.639 19.4133 148.892 19.32 150.912 19.32V15.32ZM143.846 15.6139C141.355 15.8055 139.349 15.9487 137.827 16.0439L138.076 20.0361C139.626 19.9393 141.653 19.7944 144.153 19.6021L143.846 15.6139ZM139.952 18.04V12.04H135.952V18.04H139.952ZM178.258 37L178.554 38.9781L180.258 38.7236V37H178.258ZM167.266 35.512L168.681 34.0978L168.681 34.0978L167.266 35.512ZM165.298 3.4V1.4H163.298V3.4H165.298ZM173.698 3.4H175.698V1.4H173.698V3.4ZM178.258 30.76H180.258V28.76H178.258V30.76ZM177.963 35.0219C175.906 35.3289 173.957 35.48 172.114 35.48V39.48C174.175 39.48 176.322 39.3111 178.554 38.9781L177.963 35.0219ZM172.114 35.48C170.704 35.48 169.603 35.0204 168.681 34.0978L165.852 36.9262C167.554 38.6276 169.685 39.48 172.114 39.48V35.48ZM168.681 34.0978C167.808 33.2254 167.298 32.0244 167.298 30.28H163.298C163.298 32.8876 164.101 35.1746 165.852 36.9262L168.681 34.0978ZM167.298 30.28V3.4H163.298V30.28H167.298ZM165.298 5.4H173.698V1.4H165.298V5.4ZM171.698 3.4V29.08H175.698V3.4H171.698ZM171.698 29.08C171.698 30.0547 172.045 30.9746 172.764 31.6942L175.593 28.8658C175.614 28.8875 175.65 28.9331 175.675 28.9972C175.7 29.059 175.698 29.0946 175.698 29.08H171.698ZM172.764 31.6942C173.484 32.4138 174.404 32.76 175.378 32.76V28.76C175.364 28.76 175.399 28.7583 175.461 28.783C175.525 28.8087 175.571 28.8441 175.593 28.8658L172.764 31.6942ZM175.378 32.76H178.258V28.76H175.378V32.76ZM176.258 30.76V37H180.258V30.76H176.258ZM224.418 35.224L223.003 33.8098L223.003 33.8098L224.418 35.224ZM197.778 35.224L196.349 36.6232L196.363 36.6383L196.378 36.653L197.778 35.224ZM197.778 5.224L196.363 3.80978L196.363 3.80978L197.778 5.224ZM224.418 5.224L222.989 6.62325L223.003 6.63829L223.018 6.65302L224.418 5.224ZM220.082 12.52C220.082 11.2517 219.763 9.93314 218.776 8.94578C217.788 7.95842 216.47 7.64 215.202 7.64V11.64C215.521 11.64 215.719 11.6806 215.829 11.7174C215.882 11.7351 215.913 11.7511 215.928 11.76C215.942 11.7684 215.946 11.7734 215.947 11.7742C215.948 11.7751 215.953 11.7799 215.962 11.794C215.97 11.8088 215.986 11.8393 216.004 11.8925C216.041 12.0027 216.082 12.2007 216.082 12.52H220.082ZM215.202 7.64H207.042V11.64H215.202V7.64ZM207.042 7.64C205.773 7.64 204.455 7.95842 203.467 8.94578C202.48 9.93314 202.162 11.2517 202.162 12.52H206.162C206.162 12.2007 206.202 12.0027 206.239 11.8925C206.257 11.8393 206.273 11.8088 206.282 11.794C206.29 11.7799 206.295 11.7751 206.296 11.7742C206.297 11.7734 206.301 11.7684 206.316 11.76C206.33 11.7511 206.361 11.7351 206.414 11.7174C206.524 11.6806 206.722 11.64 207.042 11.64V7.64ZM202.162 12.52V27.88H206.162V12.52H202.162ZM202.162 27.88C202.162 29.1483 202.48 30.4669 203.467 31.4542C204.455 32.4416 205.773 32.76 207.042 32.76V28.76C206.722 28.76 206.524 28.7194 206.414 28.6826C206.361 28.6649 206.33 28.6489 206.316 28.64C206.301 28.6315 206.297 28.6266 206.296 28.6258C206.295 28.6249 206.29 28.6201 206.282 28.606C206.273 28.5912 206.257 28.5607 206.239 28.5075C206.202 28.3973 206.162 28.1993 206.162 27.88H202.162ZM207.042 32.76H215.202V28.76H207.042V32.76ZM215.202 32.76C216.47 32.76 217.788 32.4416 218.776 31.4542C219.763 30.4669 220.082 29.1483 220.082 27.88H216.082C216.082 28.1993 216.041 28.3973 216.004 28.5075C215.986 28.5607 215.97 28.5912 215.962 28.606C215.953 28.6201 215.948 28.6249 215.947 28.6258C215.946 28.6266 215.942 28.6315 215.928 28.64C215.913 28.6489 215.882 28.6649 215.829 28.6826C215.719 28.7194 215.521 28.76 215.202 28.76V32.76ZM220.082 27.88V12.52H216.082V27.88H220.082ZM224.722 27.88C224.722 30.9926 224.003 32.8103 223.003 33.8098L225.832 36.6382C227.904 34.5657 228.722 31.4874 228.722 27.88H224.722ZM223.003 33.8098C222.042 34.7708 220.249 35.48 217.122 35.48V39.48C220.714 39.48 223.785 38.6852 225.832 36.6382L223.003 33.8098ZM217.122 35.48H205.122V39.48H217.122V35.48ZM205.122 35.48C201.999 35.48 200.175 34.7728 199.177 33.795L196.378 36.653C198.452 38.6832 201.524 39.48 205.122 39.48V35.48ZM199.207 33.8248C198.229 32.8261 197.522 31.0022 197.522 27.88H193.522C193.522 31.4778 194.318 34.5499 196.349 36.6232L199.207 33.8248ZM197.522 27.88V12.52H193.522V27.88H197.522ZM197.522 12.52C197.522 9.39293 198.231 7.59919 199.192 6.63821L196.363 3.80978C194.316 5.85681 193.522 8.92707 193.522 12.52H197.522ZM199.192 6.63821C200.191 5.63871 202.009 4.92 205.122 4.92V0.919998C201.514 0.919998 198.436 1.73729 196.363 3.80978L199.192 6.63821ZM205.122 4.92H217.122V0.919998H205.122V4.92ZM217.122 4.92C220.239 4.92 222.026 5.64069 222.989 6.62325L225.847 3.82475C223.801 1.73531 220.724 0.919998 217.122 0.919998V4.92ZM223.018 6.65302C224.001 7.61511 224.722 9.40258 224.722 12.52H228.722C228.722 8.91741 227.906 5.84089 225.817 3.79498L223.018 6.65302ZM224.722 12.52V27.88H228.722V12.52H224.722ZM251.704 9.88L251.566 11.8753L253.704 12.0227V9.88H251.704ZM241.864 9.88L243.278 11.2942L243.278 11.2942L241.864 9.88ZM241.384 13.48H239.384V15.48H241.384V13.48ZM249.304 13.48H251.304V11.48H249.304V13.48ZM249.304 19.96V21.96H251.304V19.96H249.304ZM241.384 19.96V17.96H239.384V19.96H241.384ZM241.384 37V39H243.384V37H241.384ZM232.984 37H230.984V39H232.984V37ZM232.984 19.96H234.984V17.96H232.984V19.96ZM229.624 19.96H227.624V21.96H229.624V19.96ZM229.624 13.48V11.48H227.624V13.48H229.624ZM232.984 13.48V15.48H234.984V13.48H232.984ZM234.952 4.888L236.366 6.30221L236.366 6.30221L234.952 4.888ZM251.704 3.4H253.704V1.49086L251.797 1.40216L251.704 3.4ZM251.842 7.88474C250.927 7.82168 249.706 7.72656 248.174 7.59891L247.842 11.5851C249.382 11.7134 250.625 11.8103 251.566 11.8753L251.842 7.88474ZM248.174 7.59891C246.602 7.46788 245.216 7.4 244.024 7.4V11.4C245.072 11.4 246.342 11.4601 247.842 11.5851L248.174 7.59891ZM244.024 7.4C243.385 7.4 242.766 7.44417 242.21 7.56762C241.69 7.68321 240.999 7.91654 240.45 8.46579L243.278 11.2942C243.154 11.4187 243.047 11.4722 243.017 11.4859C242.987 11.4999 243 11.4898 243.078 11.4724C243.242 11.4358 243.543 11.4 244.024 11.4V7.4ZM240.45 8.46579C239.73 9.18538 239.384 10.1053 239.384 11.08H243.384C243.384 11.0654 243.386 11.101 243.361 11.1628C243.335 11.2269 243.3 11.2725 243.278 11.2942L240.45 8.46579ZM239.384 11.08V13.48H243.384V11.08H239.384ZM241.384 15.48H249.304V11.48H241.384V15.48ZM247.304 13.48V19.96H251.304V13.48H247.304ZM249.304 17.96H241.384V21.96H249.304V17.96ZM239.384 19.96V37H243.384V19.96H239.384ZM241.384 35H232.984V39H241.384V35ZM234.984 37V19.96H230.984V37H234.984ZM232.984 17.96H229.624V21.96H232.984V17.96ZM231.624 19.96V13.48H227.624V19.96H231.624ZM229.624 15.48H232.984V11.48H229.624V15.48ZM234.984 13.48V10.12H230.984V13.48H234.984ZM234.984 10.12C234.984 8.37564 235.494 7.17463 236.366 6.30221L233.538 3.47379C231.786 5.22537 230.984 7.51235 230.984 10.12H234.984ZM236.366 6.30221C237.239 5.4298 238.44 4.92 240.184 4.92V0.919998C237.576 0.919998 235.289 1.7222 233.538 3.47379L236.366 6.30221ZM240.184 4.92C242.093 4.92 244.117 4.98259 246.259 5.10855L246.494 1.11545C244.283 0.98541 242.179 0.919998 240.184 0.919998V4.92ZM246.259 5.10855C248.439 5.23679 250.224 5.33331 251.611 5.39784L251.797 1.40216C250.432 1.33869 248.665 1.24321 246.494 1.11545L246.259 5.10855ZM249.704 3.4V9.88H253.704V3.4H249.704ZM273.313 9.88L273.176 11.8753L275.313 12.0227V9.88H273.313ZM263.473 9.88L264.888 11.2942L264.888 11.2942L263.473 9.88ZM262.993 13.48H260.993V15.48H262.993V13.48ZM270.913 13.48H272.913V11.48H270.913V13.48ZM270.913 19.96V21.96H272.913V19.96H270.913ZM262.993 19.96V17.96H260.993V19.96H262.993ZM262.993 37V39H264.993V37H262.993ZM254.593 37H252.593V39H254.593V37ZM254.593 19.96H256.593V17.96H254.593V19.96ZM251.233 19.96H249.233V21.96H251.233V19.96ZM251.233 13.48V11.48H249.233V13.48H251.233ZM254.593 13.48V15.48H256.593V13.48H254.593ZM256.561 4.888L257.976 6.30221L257.976 6.30221L256.561 4.888ZM273.313 3.4H275.313V1.49086L273.406 1.40216L273.313 3.4ZM273.451 7.88474C272.537 7.82168 271.315 7.72656 269.784 7.59891L269.451 11.5851C270.992 11.7134 272.234 11.8103 273.176 11.8753L273.451 7.88474ZM269.784 7.59891C268.211 7.46788 266.825 7.4 265.633 7.4V11.4C266.682 11.4 267.952 11.4601 269.451 11.5851L269.784 7.59891ZM265.633 7.4C264.994 7.4 264.375 7.44417 263.82 7.56762C263.299 7.68321 262.608 7.91654 262.059 8.46579L264.888 11.2942C264.763 11.4187 264.656 11.4722 264.627 11.4859C264.596 11.4999 264.609 11.4898 264.687 11.4724C264.852 11.4358 265.153 11.4 265.633 11.4V7.4ZM262.059 8.46579C261.34 9.18538 260.993 10.1053 260.993 11.08H264.993C264.993 11.0654 264.995 11.101 264.97 11.1628C264.945 11.2269 264.909 11.2725 264.888 11.2942L262.059 8.46579ZM260.993 11.08V13.48H264.993V11.08H260.993ZM262.993 15.48H270.913V11.48H262.993V15.48ZM268.913 13.48V19.96H272.913V13.48H268.913ZM270.913 17.96H262.993V21.96H270.913V17.96ZM260.993 19.96V37H264.993V19.96H260.993ZM262.993 35H254.593V39H262.993V35ZM256.593 37V19.96H252.593V37H256.593ZM254.593 17.96H251.233V21.96H254.593V17.96ZM253.233 19.96V13.48H249.233V19.96H253.233ZM251.233 15.48H254.593V11.48H251.233V15.48ZM256.593 13.48V10.12H252.593V13.48H256.593ZM256.593 10.12C256.593 8.37564 257.103 7.17463 257.976 6.30221L255.147 3.47379C253.396 5.22537 252.593 7.51235 252.593 10.12H256.593ZM257.976 6.30221C258.848 5.4298 260.049 4.92 261.793 4.92V0.919998C259.186 0.919998 256.899 1.7222 255.147 3.47379L257.976 6.30221ZM261.793 4.92C263.702 4.92 265.727 4.98259 267.868 5.10855L268.103 1.11545C265.892 0.98541 263.789 0.919998 261.793 0.919998V4.92ZM267.868 5.10855C270.048 5.23679 271.833 5.33331 273.221 5.39784L273.406 1.40216C272.042 1.33869 270.275 1.24321 268.103 1.11545L267.868 5.10855ZM271.313 3.4V9.88H275.313V3.4H271.313ZM282.203 21.64H280.203V23.64H282.203V21.64ZM290.363 21.64V23.64H292.363V21.64H290.363ZM297.803 36.52L298.009 38.5093L299.803 38.3235V36.52H297.803ZM275.771 35.512L274.357 36.9262L274.357 36.9262L275.771 35.512ZM275.819 13.144L277.233 14.5582L277.233 14.5582L275.819 13.144ZM296.699 13.144L295.268 14.5415L295.285 14.5583L295.301 14.5748L296.699 13.144ZM298.763 27.64V29.64H300.763V27.64H298.763ZM282.203 27.64V25.64H280.203V27.64H282.203ZM282.683 30.76L284.097 29.3458L284.097 29.3458L282.683 30.76ZM297.803 30.52H299.803V28.3568L297.646 28.5261L297.803 30.52ZM284.123 15.08C283.175 15.08 282.096 15.3184 281.269 16.1458C280.441 16.9731 280.203 18.0517 280.203 19H284.203C284.203 18.9226 284.208 18.8679 284.213 18.8328C284.218 18.7979 284.222 18.7862 284.22 18.7925C284.218 18.7993 284.209 18.8238 284.188 18.859C284.166 18.8949 284.136 18.9351 284.097 18.9742C284.058 19.0134 284.018 19.0435 283.982 19.065C283.947 19.0861 283.922 19.0951 283.915 19.0974C283.909 19.0994 283.921 19.0949 283.956 19.0899C283.991 19.0849 284.045 19.08 284.123 19.08V15.08ZM280.203 19V21.64H284.203V19H280.203ZM282.203 23.64H290.363V19.64H282.203V23.64ZM292.363 21.64V19H288.363V21.64H292.363ZM292.363 19C292.363 18.0517 292.124 16.9731 291.297 16.1458C290.47 15.3184 289.391 15.08 288.443 15.08V19.08C288.52 19.08 288.575 19.0849 288.61 19.0899C288.645 19.0949 288.657 19.0994 288.65 19.0974C288.643 19.0951 288.619 19.0861 288.584 19.065C288.548 19.0435 288.508 19.0134 288.469 18.9742C288.429 18.9351 288.399 18.8949 288.378 18.859C288.357 18.8238 288.348 18.7993 288.345 18.7925C288.343 18.7862 288.348 18.7979 288.353 18.8328C288.358 18.8679 288.363 18.9226 288.363 19H292.363ZM288.443 15.08H284.123V19.08H288.443V15.08ZM297.597 34.5307C291.474 35.1651 285.944 35.48 281.003 35.48V39.48C286.109 39.48 291.78 39.1549 298.009 38.5093L297.597 34.5307ZM281.003 35.48C279.258 35.48 278.057 34.9702 277.185 34.0978L274.357 36.9262C276.108 38.6778 278.395 39.48 281.003 39.48V35.48ZM277.185 34.0978C276.313 33.2254 275.803 32.0244 275.803 30.28H271.803C271.803 32.8876 272.605 35.1746 274.357 36.9262L277.185 34.0978ZM275.803 30.28V18.76H271.803V30.28H275.803ZM275.803 18.76C275.803 16.7437 276.356 15.4348 277.233 14.5582L274.405 11.7298C272.593 13.5412 271.803 15.9763 271.803 18.76H275.803ZM277.233 14.5582C278.15 13.6409 279.482 13.08 281.483 13.08V9.08C278.684 9.08 276.239 9.89508 274.405 11.7298L277.233 14.5582ZM281.483 13.08H291.083V9.08H281.483V13.08ZM291.083 13.08C293.086 13.08 294.389 13.6415 295.268 14.5415L298.13 11.7465C296.321 9.89454 293.88 9.08 291.083 9.08V13.08ZM295.301 14.5748C296.201 15.4538 296.763 16.757 296.763 18.76H300.763C300.763 15.963 299.948 13.5222 298.096 11.7132L295.301 14.5748ZM296.763 18.76V27.64H300.763V18.76H296.763ZM298.763 25.64H282.203V29.64H298.763V25.64ZM280.203 27.64V29.56H284.203V27.64H280.203ZM280.203 29.56C280.203 30.5347 280.549 31.4546 281.269 32.1742L284.097 29.3458C284.119 29.3675 284.154 29.4131 284.18 29.4772C284.204 29.539 284.203 29.5746 284.203 29.56H280.203ZM281.269 32.1742C281.988 32.8938 282.908 33.24 283.883 33.24V29.24C283.868 29.24 283.904 29.2383 283.966 29.263C284.03 29.2887 284.075 29.3241 284.097 29.3458L281.269 32.1742ZM283.883 33.24C287.131 33.24 291.834 32.9949 297.959 32.5139L297.646 28.5261C291.548 29.0051 286.971 29.24 283.883 29.24V33.24ZM295.803 30.52V36.52H299.803V30.52H295.803ZM311.464 19.96L310.647 18.1346L309.464 18.6642V19.96H311.464ZM311.464 37V39H313.464V37H311.464ZM303.064 37H301.064V39H303.064V37ZM303.064 11.56V9.56H301.064V11.56H303.064ZM310.504 11.56L312.481 11.2559L312.22 9.56H310.504V11.56ZM310.984 14.68L309.007 14.9841L309.56 18.5757L312.299 16.1873L310.984 14.68ZM321.784 11.08H323.784V9.08H321.784V11.08ZM321.784 18.52V20.52H323.784V18.52H321.784ZM317.704 16.52C315.364 16.52 313.006 17.0784 310.647 18.1346L312.281 21.7854C314.21 20.9216 316.013 20.52 317.704 20.52V16.52ZM309.464 19.96V37H313.464V19.96H309.464ZM311.464 35H303.064V39H311.464V35ZM305.064 37V11.56H301.064V37H305.064ZM303.064 13.56H310.504V9.56H303.064V13.56ZM308.527 11.8641L309.007 14.9841L312.961 14.3759L312.481 11.2559L308.527 11.8641ZM312.299 16.1873C314.768 14.034 317.197 13.08 319.624 13.08V9.08C316.035 9.08 312.704 10.526 309.67 13.1727L312.299 16.1873ZM319.624 13.08H321.784V9.08H319.624V13.08ZM319.784 11.08V18.52H323.784V11.08H319.784ZM321.784 16.52H317.704V20.52H321.784V16.52ZM324.182 30.28L324.33 28.2854L322.182 28.1268V30.28H324.182ZM340.742 30.52L342.156 31.9342L342.156 31.9342L340.742 30.52ZM341.222 27.64H343.222V25.64H341.222V27.64ZM325.67 25.672L327.084 24.2578L327.084 24.2578L325.67 25.672ZM325.67 13.528L327.084 14.9422L325.67 13.528ZM347.222 11.56H349.222V9.56H347.222V11.56ZM347.222 17.8V19.8H349.222V17.8H347.222ZM332.582 18.28L333.996 19.6942L333.996 19.6942L332.582 18.28ZM332.582 20.68L331.168 22.0942L331.168 22.0942L332.582 20.68ZM347.654 23.128L349.068 21.7138L349.068 21.7138L347.654 23.128ZM347.654 35.512L349.068 36.9262L349.068 36.9262L347.654 35.512ZM324.182 36.52H322.182V38.3326L323.986 38.5104L324.182 36.52ZM324.035 32.2746C330.55 32.756 335.726 33 339.542 33V29C335.87 29 330.807 28.764 324.33 28.2854L324.035 32.2746ZM339.542 33C340.517 33 341.437 32.6538 342.156 31.9342L339.328 29.1058C339.35 29.0841 339.395 29.0487 339.459 29.023C339.521 28.9983 339.557 29 339.542 29V33ZM342.156 31.9342C342.876 31.2146 343.222 30.2947 343.222 29.32H339.222C339.222 29.3346 339.221 29.299 339.245 29.2372C339.271 29.1731 339.306 29.1275 339.328 29.1058L342.156 31.9342ZM343.222 29.32V27.64H339.222V29.32H343.222ZM341.222 25.64H330.902V29.64H341.222V25.64ZM330.902 25.64C329.158 25.64 327.957 25.1302 327.084 24.2578L324.256 27.0862C326.008 28.8378 328.295 29.64 330.902 29.64V25.64ZM327.084 24.2578C326.212 23.3854 325.702 22.1844 325.702 20.44H321.702C321.702 23.0476 322.504 25.3346 324.256 27.0862L327.084 24.2578ZM325.702 20.44V18.76H321.702V20.44H325.702ZM325.702 18.76C325.702 17.0156 326.212 15.8146 327.084 14.9422L324.256 12.1138C322.504 13.8654 321.702 16.1524 321.702 18.76H325.702ZM327.084 14.9422C327.957 14.0698 329.158 13.56 330.902 13.56V9.56C328.295 9.56 326.008 10.3622 324.256 12.1138L327.084 14.9422ZM330.902 13.56H347.222V9.56H330.902V13.56ZM345.222 11.56V17.8H349.222V11.56H345.222ZM347.222 15.8H333.782V19.8H347.222V15.8ZM333.782 15.8C332.807 15.8 331.888 16.1462 331.168 16.8658L333.996 19.6942C333.975 19.7159 333.929 19.7513 333.865 19.777C333.803 19.8017 333.768 19.8 333.782 19.8V15.8ZM331.168 16.8658C330.448 17.5854 330.102 18.5053 330.102 19.48H334.102C334.102 19.4654 334.104 19.501 334.079 19.5628C334.054 19.6269 334.018 19.6725 333.996 19.6942L331.168 16.8658ZM330.102 19.48C330.102 20.4547 330.448 21.3746 331.168 22.0942L333.996 19.2658C334.018 19.2875 334.054 19.3331 334.079 19.3972C334.104 19.459 334.102 19.4946 334.102 19.48H330.102ZM331.168 22.0942C331.888 22.8138 332.807 23.16 333.782 23.16V19.16C333.768 19.16 333.803 19.1583 333.865 19.183C333.929 19.2087 333.975 19.2441 333.996 19.2658L331.168 22.0942ZM333.782 23.16H342.422V19.16H333.782V23.16ZM342.422 23.16C344.167 23.16 345.368 23.6698 346.24 24.5422L349.068 21.7138C347.317 19.9622 345.03 19.16 342.422 19.16V23.16ZM346.24 24.5422C347.112 25.4146 347.622 26.6156 347.622 28.36H351.622C351.622 25.7524 350.82 23.4654 349.068 21.7138L346.24 24.5422ZM347.622 28.36V30.28H351.622V28.36H347.622ZM347.622 30.28C347.622 32.0244 347.112 33.2254 346.24 34.0978L349.068 36.9262C350.82 35.1746 351.622 32.8876 351.622 30.28H347.622ZM346.24 34.0978C345.368 34.9702 344.167 35.48 342.422 35.48V39.48C345.03 39.48 347.317 38.6778 349.068 36.9262L346.24 34.0978ZM342.422 35.48C336.833 35.48 330.819 35.1642 324.378 34.5296L323.986 38.5104C330.538 39.1558 336.684 39.48 342.422 39.48V35.48ZM326.182 36.52V30.28H322.182V36.52H326.182Z" fill="black" fill-opacity="0.06"/>
</svg>
