<svg width="1045" height="132" viewBox="0 0 1045 132" fill="none" xmlns="http://www.w3.org/2000/svg">
<path d="M3.85819 84.12L3.96751 82.123L1.85819 82.0075V84.12H3.85819ZM62.4662 84.408L61.052 82.9938V82.9938L62.4662 84.408ZM64.4822 66.12H66.4822V64.12H64.4822V66.12ZM9.33019 59.352L7.90117 60.7513L7.9159 60.7663L7.93094 60.781L9.33019 59.352ZM9.33019 11.112L10.7444 12.5262H10.7444L9.33019 11.112ZM81.9062 4.19999H83.9062V2.19999H81.9062V4.19999ZM81.9062 24.36V26.36H83.9062V24.36H81.9062ZM83.7782 99.816L82.364 98.4018L83.7782 99.816ZM47.4902 106.152L47.4033 108.15L47.4117 108.15L47.4201 108.151L47.4902 106.152ZM34.2422 105.576L34.1443 107.574L34.1553 107.574L34.2422 105.576ZM3.85819 103.56H1.85819V105.402L3.69361 105.553L3.85819 103.56ZM3.74886 86.117C30.0462 87.5566 47.9072 88.28 57.2822 88.28V84.28C48.0332 84.28 30.2782 83.5634 3.96751 82.123L3.74886 86.117ZM57.2822 88.28C59.88 88.28 62.1684 87.5342 63.8804 85.8222L61.052 82.9938C60.268 83.7778 59.1004 84.28 57.2822 84.28V88.28ZM63.8804 85.8222C65.6603 84.0423 66.4822 81.7257 66.4822 79.08H62.4822C62.4822 80.8503 61.9601 82.0857 61.052 82.9938L63.8804 85.8222ZM66.4822 79.08V66.12H62.4822V79.08H66.4822ZM64.4822 64.12H31.3622V68.12H64.4822V64.12ZM31.3622 64.12C21.52 64.12 14.8001 61.9088 10.7294 57.923L7.93094 60.781C13.0763 65.8192 21.0444 68.12 31.3622 68.12V64.12ZM10.7592 57.9528C6.77339 53.8821 4.56219 47.1622 4.56219 37.32H0.562188C0.562188 47.6378 2.86299 55.6059 7.90117 60.7513L10.7592 57.9528ZM4.56219 37.32V33H0.562188V37.32H4.56219ZM4.56219 33C4.56219 23.1529 6.77543 16.4952 10.7444 12.5262L7.91598 9.69778C2.86095 14.7528 0.562188 22.6871 0.562188 33H4.56219ZM10.7444 12.5262C14.8159 8.4547 21.5295 6.19999 31.3622 6.19999V2.19999C21.0348 2.19999 13.0605 4.55328 7.91597 9.69778L10.7444 12.5262ZM31.3622 6.19999H81.9062V2.19999H31.3622V6.19999ZM79.9062 4.19999V24.36H83.9062V4.19999H79.9062ZM81.9062 22.36H37.1222V26.36H81.9062V22.36ZM37.1222 22.36C33.9339 22.36 31.1753 23.1584 29.228 25.1058C27.2806 27.0531 26.4822 29.8117 26.4822 33H30.4822C30.4822 30.4283 31.1238 28.8669 32.0564 27.9342C32.989 27.0016 34.5505 26.36 37.1222 26.36V22.36ZM26.4822 33V35.88H30.4822V33H26.4822ZM26.4822 35.88C26.4822 39.0683 27.2806 41.8269 29.228 43.7742C31.1753 45.7216 33.9339 46.52 37.1222 46.52V42.52C34.5505 42.52 32.989 41.8784 32.0564 40.9458C31.1238 40.0131 30.4822 38.4517 30.4822 35.88H26.4822ZM37.1222 46.52H63.0422V42.52H37.1222V46.52ZM63.0422 46.52C72.1848 46.52 78.4761 48.6703 82.364 52.5582L85.1924 49.7298C80.2483 44.7857 72.7156 42.52 63.0422 42.52V46.52ZM82.364 52.5582C86.2519 56.4461 88.4022 62.7374 88.4022 71.88H92.4022C92.4022 62.2066 90.1365 54.6739 85.1924 49.7298L82.364 52.5582ZM88.4022 71.88V79.08H92.4022V71.88H88.4022ZM88.4022 79.08C88.4022 88.2226 86.2519 94.5139 82.364 98.4018L85.1924 101.23C90.1365 96.2861 92.4022 88.7534 92.4022 79.08H88.4022ZM82.364 98.4018C78.4761 102.29 72.1848 104.44 63.0422 104.44V108.44C72.7156 108.44 80.2483 106.174 85.1924 101.23L82.364 98.4018ZM63.0422 104.44C58.1721 104.44 53.0116 104.344 47.5603 104.153L47.4201 108.151C52.9127 108.343 58.1203 108.44 63.0422 108.44V104.44ZM47.5771 104.154L34.3291 103.578L34.1553 107.574L47.4033 108.15L47.5771 104.154ZM34.3401 103.578C24.5718 103.1 14.4661 102.429 4.02277 101.567L3.69361 105.553C14.1783 106.419 24.3285 107.092 34.1443 107.574L34.3401 103.578ZM5.85819 103.56V84.12H1.85819V103.56H5.85819ZM127.111 51L126.539 49.0836L125.111 49.5098V51H127.111ZM127.111 85.56H125.111V87.56H127.111V85.56ZM153.031 49.56L154.445 48.1458L153.031 49.56ZM127.111 105V103H125.111V105H127.111ZM127.111 129.48V131.48H129.111V129.48H127.111ZM101.911 129.48H99.9109V131.48H101.911V129.48ZM101.911 28.68V26.68H99.9109V28.68H101.911ZM124.231 28.68L126.192 28.2878L125.871 26.68H124.231V28.68ZM125.671 35.88L123.71 36.2722L124.292 39.1851L126.772 37.5495L125.671 35.88ZM139.495 29.4L140.044 31.323L140.057 31.3194L140.07 31.3156L139.495 29.4ZM173.767 33.144L172.353 34.5582L173.767 33.144ZM173.479 98.952L174.893 100.366L173.479 98.952ZM144.391 46.12C139.059 46.12 133.101 47.1247 126.539 49.0836L127.683 52.9164C133.985 51.0353 139.547 50.12 144.391 50.12V46.12ZM125.111 51V85.56H129.111V51H125.111ZM127.111 87.56H148.711V83.56H127.111V87.56ZM148.711 87.56C150.939 87.56 152.978 87.0016 154.445 85.5342C155.913 84.0669 156.471 82.0283 156.471 79.8H152.471C152.471 81.4117 152.069 82.2531 151.617 82.7058C151.164 83.1584 150.323 83.56 148.711 83.56V87.56ZM156.471 79.8V53.16H152.471V79.8H156.471ZM156.471 53.16C156.471 51.2253 155.805 49.5054 154.445 48.1458L151.617 50.9742C152.177 51.5346 152.471 52.2147 152.471 53.16H156.471ZM154.445 48.1458C153.086 46.7862 151.366 46.12 149.431 46.12V50.12C150.376 50.12 151.056 50.4138 151.617 50.9742L154.445 48.1458ZM149.431 46.12H144.391V50.12H149.431V46.12ZM125.111 105V129.48H129.111V105H125.111ZM127.111 127.48H101.911V131.48H127.111V127.48ZM103.911 129.48V28.68H99.9109V129.48H103.911ZM101.911 30.68H124.231V26.68H101.911V30.68ZM122.27 29.0722L123.71 36.2722L127.632 35.4878L126.192 28.2878L122.27 29.0722ZM126.772 37.5495C131.132 34.674 135.555 32.6056 140.044 31.323L138.945 27.4769C134.026 28.8824 129.234 31.134 124.57 34.2105L126.772 37.5495ZM140.07 31.3156C144.772 29.9051 148.596 29.24 151.591 29.24V25.24C148.058 25.24 143.818 26.0149 138.92 27.4843L140.07 31.3156ZM151.591 29.24H158.071V25.24H151.591V29.24ZM158.071 29.24C164.167 29.24 168.856 31.0618 172.353 34.5582L175.181 31.7298C170.806 27.3542 165.031 25.24 158.071 25.24V29.24ZM172.353 34.5582C175.849 38.0546 177.671 42.7436 177.671 48.84H181.671C181.671 41.8803 179.557 36.1054 175.181 31.7298L172.353 34.5582ZM177.671 48.84V81.96H181.671V48.84H177.671ZM177.671 81.96C177.671 88.7609 175.734 93.8685 172.065 97.5378L174.893 100.366C179.48 95.7795 181.671 89.5591 181.671 81.96H177.671ZM172.065 97.5378C168.5 101.102 163.447 103 156.631 103V107C164.215 107 170.394 104.866 174.893 100.366L172.065 97.5378ZM156.631 103H127.111V107H156.631V103ZM216.374 58.92H214.374V60.92H216.374V58.92ZM240.854 58.92V60.92H242.854V58.92H240.854ZM263.174 103.56L263.38 105.549L265.174 105.363V103.56H263.174ZM197.078 100.536L195.664 101.95L197.078 100.536ZM197.222 33.432L198.636 34.8462L197.222 33.432ZM259.862 33.432L258.431 34.8295L258.448 34.8463L258.465 34.8628L259.862 33.432ZM266.054 76.92V78.92H268.054V76.92H266.054ZM216.374 76.92V74.92H214.374V76.92H216.374ZM217.814 86.28L219.228 84.8658L217.814 86.28ZM263.174 85.56H265.174V83.3968L263.017 83.5661L263.174 85.56ZM222.134 43.24C219.906 43.24 217.867 43.7984 216.4 45.2658C214.932 46.7331 214.374 48.7717 214.374 51H218.374C218.374 49.3883 218.776 48.5469 219.228 48.0942C219.681 47.6416 220.522 47.24 222.134 47.24V43.24ZM214.374 51V58.92H218.374V51H214.374ZM216.374 60.92H240.854V56.92H216.374V60.92ZM242.854 58.92V51H238.854V58.92H242.854ZM242.854 51C242.854 48.7717 242.296 46.7331 240.828 45.2658C239.361 43.7984 237.322 43.24 235.094 43.24V47.24C236.706 47.24 237.547 47.6416 238 48.0942C238.452 48.5469 238.854 49.3883 238.854 51H242.854ZM235.094 43.24H222.134V47.24H235.094V43.24ZM262.968 101.571C244.493 103.485 227.763 104.44 212.774 104.44V108.44C227.929 108.44 244.799 107.475 263.38 105.549L262.968 101.571ZM212.774 104.44C206.678 104.44 201.989 102.618 198.492 99.1218L195.664 101.95C200.039 106.326 205.814 108.44 212.774 108.44V104.44ZM198.492 99.1218C194.996 95.6254 193.174 90.9364 193.174 84.84H189.174C189.174 91.7996 191.288 97.5746 195.664 101.95L198.492 99.1218ZM193.174 84.84V50.28H189.174V84.84H193.174ZM193.174 50.28C193.174 43.4637 195.072 38.4108 198.636 34.8462L195.808 32.0178C191.308 36.5172 189.174 42.6963 189.174 50.28H193.174ZM198.636 34.8462C202.306 31.1769 207.413 29.24 214.214 29.24V25.24C206.615 25.24 200.395 27.4311 195.808 32.0178L198.636 34.8462ZM214.214 29.24H243.014V25.24H214.214V29.24ZM243.014 29.24C249.817 29.24 254.864 31.1775 258.431 34.8295L261.293 32.0345C256.796 27.4305 250.611 25.24 243.014 25.24V29.24ZM258.465 34.8628C262.117 38.4298 264.054 43.477 264.054 50.28H268.054C268.054 42.683 265.864 36.4982 261.26 32.0012L258.465 34.8628ZM264.054 50.28V76.92H268.054V50.28H264.054ZM266.054 74.92H216.374V78.92H266.054V74.92ZM214.374 76.92V82.68H218.374V76.92H214.374ZM214.374 82.68C214.374 84.6147 215.04 86.3346 216.4 87.6942L219.228 84.8658C218.668 84.3054 218.374 83.6253 218.374 82.68H214.374ZM216.4 87.6942C217.759 89.0538 219.479 89.72 221.414 89.72V85.72C220.469 85.72 219.789 85.4262 219.228 84.8658L216.4 87.6942ZM221.414 89.72C230.998 89.72 244.981 88.9949 263.331 87.5539L263.017 83.5661C244.695 85.0051 230.838 85.72 221.414 85.72V89.72ZM261.174 85.56V103.56H265.174V85.56H261.174ZM346.638 103.56L346.85 105.549L348.638 105.357V103.56H346.638ZM283.422 100.536L282.008 101.95L283.422 100.536ZM283.566 34.872L284.98 36.2862L283.566 34.872ZM346.638 28.68H348.638V26.68H346.638V28.68ZM346.638 48.12V50.12H348.638V48.12H346.638ZM346.638 84.84H348.638V82.6664L346.472 82.8469L346.638 84.84ZM346.425 101.571C328.523 103.486 312.757 104.44 299.118 104.44V108.44C312.935 108.44 328.848 107.474 346.85 105.549L346.425 101.571ZM299.118 104.44C293.021 104.44 288.332 102.618 284.836 99.1218L282.008 101.95C286.383 106.326 292.158 108.44 299.118 108.44V104.44ZM284.836 99.1218C281.34 95.6254 279.518 90.9364 279.518 84.84H275.518C275.518 91.7996 277.632 97.5746 282.008 101.95L284.836 99.1218ZM279.518 84.84V51.72H275.518V84.84H279.518ZM279.518 51.72C279.518 44.9037 281.415 39.8508 284.98 36.2862L282.152 33.4578C277.652 37.9572 275.518 44.1363 275.518 51.72H279.518ZM284.98 36.2862C288.649 32.6169 293.757 30.68 300.558 30.68V26.68C292.959 26.68 286.738 28.8711 282.152 33.4578L284.98 36.2862ZM300.558 30.68H346.638V26.68H300.558V30.68ZM344.638 28.68V48.12H348.638V28.68H344.638ZM346.638 46.12H308.478V50.12H346.638V46.12ZM308.478 46.12C306.25 46.12 304.211 46.6784 302.744 48.1458C301.276 49.6131 300.718 51.6517 300.718 53.88H304.718C304.718 52.2683 305.119 51.4268 305.572 50.9742C306.025 50.5216 306.866 50.12 308.478 50.12V46.12ZM300.718 53.88V81.96H304.718V53.88H300.718ZM300.718 81.96C300.718 83.8947 301.384 85.6146 302.744 86.9742L305.572 84.1458C305.012 83.5854 304.718 82.9053 304.718 81.96H300.718ZM302.744 86.9742C304.103 88.3338 305.823 89 307.758 89V85C306.813 85 306.132 84.7062 305.572 84.1458L302.744 86.9742ZM307.758 89C316.484 89 329.512 88.2741 346.804 86.8331L346.472 82.8469C329.204 84.2859 316.311 85 307.758 85V89ZM344.638 84.84V103.56H348.638V84.84H344.638ZM389.81 31.56H391.81V29.56H389.81V31.56ZM389.81 105V107H391.81V105H389.81ZM364.61 105H362.61V107H364.61V105ZM364.61 51H366.61V49H364.61V51ZM353.81 51H351.81V53H353.81V51ZM353.81 31.56V29.56H351.81V31.56H353.81ZM364.61 2.75999V0.759995H362.61V2.75999H364.61ZM389.81 2.75999H391.81V0.759995H389.81V2.75999ZM389.81 22.92V24.92H391.81V22.92H389.81ZM364.61 22.92H362.61V24.92H364.61V22.92ZM387.81 31.56V105H391.81V31.56H387.81ZM389.81 103H364.61V107H389.81V103ZM366.61 105V51H362.61V105H366.61ZM364.61 49H353.81V53H364.61V49ZM355.81 51V31.56H351.81V51H355.81ZM353.81 33.56H389.81V29.56H353.81V33.56ZM364.61 4.75999H389.81V0.759995H364.61V4.75999ZM387.81 2.75999V22.92H391.81V2.75999H387.81ZM389.81 20.92H364.61V24.92H389.81V20.92ZM366.61 22.92V2.75999H362.61V22.92H366.61ZM451.775 83.4L452.347 85.3164L453.775 84.8902V83.4H451.775ZM451.775 74.76H453.775V72.76H451.775V74.76ZM427.295 76.2L428.709 77.6142L427.295 76.2ZM427.295 84.84L425.88 86.2542L427.295 84.84ZM407.855 30.12L407.637 28.1318L405.855 28.3267V30.12H407.855ZM471.071 33.144L469.656 34.5582L471.071 33.144ZM476.975 105V107H478.975V105H476.975ZM454.655 105L452.694 105.392L453.015 107H454.655V105ZM453.215 97.8L455.176 97.4078L454.593 94.4949L452.113 96.1305L453.215 97.8ZM439.247 104.424L439.796 106.347L439.809 106.343L439.821 106.34L439.247 104.424ZM406.559 100.536L405.144 101.95L406.559 100.536ZM406.559 62.664L407.973 64.0782L406.559 62.664ZM451.775 56.76V58.76H453.775V56.76H451.775ZM450.335 47.4L448.92 48.8142V48.8142L450.335 47.4ZM425.999 46.824L425.847 44.8297L425.845 44.8299L425.999 46.824ZM407.855 48.12H405.855V50.2489L407.979 50.1161L407.855 48.12ZM434.495 88.28C439.827 88.28 445.785 87.2753 452.347 85.3164L451.203 81.4836C444.901 83.3647 439.339 84.28 434.495 84.28V88.28ZM453.775 83.4V74.76H449.775V83.4H453.775ZM451.775 72.76H430.895V76.76H451.775V72.76ZM430.895 72.76C428.96 72.76 427.24 73.4262 425.88 74.7858L428.709 77.6142C429.269 77.0538 429.949 76.76 430.895 76.76V72.76ZM425.88 74.7858C424.521 76.1454 423.855 77.8653 423.855 79.8H427.855C427.855 78.8547 428.148 78.1746 428.709 77.6142L425.88 74.7858ZM423.855 79.8V81.24H427.855V79.8H423.855ZM423.855 81.24C423.855 83.1747 424.521 84.8946 425.88 86.2542L428.709 83.4258C428.148 82.8654 427.855 82.1853 427.855 81.24H423.855ZM425.88 86.2542C427.24 87.6138 428.96 88.28 430.895 88.28V84.28C429.949 84.28 429.269 83.9862 428.709 83.4258L425.88 86.2542ZM430.895 88.28H434.495V84.28H430.895V88.28ZM408.072 32.1082C425.585 30.1942 441.351 29.24 455.375 29.24V25.24C441.175 25.24 425.26 26.2058 407.637 28.1318L408.072 32.1082ZM455.375 29.24C461.471 29.24 466.16 31.0618 469.656 34.5582L472.485 31.7298C468.109 27.3542 462.334 25.24 455.375 25.24V29.24ZM469.656 34.5582C473.153 38.0546 474.975 42.7436 474.975 48.84H478.975C478.975 41.8803 476.86 36.1054 472.485 31.7298L469.656 34.5582ZM474.975 48.84V105H478.975V48.84H474.975ZM476.975 103H454.655V107H476.975V103ZM456.616 104.608L455.176 97.4078L451.254 98.1922L452.694 105.392L456.616 104.608ZM452.113 96.1305C447.751 99.0076 443.271 101.129 438.672 102.508L439.821 106.34C444.822 104.839 449.654 102.544 454.316 99.4695L452.113 96.1305ZM438.697 102.501C434.092 103.817 430.305 104.44 427.295 104.44V108.44C430.812 108.44 434.993 107.719 439.796 106.347L438.697 102.501ZM427.295 104.44H422.255V108.44H427.295V104.44ZM422.255 104.44C416.158 104.44 411.469 102.618 407.973 99.1218L405.144 101.95C409.52 106.326 415.295 108.44 422.255 108.44V104.44ZM407.973 99.1218C404.477 95.6254 402.655 90.9364 402.655 84.84H398.655C398.655 91.7996 400.769 97.5746 405.144 101.95L407.973 99.1218ZM402.655 84.84V78.36H398.655V84.84H402.655ZM402.655 78.36C402.655 72.2636 404.477 67.5746 407.973 64.0782L405.144 61.2498C400.769 65.6254 398.655 71.4004 398.655 78.36H402.655ZM407.973 64.0782C411.469 60.5818 416.158 58.76 422.255 58.76V54.76C415.295 54.76 409.52 56.8742 405.144 61.2498L407.973 64.0782ZM422.255 58.76H451.775V54.76H422.255V58.76ZM453.775 56.76V51H449.775V56.76H453.775ZM453.775 51C453.775 49.0653 453.108 47.3454 451.749 45.9858L448.92 48.8142C449.481 49.3746 449.775 50.0547 449.775 51H453.775ZM451.749 45.9858C450.389 44.6262 448.669 43.96 446.735 43.96V47.96C447.68 47.96 448.36 48.2538 448.92 48.8142L451.749 45.9858ZM446.735 43.96C440.435 43.96 433.471 44.2507 425.847 44.8297L426.15 48.8183C433.694 48.2453 440.555 47.96 446.735 47.96V43.96ZM425.845 44.8299C418.362 45.4055 412.324 45.8367 407.73 46.1239L407.979 50.1161C412.601 49.8273 418.66 49.3944 426.152 48.8181L425.845 44.8299ZM409.855 48.12V30.12H405.855V48.12H409.855ZM528.775 105L529.071 106.978L530.775 106.724V105H528.775ZM495.799 100.536L497.214 99.1218L495.799 100.536ZM489.895 4.19999V2.19999H487.895V4.19999H489.895ZM515.095 4.19999H517.095V2.19999H515.095V4.19999ZM528.775 86.28H530.775V84.28H528.775V86.28ZM528.48 103.022C522.135 103.969 516.09 104.44 510.343 104.44V108.44C516.308 108.44 522.551 107.951 529.071 106.978L528.48 103.022ZM510.343 104.44C505.093 104.44 500.76 102.668 497.214 99.1218L494.385 101.95C498.711 106.276 504.073 108.44 510.343 108.44V104.44ZM497.214 99.1218C493.717 95.6254 491.895 90.9364 491.895 84.84H487.895C487.895 91.7996 490.01 97.5746 494.385 101.95L497.214 99.1218ZM491.895 84.84V4.19999H487.895V84.84H491.895ZM489.895 6.19999H515.095V2.19999H489.895V6.19999ZM513.095 4.19999V81.24H517.095V4.19999H513.095ZM513.095 81.24C513.095 83.1747 513.762 84.8946 515.121 86.2542L517.95 83.4258C517.389 82.8654 517.095 82.1853 517.095 81.24H513.095ZM515.121 86.2542C516.481 87.6138 518.201 88.28 520.135 88.28V84.28C519.19 84.28 518.51 83.9862 517.95 83.4258L515.121 86.2542ZM520.135 88.28H528.775V84.28H520.135V88.28ZM526.775 86.28V105H530.775V86.28H526.775ZM667.253 99.672L665.839 98.2578L667.253 99.672ZM587.333 99.672L585.904 101.071L585.918 101.086L585.933 101.101L587.333 99.672ZM587.333 9.67199L585.918 8.25778L587.333 9.67199ZM667.253 9.67199L665.824 11.0712L665.838 11.0863L665.853 11.101L667.253 9.67199ZM650.245 31.56C650.245 28.3717 649.446 25.6131 647.499 23.6658C645.552 21.7184 642.793 20.92 639.605 20.92V24.92C642.176 24.92 643.738 25.5616 644.67 26.4942C645.603 27.4268 646.245 28.9883 646.245 31.56H650.245ZM639.605 20.92H615.125V24.92H639.605V20.92ZM615.125 20.92C611.936 20.92 609.178 21.7184 607.23 23.6658C605.283 25.6131 604.485 28.3717 604.485 31.56H608.485C608.485 28.9883 609.126 27.4268 610.059 26.4942C610.992 25.5616 612.553 24.92 615.125 24.92V20.92ZM604.485 31.56V77.64H608.485V31.56H604.485ZM604.485 77.64C604.485 80.8283 605.283 83.5869 607.23 85.5342C609.178 87.4816 611.936 88.28 615.125 88.28V84.28C612.553 84.28 610.992 83.6384 610.059 82.7058C609.126 81.7731 608.485 80.2117 608.485 77.64H604.485ZM615.125 88.28H639.605V84.28H615.125V88.28ZM639.605 88.28C642.793 88.28 645.552 87.4816 647.499 85.5342C649.446 83.5869 650.245 80.8283 650.245 77.64H646.245C646.245 80.2117 645.603 81.7731 644.67 82.7058C643.738 83.6384 642.176 84.28 639.605 84.28V88.28ZM650.245 77.64V31.56H646.245V77.64H650.245ZM672.165 77.64C672.165 87.4726 669.91 94.1863 665.839 98.2578L668.667 101.086C673.811 95.9417 676.165 87.9674 676.165 77.64H672.165ZM665.839 98.2578C661.87 102.227 655.212 104.44 645.365 104.44V108.44C655.678 108.44 663.612 106.141 668.667 101.086L665.839 98.2578ZM645.365 104.44H609.365V108.44H645.365V104.44ZM609.365 104.44C599.523 104.44 592.803 102.229 588.732 98.243L585.933 101.101C591.079 106.139 599.047 108.44 609.365 108.44V104.44ZM588.762 98.2728C584.776 94.2021 582.565 87.4822 582.565 77.64H578.565C578.565 87.9578 580.865 95.9259 585.904 101.071L588.762 98.2728ZM582.565 77.64V31.56H578.565V77.64H582.565ZM582.565 31.56C582.565 21.7129 584.778 15.0552 588.747 11.0862L585.918 8.25778C580.863 13.3128 578.565 21.2471 578.565 31.56H582.565ZM588.747 11.0862C592.818 7.0147 599.532 4.75999 609.365 4.75999V0.759995C599.037 0.759995 591.063 3.11329 585.918 8.25778L588.747 11.0862ZM609.365 4.75999H645.365V0.759995H609.365V4.75999ZM645.365 4.75999C655.202 4.75999 661.854 7.01669 665.824 11.0712L668.682 8.27274C663.628 3.1113 655.687 0.759995 645.365 0.759995V4.75999ZM665.853 11.101C669.908 15.0711 672.165 21.7226 672.165 31.56H676.165C676.165 21.2374 673.813 13.2969 668.652 8.24297L665.853 11.101ZM672.165 31.56V77.64H676.165V31.56H672.165ZM749.112 23.64L748.975 25.6353L751.112 25.7827V23.64H749.112ZM719.592 23.64L721.006 25.0542V25.0542L719.592 23.64ZM718.152 34.44H716.152V36.44H718.152V34.44ZM741.912 34.44H743.912V32.44H741.912V34.44ZM741.912 53.88V55.88H743.912V53.88H741.912ZM718.152 53.88V51.88H716.152V53.88H718.152ZM718.152 105V107H720.152V105H718.152ZM692.952 105H690.952V107H692.952V105ZM692.952 53.88H694.952V51.88H692.952V53.88ZM682.872 53.88H680.872V55.88H682.872V53.88ZM682.872 34.44V32.44H680.872V34.44H682.872ZM692.952 34.44V36.44H694.952V34.44H692.952ZM698.856 8.66399L700.27 10.0782L698.856 8.66399ZM749.112 4.19999H751.112V2.29085L749.205 2.20215L749.112 4.19999ZM749.25 21.6447C746.479 21.4537 742.794 21.1666 738.19 20.7829L737.858 24.7691C742.47 25.1534 746.177 25.4423 748.975 25.6353L749.25 21.6447ZM738.19 20.7829C733.546 20.3959 729.504 20.2 726.072 20.2V24.2C729.361 24.2 733.286 24.3881 737.858 24.7691L738.19 20.7829ZM726.072 20.2C724.313 20.2 722.774 20.3242 721.498 20.6076C720.258 20.8832 719.047 21.3565 718.178 22.2258L721.006 25.0542C721.097 24.9635 721.446 24.7168 722.366 24.5124C723.251 24.3158 724.471 24.2 726.072 24.2V20.2ZM718.178 22.2258C716.818 23.5854 716.152 25.3053 716.152 27.24H720.152C720.152 26.2947 720.446 25.6146 721.006 25.0542L718.178 22.2258ZM716.152 27.24V34.44H720.152V27.24H716.152ZM718.152 36.44H741.912V32.44H718.152V36.44ZM739.912 34.44V53.88H743.912V34.44H739.912ZM741.912 51.88H718.152V55.88H741.912V51.88ZM716.152 53.88V105H720.152V53.88H716.152ZM718.152 103H692.952V107H718.152V103ZM694.952 105V53.88H690.952V105H694.952ZM692.952 51.88H682.872V55.88H692.952V51.88ZM684.872 53.88V34.44H680.872V53.88H684.872ZM682.872 36.44H692.952V32.44H682.872V36.44ZM694.952 34.44V24.36H690.952V34.44H694.952ZM694.952 24.36C694.952 18.2636 696.774 13.5746 700.27 10.0782L697.442 7.24978C693.066 11.6254 690.952 17.4004 690.952 24.36H694.952ZM700.27 10.0782C703.767 6.58179 708.456 4.75999 714.552 4.75999V0.759995C707.593 0.759995 701.818 2.8742 697.442 7.24978L700.27 10.0782ZM714.552 4.75999C720.365 4.75999 726.517 4.95058 733.011 5.33255L733.246 1.33945C726.683 0.953407 720.452 0.759995 714.552 0.759995V4.75999ZM733.011 5.33255C739.543 5.71679 744.88 6.0053 749.019 6.19783L749.205 2.20215C745.089 2.01069 739.77 1.72321 733.246 1.33945L733.011 5.33255ZM747.112 4.19999V23.64H751.112V4.19999H747.112ZM813.94 23.64L813.803 25.6353L815.94 25.7827V23.64H813.94ZM784.42 23.64L785.835 25.0542V25.0542L784.42 23.64ZM782.98 34.44H780.98V36.44H782.98V34.44ZM806.74 34.44H808.74V32.44H806.74V34.44ZM806.74 53.88V55.88H808.74V53.88H806.74ZM782.98 53.88V51.88H780.98V53.88H782.98ZM782.98 105V107H784.98V105H782.98ZM757.78 105H755.78V107H757.78V105ZM757.78 53.88H759.78V51.88H757.78V53.88ZM747.7 53.88H745.7V55.88H747.7V53.88ZM747.7 34.44V32.44H745.7V34.44H747.7ZM757.78 34.44V36.44H759.78V34.44H757.78ZM763.684 8.66399L765.099 10.0782L763.684 8.66399ZM813.94 4.19999H815.94V2.29085L814.033 2.20215L813.94 4.19999ZM814.078 21.6447C811.308 21.4537 807.622 21.1666 803.018 20.7829L802.686 24.7691C807.298 25.1534 811.005 25.4423 813.803 25.6353L814.078 21.6447ZM803.018 20.7829C798.374 20.3959 794.332 20.2 790.9 20.2V24.2C794.189 24.2 798.115 24.3881 802.686 24.7691L803.018 20.7829ZM790.9 20.2C789.141 20.2 787.602 20.3242 786.326 20.6076C785.086 20.8832 783.875 21.3565 783.006 22.2258L785.835 25.0542C785.925 24.9635 786.274 24.7168 787.194 24.5124C788.079 24.3158 789.299 24.2 790.9 24.2V20.2ZM783.006 22.2258C781.646 23.5854 780.98 25.3053 780.98 27.24H784.98C784.98 26.2947 785.274 25.6146 785.835 25.0542L783.006 22.2258ZM780.98 27.24V34.44H784.98V27.24H780.98ZM782.98 36.44H806.74V32.44H782.98V36.44ZM804.74 34.44V53.88H808.74V34.44H804.74ZM806.74 51.88H782.98V55.88H806.74V51.88ZM780.98 53.88V105H784.98V53.88H780.98ZM782.98 103H757.78V107H782.98V103ZM759.78 105V53.88H755.78V105H759.78ZM757.78 51.88H747.7V55.88H757.78V51.88ZM749.7 53.88V34.44H745.7V53.88H749.7ZM747.7 36.44H757.78V32.44H747.7V36.44ZM759.78 34.44V24.36H755.78V34.44H759.78ZM759.78 24.36C759.78 18.2636 761.602 13.5746 765.099 10.0782L762.27 7.24978C757.895 11.6254 755.78 17.4004 755.78 24.36H759.78ZM765.099 10.0782C768.595 6.58179 773.284 4.75999 779.38 4.75999V0.759995C772.421 0.759995 766.646 2.8742 762.27 7.24978L765.099 10.0782ZM779.38 4.75999C785.193 4.75999 791.346 4.95058 797.839 5.33255L798.074 1.33945C791.511 0.953407 785.28 0.759995 779.38 0.759995V4.75999ZM797.839 5.33255C804.371 5.71679 809.708 6.0053 813.847 6.19783L814.033 2.20215C809.917 2.01069 804.598 1.72321 798.074 1.33945L797.839 5.33255ZM811.94 4.19999V23.64H815.94V4.19999H811.94ZM840.608 58.92H838.608V60.92H840.608V58.92ZM865.088 58.92V60.92H867.088V58.92H865.088ZM887.408 103.56L887.615 105.549L889.408 105.363V103.56H887.408ZM821.312 100.536L819.898 101.95H819.898L821.312 100.536ZM821.456 33.432L822.871 34.8462L821.456 33.432ZM884.096 33.432L882.666 34.8295L882.682 34.8463L882.699 34.8628L884.096 33.432ZM890.288 76.92V78.92H892.288V76.92H890.288ZM840.608 76.92V74.92H838.608V76.92H840.608ZM842.048 86.28L843.463 84.8658L842.048 86.28ZM887.408 85.56H889.408V83.3968L887.252 83.5661L887.408 85.56ZM846.368 43.24C844.14 43.24 842.102 43.7984 840.634 45.2658C839.167 46.7331 838.608 48.7717 838.608 51H842.608C842.608 49.3883 843.01 48.5469 843.463 48.0942C843.915 47.6416 844.757 47.24 846.368 47.24V43.24ZM838.608 51V58.92H842.608V51H838.608ZM840.608 60.92H865.088V56.92H840.608V60.92ZM867.088 58.92V51H863.088V58.92H867.088ZM867.088 51C867.088 48.7717 866.53 46.7331 865.063 45.2658C863.595 43.7984 861.557 43.24 859.328 43.24V47.24C860.94 47.24 861.782 47.6416 862.234 48.0942C862.687 48.5469 863.088 49.3883 863.088 51H867.088ZM859.328 43.24H846.368V47.24H859.328V43.24ZM887.202 101.571C868.728 103.485 851.998 104.44 837.008 104.44V108.44C852.163 108.44 869.033 107.475 887.615 105.549L887.202 101.571ZM837.008 104.44C830.912 104.44 826.223 102.618 822.727 99.1218L819.898 101.95C824.274 106.326 830.049 108.44 837.008 108.44V104.44ZM822.727 99.1218C819.23 95.6254 817.408 90.9364 817.408 84.84H813.408C813.408 91.7996 815.523 97.5746 819.898 101.95L822.727 99.1218ZM817.408 84.84V50.28H813.408V84.84H817.408ZM817.408 50.28C817.408 43.4637 819.306 38.4108 822.871 34.8462L820.042 32.0178C815.543 36.5172 813.408 42.6963 813.408 50.28H817.408ZM822.871 34.8462C826.54 31.1769 831.648 29.24 838.448 29.24V25.24C830.849 25.24 824.629 27.4311 820.042 32.0178L822.871 34.8462ZM838.448 29.24H867.248V25.24H838.448V29.24ZM867.248 29.24C874.051 29.24 879.099 31.1775 882.666 34.8295L885.527 32.0345C881.03 27.4305 874.845 25.24 867.248 25.24V29.24ZM882.699 34.8628C886.351 38.4298 888.288 43.477 888.288 50.28H892.288C892.288 42.683 890.098 36.4982 885.494 32.0012L882.699 34.8628ZM888.288 50.28V76.92H892.288V50.28H888.288ZM890.288 74.92H840.608V78.92H890.288V74.92ZM838.608 76.92V82.68H842.608V76.92H838.608ZM838.608 82.68C838.608 84.6147 839.275 86.3346 840.634 87.6942L843.463 84.8658C842.902 84.3054 842.608 83.6253 842.608 82.68H838.608ZM840.634 87.6942C841.994 89.0538 843.714 89.72 845.648 89.72V85.72C844.703 85.72 844.023 85.4262 843.463 84.8658L840.634 87.6942ZM845.648 89.72C855.233 89.72 869.215 88.9949 887.565 87.5539L887.252 83.5661C868.929 85.0051 855.072 85.72 845.648 85.72V89.72ZM885.408 85.56V103.56H889.408V85.56H885.408ZM928.392 53.88L927.575 52.0546L926.392 52.5842V53.88H928.392ZM928.392 105V107H930.392V105H928.392ZM903.192 105H901.192V107H903.192V105ZM903.192 28.68V26.68H901.192V28.68H903.192ZM925.512 28.68L927.489 28.3759L927.228 26.68H925.512V28.68ZM926.952 38.04L924.975 38.3441L925.528 41.9357L928.267 39.5473L926.952 38.04ZM959.352 27.24H961.352V25.24H959.352V27.24ZM959.352 49.56V51.56H961.352V49.56H959.352ZM947.112 47.56C940.74 47.56 934.222 49.0784 927.575 52.0546L929.21 55.7054C935.427 52.9216 941.389 51.56 947.112 51.56V47.56ZM926.392 53.88V105H930.392V53.88H926.392ZM928.392 103H903.192V107H928.392V103ZM905.192 105V28.68H901.192V105H905.192ZM903.192 30.68H925.512V26.68H903.192V30.68ZM923.535 28.9841L924.975 38.3441L928.929 37.7359L927.489 28.3759L923.535 28.9841ZM928.267 39.5473C936.24 32.594 944.43 29.24 952.872 29.24V25.24C943.267 25.24 934.177 29.086 925.638 36.5327L928.267 39.5473ZM952.872 29.24H959.352V25.24H952.872V29.24ZM957.352 27.24V49.56H961.352V27.24H957.352ZM959.352 47.56H947.112V51.56H959.352V47.56ZM966.547 84.84L966.694 82.8454L964.547 82.6868V84.84H966.547ZM1016.23 85.56L1017.64 86.9742L1016.23 85.56ZM1017.67 76.92H1019.67V74.92H1017.67V76.92ZM971.011 71.016L972.425 69.6018L971.011 71.016ZM971.011 34.584L972.425 35.9982L971.011 34.584ZM1035.67 28.68H1037.67V26.68H1035.67V28.68ZM1035.67 47.4V49.4H1037.67V47.4H1035.67ZM991.747 48.84L993.161 50.2542L991.747 48.84ZM991.747 56.04L990.332 57.4542V57.4542L991.747 56.04ZM1036.96 63.384L1038.38 61.9698L1036.96 63.384ZM1036.96 100.536L1038.38 101.95L1036.96 100.536ZM966.547 103.56H964.547V105.373L966.35 105.55L966.547 103.56ZM966.399 86.8346C985.906 88.276 1001.32 89 1012.63 89V85C1001.47 85 986.163 84.284 966.694 82.8454L966.399 86.8346ZM1012.63 89C1014.56 89 1016.28 88.3338 1017.64 86.9742L1014.81 84.1458C1014.25 84.7062 1013.57 85 1012.63 85V89ZM1017.64 86.9742C1019 85.6146 1019.67 83.8947 1019.67 81.96H1015.67C1015.67 82.9053 1015.37 83.5854 1014.81 84.1458L1017.64 86.9742ZM1019.67 81.96V76.92H1015.67V81.96H1019.67ZM1017.67 74.92H986.707V78.92H1017.67V74.92ZM986.707 74.92C980.61 74.92 975.921 73.0982 972.425 69.6018L969.596 72.4302C973.972 76.8058 979.747 78.92 986.707 78.92V74.92ZM972.425 69.6018C968.928 66.1054 967.107 61.4164 967.107 55.32H963.107C963.107 62.2796 965.221 68.0546 969.596 72.4302L972.425 69.6018ZM967.107 55.32V50.28H963.107V55.32H967.107ZM967.107 50.28C967.107 44.1836 968.928 39.4946 972.425 35.9982L969.596 33.1698C965.221 37.5454 963.107 43.3204 963.107 50.28H967.107ZM972.425 35.9982C975.921 32.5018 980.61 30.68 986.707 30.68V26.68C979.747 26.68 973.972 28.7942 969.596 33.1698L972.425 35.9982ZM986.707 30.68H1035.67V26.68H986.707V30.68ZM1033.67 28.68V47.4H1037.67V28.68H1033.67ZM1035.67 45.4H995.347V49.4H1035.67V45.4ZM995.347 45.4C993.412 45.4 991.692 46.0662 990.332 47.4258L993.161 50.2542C993.721 49.6938 994.401 49.4 995.347 49.4V45.4ZM990.332 47.4258C988.973 48.7854 988.307 50.5053 988.307 52.44H992.307C992.307 51.4947 992.6 50.8146 993.161 50.2542L990.332 47.4258ZM988.307 52.44C988.307 54.3747 988.973 56.0946 990.332 57.4542L993.161 54.6258C992.6 54.0654 992.307 53.3853 992.307 52.44H988.307ZM990.332 57.4542C991.692 58.8138 993.412 59.48 995.347 59.48V55.48C994.401 55.48 993.721 55.1862 993.161 54.6258L990.332 57.4542ZM995.347 59.48H1021.27V55.48H995.347V59.48ZM1021.27 59.48C1027.36 59.48 1032.05 61.3018 1035.55 64.7982L1038.38 61.9698C1034 57.5942 1028.23 55.48 1021.27 55.48V59.48ZM1035.55 64.7982C1039.04 68.2946 1040.87 72.9836 1040.87 79.08H1044.87C1044.87 72.1204 1042.75 66.3454 1038.38 61.9698L1035.55 64.7982ZM1040.87 79.08V84.84H1044.87V79.08H1040.87ZM1040.87 84.84C1040.87 90.9364 1039.04 95.6254 1035.55 99.1218L1038.38 101.95C1042.75 97.5746 1044.87 91.7996 1044.87 84.84H1040.87ZM1035.55 99.1218C1032.05 102.618 1027.36 104.44 1021.27 104.44V108.44C1028.23 108.44 1034 106.326 1038.38 101.95L1035.55 99.1218ZM1021.27 104.44C1004.35 104.44 986.175 103.484 966.743 101.57L966.35 105.55C985.894 107.476 1004.2 108.44 1021.27 108.44V104.44ZM968.547 103.56V84.84H964.547V103.56H968.547Z" fill="black" fill-opacity="0.06"/>
</svg>
