<svg width="265" height="37" viewBox="0 0 265 37" fill="none" xmlns="http://www.w3.org/2000/svg">
<path d="M2.46455 22.78L2.57387 20.783L0.464547 20.6675V22.78H2.46455ZM17.1165 22.852L15.7023 21.4378L15.7023 21.4378L17.1165 22.852ZM17.6205 18.28H19.6205V16.28H17.6205V18.28ZM3.83255 16.588L2.40353 17.9872L2.41826 18.0023L2.4333 18.017L3.83255 16.588ZM3.83255 4.528L5.24676 5.94221L5.24676 5.94221L3.83255 4.528ZM21.9765 2.8H23.9765V0.799998H21.9765V2.8ZM21.9765 7.84V9.84H23.9765V7.84H21.9765ZM22.4445 26.704L21.0303 25.2898L21.0303 25.2898L22.4445 26.704ZM13.3725 28.288L13.2857 30.2861L13.294 30.2865L13.3024 30.2868L13.3725 28.288ZM10.0605 28.144L9.96262 30.1416L9.97367 30.1421L10.0605 28.144ZM2.46455 27.64H0.464547V29.4817L2.29997 29.6332L2.46455 27.64ZM2.35522 24.777C8.92452 25.1366 13.4296 25.32 15.8205 25.32V21.32C13.5555 21.32 9.15657 21.1434 2.57387 20.783L2.35522 24.777ZM15.8205 25.32C16.7624 25.32 17.7548 25.0422 18.5308 24.2662L15.7023 21.4378C15.7296 21.4106 15.7612 21.3852 15.7951 21.3638C15.8289 21.3426 15.8584 21.3294 15.8793 21.3219C15.9201 21.3072 15.9104 21.32 15.8205 21.32V25.32ZM18.5308 24.2662C19.3027 23.4943 19.6205 22.5097 19.6205 21.52H15.6205C15.6205 21.5929 15.6097 21.597 15.624 21.5592C15.6309 21.5409 15.6418 21.5182 15.6572 21.4943C15.6727 21.4704 15.6888 21.4514 15.7023 21.4378L18.5308 24.2662ZM19.6205 21.52V18.28H15.6205V21.52H19.6205ZM17.6205 16.28H9.34055V20.28H17.6205V16.28ZM9.34055 16.28C7.05837 16.28 5.84642 15.7608 5.2318 15.159L2.4333 18.017C4.12267 19.6712 6.58272 20.28 9.34055 20.28V16.28ZM5.26157 15.1888C4.65975 14.5741 4.14055 13.3622 4.14055 11.08H0.140547C0.140547 13.8378 0.749346 16.2979 2.40353 17.9872L5.26157 15.1888ZM4.14055 11.08V10H0.140547V11.08H4.14055ZM4.14055 10C4.14055 7.71293 4.66178 6.52719 5.24676 5.94221L2.41833 3.11379C0.747309 4.78481 0.140547 7.24707 0.140547 10H4.14055ZM5.24676 5.94221C5.86226 5.32671 7.06791 4.8 9.34055 4.8V0.799998C6.57319 0.799998 4.10683 1.42529 2.41833 3.11379L5.24676 5.94221ZM9.34055 4.8H21.9765V0.799998H9.34055V4.8ZM19.9765 2.8V7.84H23.9765V2.8H19.9765ZM21.9765 5.84H10.7805V9.84H21.9765V5.84ZM10.7805 5.84C9.75226 5.84 8.61369 6.09843 7.74633 6.96579C6.87897 7.83315 6.62055 8.97171 6.62055 10H10.6205C10.6205 9.8007 10.6462 9.70773 10.6529 9.68746C10.6556 9.67932 10.6529 9.69007 10.6393 9.71274C10.6252 9.73613 10.6039 9.76507 10.5748 9.79421C10.5456 9.82336 10.5167 9.8447 10.4933 9.85874C10.4706 9.87234 10.4599 9.87508 10.468 9.87237C10.4883 9.86561 10.5812 9.84 10.7805 9.84V5.84ZM6.62055 10V10.72H10.6205V10H6.62055ZM6.62055 10.72C6.62055 11.7483 6.87897 12.8869 7.74633 13.7542C8.61369 14.6216 9.75226 14.88 10.7805 14.88V10.88C10.5812 10.88 10.4883 10.8544 10.468 10.8476C10.4599 10.8449 10.4706 10.8477 10.4933 10.8613C10.5167 10.8753 10.5456 10.8966 10.5748 10.9258C10.6039 10.9549 10.6252 10.9839 10.6393 11.0073C10.6529 11.0299 10.6556 11.0407 10.6529 11.0325C10.6462 11.0123 10.6205 10.9193 10.6205 10.72H6.62055ZM10.7805 14.88H17.2605V10.88H10.7805V14.88ZM17.2605 14.88C19.3471 14.88 20.4545 15.3743 21.0303 15.9502L23.8588 13.1218C22.2266 11.4897 19.878 10.88 17.2605 10.88V14.88ZM21.0303 15.9502C21.6062 16.5261 22.1005 17.6334 22.1005 19.72H26.1005C26.1005 17.1026 25.4909 14.7539 23.8588 13.1218L21.0303 15.9502ZM22.1005 19.72V21.52H26.1005V19.72H22.1005ZM22.1005 21.52C22.1005 23.6066 21.6062 24.7139 21.0303 25.2898L23.8588 28.1182C25.4909 26.4861 26.1005 24.1374 26.1005 21.52H22.1005ZM21.0303 25.2898C20.4545 25.8657 19.3471 26.36 17.2605 26.36V30.36C19.878 30.36 22.2266 29.7503 23.8588 28.1182L21.0303 25.2898ZM17.2605 26.36C16.0625 26.36 14.79 26.3365 13.4427 26.2892L13.3024 30.2868C14.6911 30.3355 16.0106 30.36 17.2605 30.36V26.36ZM13.4594 26.2899L10.1474 26.1459L9.97367 30.1421L13.2857 30.2861L13.4594 26.2899ZM10.1585 26.1464C7.73421 26.0276 5.22448 25.8611 2.62912 25.6468L2.29997 29.6332C4.93661 29.8509 7.49089 30.0204 9.96263 30.1416L10.1585 26.1464ZM4.46455 27.64V22.78H0.464547V27.64H4.46455ZM33.2777 14.5L32.7057 12.5836L31.2777 13.0098V14.5H33.2777ZM33.2777 23.14H31.2777V25.14H33.2777V23.14ZM39.7577 14.14L41.1719 12.7258L41.1719 12.7258L39.7577 14.14ZM33.2777 28V26H31.2777V28H33.2777ZM33.2777 34.12V36.12H35.2777V34.12H33.2777ZM26.9777 34.12H24.9777V36.12H26.9777V34.12ZM26.9777 8.92V6.92H24.9777V8.92H26.9777ZM32.5577 8.92L34.5189 8.52777L34.1973 6.92H32.5577V8.92ZM32.9177 10.72L30.9566 11.1122L31.5392 14.0251L34.0189 12.3895L32.9177 10.72ZM36.3737 9.1L36.9232 11.023L36.9358 11.0194L36.9484 11.0157L36.3737 9.1ZM44.9417 10.036L43.5275 11.4502L43.5275 11.4502L44.9417 10.036ZM44.8697 26.488L46.2839 27.9022L46.284 27.9022L44.8697 26.488ZM37.5977 11.78C36.0816 11.78 34.4438 12.0647 32.7057 12.5836L33.8498 16.4164C35.3277 15.9753 36.5699 15.78 37.5977 15.78V11.78ZM31.2777 14.5V23.14H35.2777V14.5H31.2777ZM33.2777 25.14H38.6777V21.14H33.2777V25.14ZM38.6777 25.14C39.466 25.14 40.4246 24.9416 41.1719 24.1942C41.9193 23.4469 42.1177 22.4883 42.1177 21.7H38.1177C38.1177 21.8717 38.0762 21.6331 38.3435 21.3658C38.6109 21.0984 38.8494 21.14 38.6777 21.14V25.14ZM42.1177 21.7V15.04H38.1177V21.7H42.1177ZM42.1177 15.04C42.1177 14.1853 41.8115 13.3654 41.1719 12.7258L38.3435 15.5542C38.2818 15.4925 38.2164 15.4019 38.1708 15.2878C38.1261 15.176 38.1177 15.0854 38.1177 15.04H42.1177ZM41.1719 12.7258C40.5324 12.0862 39.7125 11.78 38.8577 11.78V15.78C38.8123 15.78 38.7217 15.7717 38.61 15.727C38.4959 15.6813 38.4052 15.6159 38.3435 15.5542L41.1719 12.7258ZM38.8577 11.78H37.5977V15.78H38.8577V11.78ZM31.2777 28V34.12H35.2777V28H31.2777ZM33.2777 32.12H26.9777V36.12H33.2777V32.12ZM28.9777 34.12V8.92H24.9777V34.12H28.9777ZM26.9777 10.92H32.5577V6.92H26.9777V10.92ZM30.5966 9.31223L30.9566 11.1122L34.8789 10.3278L34.5189 8.52777L30.5966 9.31223ZM34.0189 12.3895C34.9946 11.746 35.9623 11.2976 36.9232 11.023L35.8243 7.17695C34.4332 7.57441 33.0968 8.20601 31.8165 9.05045L34.0189 12.3895ZM36.9484 11.0157C38.0504 10.6851 38.8511 10.56 39.3977 10.56V6.56C38.3124 6.56 37.0971 6.79494 35.799 7.18435L36.9484 11.0157ZM39.3977 10.56H41.0177V6.56H39.3977V10.56ZM41.0177 10.56C42.2181 10.56 42.9831 10.9058 43.5275 11.4502L46.3559 8.62179C44.9324 7.1982 43.0814 6.56 41.0177 6.56V10.56ZM43.5275 11.4502C44.0719 11.9946 44.4177 12.7596 44.4177 13.96H48.4177C48.4177 11.8964 47.7795 10.0454 46.3559 8.62179L43.5275 11.4502ZM44.4177 13.96V22.24H48.4177V13.96H44.4177ZM44.4177 22.24C44.4177 23.6409 44.0288 24.5005 43.4555 25.0738L46.284 27.9022C47.7747 26.4115 48.4177 24.4391 48.4177 22.24H44.4177ZM43.4555 25.0738C42.9149 25.6144 42.074 26 40.6577 26V30C42.8415 30 44.8085 29.3776 46.2839 27.9022L43.4555 25.0738ZM40.6577 26H33.2777V30H40.6577V26ZM55.5935 16.48H53.5935V18.48H55.5935V16.48ZM61.7135 16.48V18.48H63.7135V16.48H61.7135ZM67.2935 27.64L67.4997 29.6293L69.2935 29.4435V27.64H67.2935ZM50.7695 26.884L49.3553 28.2982L49.3553 28.2982L50.7695 26.884ZM50.8055 10.108L52.2197 11.5222L52.2197 11.5222L50.8055 10.108ZM66.4655 10.108L65.0348 11.5055L65.0512 11.5223L65.068 11.5388L66.4655 10.108ZM68.0135 20.98V22.98H70.0135V20.98H68.0135ZM55.5935 20.98V18.98H53.5935V20.98H55.5935ZM55.9535 23.32L57.3677 21.9058L57.3677 21.9058L55.9535 23.32ZM67.2935 23.14H69.2935V20.9768L67.1369 21.1461L67.2935 23.14ZM57.0335 11.06C56.2452 11.06 55.2867 11.2584 54.5393 12.0058C53.7919 12.7531 53.5935 13.7117 53.5935 14.5H57.5935C57.5935 14.3283 57.6351 14.5669 57.3677 14.8342C57.1004 15.1016 56.8618 15.06 57.0335 15.06V11.06ZM53.5935 14.5V16.48H57.5935V14.5H53.5935ZM55.5935 18.48H61.7135V14.48H55.5935V18.48ZM63.7135 16.48V14.5H59.7135V16.48H63.7135ZM63.7135 14.5C63.7135 13.7117 63.5151 12.7531 62.7677 12.0058C62.0204 11.2584 61.0618 11.06 60.2735 11.06V15.06C60.4452 15.06 60.2067 15.1016 59.9393 14.8342C59.6719 14.5669 59.7135 14.3283 59.7135 14.5H63.7135ZM60.2735 11.06H57.0335V15.06H60.2735V11.06ZM67.0874 25.6507C62.5086 26.1251 58.3789 26.36 54.6935 26.36V30.36C58.5442 30.36 62.8144 30.1149 67.4997 29.6293L67.0874 25.6507ZM54.6935 26.36C53.4932 26.36 52.7281 26.0142 52.1837 25.4698L49.3553 28.2982C50.7789 29.7218 52.6299 30.36 54.6935 30.36V26.36ZM52.1837 25.4698C51.6393 24.9254 51.2935 24.1604 51.2935 22.96H47.2935C47.2935 25.0236 47.9317 26.8746 49.3553 28.2982L52.1837 25.4698ZM51.2935 22.96V14.32H47.2935V22.96H51.2935ZM51.2935 14.32C51.2935 12.9037 51.6791 12.0628 52.2197 11.5222L49.3913 8.69379C47.9159 10.1692 47.2935 12.1363 47.2935 14.32H51.2935ZM52.2197 11.5222C52.793 10.9489 53.6526 10.56 55.0535 10.56V6.56C52.8544 6.56 50.882 7.20308 49.3913 8.69379L52.2197 11.5222ZM55.0535 10.56H62.2535V6.56H55.0535V10.56ZM62.2535 10.56C63.6565 10.56 64.4917 10.9495 65.0348 11.5055L67.8963 8.71052C66.4234 7.20254 64.4506 6.56 62.2535 6.56V10.56ZM65.068 11.5388C65.6241 12.0818 66.0135 12.917 66.0135 14.32H70.0135C70.0135 12.123 69.371 10.1502 67.863 8.67725L65.068 11.5388ZM66.0135 14.32V20.98H70.0135V14.32H66.0135ZM68.0135 18.98H55.5935V22.98H68.0135V18.98ZM53.5935 20.98V22.42H57.5935V20.98H53.5935ZM53.5935 22.42C53.5935 23.2747 53.8997 24.0946 54.5393 24.7342L57.3677 21.9058C57.4294 21.9675 57.4948 22.0581 57.5405 22.1722C57.5852 22.284 57.5935 22.3746 57.5935 22.42H53.5935ZM54.5393 24.7342C55.1789 25.3738 55.9988 25.68 56.8535 25.68V21.68C56.899 21.68 56.9895 21.6883 57.1013 21.733C57.2154 21.7787 57.306 21.8441 57.3677 21.9058L54.5393 24.7342ZM56.8535 25.68C59.3098 25.68 62.8525 25.4949 67.4501 25.1339L67.1369 21.1461C62.5665 21.5051 59.1492 21.68 56.8535 21.68V25.68ZM65.2935 23.14V27.64H69.2935V23.14H65.2935ZM88.1595 27.64L88.3721 29.6287L90.1595 29.4375V27.64H88.1595ZM72.3555 26.884L70.9412 28.2982L70.9412 28.2982L72.3555 26.884ZM72.3915 10.468L73.8057 11.8822L73.8057 11.8822L72.3915 10.468ZM88.1595 8.92H90.1595V6.92H88.1595V8.92ZM88.1595 13.78V15.78H90.1595V13.78H88.1595ZM88.1595 22.96H90.1595V20.7864L87.9934 20.9669L88.1595 22.96ZM87.9468 25.6513C83.5088 26.126 79.6223 26.36 76.2795 26.36V30.36C79.8006 30.36 83.8341 30.114 88.3721 29.6287L87.9468 25.6513ZM76.2795 26.36C75.0791 26.36 74.3141 26.0142 73.7697 25.4698L70.9412 28.2982C72.3648 29.7218 74.2158 30.36 76.2795 30.36V26.36ZM73.7697 25.4698C73.2253 24.9254 72.8795 24.1604 72.8795 22.96H68.8795C68.8795 25.0236 69.5177 26.8746 70.9412 28.2982L73.7697 25.4698ZM72.8795 22.96V14.68H68.8795V22.96H72.8795ZM72.8795 14.68C72.8795 13.2637 73.2651 12.4228 73.8057 11.8822L70.9772 9.05379C69.5018 10.5292 68.8795 12.4963 68.8795 14.68H72.8795ZM73.8057 11.8822C74.379 11.3089 75.2386 10.92 76.6395 10.92V6.92C74.4403 6.92 72.4679 7.56308 70.9772 9.05379L73.8057 11.8822ZM76.6395 10.92H88.1595V6.92H76.6395V10.92ZM86.1595 8.92V13.78H90.1595V8.92H86.1595ZM88.1595 11.78H78.6195V15.78H88.1595V11.78ZM78.6195 11.78C77.8312 11.78 76.8726 11.9784 76.1252 12.7258C75.3779 13.4731 75.1795 14.4317 75.1795 15.22H79.1795C79.1795 15.0483 79.221 15.2869 78.9537 15.5542C78.6863 15.8216 78.4477 15.78 78.6195 15.78V11.78ZM75.1795 15.22V22.24H79.1795V15.22H75.1795ZM75.1795 22.24C75.1795 23.0947 75.4856 23.9146 76.1252 24.5542L78.9537 21.7258C79.0153 21.7875 79.0808 21.8781 79.1264 21.9922C79.1711 22.104 79.1795 22.1946 79.1795 22.24H75.1795ZM76.1252 24.5542C76.7648 25.1938 77.5847 25.5 78.4395 25.5V21.5C78.4849 21.5 78.5755 21.5083 78.6872 21.553C78.8013 21.5987 78.892 21.6641 78.9537 21.7258L76.1252 24.5542ZM78.4395 25.5C80.6858 25.5 83.9935 25.3141 88.3255 24.9531L87.9934 20.9669C83.6854 21.3259 80.5131 21.5 78.4395 21.5V25.5ZM86.1595 22.96V27.64H90.1595V22.96H86.1595ZM98.9524 9.64H100.952V7.64H98.9524V9.64ZM98.9524 28V30H100.952V28H98.9524ZM92.6524 28H90.6524V30H92.6524V28ZM92.6524 14.5H94.6524V12.5H92.6524V14.5ZM89.9524 14.5H87.9524V16.5H89.9524V14.5ZM89.9524 9.64V7.64H87.9524V9.64H89.9524ZM92.6524 2.44V0.439999H90.6524V2.44H92.6524ZM98.9524 2.44H100.952V0.439999H98.9524V2.44ZM98.9524 7.48V9.48H100.952V7.48H98.9524ZM92.6524 7.48H90.6524V9.48H92.6524V7.48ZM96.9524 9.64V28H100.952V9.64H96.9524ZM98.9524 26H92.6524V30H98.9524V26ZM94.6524 28V14.5H90.6524V28H94.6524ZM92.6524 12.5H89.9524V16.5H92.6524V12.5ZM91.9524 14.5V9.64H87.9524V14.5H91.9524ZM89.9524 11.64H98.9524V7.64H89.9524V11.64ZM92.6524 4.44H98.9524V0.439999H92.6524V4.44ZM96.9524 2.44V7.48H100.952V2.44H96.9524ZM98.9524 5.48H92.6524V9.48H98.9524V5.48ZM94.6524 7.48V2.44H90.6524V7.48H94.6524ZM114.444 22.6L115.016 24.5164L116.444 24.0902V22.6H114.444ZM114.444 20.44H116.444V18.44H114.444V20.44ZM108.324 20.8L109.738 22.2142L109.738 22.2142L108.324 20.8ZM108.324 22.96L106.909 24.3742L106.909 24.3742L108.324 22.96ZM103.464 9.28L103.246 7.29184L101.464 7.48667V9.28H103.464ZM119.268 10.036L117.853 11.4502L117.853 11.4502L119.268 10.036ZM120.744 28V30H122.744V28H120.744ZM115.164 28L113.203 28.3922L113.524 30H115.164V28ZM114.804 26.2L116.765 25.8078L116.182 22.8949L113.702 24.5305L114.804 26.2ZM111.312 27.856L111.861 29.779L111.874 29.7754L111.886 29.7717L111.312 27.856ZM103.14 26.884L101.725 28.2982L101.725 28.2982L103.14 26.884ZM103.14 17.416L104.554 18.8302L104.554 18.8302L103.14 17.416ZM114.444 15.94V17.94H116.444V15.94H114.444ZM114.084 13.6L112.669 15.0142L112.669 15.0142L114.084 13.6ZM108 13.456L107.848 11.4617L107.846 11.4619L108 13.456ZM103.464 13.78H101.464V15.9089L103.588 15.7761L103.464 13.78ZM110.124 25.32C111.64 25.32 113.278 25.0353 115.016 24.5164L113.872 20.6836C112.394 21.1247 111.151 21.32 110.124 21.32V25.32ZM116.444 22.6V20.44H112.444V22.6H116.444ZM114.444 18.44H109.224V22.44H114.444V18.44ZM109.224 18.44C108.369 18.44 107.549 18.7462 106.909 19.3858L109.738 22.2142C109.676 22.2759 109.586 22.3413 109.471 22.387C109.36 22.4317 109.269 22.44 109.224 22.44V18.44ZM106.909 19.3858C106.27 20.0254 105.964 20.8453 105.964 21.7H109.964C109.964 21.7454 109.955 21.836 109.911 21.9478C109.865 22.0619 109.8 22.1525 109.738 22.2142L106.909 19.3858ZM105.964 21.7V22.06H109.964V21.7H105.964ZM105.964 22.06C105.964 22.9147 106.27 23.7346 106.909 24.3742L109.738 21.5458C109.8 21.6075 109.865 21.6981 109.911 21.8122C109.955 21.924 109.964 22.0146 109.964 22.06H105.964ZM106.909 24.3742C107.549 25.0138 108.369 25.32 109.224 25.32V21.32C109.269 21.32 109.36 21.3283 109.471 21.373C109.586 21.4187 109.676 21.4841 109.738 21.5458L106.909 24.3742ZM109.224 25.32H110.124V21.32H109.224V25.32ZM103.681 11.2682C108.018 10.7942 111.904 10.56 115.344 10.56V6.56C111.728 6.56 107.693 6.80582 103.246 7.29184L103.681 11.2682ZM115.344 10.56C116.544 10.56 117.309 10.9058 117.853 11.4502L120.682 8.62179C119.258 7.1982 117.407 6.56 115.344 6.56V10.56ZM117.853 11.4502C118.398 11.9946 118.744 12.7596 118.744 13.96H122.744C122.744 11.8964 122.105 10.0454 120.682 8.62179L117.853 11.4502ZM118.744 13.96V28H122.744V13.96H118.744ZM120.744 26H115.164V30H120.744V26ZM117.125 27.6078L116.765 25.8078L112.843 26.5922L113.203 28.3922L117.125 27.6078ZM113.702 24.5305C112.724 25.1756 111.736 25.6405 110.737 25.9403L111.886 29.7717C113.287 29.3515 114.627 28.7124 115.905 27.8695L113.702 24.5305ZM110.762 25.933C109.685 26.2406 108.886 26.36 108.324 26.36V30.36C109.393 30.36 110.586 30.1434 111.861 29.779L110.762 25.933ZM108.324 26.36H107.064V30.36H108.324V26.36ZM107.064 26.36C105.863 26.36 105.098 26.0142 104.554 25.4698L101.725 28.2982C103.149 29.7218 105 30.36 107.064 30.36V26.36ZM104.554 25.4698C104.009 24.9254 103.664 24.1604 103.664 22.96H99.6637C99.6637 25.0236 100.302 26.8746 101.725 28.2982L104.554 25.4698ZM103.664 22.96V21.34H99.6637V22.96H103.664ZM103.664 21.34C103.664 20.1396 104.009 19.3746 104.554 18.8302L101.725 16.0018C100.302 17.4254 99.6637 19.2764 99.6637 21.34H103.664ZM104.554 18.8302C105.098 18.2858 105.863 17.94 107.064 17.94V13.94C105 13.94 103.149 14.5782 101.725 16.0018L104.554 18.8302ZM107.064 17.94H114.444V13.94H107.064V17.94ZM116.444 15.94V14.5H112.444V15.94H116.444ZM116.444 14.5C116.444 13.6453 116.137 12.8254 115.498 12.1858L112.669 15.0142C112.608 14.9525 112.542 14.8619 112.497 14.7478C112.452 14.636 112.444 14.5454 112.444 14.5H116.444ZM115.498 12.1858C114.858 11.5462 114.038 11.24 113.184 11.24V15.24C113.138 15.24 113.048 15.2317 112.936 15.187C112.822 15.1413 112.731 15.0759 112.669 15.0142L115.498 12.1858ZM113.184 11.24C111.564 11.24 109.784 11.3147 107.848 11.4617L108.151 15.4503C110.007 15.3093 111.684 15.24 113.184 15.24V11.24ZM107.846 11.4619C105.979 11.6055 104.477 11.7127 103.339 11.7839L103.588 15.7761C104.754 15.7033 106.277 15.5945 108.153 15.4501L107.846 11.4619ZM105.464 13.78V9.28H101.464V13.78H105.464ZM133.694 28L133.989 29.9781L135.694 29.7236V28H133.694ZM125.45 26.884L126.864 25.4698L126.864 25.4698L125.45 26.884ZM123.974 2.8V0.799998H121.974V2.8H123.974ZM130.274 2.8H132.274V0.799998H130.274V2.8ZM133.694 23.32H135.694V21.32H133.694V23.32ZM133.399 26.0219C131.878 26.2489 130.441 26.36 129.086 26.36V30.36C130.659 30.36 132.294 30.2311 133.989 29.9781L133.399 26.0219ZM129.086 26.36C128.156 26.36 127.459 26.0644 126.864 25.4698L124.036 28.2982C125.409 29.6716 127.136 30.36 129.086 30.36V26.36ZM126.864 25.4698C126.32 24.9254 125.974 24.1604 125.974 22.96H121.974C121.974 25.0236 122.612 26.8746 124.036 28.2982L126.864 25.4698ZM125.974 22.96V2.8H121.974V22.96H125.974ZM123.974 4.8H130.274V0.799998H123.974V4.8ZM128.274 2.8V22.06H132.274V2.8H128.274ZM128.274 22.06C128.274 22.9147 128.58 23.7346 129.22 24.3742L132.048 21.5458C132.11 21.6075 132.175 21.6981 132.221 21.8122C132.265 21.924 132.274 22.0146 132.274 22.06H128.274ZM129.22 24.3742C129.859 25.0138 130.679 25.32 131.534 25.32V21.32C131.579 21.32 131.67 21.3283 131.782 21.373C131.896 21.4187 131.986 21.4841 132.048 21.5458L129.22 24.3742ZM131.534 25.32H133.694V21.32H131.534V25.32ZM131.694 23.32V28H135.694V23.32H131.694ZM168.313 26.668L166.899 25.2538L166.899 25.2538L168.313 26.668ZM148.333 26.668L146.904 28.0672L146.919 28.0823L146.934 28.097L148.333 26.668ZM148.333 4.168L146.919 2.75378L146.919 2.75379L148.333 4.168ZM168.313 4.168L166.884 5.56725L166.899 5.58229L166.914 5.59702L168.313 4.168ZM165.561 9.64C165.561 8.61171 165.303 7.47314 164.435 6.60578C163.568 5.73842 162.429 5.48 161.401 5.48V9.48C161.6 9.48 161.693 9.50561 161.714 9.51236C161.722 9.51508 161.711 9.51234 161.688 9.49873C161.665 9.4847 161.636 9.46336 161.607 9.43421C161.578 9.40507 161.556 9.37613 161.542 9.35274C161.529 9.33006 161.526 9.31932 161.529 9.32745C161.536 9.34773 161.561 9.4407 161.561 9.64H165.561ZM161.401 5.48H155.281V9.48H161.401V5.48ZM155.281 5.48C154.253 5.48 153.114 5.73843 152.247 6.60578C151.38 7.47314 151.121 8.61171 151.121 9.64H155.121C155.121 9.4407 155.147 9.34773 155.154 9.32745C155.156 9.31932 155.154 9.33006 155.14 9.35274C155.126 9.37613 155.105 9.40507 155.075 9.43421C155.046 9.46336 155.017 9.4847 154.994 9.49873C154.971 9.51234 154.96 9.51508 154.969 9.51236C154.989 9.50561 155.082 9.48 155.281 9.48V5.48ZM151.121 9.64V21.16H155.121V9.64H151.121ZM151.121 21.16C151.121 22.1883 151.38 23.3269 152.247 24.1942C153.114 25.0616 154.253 25.32 155.281 25.32V21.32C155.082 21.32 154.989 21.2944 154.969 21.2876C154.96 21.2849 154.971 21.2877 154.994 21.3013C155.017 21.3153 155.046 21.3366 155.075 21.3658C155.105 21.3949 155.126 21.4239 155.14 21.4473C155.154 21.4699 155.156 21.4807 155.154 21.4725C155.147 21.4523 155.121 21.3593 155.121 21.16H151.121ZM155.281 25.32H161.401V21.32H155.281V25.32ZM161.401 25.32C162.429 25.32 163.568 25.0616 164.435 24.1942C165.303 23.3269 165.561 22.1883 165.561 21.16H161.561C161.561 21.3593 161.536 21.4523 161.529 21.4725C161.526 21.4807 161.529 21.4699 161.542 21.4473C161.556 21.4239 161.578 21.3949 161.607 21.3658C161.636 21.3366 161.665 21.3153 161.688 21.3013C161.711 21.2877 161.722 21.2849 161.714 21.2876C161.693 21.2944 161.6 21.32 161.401 21.32V25.32ZM165.561 21.16V9.64H161.561V21.16H165.561ZM168.041 21.16C168.041 23.4326 167.514 24.6383 166.899 25.2538L169.727 28.0822C171.416 26.3937 172.041 23.9274 172.041 21.16H168.041ZM166.899 25.2538C166.314 25.8388 165.128 26.36 162.841 26.36V30.36C165.594 30.36 168.056 29.7532 169.727 28.0822L166.899 25.2538ZM162.841 26.36H153.841V30.36H162.841V26.36ZM153.841 26.36C151.559 26.36 150.347 25.8408 149.732 25.239L146.934 28.097C148.623 29.7512 151.083 30.36 153.841 30.36V26.36ZM149.762 25.2688C149.16 24.6541 148.641 23.4422 148.641 21.16H144.641C144.641 23.9178 145.25 26.3779 146.904 28.0672L149.762 25.2688ZM148.641 21.16V9.64H144.641V21.16H148.641ZM148.641 9.64C148.641 7.35293 149.162 6.16719 149.747 5.58221L146.919 2.75379C145.248 4.42481 144.641 6.88707 144.641 9.64H148.641ZM149.747 5.58221C150.363 4.96671 151.569 4.44 153.841 4.44V0.439999C151.074 0.439999 148.607 1.06529 146.919 2.75378L149.747 5.58221ZM153.841 4.44H162.841V0.439999H153.841V4.44ZM162.841 4.44C165.119 4.44 166.298 4.96869 166.884 5.56725L169.742 2.76875C168.072 1.06331 165.604 0.439999 162.841 0.439999V4.44ZM166.914 5.59702C167.512 6.18311 168.041 7.36258 168.041 9.64H172.041C172.041 6.87741 171.418 4.40889 169.712 2.73898L166.914 5.59702ZM168.041 9.64V21.16H172.041V9.64H168.041ZM188.778 7.66L188.64 9.65526L190.778 9.80268V7.66H188.778ZM181.398 7.66L182.812 9.07421L182.812 9.07421L181.398 7.66ZM181.038 10.36H179.038V12.36H181.038V10.36ZM186.978 10.36H188.978V8.36H186.978V10.36ZM186.978 15.22V17.22H188.978V15.22H186.978ZM181.038 15.22V13.22H179.038V15.22H181.038ZM181.038 28V30H183.038V28H181.038ZM174.738 28H172.738V30H174.738V28ZM174.738 15.22H176.738V13.22H174.738V15.22ZM172.218 15.22H170.218V17.22H172.218V15.22ZM172.218 10.36V8.36H170.218V10.36H172.218ZM174.738 10.36V12.36H176.738V10.36H174.738ZM176.214 3.916L177.628 5.33021L177.628 5.33021L176.214 3.916ZM188.778 2.8H190.778V0.890858L188.871 0.802158L188.778 2.8ZM188.916 5.66474C188.233 5.61768 187.32 5.54656 186.172 5.45091L185.84 9.43709C186.996 9.53344 187.931 9.60632 188.64 9.65526L188.916 5.66474ZM186.172 5.45091C184.984 5.35188 183.93 5.3 183.018 5.3V9.3C183.786 9.3 184.724 9.34412 185.84 9.43709L186.172 5.45091ZM183.018 5.3C182.519 5.3 182.015 5.33417 181.549 5.43763C181.119 5.53321 180.493 5.73654 179.984 6.24579L182.812 9.07421C182.668 9.21873 182.535 9.28966 182.472 9.31842C182.41 9.3474 182.384 9.34978 182.417 9.34237C182.448 9.33551 182.512 9.32416 182.618 9.31498C182.722 9.30591 182.854 9.3 183.018 9.3V5.3ZM179.984 6.24579C179.344 6.88538 179.038 7.70528 179.038 8.56H183.038C183.038 8.60543 183.03 8.69603 182.985 8.80778C182.939 8.92187 182.874 9.01253 182.812 9.07421L179.984 6.24579ZM179.038 8.56V10.36H183.038V8.56H179.038ZM181.038 12.36H186.978V8.36H181.038V12.36ZM184.978 10.36V15.22H188.978V10.36H184.978ZM186.978 13.22H181.038V17.22H186.978V13.22ZM179.038 15.22V28H183.038V15.22H179.038ZM181.038 26H174.738V30H181.038V26ZM176.738 28V15.22H172.738V28H176.738ZM174.738 13.22H172.218V17.22H174.738V13.22ZM174.218 15.22V10.36H170.218V15.22H174.218ZM172.218 12.36H174.738V8.36H172.218V12.36ZM176.738 10.36V7.84H172.738V10.36H176.738ZM176.738 7.84C176.738 6.63964 177.084 5.87463 177.628 5.33021L174.8 2.50179C173.376 3.92537 172.738 5.77636 172.738 7.84H176.738ZM177.628 5.33021C178.173 4.7858 178.938 4.44 180.138 4.44V0.439999C178.074 0.439999 176.223 1.0782 174.8 2.50179L177.628 5.33021ZM180.138 4.44C181.559 4.44 183.067 4.48659 184.665 4.58055L184.899 0.58745C183.233 0.48941 181.645 0.439999 180.138 0.439999V4.44ZM184.665 4.58055C186.301 4.67679 187.642 4.74931 188.685 4.79784L188.871 0.802158C187.85 0.754691 186.527 0.683211 184.899 0.58745L184.665 4.58055ZM186.778 2.8V7.66H190.778V2.8H186.778ZM204.985 7.66L204.847 9.65526L206.985 9.80268V7.66H204.985ZM197.605 7.66L199.019 9.07421L199.019 9.07421L197.605 7.66ZM197.245 10.36H195.245V12.36H197.245V10.36ZM203.185 10.36H205.185V8.36H203.185V10.36ZM203.185 15.22V17.22H205.185V15.22H203.185ZM197.245 15.22V13.22H195.245V15.22H197.245ZM197.245 28V30H199.245V28H197.245ZM190.945 28H188.945V30H190.945V28ZM190.945 15.22H192.945V13.22H190.945V15.22ZM188.425 15.22H186.425V17.22H188.425V15.22ZM188.425 10.36V8.36H186.425V10.36H188.425ZM190.945 10.36V12.36H192.945V10.36H190.945ZM192.421 3.916L193.835 5.33021L193.835 5.33021L192.421 3.916ZM204.985 2.8H206.985V0.890858L205.078 0.802158L204.985 2.8ZM205.123 5.66474C204.44 5.61768 203.527 5.54656 202.379 5.45091L202.047 9.43709C203.203 9.53344 204.138 9.60632 204.847 9.65526L205.123 5.66474ZM202.379 5.45091C201.191 5.35188 200.137 5.3 199.225 5.3V9.3C199.993 9.3 200.931 9.34412 202.047 9.43709L202.379 5.45091ZM199.225 5.3C198.726 5.3 198.222 5.33417 197.756 5.43763C197.326 5.53321 196.7 5.73654 196.191 6.24579L199.019 9.07421C198.875 9.21873 198.742 9.28966 198.679 9.31842C198.617 9.3474 198.591 9.34978 198.624 9.34237C198.655 9.33551 198.719 9.32416 198.825 9.31498C198.929 9.30591 199.061 9.3 199.225 9.3V5.3ZM196.191 6.24579C195.551 6.88538 195.245 7.70528 195.245 8.56H199.245C199.245 8.60543 199.237 8.69603 199.192 8.80778C199.146 8.92187 199.081 9.01253 199.019 9.07421L196.191 6.24579ZM195.245 8.56V10.36H199.245V8.56H195.245ZM197.245 12.36H203.185V8.36H197.245V12.36ZM201.185 10.36V15.22H205.185V10.36H201.185ZM203.185 13.22H197.245V17.22H203.185V13.22ZM195.245 15.22V28H199.245V15.22H195.245ZM197.245 26H190.945V30H197.245V26ZM192.945 28V15.22H188.945V28H192.945ZM190.945 13.22H188.425V17.22H190.945V13.22ZM190.425 15.22V10.36H186.425V15.22H190.425ZM188.425 12.36H190.945V8.36H188.425V12.36ZM192.945 10.36V7.84H188.945V10.36H192.945ZM192.945 7.84C192.945 6.63964 193.291 5.87463 193.835 5.33021L191.007 2.50179C189.583 3.92537 188.945 5.77636 188.945 7.84H192.945ZM193.835 5.33021C194.38 4.7858 195.145 4.44 196.345 4.44V0.439999C194.281 0.439999 192.43 1.0782 191.007 2.50179L193.835 5.33021ZM196.345 4.44C197.766 4.44 199.274 4.48659 200.872 4.58055L201.107 0.58745C199.44 0.48941 197.852 0.439999 196.345 0.439999V4.44ZM200.872 4.58055C202.508 4.67679 203.849 4.74931 204.892 4.79784L205.078 0.802158C204.057 0.754691 202.734 0.683211 201.107 0.58745L200.872 4.58055ZM202.985 2.8V7.66H206.985V2.8H202.985ZM211.652 16.48H209.652V18.48H211.652V16.48ZM217.772 16.48V18.48H219.772V16.48H217.772ZM223.352 27.64L223.558 29.6293L225.352 29.4435V27.64H223.352ZM206.828 26.884L205.414 28.2982L205.414 28.2982L206.828 26.884ZM206.864 10.108L208.278 11.5222L208.278 11.5222L206.864 10.108ZM222.524 10.108L221.093 11.5055L221.11 11.5223L221.127 11.5388L222.524 10.108ZM224.072 20.98V22.98H226.072V20.98H224.072ZM211.652 20.98V18.98H209.652V20.98H211.652ZM212.012 23.32L213.426 21.9058L213.426 21.9058L212.012 23.32ZM223.352 23.14H225.352V20.9768L223.196 21.1461L223.352 23.14ZM213.092 11.06C212.304 11.06 211.345 11.2584 210.598 12.0058C209.851 12.7531 209.652 13.7117 209.652 14.5H213.652C213.652 14.3283 213.694 14.5669 213.426 14.8342C213.159 15.1016 212.92 15.06 213.092 15.06V11.06ZM209.652 14.5V16.48H213.652V14.5H209.652ZM211.652 18.48H217.772V14.48H211.652V18.48ZM219.772 16.48V14.5H215.772V16.48H219.772ZM219.772 14.5C219.772 13.7117 219.574 12.7531 218.826 12.0058C218.079 11.2584 217.12 11.06 216.332 11.06V15.06C216.504 15.06 216.265 15.1016 215.998 14.8342C215.731 14.5669 215.772 14.3283 215.772 14.5H219.772ZM216.332 11.06H213.092V15.06H216.332V11.06ZM223.146 25.6507C218.567 26.1251 214.437 26.36 210.752 26.36V30.36C214.603 30.36 218.873 30.1149 223.558 29.6293L223.146 25.6507ZM210.752 26.36C209.552 26.36 208.787 26.0142 208.242 25.4698L205.414 28.2982C206.837 29.7218 208.688 30.36 210.752 30.36V26.36ZM208.242 25.4698C207.698 24.9254 207.352 24.1604 207.352 22.96H203.352C203.352 25.0236 203.99 26.8746 205.414 28.2982L208.242 25.4698ZM207.352 22.96V14.32H203.352V22.96H207.352ZM207.352 14.32C207.352 12.9037 207.738 12.0628 208.278 11.5222L205.45 8.69379C203.974 10.1692 203.352 12.1363 203.352 14.32H207.352ZM208.278 11.5222C208.852 10.9489 209.711 10.56 211.112 10.56V6.56C208.913 6.56 206.941 7.20308 205.45 8.69379L208.278 11.5222ZM211.112 10.56H218.312V6.56H211.112V10.56ZM218.312 10.56C219.715 10.56 220.55 10.9495 221.093 11.5055L223.955 8.71052C222.482 7.20254 220.509 6.56 218.312 6.56V10.56ZM221.127 11.5388C221.683 12.0818 222.072 12.917 222.072 14.32H226.072C226.072 12.123 225.43 10.1502 223.922 8.67725L221.127 11.5388ZM222.072 14.32V20.98H226.072V14.32H222.072ZM224.072 18.98H211.652V22.98H224.072V18.98ZM209.652 20.98V22.42H213.652V20.98H209.652ZM209.652 22.42C209.652 23.2747 209.958 24.0946 210.598 24.7342L213.426 21.9058C213.488 21.9675 213.553 22.0581 213.599 22.1722C213.644 22.284 213.652 22.3746 213.652 22.42H209.652ZM210.598 24.7342C211.237 25.3738 212.057 25.68 212.912 25.68V21.68C212.958 21.68 213.048 21.6883 213.16 21.733C213.274 21.7787 213.365 21.8441 213.426 21.9058L210.598 24.7342ZM212.912 25.68C215.368 25.68 218.911 25.4949 223.509 25.1339L223.196 21.1461C218.625 21.5051 215.208 21.68 212.912 21.68V25.68ZM221.352 23.14V27.64H225.352V23.14H221.352ZM233.598 15.22L232.781 13.3946L231.598 13.9242V15.22H233.598ZM233.598 28V30H235.598V28H233.598ZM227.298 28H225.298V30H227.298V28ZM227.298 8.92V6.92H225.298V8.92H227.298ZM232.878 8.92L234.855 8.61588L234.594 6.92H232.878V8.92ZM233.238 11.26L231.261 11.5641L231.814 15.1557L234.553 12.7673L233.238 11.26ZM241.338 8.56H243.338V6.56H241.338V8.56ZM241.338 14.14V16.14H243.338V14.14H241.338ZM238.278 12.14C236.442 12.14 234.604 12.5784 232.781 13.3946L234.415 17.0454C235.808 16.4216 237.091 16.14 238.278 16.14V12.14ZM231.598 15.22V28H235.598V15.22H231.598ZM233.598 26H227.298V30H233.598V26ZM229.298 28V8.92H225.298V28H229.298ZM227.298 10.92H232.878V6.92H227.298V10.92ZM230.901 9.22411L231.261 11.5641L235.215 10.9559L234.855 8.61588L230.901 9.22411ZM234.553 12.7673C236.334 11.214 238.043 10.56 239.718 10.56V6.56C236.881 6.56 234.27 7.70603 231.924 9.75268L234.553 12.7673ZM239.718 10.56H241.338V6.56H239.718V10.56ZM239.338 8.56V14.14H243.338V8.56H239.338ZM241.338 12.14H238.278V16.14H241.338V12.14ZM243.137 22.96L243.284 20.9654L241.137 20.8068V22.96H243.137ZM255.557 23.14L256.971 24.5542L256.971 24.5542L255.557 23.14ZM255.917 20.98H257.917V18.98H255.917V20.98ZM244.253 19.504L245.667 18.0898L245.667 18.0898L244.253 19.504ZM244.253 10.396L245.667 11.8102L244.253 10.396ZM260.417 8.92H262.417V6.92H260.417V8.92ZM260.417 13.6V15.6H262.417V13.6H260.417ZM249.437 13.96L250.851 15.3742L250.851 15.3742L249.437 13.96ZM249.437 15.76L248.022 17.1742L248.022 17.1742L249.437 15.76ZM260.741 17.596L262.155 16.1818L262.155 16.1818L260.741 17.596ZM260.741 26.884L262.155 28.2982L262.155 28.2982L260.741 26.884ZM243.137 27.64H241.137V29.4526L242.941 29.6304L243.137 27.64ZM242.989 24.9546C247.88 25.316 251.776 25.5 254.657 25.5V21.5C251.921 21.5 248.137 21.324 243.284 20.9654L242.989 24.9546ZM254.657 25.5C255.511 25.5 256.331 25.1938 256.971 24.5542L254.142 21.7258C254.204 21.6641 254.295 21.5987 254.409 21.553C254.521 21.5083 254.611 21.5 254.657 21.5V25.5ZM256.971 24.5542C257.61 23.9146 257.917 23.0947 257.917 22.24H253.917C253.917 22.1946 253.925 22.104 253.97 21.9922C254.015 21.8781 254.081 21.7875 254.142 21.7258L256.971 24.5542ZM257.917 22.24V20.98H253.917V22.24H257.917ZM255.917 18.98H248.177V22.98H255.917V18.98ZM248.177 18.98C246.976 18.98 246.211 18.6342 245.667 18.0898L242.838 20.9182C244.262 22.3418 246.113 22.98 248.177 22.98V18.98ZM245.667 18.0898C245.122 17.5454 244.777 16.7804 244.777 15.58H240.777C240.777 17.6436 241.415 19.4946 242.838 20.9182L245.667 18.0898ZM244.777 15.58V14.32H240.777V15.58H244.777ZM244.777 14.32C244.777 13.1196 245.122 12.3546 245.667 11.8102L242.838 8.98179C241.415 10.4054 240.777 12.2564 240.777 14.32H244.777ZM245.667 11.8102C246.211 11.2658 246.976 10.92 248.177 10.92V6.92C246.113 6.92 244.262 7.5582 242.838 8.98179L245.667 11.8102ZM248.177 10.92H260.417V6.92H248.177V10.92ZM258.417 8.92V13.6H262.417V8.92H258.417ZM260.417 11.6H250.337V15.6H260.417V11.6ZM250.337 11.6C249.482 11.6 248.662 11.9062 248.022 12.5458L250.851 15.3742C250.789 15.4359 250.699 15.5013 250.584 15.547C250.473 15.5917 250.382 15.6 250.337 15.6V11.6ZM248.022 12.5458C247.383 13.1854 247.077 14.0053 247.077 14.86H251.077C251.077 14.9054 251.068 14.996 251.024 15.1078C250.978 15.2219 250.913 15.3125 250.851 15.3742L248.022 12.5458ZM247.077 14.86C247.077 15.7147 247.383 16.5346 248.022 17.1742L250.851 14.3458C250.913 14.4075 250.978 14.4981 251.024 14.6122C251.068 14.724 251.077 14.8146 251.077 14.86H247.077ZM248.022 17.1742C248.662 17.8138 249.482 18.12 250.337 18.12V14.12C250.382 14.12 250.473 14.1283 250.584 14.173C250.699 14.2187 250.789 14.2841 250.851 14.3458L248.022 17.1742ZM250.337 18.12H256.817V14.12H250.337V18.12ZM256.817 18.12C258.017 18.12 258.782 18.4658 259.326 19.0102L262.155 16.1818C260.731 14.7582 258.88 14.12 256.817 14.12V18.12ZM259.326 19.0102C259.871 19.5546 260.217 20.3196 260.217 21.52H264.217C264.217 19.4564 263.578 17.6054 262.155 16.1818L259.326 19.0102ZM260.217 21.52V22.96H264.217V21.52H260.217ZM260.217 22.96C260.217 24.1604 259.871 24.9254 259.326 25.4698L262.155 28.2982C263.578 26.8746 264.217 25.0236 264.217 22.96H260.217ZM259.326 25.4698C258.782 26.0142 258.017 26.36 256.817 26.36V30.36C258.88 30.36 260.731 29.7218 262.155 28.2982L259.326 25.4698ZM256.817 26.36C252.643 26.36 248.149 26.1242 243.333 25.6496L242.941 29.6304C247.868 30.1158 252.494 30.36 256.817 30.36V26.36ZM245.137 27.64V22.96H241.137V27.64H245.137Z" fill="black" fill-opacity="0.06"/>
</svg>
