<svg width="698" height="90" viewBox="0 0 698 90" fill="none" xmlns="http://www.w3.org/2000/svg">
<path d="M3.07213 57.08L3.18145 55.083L1.07213 54.9675V57.08H3.07213ZM42.1441 57.272L40.7299 55.8578L40.7299 55.8578L42.1441 57.272ZM43.4881 45.08H45.4881V43.08H43.4881V45.08ZM6.72013 40.568L5.2911 41.9672L5.30583 41.9823L5.32088 41.997L6.72013 40.568ZM6.72013 8.408L8.13434 9.82221L8.13434 9.82221L6.72013 8.408ZM55.1041 3.8H57.1041V1.8H55.1041V3.8ZM55.1041 17.24V19.24H57.1041V17.24H55.1041ZM56.3521 67.544L54.9379 66.1298L54.9379 66.1298L56.3521 67.544ZM32.1601 71.768L32.0733 73.7661L32.0816 73.7665L32.09 73.7668L32.1601 71.768ZM23.3281 71.384L23.2302 73.3816L23.2413 73.3821L23.3281 71.384ZM3.07213 70.04H1.07213V71.8817L2.90755 72.0332L3.07213 70.04ZM2.9628 59.077C20.4921 60.0366 32.4171 60.52 38.6881 60.52V56.52C32.5431 56.52 20.7242 56.0434 3.18145 55.083L2.9628 59.077ZM38.6881 60.52C40.5499 60.52 42.2623 59.9822 43.5583 58.6862L40.7299 55.8578C40.3619 56.2258 39.7703 56.52 38.6881 56.52V60.52ZM43.5583 58.6862C44.8902 57.3543 45.4881 55.6297 45.4881 53.72H41.4881C41.4881 54.7543 41.19 55.3977 40.7299 55.8578L43.5583 58.6862ZM45.4881 53.72V45.08H41.4881V53.72H45.4881ZM43.4881 43.08H21.4081V47.08H43.4881V43.08ZM21.4081 43.08C14.926 43.08 10.654 41.6208 8.11938 39.139L5.32088 41.997C8.93025 45.5312 14.4503 47.08 21.4081 47.08V43.08ZM8.14915 39.1688C5.66733 36.6341 4.20813 32.3622 4.20813 25.88H0.208125C0.208125 32.8378 1.75692 38.3579 5.2911 41.9672L8.14915 39.1688ZM4.20813 25.88V23H0.208125V25.88H4.20813ZM4.20813 23C4.20813 16.5129 5.66936 12.2872 8.13434 9.82221L5.30591 6.99379C1.75489 10.5448 0.208125 16.0471 0.208125 23H4.20813ZM8.13434 9.82221C10.6698 7.28671 14.9355 5.8 21.4081 5.8V1.8C14.4408 1.8 8.91441 3.38529 5.30591 6.99379L8.13434 9.82221ZM21.4081 5.8H55.1041V1.8H21.4081V5.8ZM53.1041 3.8V17.24H57.1041V3.8H53.1041ZM55.1041 15.24H25.2481V19.24H55.1041V15.24ZM25.2481 15.24C23.0198 15.24 20.9813 15.7984 19.5139 17.2658C18.0466 18.7331 17.4881 20.7717 17.4881 23H21.4881C21.4881 21.3883 21.8897 20.5469 22.3423 20.0942C22.795 19.6416 23.6364 19.24 25.2481 19.24V15.24ZM17.4881 23V24.92H21.4881V23H17.4881ZM17.4881 24.92C17.4881 27.1483 18.0466 29.1869 19.5139 30.6542C20.9813 32.1216 23.0198 32.68 25.2481 32.68V28.68C23.6364 28.68 22.795 28.2784 22.3423 27.8258C21.8897 27.3731 21.4881 26.5317 21.4881 24.92H17.4881ZM25.2481 32.68H42.5281V28.68H25.2481V32.68ZM42.5281 32.68C48.5347 32.68 52.522 34.0943 54.9379 36.5102L57.7663 33.6818C54.2942 30.2097 49.0655 28.68 42.5281 28.68V32.68ZM54.9379 36.5102C57.3538 38.9261 58.7681 42.9134 58.7681 48.92H62.7681C62.7681 42.3826 61.2385 37.1539 57.7663 33.6818L54.9379 36.5102ZM58.7681 48.92V53.72H62.7681V48.92H58.7681ZM58.7681 53.72C58.7681 59.7266 57.3538 63.7139 54.9379 66.1298L57.7663 68.9582C61.2385 65.4861 62.7681 60.2574 62.7681 53.72H58.7681ZM54.9379 66.1298C52.522 68.5457 48.5347 69.96 42.5281 69.96V73.96C49.0655 73.96 54.2942 72.4303 57.7663 68.9582L54.9379 66.1298ZM42.5281 69.96C39.29 69.96 35.8576 69.8965 32.2303 69.7692L32.09 73.7668C35.7587 73.8955 39.2382 73.96 42.5281 73.96V69.96ZM32.247 69.7699L23.415 69.3859L23.2413 73.3821L32.0733 73.7661L32.247 69.7699ZM23.426 69.3864C16.9218 69.0676 10.1921 68.6211 3.2367 68.0468L2.90755 72.0332C9.90419 72.6109 16.6785 73.0604 23.2302 73.3816L23.426 69.3864ZM5.07213 70.04V57.08H1.07213V70.04H5.07213ZM85.2406 35L84.6686 33.0836L83.2406 33.5098V35H85.2406ZM85.2406 58.04H83.2406V60.04H85.2406V58.04ZM102.521 34.04L103.935 32.6258L103.935 32.6258L102.521 34.04ZM85.2406 71V69H83.2406V71H85.2406ZM85.2406 87.32V89.32H87.2406V87.32H85.2406ZM68.4406 87.32H66.4406V89.32H68.4406V87.32ZM68.4406 20.12V18.12H66.4406V20.12H68.4406ZM83.3206 20.12L85.2818 19.7278L84.9602 18.12H83.3206V20.12ZM84.2806 24.92L82.3195 25.3122L82.902 28.2251L85.3818 26.5895L84.2806 24.92ZM93.4966 20.6L94.0461 22.523L94.0587 22.5194L94.0713 22.5156L93.4966 20.6ZM116.345 23.096L114.93 24.5102L114.93 24.5102L116.345 23.096ZM116.153 66.968L117.567 68.3822L117.567 68.3822L116.153 66.968ZM96.7606 31.08C93.1244 31.08 89.0867 31.7647 84.6686 33.0836L85.8127 36.9164C89.9705 35.6753 93.6128 35.08 96.7606 35.08V31.08ZM83.2406 35V58.04H87.2406V35H83.2406ZM85.2406 60.04H99.6406V56.04H85.2406V60.04ZM99.6406 60.04C101.229 60.04 102.787 59.6416 103.935 58.4942C105.082 57.3469 105.481 55.7883 105.481 54.2H101.481C101.481 55.1717 101.239 55.5331 101.106 55.6658C100.974 55.7984 100.612 56.04 99.6406 56.04V60.04ZM105.481 54.2V36.44H101.481V54.2H105.481ZM105.481 36.44C105.481 34.9853 104.974 33.6654 103.935 32.6258L101.106 35.4542C101.347 35.6946 101.481 35.9747 101.481 36.44H105.481ZM103.935 32.6258C102.895 31.5862 101.575 31.08 100.121 31.08V35.08C100.586 35.08 100.866 35.2138 101.106 35.4542L103.935 32.6258ZM100.121 31.08H96.7606V35.08H100.121V31.08ZM83.2406 71V87.32H87.2406V71H83.2406ZM85.2406 85.32H68.4406V89.32H85.2406V85.32ZM70.4406 87.32V20.12H66.4406V87.32H70.4406ZM68.4406 22.12H83.3206V18.12H68.4406V22.12ZM81.3595 20.5122L82.3195 25.3122L86.2418 24.5278L85.2818 19.7278L81.3595 20.5122ZM85.3818 26.5895C88.2375 24.706 91.1252 23.3576 94.0461 22.523L92.9472 18.6769C89.5961 19.6344 86.3397 21.166 83.1794 23.2505L85.3818 26.5895ZM94.0713 22.5156C97.1733 21.5851 99.654 21.16 101.561 21.16V17.16C99.1153 17.16 96.22 17.6949 92.9219 18.6843L94.0713 22.5156ZM101.561 21.16H105.881V17.16H101.561V21.16ZM105.881 21.16C109.801 21.16 112.746 22.3258 114.93 24.5102L117.759 21.6818C114.695 18.6182 110.664 17.16 105.881 17.16V21.16ZM114.93 24.5102C117.115 26.6946 118.281 29.6396 118.281 33.56H122.281C122.281 28.7764 120.822 24.7454 117.759 21.6818L114.93 24.5102ZM118.281 33.56V55.64H122.281V33.56H118.281ZM118.281 55.64C118.281 60.0409 117.032 63.2605 114.738 65.5538L117.567 68.3822C120.778 65.1715 122.281 60.8391 122.281 55.64H118.281ZM114.738 65.5538C112.518 67.7744 109.337 69 104.921 69V73C110.104 73 114.411 71.5376 117.567 68.3822L114.738 65.5538ZM104.921 69H85.2406V73H104.921V69ZM144.749 40.28H142.749V42.28H144.749V40.28ZM161.069 40.28V42.28H163.069V40.28H161.069ZM175.949 70.04L176.156 72.0293L177.949 71.8435V70.04H175.949ZM131.885 68.024L130.471 69.4382L130.471 69.4382L131.885 68.024ZM131.981 23.288L133.396 24.7022L133.396 24.7022L131.981 23.288ZM173.741 23.288L172.311 24.6855L172.327 24.7023L172.344 24.7188L173.741 23.288ZM177.869 52.28V54.28H179.869V52.28H177.869ZM144.749 52.28V50.28H142.749V52.28H144.749ZM145.709 58.52L147.124 57.1058L147.124 57.1058L145.709 58.52ZM175.949 58.04H177.949V55.8768L175.793 56.0461L175.949 58.04ZM148.589 29.16C147.001 29.16 145.443 29.5584 144.295 30.7058C143.148 31.8531 142.749 33.4117 142.749 35H146.749C146.749 34.0283 146.991 33.6669 147.124 33.5342C147.256 33.4016 147.618 33.16 148.589 33.16V29.16ZM142.749 35V40.28H146.749V35H142.749ZM144.749 42.28H161.069V38.28H144.749V42.28ZM163.069 40.28V35H159.069V40.28H163.069ZM163.069 35C163.069 33.4117 162.671 31.8531 161.524 30.7058C160.376 29.5584 158.818 29.16 157.229 29.16V33.16C158.201 33.16 158.563 33.4016 158.695 33.5342C158.828 33.6669 159.069 34.0283 159.069 35H163.069ZM157.229 29.16H148.589V33.16H157.229V29.16ZM175.743 68.0507C163.444 69.3251 152.315 69.96 142.349 69.96V73.96C152.48 73.96 163.75 73.3149 176.156 72.0293L175.743 68.0507ZM142.349 69.96C138.429 69.96 135.484 68.7942 133.3 66.6098L130.471 69.4382C133.535 72.5018 137.566 73.96 142.349 73.96V69.96ZM133.3 66.6098C131.115 64.4254 129.949 61.4804 129.949 57.56H125.949C125.949 62.3436 127.408 66.3746 130.471 69.4382L133.3 66.6098ZM129.949 57.56V34.52H125.949V57.56H129.949ZM129.949 34.52C129.949 30.1037 131.175 26.9228 133.396 24.7022L130.567 21.8738C127.412 25.0292 125.949 29.3363 125.949 34.52H129.949ZM133.396 24.7022C135.689 22.4089 138.909 21.16 143.309 21.16V17.16C138.11 17.16 133.778 18.6631 130.567 21.8738L133.396 24.7022ZM143.309 21.16H162.509V17.16H143.309V21.16ZM162.509 21.16C166.912 21.16 170.088 22.4095 172.311 24.6855L175.172 21.8905C172.019 18.6625 167.706 17.16 162.509 17.16V21.16ZM172.344 24.7188C174.62 26.9418 175.869 30.117 175.869 34.52H179.869C179.869 29.323 178.367 25.0102 175.139 21.8572L172.344 24.7188ZM175.869 34.52V52.28H179.869V34.52H175.869ZM177.869 50.28H144.749V54.28H177.869V50.28ZM142.749 52.28V56.12H146.749V52.28H142.749ZM142.749 56.12C142.749 57.5747 143.256 58.8946 144.295 59.9342L147.124 57.1058C146.883 56.8654 146.749 56.5853 146.749 56.12H142.749ZM144.295 59.9342C145.335 60.9738 146.655 61.48 148.109 61.48V57.48C147.644 57.48 147.364 57.3462 147.124 57.1058L144.295 59.9342ZM148.109 61.48C154.526 61.48 163.868 60.9949 176.106 60.0339L175.793 56.0461C163.582 57.0051 154.365 57.48 148.109 57.48V61.48ZM173.949 58.04V70.04H177.949V58.04H173.949ZM231.592 70.04L231.805 72.0287L233.592 71.8375V70.04H231.592ZM189.448 68.024L188.034 69.4382L188.034 69.4382L189.448 68.024ZM189.544 24.248L190.958 25.6622L190.958 25.6622L189.544 24.248ZM231.592 20.12H233.592V18.12H231.592V20.12ZM231.592 33.08V35.08H233.592V33.08H231.592ZM231.592 57.56H233.592V55.3864L231.426 55.5669L231.592 57.56ZM231.379 68.0513C219.461 69.326 208.975 69.96 199.912 69.96V73.96C209.153 73.96 219.787 73.314 231.805 72.0287L231.379 68.0513ZM199.912 69.96C195.992 69.96 193.047 68.7942 190.862 66.6098L188.034 69.4382C191.097 72.5018 195.128 73.96 199.912 73.96V69.96ZM190.862 66.6098C188.678 64.4254 187.512 61.4804 187.512 57.56H183.512C183.512 62.3436 184.97 66.3746 188.034 69.4382L190.862 66.6098ZM187.512 57.56V35.48H183.512V57.56H187.512ZM187.512 35.48C187.512 31.0637 188.738 27.8828 190.958 25.6622L188.13 22.8338C184.974 25.9892 183.512 30.2963 183.512 35.48H187.512ZM190.958 25.6622C193.251 23.3689 196.471 22.12 200.872 22.12V18.12C195.673 18.12 191.34 19.6231 188.13 22.8338L190.958 25.6622ZM200.872 22.12H231.592V18.12H200.872V22.12ZM229.592 20.12V33.08H233.592V20.12H229.592ZM231.592 31.08H206.152V35.08H231.592V31.08ZM206.152 31.08C204.564 31.08 203.005 31.4784 201.858 32.6258C200.71 33.7731 200.312 35.3317 200.312 36.92H204.312C204.312 35.9483 204.553 35.5869 204.686 35.4542C204.819 35.3216 205.18 35.08 206.152 35.08V31.08ZM200.312 36.92V55.64H204.312V36.92H200.312ZM200.312 55.64C200.312 57.0947 200.818 58.4146 201.858 59.4542L204.686 56.6258C204.446 56.3854 204.312 56.1053 204.312 55.64H200.312ZM201.858 59.4542C202.897 60.4938 204.217 61 205.672 61V57C205.207 57 204.926 56.8662 204.686 56.6258L201.858 59.4542ZM205.672 61C211.518 61 220.226 60.5141 231.758 59.5531L231.426 55.5669C219.918 56.5259 211.345 57 205.672 57V61ZM229.592 57.56V70.04H233.592V57.56H229.592ZM260.373 22.04H262.373V20.04H260.373V22.04ZM260.373 71V73H262.373V71H260.373ZM243.573 71H241.573V73H243.573V71ZM243.573 35H245.573V33H243.573V35ZM236.373 35H234.373V37H236.373V35ZM236.373 22.04V20.04H234.373V22.04H236.373ZM243.573 2.84V0.839996H241.573V2.84H243.573ZM260.373 2.84H262.373V0.839996H260.373V2.84ZM260.373 16.28V18.28H262.373V16.28H260.373ZM243.573 16.28H241.573V18.28H243.573V16.28ZM258.373 22.04V71H262.373V22.04H258.373ZM260.373 69H243.573V73H260.373V69ZM245.573 71V35H241.573V71H245.573ZM243.573 33H236.373V37H243.573V33ZM238.373 35V22.04H234.373V35H238.373ZM236.373 24.04H260.373V20.04H236.373V24.04ZM243.573 4.84H260.373V0.839996H243.573V4.84ZM258.373 2.84V16.28H262.373V2.84H258.373ZM260.373 14.28H243.573V18.28H260.373V14.28ZM245.573 16.28V2.84H241.573V16.28H245.573ZM301.683 56.6L302.255 58.5164L303.683 58.0902V56.6H301.683ZM301.683 50.84H303.683V48.84H301.683V50.84ZM285.363 51.8L286.777 53.2142L286.777 53.2142L285.363 51.8ZM285.363 57.56L283.949 58.9742L283.949 58.9742L285.363 57.56ZM272.403 21.08L272.186 19.0918L270.403 19.2867V21.08H272.403ZM314.547 23.096L313.133 24.5102L313.133 24.5102L314.547 23.096ZM318.483 71V73H320.483V71H318.483ZM303.603 71L301.642 71.3922L301.964 73H303.603V71ZM302.643 66.2L304.604 65.8078L304.022 62.8949L301.542 64.5305L302.643 66.2ZM293.331 70.616L293.881 72.539L293.893 72.5354L293.906 72.5317L293.331 70.616ZM271.539 68.024L270.125 69.4382L270.125 69.4382L271.539 68.024ZM271.539 42.776L272.953 44.1902L272.953 44.1902L271.539 42.776ZM301.683 38.84V40.84H303.683V38.84H301.683ZM300.723 32.6L299.309 34.0142L299.309 34.0142L300.723 32.6ZM284.499 32.216L284.348 30.2217L284.346 30.2219L284.499 32.216ZM272.403 33.08H270.403V35.2089L272.528 35.0761L272.403 33.08ZM290.163 60.52C293.799 60.52 297.837 59.8353 302.255 58.5164L301.111 54.6836C296.953 55.9247 293.311 56.52 290.163 56.52V60.52ZM303.683 56.6V50.84H299.683V56.6H303.683ZM301.683 48.84H287.763V52.84H301.683V48.84ZM287.763 48.84C286.308 48.84 284.989 49.3462 283.949 50.3858L286.777 53.2142C287.018 52.9738 287.298 52.84 287.763 52.84V48.84ZM283.949 50.3858C282.909 51.4254 282.403 52.7453 282.403 54.2H286.403C286.403 53.7347 286.537 53.4546 286.777 53.2142L283.949 50.3858ZM282.403 54.2V55.16H286.403V54.2H282.403ZM282.403 55.16C282.403 56.6147 282.909 57.9346 283.949 58.9742L286.777 56.1458C286.537 55.9054 286.403 55.6253 286.403 55.16H282.403ZM283.949 58.9742C284.989 60.0138 286.308 60.52 287.763 60.52V56.52C287.298 56.52 287.018 56.3862 286.777 56.1458L283.949 58.9742ZM287.763 60.52H290.163V56.52H287.763V60.52ZM272.62 23.0682C284.277 21.7942 294.763 21.16 304.083 21.16V17.16C294.587 17.16 283.953 17.8058 272.186 19.0918L272.62 23.0682ZM304.083 21.16C308.003 21.16 310.948 22.3258 313.133 24.5102L315.961 21.6818C312.898 18.6182 308.867 17.16 304.083 17.16V21.16ZM313.133 24.5102C315.317 26.6946 316.483 29.6396 316.483 33.56H320.483C320.483 28.7764 319.025 24.7454 315.961 21.6818L313.133 24.5102ZM316.483 33.56V71H320.483V33.56H316.483ZM318.483 69H303.603V73H318.483V69ZM305.564 70.6078L304.604 65.8078L300.682 66.5922L301.642 71.3922L305.564 70.6078ZM301.542 64.5305C298.684 66.4156 295.756 67.8005 292.756 68.7003L293.906 72.5317C297.306 71.5115 300.586 69.9524 303.744 67.8695L301.542 64.5305ZM292.782 68.693C289.745 69.5606 287.286 69.96 285.363 69.96V73.96C287.793 73.96 290.645 73.4634 293.881 72.539L292.782 68.693ZM285.363 69.96H282.003V73.96H285.363V69.96ZM282.003 69.96C278.083 69.96 275.138 68.7942 272.953 66.6098L270.125 69.4382C273.188 72.5018 277.219 73.96 282.003 73.96V69.96ZM272.953 66.6098C270.769 64.4254 269.603 61.4804 269.603 57.56H265.603C265.603 62.3436 267.061 66.3746 270.125 69.4382L272.953 66.6098ZM269.603 57.56V53.24H265.603V57.56H269.603ZM269.603 53.24C269.603 49.3196 270.769 46.3746 272.953 44.1902L270.125 41.3618C267.061 44.4254 265.603 48.4564 265.603 53.24H269.603ZM272.953 44.1902C275.138 42.0058 278.083 40.84 282.003 40.84V36.84C277.219 36.84 273.188 38.2982 270.125 41.3618L272.953 44.1902ZM282.003 40.84H301.683V36.84H282.003V40.84ZM303.683 38.84V35H299.683V38.84H303.683ZM303.683 35C303.683 33.5453 303.177 32.2254 302.137 31.1858L299.309 34.0142C299.549 34.2546 299.683 34.5347 299.683 35H303.683ZM302.137 31.1858C301.098 30.1462 299.778 29.64 298.323 29.64V33.64C298.788 33.64 299.069 33.7738 299.309 34.0142L302.137 31.1858ZM298.323 29.64C294.103 29.64 289.444 29.8347 284.348 30.2217L284.651 34.2103C289.667 33.8293 294.223 33.64 298.323 33.64V29.64ZM284.346 30.2219C279.358 30.6055 275.337 30.8927 272.278 31.0839L272.528 35.0761C275.613 34.8833 279.656 34.5944 284.653 34.2101L284.346 30.2219ZM274.403 33.08V21.08H270.403V33.08H274.403ZM353.017 71L353.312 72.9781L355.017 72.7236V71H353.017ZM331.033 68.024L332.447 66.6098L332.447 66.6098L331.033 68.024ZM327.097 3.8V1.8H325.097V3.8H327.097ZM343.897 3.8H345.897V1.8H343.897V3.8ZM353.017 58.52H355.017V56.52H353.017V58.52ZM352.722 69.0219C348.521 69.6489 344.524 69.96 340.729 69.96V73.96C344.742 73.96 348.937 73.6311 353.312 72.9781L352.722 69.0219ZM340.729 69.96C337.399 69.96 334.682 68.8444 332.447 66.6098L329.619 69.4382C332.632 72.4516 336.379 73.96 340.729 73.96V69.96ZM332.447 66.6098C330.263 64.4254 329.097 61.4804 329.097 57.56H325.097C325.097 62.3436 326.555 66.3746 329.619 69.4382L332.447 66.6098ZM329.097 57.56V3.8H325.097V57.56H329.097ZM327.097 5.8H343.897V1.8H327.097V5.8ZM341.897 3.8V55.16H345.897V3.8H341.897ZM341.897 55.16C341.897 56.6147 342.403 57.9346 343.443 58.9742L346.271 56.1458C346.031 55.9054 345.897 55.6253 345.897 55.16H341.897ZM343.443 58.9742C344.482 60.0138 345.802 60.52 347.257 60.52V56.52C346.792 56.52 346.511 56.3862 346.271 56.1458L343.443 58.9742ZM347.257 60.52H353.017V56.52H347.257V60.52ZM351.017 58.52V71H355.017V58.52H351.017ZM445.335 67.448L443.921 66.0338L443.921 66.0338L445.335 67.448ZM392.055 67.448L390.626 68.8472L390.641 68.8623L390.656 68.877L392.055 67.448ZM392.055 7.44799L390.641 6.03378L390.641 6.03378L392.055 7.44799ZM445.335 7.44799L443.906 8.84724L443.921 8.86229L443.936 8.87701L445.335 7.44799ZM434.663 22.04C434.663 19.8117 434.105 17.7731 432.637 16.3058C431.17 14.8384 429.131 14.28 426.903 14.28V18.28C428.515 18.28 429.356 18.6816 429.809 19.1342C430.262 19.5868 430.663 20.4283 430.663 22.04H434.663ZM426.903 14.28H410.583V18.28H426.903V14.28ZM410.583 14.28C408.355 14.28 406.316 14.8384 404.849 16.3058C403.382 17.7731 402.823 19.8117 402.823 22.04H406.823C406.823 20.4283 407.225 19.5868 407.677 19.1342C408.13 18.6816 408.971 18.28 410.583 18.28V14.28ZM402.823 22.04V52.76H406.823V22.04H402.823ZM402.823 52.76C402.823 54.9883 403.382 57.0269 404.849 58.4942C406.316 59.9616 408.355 60.52 410.583 60.52V56.52C408.971 56.52 408.13 56.1184 407.677 55.6658C407.225 55.2131 406.823 54.3717 406.823 52.76H402.823ZM410.583 60.52H426.903V56.52H410.583V60.52ZM426.903 60.52C429.131 60.52 431.17 59.9616 432.637 58.4942C434.105 57.0269 434.663 54.9883 434.663 52.76H430.663C430.663 54.3717 430.262 55.2131 429.809 55.6658C429.356 56.1184 428.515 56.52 426.903 56.52V60.52ZM434.663 52.76V22.04H430.663V52.76H434.663ZM447.943 52.76C447.943 59.2326 446.456 63.4983 443.921 66.0338L446.749 68.8622C450.358 65.2537 451.943 59.7274 451.943 52.76H447.943ZM443.921 66.0338C441.456 68.4988 437.23 69.96 430.743 69.96V73.96C437.696 73.96 443.198 72.4132 446.749 68.8622L443.921 66.0338ZM430.743 69.96H406.743V73.96H430.743V69.96ZM406.743 69.96C400.261 69.96 395.989 68.5008 393.454 66.019L390.656 68.877C394.265 72.4112 399.785 73.96 406.743 73.96V69.96ZM393.484 66.0488C391.002 63.5141 389.543 59.2422 389.543 52.76H385.543C385.543 59.7178 387.092 65.2379 390.626 68.8472L393.484 66.0488ZM389.543 52.76V22.04H385.543V52.76H389.543ZM389.543 22.04C389.543 15.5529 391.004 11.3272 393.469 8.86221L390.641 6.03378C387.09 9.58481 385.543 15.0871 385.543 22.04H389.543ZM393.469 8.86221C396.005 6.32671 400.27 4.84 406.743 4.84V0.839996C399.776 0.839996 394.249 2.42529 390.641 6.03378L393.469 8.86221ZM406.743 4.84H430.743V0.839996H406.743V4.84ZM430.743 4.84C437.221 4.84 441.44 6.32869 443.906 8.84724L446.764 6.04874C443.214 2.4233 437.706 0.839996 430.743 0.839996V4.84ZM443.936 8.87701C446.454 11.3431 447.943 15.5626 447.943 22.04H451.943C451.943 15.0774 450.36 9.56889 446.734 6.01897L443.936 8.87701ZM447.943 22.04V52.76H451.943V22.04H447.943ZM499.908 16.76L499.771 18.7553L501.908 18.9027V16.76H499.908ZM480.228 16.76L481.642 18.1742L481.642 18.1742L480.228 16.76ZM479.268 23.96H477.268V25.96H479.268V23.96ZM495.108 23.96H497.108V21.96H495.108V23.96ZM495.108 36.92V38.92H497.108V36.92H495.108ZM479.268 36.92V34.92H477.268V36.92H479.268ZM479.268 71V73H481.268V71H479.268ZM462.468 71H460.468V73H462.468V71ZM462.468 36.92H464.468V34.92H462.468V36.92ZM455.748 36.92H453.748V38.92H455.748V36.92ZM455.748 23.96V21.96H453.748V23.96H455.748ZM462.468 23.96V25.96H464.468V23.96H462.468ZM466.404 6.776L467.818 8.19021L467.818 8.19021L466.404 6.776ZM499.908 3.8H501.908V1.89086L500.001 1.80216L499.908 3.8ZM500.046 14.7647C498.203 14.6377 495.75 14.4466 492.682 14.1909L492.35 18.1771C495.426 18.4334 497.901 18.6263 499.771 18.7553L500.046 14.7647ZM492.682 14.1909C489.574 13.9319 486.86 13.8 484.548 13.8V17.8C486.717 17.8 489.314 17.9241 492.35 18.1771L492.682 14.1909ZM484.548 13.8C483.349 13.8 482.27 13.8842 481.354 14.0876C480.474 14.2832 479.523 14.6365 478.814 15.3458L481.642 18.1742C481.573 18.2435 481.662 18.1168 482.222 17.9924C482.746 17.8758 483.507 17.8 484.548 17.8V13.8ZM478.814 15.3458C477.774 16.3854 477.268 17.7053 477.268 19.16H481.268C481.268 18.6947 481.402 18.4146 481.642 18.1742L478.814 15.3458ZM477.268 19.16V23.96H481.268V19.16H477.268ZM479.268 25.96H495.108V21.96H479.268V25.96ZM493.108 23.96V36.92H497.108V23.96H493.108ZM495.108 34.92H479.268V38.92H495.108V34.92ZM477.268 36.92V71H481.268V36.92H477.268ZM479.268 69H462.468V73H479.268V69ZM464.468 71V36.92H460.468V71H464.468ZM462.468 34.92H455.748V38.92H462.468V34.92ZM457.748 36.92V23.96H453.748V36.92H457.748ZM455.748 25.96H462.468V21.96H455.748V25.96ZM464.468 23.96V17.24H460.468V23.96H464.468ZM464.468 17.24C464.468 13.3196 465.634 10.3746 467.818 8.19021L464.99 5.36178C461.926 8.42537 460.468 12.4564 460.468 17.24H464.468ZM467.818 8.19021C470.003 6.0058 472.948 4.84 476.868 4.84V0.839996C472.084 0.839996 468.053 2.2982 464.99 5.36178L467.818 8.19021ZM476.868 4.84C480.729 4.84 484.817 4.96658 489.135 5.22055L489.37 1.22745C484.983 0.969408 480.816 0.839996 476.868 0.839996V4.84ZM489.135 5.22055C493.491 5.47679 497.052 5.6693 499.815 5.79784L500.001 1.80216C497.26 1.67469 493.718 1.48321 489.37 1.22745L489.135 5.22055ZM497.908 3.8V16.76H501.908V3.8H497.908ZM543.127 16.76L542.989 18.7553L545.127 18.9027V16.76H543.127ZM523.447 16.76L524.861 18.1742L524.861 18.1742L523.447 16.76ZM522.487 23.96H520.487V25.96H522.487V23.96ZM538.327 23.96H540.327V21.96H538.327V23.96ZM538.327 36.92V38.92H540.327V36.92H538.327ZM522.487 36.92V34.92H520.487V36.92H522.487ZM522.487 71V73H524.487V71H522.487ZM505.687 71H503.687V73H505.687V71ZM505.687 36.92H507.687V34.92H505.687V36.92ZM498.967 36.92H496.967V38.92H498.967V36.92ZM498.967 23.96V21.96H496.967V23.96H498.967ZM505.687 23.96V25.96H507.687V23.96H505.687ZM509.623 6.776L511.037 8.19021L511.037 8.19021L509.623 6.776ZM543.127 3.8H545.127V1.89086L543.22 1.80216L543.127 3.8ZM543.264 14.7647C541.422 14.6377 538.969 14.4466 535.901 14.1909L535.569 18.1771C538.645 18.4334 541.12 18.6263 542.989 18.7553L543.264 14.7647ZM535.901 14.1909C532.793 13.9319 530.078 13.8 527.767 13.8V17.8C529.935 17.8 532.533 17.9241 535.569 18.1771L535.901 14.1909ZM527.767 13.8C526.568 13.8 525.489 13.8842 524.573 14.0876C523.693 14.2832 522.742 14.6365 522.033 15.3458L524.861 18.1742C524.792 18.2435 524.881 18.1168 525.441 17.9924C525.965 17.8758 526.726 17.8 527.767 17.8V13.8ZM522.033 15.3458C520.993 16.3854 520.487 17.7053 520.487 19.16H524.487C524.487 18.6947 524.621 18.4146 524.861 18.1742L522.033 15.3458ZM520.487 19.16V23.96H524.487V19.16H520.487ZM522.487 25.96H538.327V21.96H522.487V25.96ZM536.327 23.96V36.92H540.327V23.96H536.327ZM538.327 34.92H522.487V38.92H538.327V34.92ZM520.487 36.92V71H524.487V36.92H520.487ZM522.487 69H505.687V73H522.487V69ZM507.687 71V36.92H503.687V71H507.687ZM505.687 34.92H498.967V38.92H505.687V34.92ZM500.967 36.92V23.96H496.967V36.92H500.967ZM498.967 25.96H505.687V21.96H498.967V25.96ZM507.687 23.96V17.24H503.687V23.96H507.687ZM507.687 17.24C507.687 13.3196 508.853 10.3746 511.037 8.19021L508.209 5.36178C505.145 8.42537 503.687 12.4564 503.687 17.24H507.687ZM511.037 8.19021C513.222 6.0058 516.167 4.84 520.087 4.84V0.839996C515.303 0.839996 511.272 2.2982 508.209 5.36178L511.037 8.19021ZM520.087 4.84C523.948 4.84 528.036 4.96658 532.353 5.22055L532.588 1.22745C528.202 0.969408 524.034 0.839996 520.087 0.839996V4.84ZM532.353 5.22055C536.71 5.47679 540.271 5.6693 543.034 5.79784L543.22 1.80216C540.479 1.67469 536.936 1.48321 532.588 1.22745L532.353 5.22055ZM541.127 3.8V16.76H545.127V3.8H541.127ZM560.906 40.28H558.906V42.28H560.906V40.28ZM577.226 40.28V42.28H579.226V40.28H577.226ZM592.106 70.04L592.312 72.0293L594.106 71.8435V70.04H592.106ZM548.042 68.024L546.627 69.4382L546.627 69.4382L548.042 68.024ZM548.138 23.288L549.552 24.7022L549.552 24.7022L548.138 23.288ZM589.898 23.288L588.467 24.6855L588.483 24.7023L588.5 24.7188L589.898 23.288ZM594.026 52.28V54.28H596.026V52.28H594.026ZM560.906 52.28V50.28H558.906V52.28H560.906ZM561.866 58.52L563.28 57.1058L563.28 57.1058L561.866 58.52ZM592.106 58.04H594.106V55.8768L591.949 56.0461L592.106 58.04ZM564.746 29.16C563.157 29.16 561.599 29.5584 560.451 30.7058C559.304 31.8531 558.906 33.4117 558.906 35H562.906C562.906 34.0283 563.147 33.6669 563.28 33.5342C563.412 33.4016 563.774 33.16 564.746 33.16V29.16ZM558.906 35V40.28H562.906V35H558.906ZM560.906 42.28H577.226V38.28H560.906V42.28ZM579.226 40.28V35H575.226V40.28H579.226ZM579.226 35C579.226 33.4117 578.827 31.8531 577.68 30.7058C576.532 29.5584 574.974 29.16 573.386 29.16V33.16C574.357 33.16 574.719 33.4016 574.851 33.5342C574.984 33.6669 575.226 34.0283 575.226 35H579.226ZM573.386 29.16H564.746V33.16H573.386V29.16ZM591.899 68.0507C579.601 69.3251 568.471 69.96 558.506 69.96V73.96C568.636 73.96 579.907 73.3149 592.312 72.0293L591.899 68.0507ZM558.506 69.96C554.585 69.96 551.64 68.7942 549.456 66.6098L546.627 69.4382C549.691 72.5018 553.722 73.96 558.506 73.96V69.96ZM549.456 66.6098C547.271 64.4254 546.106 61.4804 546.106 57.56H542.106C542.106 62.3436 543.564 66.3746 546.627 69.4382L549.456 66.6098ZM546.106 57.56V34.52H542.106V57.56H546.106ZM546.106 34.52C546.106 30.1037 547.331 26.9228 549.552 24.7022L546.723 21.8738C543.568 25.0292 542.106 29.3363 542.106 34.52H546.106ZM549.552 24.7022C551.845 22.4089 555.065 21.16 559.466 21.16V17.16C554.266 17.16 549.934 18.6631 546.723 21.8738L549.552 24.7022ZM559.466 21.16H578.666V17.16H559.466V21.16ZM578.666 21.16C583.069 21.16 586.244 22.4095 588.467 24.6855L591.328 21.8905C588.175 18.6625 583.863 17.16 578.666 17.16V21.16ZM588.5 24.7188C590.776 26.9418 592.026 30.117 592.026 34.52H596.026C596.026 29.323 594.523 25.0102 591.295 21.8572L588.5 24.7188ZM592.026 34.52V52.28H596.026V34.52H592.026ZM594.026 50.28H560.906V54.28H594.026V50.28ZM558.906 52.28V56.12H562.906V52.28H558.906ZM558.906 56.12C558.906 57.5747 559.412 58.8946 560.451 59.9342L563.28 57.1058C563.039 56.8654 562.906 56.5853 562.906 56.12H558.906ZM560.451 59.9342C561.491 60.9738 562.811 61.48 564.266 61.48V57.48C563.8 57.48 563.52 57.3462 563.28 57.1058L560.451 59.9342ZM564.266 61.48C570.682 61.48 580.025 60.9949 592.262 60.0339L591.949 56.0461C579.739 57.0051 570.521 57.48 564.266 57.48V61.48ZM590.106 58.04V70.04H594.106V58.04H590.106ZM619.428 36.92L618.611 35.0946L617.428 35.6242V36.92H619.428ZM619.428 71V73H621.428V71H619.428ZM602.628 71H600.628V73H602.628V71ZM602.628 20.12V18.12H600.628V20.12H602.628ZM617.508 20.12L619.485 19.8159L619.224 18.12H617.508V20.12ZM618.468 26.36L616.491 26.6641L617.044 30.2557L619.783 27.8673L618.468 26.36ZM640.068 19.16H642.068V17.16H640.068V19.16ZM640.068 34.04V36.04H642.068V34.04H640.068ZM631.908 32.04C627.552 32.04 623.114 33.0784 618.611 35.0946L620.245 38.7454C624.318 36.9216 628.201 36.04 631.908 36.04V32.04ZM617.428 36.92V71H621.428V36.92H617.428ZM619.428 69H602.628V73H619.428V69ZM604.628 71V20.12H600.628V71H604.628ZM602.628 22.12H617.508V18.12H602.628V22.12ZM615.531 20.4241L616.491 26.6641L620.445 26.0559L619.485 19.8159L615.531 20.4241ZM619.783 27.8673C625.004 23.314 630.314 21.16 635.748 21.16V17.16C629.151 17.16 622.94 19.806 617.154 24.8527L619.783 27.8673ZM635.748 21.16H640.068V17.16H635.748V21.16ZM638.068 19.16V34.04H642.068V19.16H638.068ZM640.068 32.04H631.908V36.04H640.068V32.04ZM644.864 57.56L645.012 55.5654L642.864 55.4068V57.56H644.864ZM677.984 58.04L679.399 59.4542L679.399 59.4542L677.984 58.04ZM678.944 52.28H680.944V50.28H678.944V52.28ZM647.84 48.344L649.255 46.9298L649.255 46.9298L647.84 48.344ZM647.84 24.056L649.255 25.4702L647.84 24.056ZM690.944 20.12H692.944V18.12H690.944V20.12ZM690.944 32.6V34.6H692.944V32.6H690.944ZM661.664 33.56L663.079 34.9742L663.079 34.9742L661.664 33.56ZM661.664 38.36L660.25 39.7742L660.25 39.7742L661.664 38.36ZM691.808 43.256L693.223 41.8418L693.223 41.8418L691.808 43.256ZM691.808 68.024L693.223 69.4382L693.223 69.4382L691.808 68.024ZM644.864 70.04H642.864V71.8526L644.668 72.0304L644.864 70.04ZM644.717 59.5546C657.728 60.516 668.024 61 675.584 61V57C668.169 57 657.985 56.524 645.012 55.5654L644.717 59.5546ZM675.584 61C677.039 61 678.359 60.4938 679.399 59.4542L676.57 56.6258C676.33 56.8662 676.05 57 675.584 57V61ZM679.399 59.4542C680.438 58.4146 680.944 57.0947 680.944 55.64H676.944C676.944 56.1053 676.811 56.3854 676.57 56.6258L679.399 59.4542ZM680.944 55.64V52.28H676.944V55.64H680.944ZM678.944 50.28H658.304V54.28H678.944V50.28ZM658.304 50.28C654.384 50.28 651.439 49.1142 649.255 46.9298L646.426 49.7582C649.49 52.8218 653.521 54.28 658.304 54.28V50.28ZM649.255 46.9298C647.07 44.7454 645.904 41.8004 645.904 37.88H641.904C641.904 42.6636 643.363 46.6946 646.426 49.7582L649.255 46.9298ZM645.904 37.88V34.52H641.904V37.88H645.904ZM645.904 34.52C645.904 30.5996 647.07 27.6546 649.255 25.4702L646.426 22.6418C643.363 25.7054 641.904 29.7364 641.904 34.52H645.904ZM649.255 25.4702C651.439 23.2858 654.384 22.12 658.304 22.12V18.12C653.521 18.12 649.49 19.5782 646.426 22.6418L649.255 25.4702ZM658.304 22.12H690.944V18.12H658.304V22.12ZM688.944 20.12V32.6H692.944V20.12H688.944ZM690.944 30.6H664.064V34.6H690.944V30.6ZM664.064 30.6C662.61 30.6 661.29 31.1062 660.25 32.1458L663.079 34.9742C663.319 34.7338 663.599 34.6 664.064 34.6V30.6ZM660.25 32.1458C659.211 33.1854 658.704 34.5053 658.704 35.96H662.704C662.704 35.4947 662.838 35.2146 663.079 34.9742L660.25 32.1458ZM658.704 35.96C658.704 37.4147 659.211 38.7346 660.25 39.7742L663.079 36.9458C662.838 36.7054 662.704 36.4253 662.704 35.96H658.704ZM660.25 39.7742C661.29 40.8138 662.61 41.32 664.064 41.32V37.32C663.599 37.32 663.319 37.1862 663.079 36.9458L660.25 39.7742ZM664.064 41.32H681.344V37.32H664.064V41.32ZM681.344 41.32C685.265 41.32 688.21 42.4858 690.394 44.6702L693.223 41.8418C690.159 38.7782 686.128 37.32 681.344 37.32V41.32ZM690.394 44.6702C692.579 46.8546 693.744 49.7996 693.744 53.72H697.744C697.744 48.9364 696.286 44.9054 693.223 41.8418L690.394 44.6702ZM693.744 53.72V57.56H697.744V53.72H693.744ZM693.744 57.56C693.744 61.4804 692.579 64.4254 690.394 66.6098L693.223 69.4382C696.286 66.3746 697.744 62.3436 697.744 57.56H693.744ZM690.394 66.6098C688.21 68.7942 685.265 69.96 681.344 69.96V73.96C686.128 73.96 690.159 72.5018 693.223 69.4382L690.394 66.6098ZM681.344 69.96C670.091 69.96 657.997 69.3242 645.06 68.0496L644.668 72.0304C657.716 73.3158 669.942 73.96 681.344 73.96V69.96ZM646.864 70.04V57.56H642.864V70.04H646.864Z" fill="black" fill-opacity="0.06"/>
</svg>
