<svg width="525" height="69" viewBox="0 0 525 69" fill="none" xmlns="http://www.w3.org/2000/svg">
<path d="M2.92909 43.56L3.03842 41.563L0.929094 41.4475V43.56H2.92909ZM32.2331 43.704L30.8189 42.2898L30.8189 42.2898L32.2331 43.704ZM33.2411 34.56H35.2411V32.56H33.2411V34.56ZM5.66509 31.176L4.23607 32.5752L4.2508 32.5903L4.26584 32.605L5.66509 31.176ZM5.66509 7.056L7.07931 8.47021L7.07931 8.47021L5.66509 7.056ZM41.9531 3.6H43.9531V1.6H41.9531V3.6ZM41.9531 13.68V15.68H43.9531V13.68H41.9531ZM42.8891 51.408L41.4749 49.9938L41.4749 49.9938L42.8891 51.408ZM24.7451 54.576L24.6582 56.5741L24.6666 56.5745L24.675 56.5748L24.7451 54.576ZM18.1211 54.288L18.0232 56.2856L18.0342 56.2861L18.1211 54.288ZM2.92909 53.28H0.929094V55.1217L2.76452 55.2732L2.92909 53.28ZM2.81977 45.557C15.9651 46.2766 24.9221 46.64 29.6411 46.64V42.64C25.0481 42.64 16.1971 42.2834 3.03842 41.563L2.81977 45.557ZM29.6411 46.64C31.1349 46.64 32.5593 46.2062 33.6473 45.1182L30.8189 42.2898C30.6589 42.4498 30.3553 42.64 29.6411 42.64V46.64ZM33.6473 45.1182C34.7552 44.0103 35.2411 42.5817 35.2411 41.04H31.2411C31.2411 41.7063 31.055 42.0537 30.8189 42.2898L33.6473 45.1182ZM35.2411 41.04V34.56H31.2411V41.04H35.2411ZM33.2411 32.56H16.6811V36.56H33.2411V32.56ZM16.6811 32.56C11.8789 32.56 8.83097 31.4768 7.06434 29.747L4.26584 32.605C7.10722 35.3872 11.4033 36.56 16.6811 36.56V32.56ZM7.09412 29.7768C5.3643 28.0101 4.28109 24.9622 4.28109 20.16H0.281094C0.281094 25.4378 1.45389 29.7339 4.23607 32.5752L7.09412 29.7768ZM4.28109 20.16V18H0.281094V20.16H4.28109ZM4.28109 18C4.28109 13.1929 5.36633 10.1832 7.07931 8.47021L4.25088 5.64179C1.45186 8.44081 0.281094 12.7271 0.281094 18H4.28109ZM7.07931 8.47021C8.84681 6.70271 11.8885 5.6 16.6811 5.6V1.6C11.3937 1.6 7.09138 2.80129 4.25088 5.64179L7.07931 8.47021ZM16.6811 5.6H41.9531V1.6H16.6811V5.6ZM39.9531 3.6V13.68H43.9531V3.6H39.9531ZM41.9531 11.68H19.5611V15.68H41.9531V11.68ZM19.5611 11.68C17.8128 11.68 16.1342 12.1184 14.9069 13.3458C13.6795 14.5731 13.2411 16.2517 13.2411 18H17.2411C17.2411 16.8683 17.5227 16.3869 17.7353 16.1742C17.9479 15.9616 18.4294 15.68 19.5611 15.68V11.68ZM13.2411 18V19.44H17.2411V18H13.2411ZM13.2411 19.44C13.2411 21.1883 13.6795 22.8669 14.9069 24.0942C16.1342 25.3216 17.8128 25.76 19.5611 25.76V21.76C18.4294 21.76 17.9479 21.4784 17.7353 21.2658C17.5227 21.0531 17.2411 20.5717 17.2411 19.44H13.2411ZM19.5611 25.76H32.5211V21.76H19.5611V25.76ZM32.5211 25.76C36.9597 25.76 39.795 26.8063 41.4749 28.4862L44.3033 25.6578C41.5672 22.9217 37.4905 21.76 32.5211 21.76V25.76ZM41.4749 28.4862C43.1548 30.1661 44.2011 33.0014 44.2011 37.44H48.2011C48.2011 32.4706 47.0394 28.3939 44.3033 25.6578L41.4749 28.4862ZM44.2011 37.44V41.04H48.2011V37.44H44.2011ZM44.2011 41.04C44.2011 45.4786 43.1548 48.3139 41.4749 49.9938L44.3033 52.8222C47.0394 50.0861 48.2011 46.0094 48.2011 41.04H44.2011ZM41.4749 49.9938C39.795 51.6737 36.9597 52.72 32.5211 52.72V56.72C37.4905 56.72 41.5672 55.5583 44.3033 52.8222L41.4749 49.9938ZM32.5211 52.72C30.099 52.72 27.5305 52.6725 24.8152 52.5772L24.675 56.5748C27.4316 56.6715 30.0472 56.72 32.5211 56.72V52.72ZM24.832 52.5779L18.208 52.2899L18.0342 56.2861L24.6582 56.5741L24.832 52.5779ZM18.219 52.2904C13.3468 52.0516 8.30503 51.7171 3.09367 51.2868L2.76452 55.2732C8.01716 55.7069 13.1034 56.0444 18.0232 56.2856L18.219 52.2904ZM4.92909 53.28V43.56H0.929094V53.28H4.92909ZM64.5555 27L63.9834 25.0836L62.5555 25.5098V27H64.5555ZM64.5555 44.28H62.5555V46.28H64.5555V44.28ZM77.5155 26.28L78.9297 24.8658L78.9297 24.8658L77.5155 26.28ZM64.5555 54V52H62.5555V54H64.5555ZM64.5555 66.24V68.24H66.5555V66.24H64.5555ZM51.9555 66.24H49.9555V68.24H51.9555V66.24ZM51.9555 15.84V13.84H49.9555V15.84H51.9555ZM63.1155 15.84L65.0766 15.4478L64.7551 13.84H63.1155V15.84ZM63.8355 19.44L61.8743 19.8322L62.4569 22.7451L64.9367 21.1095L63.8355 19.44ZM70.7475 16.2L71.2969 18.123L71.3096 18.1194L71.3222 18.1157L70.7475 16.2ZM87.8835 18.072L86.4693 19.4862L86.4693 19.4862L87.8835 18.072ZM87.7395 50.976L89.1537 52.3902L89.1537 52.3902L87.7395 50.976ZM73.1955 23.56C70.4073 23.56 67.3295 24.0847 63.9834 25.0836L65.1275 28.9164C68.2134 27.9953 70.8957 27.56 73.1955 27.56V23.56ZM62.5555 27V44.28H66.5555V27H62.5555ZM64.5555 46.28H75.3555V42.28H64.5555V46.28ZM75.3555 46.28C76.6238 46.28 77.9423 45.9616 78.9297 44.9742C79.917 43.9869 80.2355 42.6683 80.2355 41.4H76.2355C76.2355 41.7193 76.1949 41.9173 76.1581 42.0275C76.1404 42.0807 76.1244 42.1112 76.1155 42.126C76.107 42.1401 76.1021 42.1449 76.1013 42.1458C76.1004 42.1466 76.0956 42.1515 76.0815 42.16C76.0667 42.1689 76.0362 42.1849 75.983 42.2026C75.8727 42.2394 75.6748 42.28 75.3555 42.28V46.28ZM80.2355 41.4V28.08H76.2355V41.4H80.2355ZM80.2355 28.08C80.2355 26.8653 79.8093 25.7454 78.9297 24.8658L76.1013 27.6942C76.1817 27.7746 76.2355 27.8547 76.2355 28.08H80.2355ZM78.9297 24.8658C78.0501 23.9862 76.9302 23.56 75.7155 23.56V27.56C75.9407 27.56 76.0208 27.6138 76.1013 27.6942L78.9297 24.8658ZM75.7155 23.56H73.1955V27.56H75.7155V23.56ZM62.5555 54V66.24H66.5555V54H62.5555ZM64.5555 64.24H51.9555V68.24H64.5555V64.24ZM53.9555 66.24V15.84H49.9555V66.24H53.9555ZM51.9555 17.84H63.1155V13.84H51.9555V17.84ZM61.1543 16.2322L61.8743 19.8322L65.7966 19.0478L65.0766 15.4478L61.1543 16.2322ZM64.9367 21.1095C67.0404 19.722 69.16 18.7336 71.2969 18.123L70.198 14.2769C67.6309 15.0104 65.1426 16.182 62.7343 17.7705L64.9367 21.1095ZM71.3222 18.1157C73.6241 17.4251 75.4328 17.12 76.7955 17.12V13.12C74.8941 13.12 72.6708 13.5349 70.1728 14.2843L71.3222 18.1157ZM76.7955 17.12H80.0355V13.12H76.7955V17.12ZM80.0355 17.12C82.8678 17.12 84.9408 17.9578 86.4693 19.4862L89.2977 16.6578C86.8901 14.2502 83.7311 13.12 80.0355 13.12V17.12ZM86.4693 19.4862C87.9977 21.0146 88.8355 23.0876 88.8355 25.92H92.8355C92.8355 22.2244 91.7053 19.0654 89.2977 16.6578L86.4693 19.4862ZM88.8355 25.92V42.48H92.8355V25.92H88.8355ZM88.8355 42.48C88.8355 45.6809 87.9306 47.9565 86.3253 49.5618L89.1537 52.3902C91.6764 49.8675 92.8355 46.4791 92.8355 42.48H88.8355ZM86.3253 49.5618C84.7767 51.1104 82.5317 52 79.3155 52V56C83.2992 56 86.6703 54.8736 89.1537 52.3902L86.3253 49.5618ZM79.3155 52H64.5555V56H79.3155V52ZM109.187 30.96H107.187V32.96H109.187V30.96ZM121.427 30.96V32.96H123.427V30.96H121.427ZM132.587 53.28L132.793 55.2693L134.587 55.0835V53.28H132.587ZM99.539 51.768L98.1248 53.1822L98.1248 53.1822L99.539 51.768ZM99.611 18.216L101.025 19.6302L101.025 19.6302L99.611 18.216ZM130.931 18.216L129.5 19.6135L129.517 19.6303L129.534 19.6468L130.931 18.216ZM134.027 39.96V41.96H136.027V39.96H134.027ZM109.187 39.96V37.96H107.187V39.96H109.187ZM109.907 44.64L111.321 43.2258L111.321 43.2258L109.907 44.64ZM132.587 44.28H134.587V42.1168L132.43 42.2861L132.587 44.28ZM112.067 22.12C110.799 22.12 109.48 22.4384 108.493 23.4258C107.505 24.4131 107.187 25.7317 107.187 27H111.187C111.187 26.6807 111.228 26.4827 111.264 26.3725C111.282 26.3193 111.298 26.2888 111.307 26.274C111.315 26.2599 111.32 26.2551 111.321 26.2542C111.322 26.2534 111.327 26.2485 111.341 26.24C111.356 26.2311 111.386 26.2151 111.439 26.1974C111.55 26.1606 111.748 26.12 112.067 26.12V22.12ZM107.187 27V30.96H111.187V27H107.187ZM109.187 32.96H121.427V28.96H109.187V32.96ZM123.427 30.96V27H119.427V30.96H123.427ZM123.427 27C123.427 25.7317 123.109 24.4131 122.121 23.4258C121.134 22.4384 119.815 22.12 118.547 22.12V26.12C118.866 26.12 119.064 26.1606 119.175 26.1974C119.228 26.2151 119.258 26.2311 119.273 26.24C119.287 26.2485 119.292 26.2534 119.293 26.2542C119.294 26.2551 119.299 26.2599 119.307 26.274C119.316 26.2888 119.332 26.3193 119.35 26.3725C119.386 26.4827 119.427 26.6807 119.427 27H123.427ZM118.547 22.12H112.067V26.12H118.547V22.12ZM132.381 51.2907C123.17 52.2451 114.84 52.72 107.387 52.72V56.72C115.006 56.72 123.476 56.2349 132.793 55.2693L132.381 51.2907ZM107.387 52.72C104.555 52.72 102.482 51.8822 100.953 50.3538L98.1248 53.1822C100.532 55.5898 103.691 56.72 107.387 56.72V52.72ZM100.953 50.3538C99.4248 48.8254 98.587 46.7524 98.587 43.92H94.587C94.587 47.6156 95.7172 50.7746 98.1248 53.1822L100.953 50.3538ZM98.587 43.92V26.64H94.587V43.92H98.587ZM98.587 26.64C98.587 23.4237 99.4767 21.1788 101.025 19.6302L98.1968 16.8018C95.7134 19.2852 94.587 22.6563 94.587 26.64H98.587ZM101.025 19.6302C102.631 18.0249 104.906 17.12 108.107 17.12V13.12C104.108 13.12 100.72 14.2791 98.1968 16.8018L101.025 19.6302ZM108.107 17.12H122.507V13.12H108.107V17.12ZM122.507 17.12C125.71 17.12 127.949 18.0255 129.5 19.6135L132.362 16.8185C129.881 14.2785 126.504 13.12 122.507 13.12V17.12ZM129.534 19.6468C131.122 21.1978 132.027 23.437 132.027 26.64H136.027C136.027 22.643 134.868 19.2662 132.329 16.7852L129.534 19.6468ZM132.027 26.64V39.96H136.027V26.64H132.027ZM134.027 37.96H109.187V41.96H134.027V37.96ZM107.187 39.96V42.84H111.187V39.96H107.187ZM107.187 42.84C107.187 44.0547 107.613 45.1746 108.493 46.0542L111.321 43.2258C111.241 43.1454 111.187 43.0653 111.187 42.84H107.187ZM108.493 46.0542C109.372 46.9338 110.492 47.36 111.707 47.36V43.36C111.482 43.36 111.402 43.3062 111.321 43.2258L108.493 46.0542ZM111.707 47.36C116.539 47.36 123.562 46.9949 132.744 46.2739L132.43 42.2861C123.276 43.0051 116.379 43.36 111.707 43.36V47.36ZM130.587 44.28V53.28H134.587V44.28H130.587ZM174.319 53.28L174.532 55.2687L176.319 55.0775V53.28H174.319ZM142.711 51.768L141.297 53.1822L141.297 53.1822L142.711 51.768ZM142.783 18.936L144.197 20.3502L144.197 20.3502L142.783 18.936ZM174.319 15.84H176.319V13.84H174.319V15.84ZM174.319 25.56V27.56H176.319V25.56H174.319ZM174.319 43.92H176.319V41.7464L174.153 41.9269L174.319 43.92ZM174.106 51.2913C165.18 52.246 157.334 52.72 150.559 52.72V56.72C157.512 56.72 165.506 56.234 174.532 55.2687L174.106 51.2913ZM150.559 52.72C147.727 52.72 145.654 51.8822 144.125 50.3538L141.297 53.1822C143.704 55.5898 146.863 56.72 150.559 56.72V52.72ZM144.125 50.3538C142.597 48.8254 141.759 46.7524 141.759 43.92H137.759C137.759 47.6156 138.889 50.7746 141.297 53.1822L144.125 50.3538ZM141.759 43.92V27.36H137.759V43.92H141.759ZM141.759 27.36C141.759 24.1437 142.649 21.8988 144.197 20.3502L141.369 17.5218C138.885 20.0052 137.759 23.3763 137.759 27.36H141.759ZM144.197 20.3502C145.802 18.7449 148.078 17.84 151.279 17.84V13.84C147.28 13.84 143.891 14.9991 141.369 17.5218L144.197 20.3502ZM151.279 17.84H174.319V13.84H151.279V17.84ZM172.319 15.84V25.56H176.319V15.84H172.319ZM174.319 23.56H155.239V27.56H174.319V23.56ZM155.239 23.56C153.971 23.56 152.652 23.8784 151.665 24.8658C150.677 25.8531 150.359 27.1717 150.359 28.44H154.359C154.359 28.1207 154.4 27.9227 154.436 27.8125C154.454 27.7593 154.47 27.7288 154.479 27.714C154.487 27.6999 154.492 27.6951 154.493 27.6942C154.494 27.6934 154.499 27.6885 154.513 27.68C154.528 27.6711 154.558 27.6551 154.611 27.6374C154.722 27.6006 154.92 27.56 155.239 27.56V23.56ZM150.359 28.44V42.48H154.359V28.44H150.359ZM150.359 42.48C150.359 43.6947 150.785 44.8146 151.665 45.6942L154.493 42.8658C154.413 42.7854 154.359 42.7053 154.359 42.48H150.359ZM151.665 45.6942C152.544 46.5738 153.664 47 154.879 47V43C154.654 43 154.574 42.9462 154.493 42.8658L151.665 45.6942ZM154.879 47C159.285 47 165.833 46.6341 174.485 45.9131L174.153 41.9269C165.525 42.6459 159.113 43 154.879 43V47ZM172.319 43.92V53.28H176.319V43.92H172.319ZM195.905 17.28H197.905V15.28H195.905V17.28ZM195.905 54V56H197.905V54H195.905ZM183.305 54H181.305V56H183.305V54ZM183.305 27H185.305V25H183.305V27ZM177.905 27H175.905V29H177.905V27ZM177.905 17.28V15.28H175.905V17.28H177.905ZM183.305 2.88V0.879997H181.305V2.88H183.305ZM195.905 2.88H197.905V0.879997H195.905V2.88ZM195.905 12.96V14.96H197.905V12.96H195.905ZM183.305 12.96H181.305V14.96H183.305V12.96ZM193.905 17.28V54H197.905V17.28H193.905ZM195.905 52H183.305V56H195.905V52ZM185.305 54V27H181.305V54H185.305ZM183.305 25H177.905V29H183.305V25ZM179.905 27V17.28H175.905V27H179.905ZM177.905 19.28H195.905V15.28H177.905V19.28ZM183.305 4.88H195.905V0.879997H183.305V4.88ZM193.905 2.88V12.96H197.905V2.88H193.905ZM195.905 10.96H183.305V14.96H195.905V10.96ZM185.305 12.96V2.88H181.305V12.96H185.305ZM226.887 43.2L227.459 45.1164L228.887 44.6902V43.2H226.887ZM226.887 38.88H228.887V36.88H226.887V38.88ZM214.647 39.6L216.062 41.0142L216.062 41.0142L214.647 39.6ZM214.647 43.92L213.233 45.3342L213.233 45.3342L214.647 43.92ZM204.927 16.56L204.71 14.5718L202.927 14.7667V16.56H204.927ZM236.535 18.072L235.121 19.4862L235.121 19.4862L236.535 18.072ZM239.487 54V56H241.487V54H239.487ZM228.327 54L226.366 54.3922L226.688 56H228.327V54ZM227.607 50.4L229.569 50.0078L228.986 47.0949L226.506 48.7305L227.607 50.4ZM220.623 53.712L221.173 55.635L221.185 55.6314L221.198 55.6277L220.623 53.712ZM204.279 51.768L202.865 53.1822L202.865 53.1822L204.279 51.768ZM204.279 32.832L205.694 34.2462L205.694 34.2462L204.279 32.832ZM226.887 29.88V31.88H228.887V29.88H226.887ZM226.167 25.2L224.753 26.6142L224.753 26.6142L226.167 25.2ZM213.999 24.912L213.848 22.9177L213.846 22.9179L213.999 24.912ZM204.927 25.56H202.927V27.6889L205.052 27.5561L204.927 25.56ZM218.247 46.64C221.036 46.64 224.113 46.1153 227.459 45.1164L226.315 41.2836C223.229 42.2047 220.547 42.64 218.247 42.64V46.64ZM228.887 43.2V38.88H224.887V43.2H228.887ZM226.887 36.88H216.447V40.88H226.887V36.88ZM216.447 36.88C215.233 36.88 214.113 37.3062 213.233 38.1858L216.062 41.0142C216.142 40.9338 216.222 40.88 216.447 40.88V36.88ZM213.233 38.1858C212.354 39.0654 211.927 40.1853 211.927 41.4H215.927C215.927 41.1747 215.981 41.0946 216.062 41.0142L213.233 38.1858ZM211.927 41.4V42.12H215.927V41.4H211.927ZM211.927 42.12C211.927 43.3347 212.354 44.4546 213.233 45.3342L216.062 42.5058C215.981 42.4254 215.927 42.3453 215.927 42.12H211.927ZM213.233 45.3342C214.113 46.2138 215.233 46.64 216.447 46.64V42.64C216.222 42.64 216.142 42.5862 216.062 42.5058L213.233 45.3342ZM216.447 46.64H218.247V42.64H216.447V46.64ZM205.145 18.5482C213.874 17.5942 221.719 17.12 228.687 17.12V13.12C221.543 13.12 213.549 13.6058 204.71 14.5718L205.145 18.5482ZM228.687 17.12C231.52 17.12 233.593 17.9578 235.121 19.4862L237.95 16.6578C235.542 14.2502 232.383 13.12 228.687 13.12V17.12ZM235.121 19.4862C236.65 21.0146 237.487 23.0876 237.487 25.92H241.487C241.487 22.2244 240.357 19.0654 237.95 16.6578L235.121 19.4862ZM237.487 25.92V54H241.487V25.92H237.487ZM239.487 52H228.327V56H239.487V52ZM230.289 53.6078L229.569 50.0078L225.646 50.7922L226.366 54.3922L230.289 53.6078ZM226.506 48.7305C224.4 50.1196 222.248 51.1365 220.049 51.7963L221.198 55.6277C223.799 54.8475 226.303 53.6564 228.709 52.0695L226.506 48.7305ZM220.074 51.789C217.821 52.4326 216.026 52.72 214.647 52.72V56.72C216.533 56.72 218.722 56.3354 221.173 55.635L220.074 51.789ZM214.647 52.72H212.127V56.72H214.647V52.72ZM212.127 52.72C209.295 52.72 207.222 51.8822 205.694 50.3538L202.865 53.1822C205.273 55.5898 208.432 56.72 212.127 56.72V52.72ZM205.694 50.3538C204.165 48.8254 203.327 46.7524 203.327 43.92H199.327C199.327 47.6156 200.458 50.7746 202.865 53.1822L205.694 50.3538ZM203.327 43.92V40.68H199.327V43.92H203.327ZM203.327 40.68C203.327 37.8476 204.165 35.7746 205.694 34.2462L202.865 31.4178C200.458 33.8254 199.327 36.9844 199.327 40.68H203.327ZM205.694 34.2462C207.222 32.7178 209.295 31.88 212.127 31.88V27.88C208.432 27.88 205.273 29.0102 202.865 31.4178L205.694 34.2462ZM212.127 31.88H226.887V27.88H212.127V31.88ZM228.887 29.88V27H224.887V29.88H228.887ZM228.887 27C228.887 25.7853 228.461 24.6654 227.582 23.7858L224.753 26.6142C224.834 26.6946 224.887 26.7747 224.887 27H228.887ZM227.582 23.7858C226.702 22.9062 225.582 22.48 224.367 22.48V26.48C224.593 26.48 224.673 26.5338 224.753 26.6142L227.582 23.7858ZM224.367 22.48C221.187 22.48 217.68 22.6267 213.848 22.9177L214.151 26.9063C217.903 26.6213 221.307 26.48 224.367 26.48V22.48ZM213.846 22.9179C210.106 23.2055 207.093 23.4207 204.803 23.5639L205.052 27.5561C207.37 27.4113 210.404 27.1944 214.153 26.9061L213.846 22.9179ZM206.927 25.56V16.56H202.927V25.56H206.927ZM265.388 54L265.683 55.9781L267.388 55.7236V54H265.388ZM248.9 51.768L250.314 50.3538L250.314 50.3538L248.9 51.768ZM245.948 3.6V1.6H243.948V3.6H245.948ZM258.548 3.6H260.548V1.6H258.548V3.6ZM265.388 44.64H267.388V42.64H265.388V44.64ZM265.092 52.0219C261.964 52.4889 258.991 52.72 256.172 52.72V56.72C259.209 56.72 262.38 56.4711 265.683 55.9781L265.092 52.0219ZM256.172 52.72C253.801 52.72 251.892 51.9324 250.314 50.3538L247.485 53.1822C249.843 55.5396 252.782 56.72 256.172 56.72V52.72ZM250.314 50.3538C248.785 48.8254 247.948 46.7524 247.948 43.92H243.948C243.948 47.6156 245.078 50.7746 247.485 53.1822L250.314 50.3538ZM247.948 43.92V3.6H243.948V43.92H247.948ZM245.948 5.6H258.548V1.6H245.948V5.6ZM256.548 3.6V42.12H260.548V3.6H256.548ZM256.548 42.12C256.548 43.3347 256.974 44.4546 257.853 45.3342L260.682 42.5058C260.601 42.4254 260.548 42.3453 260.548 42.12H256.548ZM257.853 45.3342C258.733 46.2138 259.853 46.64 261.068 46.64V42.64C260.842 42.64 260.762 42.5862 260.682 42.5058L257.853 45.3342ZM261.068 46.64H265.388V42.64H261.068V46.64ZM263.388 44.64V54H267.388V44.64H263.388ZM334.626 51.336L333.212 49.9218L333.212 49.9218L334.626 51.336ZM294.666 51.336L293.237 52.7352L293.252 52.7503L293.267 52.765L294.666 51.336ZM294.666 6.336L293.252 4.92178L293.252 4.92178L294.666 6.336ZM334.626 6.336L333.197 7.73525L333.212 7.75029L333.227 7.76502L334.626 6.336ZM327.122 17.28C327.122 15.5317 326.684 13.8531 325.457 12.6258C324.229 11.3984 322.551 10.96 320.802 10.96V14.96C321.934 14.96 322.415 15.2416 322.628 15.4542C322.841 15.6669 323.122 16.1483 323.122 17.28H327.122ZM320.802 10.96H308.562V14.96H320.802V10.96ZM308.562 10.96C306.814 10.96 305.135 11.3984 303.908 12.6258C302.681 13.8531 302.242 15.5317 302.242 17.28H306.242C306.242 16.1483 306.524 15.6669 306.737 15.4542C306.949 15.2416 307.431 14.96 308.562 14.96V10.96ZM302.242 17.28V40.32H306.242V17.28H302.242ZM302.242 40.32C302.242 42.0683 302.681 43.7469 303.908 44.9742C305.135 46.2016 306.814 46.64 308.562 46.64V42.64C307.431 42.64 306.949 42.3584 306.737 42.1458C306.524 41.9331 306.242 41.4517 306.242 40.32H302.242ZM308.562 46.64H320.802V42.64H308.562V46.64ZM320.802 46.64C322.551 46.64 324.229 46.2016 325.457 44.9742C326.684 43.7469 327.122 42.0683 327.122 40.32H323.122C323.122 41.4517 322.841 41.9331 322.628 42.1458C322.415 42.3584 321.934 42.64 320.802 42.64V46.64ZM327.122 40.32V17.28H323.122V40.32H327.122ZM336.082 40.32C336.082 45.1126 334.98 48.1543 333.212 49.9218L336.041 52.7502C338.881 49.9097 340.082 45.6074 340.082 40.32H336.082ZM333.212 49.9218C331.499 51.6348 328.489 52.72 323.682 52.72V56.72C328.955 56.72 333.242 55.5492 336.041 52.7502L333.212 49.9218ZM323.682 52.72H305.682V56.72H323.682V52.72ZM305.682 52.72C300.88 52.72 297.832 51.6368 296.066 49.907L293.267 52.765C296.108 55.5472 300.405 56.72 305.682 56.72V52.72ZM296.095 49.9368C294.366 48.1701 293.282 45.1222 293.282 40.32H289.282C289.282 45.5978 290.455 49.8939 293.237 52.7352L296.095 49.9368ZM293.282 40.32V17.28H289.282V40.32H293.282ZM293.282 17.28C293.282 12.4729 294.368 9.46319 296.081 7.75021L293.252 4.92178C290.453 7.72081 289.282 12.0071 289.282 17.28H293.282ZM296.081 7.75021C297.848 5.98271 300.89 4.88 305.682 4.88V0.879997C300.395 0.879997 296.093 2.08129 293.252 4.92178L296.081 7.75021ZM305.682 4.88H323.682V0.879997H305.682V4.88ZM323.682 4.88C328.48 4.88 331.483 5.98469 333.197 7.73525L336.055 4.93675C333.257 2.07931 328.965 0.879997 323.682 0.879997V4.88ZM333.227 7.76502C334.978 9.47911 336.082 12.4826 336.082 17.28H340.082C340.082 11.9974 338.883 7.70489 336.026 4.90698L333.227 7.76502ZM336.082 17.28V40.32H340.082V17.28H336.082ZM375.556 13.32L375.418 15.3153L377.556 15.4627V13.32H375.556ZM360.796 13.32L362.21 14.7342L362.21 14.7342L360.796 13.32ZM360.076 18.72H358.076V20.72H360.076V18.72ZM371.956 18.72H373.956V16.72H371.956V18.72ZM371.956 28.44V30.44H373.956V28.44H371.956ZM360.076 28.44V26.44H358.076V28.44H360.076ZM360.076 54V56H362.076V54H360.076ZM347.476 54H345.476V56H347.476V54ZM347.476 28.44H349.476V26.44H347.476V28.44ZM342.436 28.44H340.436V30.44H342.436V28.44ZM342.436 18.72V16.72H340.436V18.72H342.436ZM347.476 18.72V20.72H349.476V18.72H347.476ZM350.428 5.832L351.842 7.24621L351.842 7.24621L350.428 5.832ZM375.556 3.6H377.556V1.69086L375.649 1.60216L375.556 3.6ZM375.694 11.3247C374.315 11.2297 372.478 11.0866 370.178 10.8949L369.846 14.8811C372.154 15.0734 374.013 15.2183 375.418 15.3153L375.694 11.3247ZM370.178 10.8949C367.838 10.6999 365.788 10.6 364.036 10.6V14.6C365.644 14.6 367.578 14.6921 369.846 14.8811L370.178 10.8949ZM364.036 10.6C363.117 10.6 362.268 10.6642 361.532 10.8276C360.832 10.9832 360.011 11.2765 359.382 11.9058L362.21 14.7342C362.061 14.8835 362.02 14.8168 362.4 14.7324C362.744 14.6558 363.275 14.6 364.036 14.6V10.6ZM359.382 11.9058C358.502 12.7854 358.076 13.9053 358.076 15.12H362.076C362.076 14.8947 362.13 14.8146 362.21 14.7342L359.382 11.9058ZM358.076 15.12V18.72H362.076V15.12H358.076ZM360.076 20.72H371.956V16.72H360.076V20.72ZM369.956 18.72V28.44H373.956V18.72H369.956ZM371.956 26.44H360.076V30.44H371.956V26.44ZM358.076 28.44V54H362.076V28.44H358.076ZM360.076 52H347.476V56H360.076V52ZM349.476 54V28.44H345.476V54H349.476ZM347.476 26.44H342.436V30.44H347.476V26.44ZM344.436 28.44V18.72H340.436V28.44H344.436ZM342.436 20.72H347.476V16.72H342.436V20.72ZM349.476 18.72V13.68H345.476V18.72H349.476ZM349.476 13.68C349.476 10.8476 350.314 8.77463 351.842 7.24621L349.014 4.41778C346.606 6.82537 345.476 9.98435 345.476 13.68H349.476ZM351.842 7.24621C353.371 5.7178 355.444 4.88 358.276 4.88V0.879997C354.58 0.879997 351.421 2.0102 349.014 4.41778L351.842 7.24621ZM358.276 4.88C361.161 4.88 364.217 4.97459 367.447 5.16455L367.682 1.17145C364.383 0.977409 361.247 0.879997 358.276 0.879997V4.88ZM367.447 5.16455C370.715 5.35679 373.388 5.50131 375.463 5.59784L375.649 1.60216C373.596 1.50669 370.941 1.36321 367.682 1.17145L367.447 5.16455ZM373.556 3.6V13.32H377.556V3.6H373.556ZM407.97 13.32L407.833 15.3153L409.97 15.4627V13.32H407.97ZM393.21 13.32L394.624 14.7342L394.624 14.7342L393.21 13.32ZM392.49 18.72H390.49V20.72H392.49V18.72ZM404.37 18.72H406.37V16.72H404.37V18.72ZM404.37 28.44V30.44H406.37V28.44H404.37ZM392.49 28.44V26.44H390.49V28.44H392.49ZM392.49 54V56H394.49V54H392.49ZM379.89 54H377.89V56H379.89V54ZM379.89 28.44H381.89V26.44H379.89V28.44ZM374.85 28.44H372.85V30.44H374.85V28.44ZM374.85 18.72V16.72H372.85V18.72H374.85ZM379.89 18.72V20.72H381.89V18.72H379.89ZM382.842 5.832L384.256 7.24621L384.256 7.24621L382.842 5.832ZM407.97 3.6H409.97V1.69086L408.063 1.60216L407.97 3.6ZM408.108 11.3247C406.729 11.2297 404.892 11.0866 402.592 10.8949L402.26 14.8811C404.568 15.0734 406.427 15.2183 407.833 15.3153L408.108 11.3247ZM402.592 10.8949C400.252 10.6999 398.202 10.6 396.45 10.6V14.6C398.059 14.6 399.992 14.6921 402.26 14.8811L402.592 10.8949ZM396.45 10.6C395.531 10.6 394.682 10.6642 393.946 10.8276C393.246 10.9832 392.425 11.2765 391.796 11.9058L394.624 14.7342C394.475 14.8835 394.434 14.8168 394.814 14.7324C395.158 14.6558 395.689 14.6 396.45 14.6V10.6ZM391.796 11.9058C390.916 12.7854 390.49 13.9053 390.49 15.12H394.49C394.49 14.8947 394.544 14.8146 394.624 14.7342L391.796 11.9058ZM390.49 15.12V18.72H394.49V15.12H390.49ZM392.49 20.72H404.37V16.72H392.49V20.72ZM402.37 18.72V28.44H406.37V18.72H402.37ZM404.37 26.44H392.49V30.44H404.37V26.44ZM390.49 28.44V54H394.49V28.44H390.49ZM392.49 52H379.89V56H392.49V52ZM381.89 54V28.44H377.89V54H381.89ZM379.89 26.44H374.85V30.44H379.89V26.44ZM376.85 28.44V18.72H372.85V28.44H376.85ZM374.85 20.72H379.89V16.72H374.85V20.72ZM381.89 18.72V13.68H377.89V18.72H381.89ZM381.89 13.68C381.89 10.8476 382.728 8.77463 384.256 7.24621L381.428 4.41778C379.02 6.82537 377.89 9.98435 377.89 13.68H381.89ZM384.256 7.24621C385.785 5.7178 387.858 4.88 390.69 4.88V0.879997C386.995 0.879997 383.836 2.0102 381.428 4.41778L384.256 7.24621ZM390.69 4.88C393.575 4.88 396.631 4.97459 399.861 5.16455L400.096 1.17145C396.797 0.977409 393.662 0.879997 390.69 0.879997V4.88ZM399.861 5.16455C403.129 5.35679 405.802 5.50131 407.877 5.59784L408.063 1.60216C406.011 1.50669 403.356 1.36321 400.096 1.17145L399.861 5.16455ZM405.97 3.6V13.32H409.97V3.6H405.97ZM421.304 30.96H419.304V32.96H421.304V30.96ZM433.544 30.96V32.96H435.544V30.96H433.544ZM444.704 53.28L444.91 55.2693L446.704 55.0835V53.28H444.704ZM411.656 51.768L410.242 53.1822L410.242 53.1822L411.656 51.768ZM411.728 18.216L413.142 19.6302L413.142 19.6302L411.728 18.216ZM443.048 18.216L441.617 19.6135L441.634 19.6303L441.651 19.6468L443.048 18.216ZM446.144 39.96V41.96H448.144V39.96H446.144ZM421.304 39.96V37.96H419.304V39.96H421.304ZM422.024 44.64L423.438 43.2258L423.438 43.2258L422.024 44.64ZM444.704 44.28H446.704V42.1168L444.548 42.2861L444.704 44.28ZM424.184 22.12C422.916 22.12 421.597 22.4384 420.61 23.4258C419.623 24.4131 419.304 25.7317 419.304 27H423.304C423.304 26.6807 423.345 26.4827 423.382 26.3725C423.399 26.3193 423.415 26.2888 423.424 26.274C423.433 26.2599 423.438 26.2551 423.438 26.2542C423.439 26.2534 423.444 26.2485 423.458 26.24C423.473 26.2311 423.504 26.2151 423.557 26.1974C423.667 26.1606 423.865 26.12 424.184 26.12V22.12ZM419.304 27V30.96H423.304V27H419.304ZM421.304 32.96H433.544V28.96H421.304V32.96ZM435.544 30.96V27H431.544V30.96H435.544ZM435.544 27C435.544 25.7317 435.226 24.4131 434.238 23.4258C433.251 22.4384 431.933 22.12 430.664 22.12V26.12C430.984 26.12 431.181 26.1606 431.292 26.1974C431.345 26.2151 431.375 26.2311 431.39 26.24C431.404 26.2485 431.409 26.2534 431.41 26.2542C431.411 26.2551 431.416 26.2599 431.424 26.274C431.433 26.2888 431.449 26.3193 431.467 26.3725C431.504 26.4827 431.544 26.6807 431.544 27H435.544ZM430.664 22.12H424.184V26.12H430.664V22.12ZM444.498 51.2907C435.287 52.2451 426.958 52.72 419.504 52.72V56.72C427.123 56.72 435.593 56.2349 444.91 55.2693L444.498 51.2907ZM419.504 52.72C416.672 52.72 414.599 51.8822 413.07 50.3538L410.242 53.1822C412.65 55.5898 415.809 56.72 419.504 56.72V52.72ZM413.07 50.3538C411.542 48.8254 410.704 46.7524 410.704 43.92H406.704C406.704 47.6156 407.834 50.7746 410.242 53.1822L413.07 50.3538ZM410.704 43.92V26.64H406.704V43.92H410.704ZM410.704 26.64C410.704 23.4237 411.594 21.1788 413.142 19.6302L410.314 16.8018C407.831 19.2852 406.704 22.6563 406.704 26.64H410.704ZM413.142 19.6302C414.748 18.0249 417.023 17.12 420.224 17.12V13.12C416.225 13.12 412.837 14.2791 410.314 16.8018L413.142 19.6302ZM420.224 17.12H434.624V13.12H420.224V17.12ZM434.624 17.12C437.827 17.12 440.066 18.0255 441.617 19.6135L444.479 16.8185C441.998 14.2785 438.621 13.12 434.624 13.12V17.12ZM441.651 19.6468C443.239 21.1978 444.144 23.437 444.144 26.64H448.144C448.144 22.643 446.986 19.2662 444.446 16.7852L441.651 19.6468ZM444.144 26.64V39.96H448.144V26.64H444.144ZM446.144 37.96H421.304V41.96H446.144V37.96ZM419.304 39.96V42.84H423.304V39.96H419.304ZM419.304 42.84C419.304 44.0547 419.73 45.1746 420.61 46.0542L423.438 43.2258C423.358 43.1454 423.304 43.0653 423.304 42.84H419.304ZM420.61 46.0542C421.49 46.9338 422.609 47.36 423.824 47.36V43.36C423.599 43.36 423.519 43.3062 423.438 43.2258L420.61 46.0542ZM423.824 47.36C428.656 47.36 435.679 46.9949 444.861 46.2739L444.548 42.2861C435.393 43.0051 428.496 43.36 423.824 43.36V47.36ZM442.704 44.28V53.28H446.704V44.28H442.704ZM465.196 28.44L464.379 26.6146L463.196 27.1442V28.44H465.196ZM465.196 54V56H467.196V54H465.196ZM452.596 54H450.596V56H452.596V54ZM452.596 15.84V13.84H450.596V15.84H452.596ZM463.756 15.84L465.733 15.5359L465.472 13.84H463.756V15.84ZM464.476 20.52L462.499 20.8241L463.052 24.4157L465.791 22.0273L464.476 20.52ZM480.676 15.12H482.676V13.12H480.676V15.12ZM480.676 26.28V28.28H482.676V26.28H480.676ZM474.556 24.28C471.208 24.28 467.81 25.0784 464.379 26.6146L466.013 30.2654C469.014 28.9216 471.857 28.28 474.556 28.28V24.28ZM463.196 28.44V54H467.196V28.44H463.196ZM465.196 52H452.596V56H465.196V52ZM454.596 54V15.84H450.596V54H454.596ZM452.596 17.84H463.756V13.84H452.596V17.84ZM461.779 16.1441L462.499 20.8241L466.453 20.2159L465.733 15.5359L461.779 16.1441ZM465.791 22.0273C469.636 18.674 473.505 17.12 477.436 17.12V13.12C472.343 13.12 467.572 15.166 463.162 19.0127L465.791 22.0273ZM477.436 17.12H480.676V13.12H477.436V17.12ZM478.676 15.12V26.28H482.676V15.12H478.676ZM480.676 24.28H474.556V28.28H480.676V24.28ZM484.273 43.92L484.421 41.9254L482.273 41.7668V43.92H484.273ZM509.113 44.28L510.527 45.6942L510.527 45.6942L509.113 44.28ZM509.833 39.96H511.833V37.96H509.833V39.96ZM486.505 37.008L487.919 35.5938L487.919 35.5938L486.505 37.008ZM486.505 18.792L487.919 20.2062L486.505 18.792ZM518.833 15.84H520.833V13.84H518.833V15.84ZM518.833 25.2V27.2H520.833V25.2H518.833ZM496.873 25.92L498.287 27.3342L498.287 27.3342L496.873 25.92ZM496.873 29.52L495.459 30.9342L495.459 30.9342L496.873 29.52ZM519.481 33.192L520.895 31.7778L520.895 31.7778L519.481 33.192ZM519.481 51.768L520.895 53.1822L520.895 53.1822L519.481 51.768ZM484.273 53.28H482.273V55.0926L484.077 55.2704L484.273 53.28ZM484.126 45.9146C493.889 46.636 501.625 47 507.313 47V43C501.769 43 494.146 42.644 484.421 41.9254L484.126 45.9146ZM507.313 47C508.528 47 509.648 46.5738 510.527 45.6942L507.699 42.8658C507.619 42.9462 507.539 43 507.313 43V47ZM510.527 45.6942C511.407 44.8146 511.833 43.6947 511.833 42.48H507.833C507.833 42.7053 507.779 42.7854 507.699 42.8658L510.527 45.6942ZM511.833 42.48V39.96H507.833V42.48H511.833ZM509.833 37.96H494.353V41.96H509.833V37.96ZM494.353 37.96C491.521 37.96 489.448 37.1222 487.919 35.5938L485.091 38.4222C487.499 40.8298 490.658 41.96 494.353 41.96V37.96ZM487.919 35.5938C486.391 34.0654 485.553 31.9924 485.553 29.16H481.553C481.553 32.8556 482.683 36.0146 485.091 38.4222L487.919 35.5938ZM485.553 29.16V26.64H481.553V29.16H485.553ZM485.553 26.64C485.553 23.8076 486.391 21.7346 487.919 20.2062L485.091 17.3778C482.683 19.7854 481.553 22.9444 481.553 26.64H485.553ZM487.919 20.2062C489.448 18.6778 491.521 17.84 494.353 17.84V13.84C490.658 13.84 487.499 14.9702 485.091 17.3778L487.919 20.2062ZM494.353 17.84H518.833V13.84H494.353V17.84ZM516.833 15.84V25.2H520.833V15.84H516.833ZM518.833 23.2H498.673V27.2H518.833V23.2ZM498.673 23.2C497.459 23.2 496.339 23.6262 495.459 24.5058L498.287 27.3342C498.368 27.2538 498.448 27.2 498.673 27.2V23.2ZM495.459 24.5058C494.579 25.3854 494.153 26.5053 494.153 27.72H498.153C498.153 27.4947 498.207 27.4146 498.287 27.3342L495.459 24.5058ZM494.153 27.72C494.153 28.9347 494.579 30.0546 495.459 30.9342L498.287 28.1058C498.207 28.0254 498.153 27.9453 498.153 27.72H494.153ZM495.459 30.9342C496.339 31.8138 497.459 32.24 498.673 32.24V28.24C498.448 28.24 498.368 28.1862 498.287 28.1058L495.459 30.9342ZM498.673 32.24H511.633V28.24H498.673V32.24ZM511.633 32.24C514.466 32.24 516.539 33.0778 518.067 34.6062L520.895 31.7778C518.488 29.3702 515.329 28.24 511.633 28.24V32.24ZM518.067 34.6062C519.595 36.1346 520.433 38.2076 520.433 41.04H524.433C524.433 37.3444 523.303 34.1854 520.895 31.7778L518.067 34.6062ZM520.433 41.04V43.92H524.433V41.04H520.433ZM520.433 43.92C520.433 46.7524 519.595 48.8254 518.067 50.3538L520.895 53.1822C523.303 50.7746 524.433 47.6156 524.433 43.92H520.433ZM518.067 50.3538C516.539 51.8822 514.466 52.72 511.633 52.72V56.72C515.329 56.72 518.488 55.5898 520.895 53.1822L518.067 50.3538ZM511.633 52.72C503.212 52.72 494.158 52.2442 484.469 51.2896L484.077 55.2704C493.877 56.2358 503.063 56.72 511.633 56.72V52.72ZM486.273 53.28V43.92H482.273V53.28H486.273Z" fill="black" fill-opacity="0.06"/>
</svg>
