<svg width="467" height="61" viewBox="0 0 467 61" fill="none" xmlns="http://www.w3.org/2000/svg">
<path d="M2.71475 38.72L2.82408 36.723L0.71475 36.6075L0.71475 38.72H2.71475ZM28.7628 38.848L27.3485 37.4338L27.3485 37.4338L28.7628 38.848ZM29.6588 30.72H31.6588V28.72H29.6588V30.72ZM5.14675 27.712L3.71773 29.1112L3.73246 29.1263L3.7475 29.141L5.14675 27.712ZM5.14675 6.272L6.56096 7.68621L6.56096 7.68621L5.14675 6.272ZM37.4028 3.2H39.4028V1.2H37.4028V3.2ZM37.4028 12.16V14.16H39.4028V12.16H37.4028ZM38.2348 45.696L36.8205 44.2818L36.8205 44.2818L38.2348 45.696ZM22.1068 48.512L22.0199 50.5101L22.0282 50.5105L22.0366 50.5108L22.1068 48.512ZM16.2188 48.256L16.1208 50.2536L16.1319 50.2541L16.2188 48.256ZM2.71475 47.36H0.71475V49.2017L2.55017 49.3532L2.71475 47.36ZM2.60542 40.717C14.2894 41.3566 22.2571 41.68 26.4588 41.68V37.68C22.3831 37.68 14.5214 37.3634 2.82408 36.723L2.60542 40.717ZM26.4588 41.68C27.8299 41.68 29.1583 41.2809 30.177 40.2622L27.3485 37.4338C27.2579 37.5244 27.0503 37.68 26.4588 37.68V41.68ZM30.177 40.2622C31.2102 39.229 31.6588 37.899 31.6588 36.48H27.6588C27.6588 37.0236 27.51 37.2724 27.3485 37.4338L30.177 40.2622ZM31.6588 36.48V30.72H27.6588V36.48H31.6588ZM29.6588 28.72H14.9388V32.72H29.6588V28.72ZM14.9388 28.72C10.6966 28.72 8.05662 27.7621 6.546 26.283L3.7475 29.141C6.33288 31.6725 10.2209 32.72 14.9388 32.72V28.72ZM6.57577 26.3128C5.09662 24.8021 4.13875 22.1622 4.13875 17.92H0.13875C0.13875 22.6378 1.18622 26.5259 3.71773 29.1112L6.57577 26.3128ZM4.13875 17.92V16H0.13875V17.92H4.13875ZM4.13875 16C4.13875 11.7529 5.09865 9.14852 6.56096 7.68621L3.73254 4.85779C1.18418 7.40614 0.13875 11.2871 0.13875 16H4.13875ZM6.56096 7.68621C8.07247 6.17471 10.7061 5.2 14.9388 5.2V1.2C10.2114 1.2 6.31703 2.27329 3.73254 4.85779L6.56096 7.68621ZM14.9388 5.2H37.4028V1.2H14.9388V5.2ZM35.4028 3.2V12.16H39.4028V3.2H35.4028ZM37.4028 10.16H17.4988V14.16H37.4028V10.16ZM17.4988 10.16C15.9105 10.16 14.3519 10.5584 13.2045 11.7058C12.0572 12.8531 11.6588 14.4117 11.6588 16H15.6588C15.6588 15.0283 15.9003 14.6669 16.033 14.5342C16.1656 14.4016 16.527 14.16 17.4988 14.16V10.16ZM11.6588 16V17.28H15.6588V16H11.6588ZM11.6588 17.28C11.6588 18.8683 12.0572 20.4269 13.2045 21.5742C14.3519 22.7216 15.9105 23.12 17.4988 23.12V19.12C16.527 19.12 16.1656 18.8784 16.033 18.7458C15.9003 18.6131 15.6588 18.2517 15.6588 17.28H11.6588ZM17.4988 23.12H29.0188V19.12H17.4988V23.12ZM29.0188 23.12C32.9347 23.12 35.386 24.0437 36.8205 25.4782L39.649 22.6498C37.1582 20.159 33.4655 19.12 29.0188 19.12V23.12ZM36.8205 25.4782C38.2551 26.9128 39.1788 29.3641 39.1788 33.28H43.1788C43.1788 28.8332 42.1398 25.1406 39.649 22.6498L36.8205 25.4782ZM39.1788 33.28V36.48H43.1788V33.28H39.1788ZM39.1788 36.48C39.1788 40.3959 38.2551 42.8472 36.8205 44.2818L39.649 47.1102C42.1398 44.6194 43.1788 40.9268 43.1788 36.48H39.1788ZM36.8205 44.2818C35.386 45.7163 32.9347 46.64 29.0188 46.64V50.64C33.4655 50.64 37.1582 49.601 39.649 47.1102L36.8205 44.2818ZM29.0188 46.64C26.8687 46.64 24.5882 46.5978 22.1769 46.5132L22.0366 50.5108C24.4893 50.5968 26.8168 50.64 29.0188 50.64V46.64ZM22.1936 46.5139L16.3056 46.2579L16.1319 50.2541L22.0199 50.5101L22.1936 46.5139ZM16.3167 46.2584C11.9884 46.0462 7.50935 45.7491 2.87933 45.3668L2.55017 49.3532C7.22148 49.7389 11.7451 50.0391 16.1208 50.2536L16.3167 46.2584ZM4.71475 47.36V38.72H0.71475V47.36H4.71475ZM57.4938 24L56.9217 22.0836L55.4938 22.5098V24H57.4938ZM57.4938 39.36H55.4938V41.36H57.4938V39.36ZM69.0138 23.36L70.428 21.9458L70.428 21.9458L69.0138 23.36ZM57.4938 48V46H55.4938V48H57.4938ZM57.4938 58.88V60.88H59.4938V58.88H57.4938ZM46.2938 58.88H44.2938V60.88H46.2938V58.88ZM46.2938 14.08V12.08H44.2938V14.08H46.2938ZM56.2138 14.08L58.1749 13.6878L57.8534 12.08H56.2138V14.08ZM56.8538 17.28L54.8926 17.6722L55.4752 20.5851L57.9549 18.9495L56.8538 17.28ZM62.9978 14.4L63.5472 16.323L63.5598 16.3194L63.5724 16.3157L62.9978 14.4ZM78.2298 16.064L76.8155 17.4782L76.8155 17.4782L78.2298 16.064ZM78.1018 45.312L79.516 46.7262L79.516 46.7262L78.1018 45.312ZM65.1738 20.72C62.6682 20.72 59.9105 21.1914 56.9217 22.0836L58.0658 25.9164C60.7943 25.102 63.1566 24.72 65.1738 24.72V20.72ZM55.4938 24V39.36H59.4938V24H55.4938ZM57.4938 41.36H67.0938V37.36H57.4938V41.36ZM67.0938 41.36C68.2554 41.36 69.4939 41.0682 70.428 40.1342C71.362 39.2002 71.6538 37.9616 71.6538 36.8H67.6538C67.6538 37.345 67.5188 37.3865 67.5995 37.3058C67.6802 37.2251 67.6388 37.36 67.0938 37.36V41.36ZM71.6538 36.8V24.96H67.6538V36.8H71.6538ZM71.6538 24.96C71.6538 23.8253 71.2542 22.772 70.428 21.9458L67.5995 24.7742C67.6173 24.792 67.626 24.8039 67.6297 24.8094C67.6332 24.8147 67.6351 24.8186 67.6368 24.8228C67.6388 24.8277 67.6538 24.8654 67.6538 24.96H71.6538ZM70.428 21.9458C69.6017 21.1195 68.5485 20.72 67.4138 20.72V24.72C67.5083 24.72 67.5461 24.735 67.551 24.737C67.5552 24.7386 67.5591 24.7406 67.5644 24.7441C67.5699 24.7478 67.5817 24.7564 67.5995 24.7742L70.428 21.9458ZM67.4138 20.72H65.1738V24.72H67.4138V20.72ZM55.4938 48V58.88H59.4938V48H55.4938ZM57.4938 56.88H46.2938V60.88H57.4938V56.88ZM48.2938 58.88V14.08H44.2938V58.88H48.2938ZM46.2938 16.08H56.2138V12.08H46.2938V16.08ZM54.2526 14.4722L54.8926 17.6722L58.8149 16.8878L58.1749 13.6878L54.2526 14.4722ZM57.9549 18.9495C59.808 17.7273 61.6716 16.8589 63.5472 16.323L62.4483 12.4769C60.1425 13.1357 57.9102 14.1873 55.7526 15.6105L57.9549 18.9495ZM63.5724 16.3157C65.6077 15.7051 67.1924 15.44 68.3738 15.44V11.44C66.6538 11.44 64.6544 11.8149 62.4231 12.4843L63.5724 16.3157ZM68.3738 15.44H71.2538V11.44H68.3738V15.44ZM71.2538 15.44C73.7234 15.44 75.5058 16.1685 76.8155 17.4782L79.644 14.6498C77.455 12.4609 74.5867 11.44 71.2538 11.44V15.44ZM76.8155 17.4782C78.1253 18.788 78.8538 20.5703 78.8538 23.04H82.8538C82.8538 19.707 81.8329 16.8387 79.644 14.6498L76.8155 17.4782ZM78.8538 23.04V37.76H82.8538V23.04H78.8538ZM78.8538 37.76C78.8538 40.5609 78.0635 42.5218 76.6875 43.8978L79.516 46.7262C81.8093 44.4328 82.8538 41.3591 82.8538 37.76H78.8538ZM76.6875 43.8978C75.363 45.2224 73.43 46 70.6138 46V50C74.1975 50 77.2565 48.9856 79.516 46.7262L76.6875 43.8978ZM70.6138 46H57.4938V50H70.6138V46ZM97.1663 27.52H95.1663V29.52H97.1663V27.52ZM108.046 27.52V29.52H110.046V27.52H108.046ZM117.966 47.36L118.172 49.3493L119.966 49.1635V47.36H117.966ZM88.5903 46.016L87.176 47.4302L87.176 47.4302L88.5903 46.016ZM88.6543 16.192L90.0685 17.6062L90.0685 17.6062L88.6543 16.192ZM116.494 16.192L115.063 17.5895L115.08 17.6063L115.097 17.6228L116.494 16.192ZM119.246 35.52V37.52H121.246V35.52H119.246ZM97.1663 35.52V33.52H95.1663V35.52H97.1663ZM97.8063 39.68L99.2205 38.2658L99.2205 38.2658L97.8063 39.68ZM117.966 39.36H119.966V37.1968L117.81 37.3661L117.966 39.36ZM99.7263 19.44C98.5646 19.44 97.3261 19.7318 96.392 20.6658C95.458 21.5998 95.1663 22.8384 95.1663 24H99.1663C99.1663 23.455 99.3012 23.4135 99.2205 23.4942C99.1398 23.5749 99.1812 23.44 99.7263 23.44V19.44ZM95.1663 24V27.52H99.1663V24H95.1663ZM97.1663 29.52H108.046V25.52H97.1663V29.52ZM110.046 27.52V24H106.046V27.52H110.046ZM110.046 24C110.046 22.8384 109.754 21.5998 108.82 20.6658C107.886 19.7318 106.648 19.44 105.486 19.44V23.44C106.031 23.44 106.073 23.5749 105.992 23.4942C105.911 23.4135 106.046 23.455 106.046 24H110.046ZM105.486 19.44H99.7263V23.44H105.486V19.44ZM117.76 45.3707C109.579 46.2185 102.182 46.64 95.5663 46.64V50.64C102.348 50.64 109.884 50.2082 118.172 49.3493L117.76 45.3707ZM95.5663 46.64C93.0966 46.64 91.3142 45.9115 90.0045 44.6018L87.176 47.4302C89.365 49.6191 92.2333 50.64 95.5663 50.64V46.64ZM90.0045 44.6018C88.6947 43.292 87.9663 41.5097 87.9663 39.04H83.9663C83.9663 42.373 84.9871 45.2413 87.176 47.4302L90.0045 44.6018ZM87.9663 39.04V23.68H83.9663V39.04H87.9663ZM87.9663 23.68C87.9663 20.8637 88.7439 18.9308 90.0685 17.6062L87.24 14.7778C84.9806 17.0372 83.9663 20.0963 83.9663 23.68H87.9663ZM90.0685 17.6062C91.4444 16.2303 93.4054 15.44 96.2063 15.44V11.44C92.6071 11.44 89.5334 12.4844 87.24 14.7778L90.0685 17.6062ZM96.2063 15.44H109.006V11.44H96.2063V15.44ZM109.006 15.44C111.809 15.44 113.736 16.2308 115.063 17.5895L117.925 14.7945C115.668 12.4839 112.603 11.44 109.006 11.44V15.44ZM115.097 17.6228C116.455 18.9498 117.246 20.877 117.246 23.68H121.246C121.246 20.083 120.202 17.0182 117.892 14.7612L115.097 17.6228ZM117.246 23.68V35.52H121.246V23.68H117.246ZM119.246 33.52H97.1663V37.52H119.246V33.52ZM95.1663 35.52V38.08H99.1663V35.52H95.1663ZM95.1663 38.08C95.1663 39.2147 95.5658 40.268 96.392 41.0942L99.2205 38.2658C99.2027 38.248 99.194 38.2361 99.1904 38.2306C99.1868 38.2253 99.1849 38.2214 99.1832 38.2172C99.1812 38.2123 99.1663 38.1746 99.1663 38.08H95.1663ZM96.392 41.0942C97.2183 41.9205 98.2715 42.32 99.4062 42.32V38.32C99.3117 38.32 99.2739 38.305 99.269 38.303C99.2648 38.3014 99.2609 38.2994 99.2557 38.2959C99.2501 38.2922 99.2383 38.2836 99.2205 38.2658L96.392 41.0942ZM99.4062 42.32C103.711 42.32 109.96 41.9949 118.123 41.3539L117.81 37.3661C109.674 38.0051 103.55 38.32 99.4062 38.32V42.32ZM115.966 39.36V47.36H119.966V39.36H115.966ZM155.061 47.36L155.274 49.3487L157.061 49.1575V47.36H155.061ZM126.965 46.016L125.551 47.4302L125.551 47.4302L126.965 46.016ZM127.029 16.832L128.443 18.2462L128.443 18.2462L127.029 16.832ZM155.061 14.08H157.061V12.08H155.061V14.08ZM155.061 22.72V24.72H157.061V22.72H155.061ZM155.061 39.04H157.061V36.8664L154.895 37.0469L155.061 39.04ZM154.849 45.3713C146.92 46.2193 139.953 46.64 133.941 46.64V50.64C140.132 50.64 147.245 50.2073 155.274 49.3487L154.849 45.3713ZM133.941 46.64C131.472 46.64 129.689 45.9115 128.379 44.6018L125.551 47.4302C127.74 49.6191 130.608 50.64 133.941 50.64V46.64ZM128.379 44.6018C127.07 43.292 126.341 41.5097 126.341 39.04H122.341C122.341 42.373 123.362 45.2413 125.551 47.4302L128.379 44.6018ZM126.341 39.04V24.32H122.341V39.04H126.341ZM126.341 24.32C126.341 21.5037 127.119 19.5708 128.443 18.2462L125.615 15.4178C123.356 17.6772 122.341 20.7363 122.341 24.32H126.341ZM128.443 18.2462C129.819 16.8703 131.78 16.08 134.581 16.08V12.08C130.982 12.08 127.908 13.1244 125.615 15.4178L128.443 18.2462ZM134.581 16.08H155.061V12.08H134.581V16.08ZM153.061 14.08V22.72H157.061V14.08H153.061ZM155.061 20.72H138.101V24.72H155.061V20.72ZM138.101 20.72C136.94 20.72 135.701 21.0118 134.767 21.9458C133.833 22.8798 133.541 24.1184 133.541 25.28H137.541C137.541 24.735 137.676 24.6935 137.595 24.7742C137.515 24.8549 137.556 24.72 138.101 24.72V20.72ZM133.541 25.28V37.76H137.541V25.28H133.541ZM133.541 37.76C133.541 38.8947 133.941 39.948 134.767 40.7742L137.595 37.9458C137.578 37.928 137.569 37.9161 137.565 37.9106C137.562 37.9053 137.56 37.9014 137.558 37.8972C137.556 37.8923 137.541 37.8546 137.541 37.76H133.541ZM134.767 40.7742C135.593 41.6005 136.647 42 137.781 42V38C137.687 38 137.649 37.985 137.644 37.983C137.64 37.9814 137.636 37.9794 137.631 37.9759C137.625 37.9722 137.613 37.9636 137.595 37.9458L134.767 40.7742ZM137.781 42C141.708 42 147.535 41.6741 155.227 41.0331L154.895 37.0469C147.227 37.6859 141.535 38 137.781 38V42ZM153.061 39.04V47.36H157.061V39.04H153.061ZM174.249 15.36H176.249V13.36H174.249V15.36ZM174.249 48V50H176.249V48H174.249ZM163.049 48H161.049V50H163.049V48ZM163.049 24H165.049V22H163.049V24ZM158.249 24H156.249V26H158.249V24ZM158.249 15.36V13.36H156.249V15.36H158.249ZM163.049 2.56V0.559998H161.049V2.56H163.049ZM174.249 2.56H176.249V0.559998H174.249V2.56ZM174.249 11.52V13.52H176.249V11.52H174.249ZM163.049 11.52H161.049V13.52H163.049V11.52ZM172.249 15.36V48H176.249V15.36H172.249ZM174.249 46H163.049V50H174.249V46ZM165.049 48V24H161.049V48H165.049ZM163.049 22H158.249V26H163.049V22ZM160.249 24V15.36H156.249V24H160.249ZM158.249 17.36H174.249V13.36H158.249V17.36ZM163.049 4.56H174.249V0.559998H163.049V4.56ZM172.249 2.56V11.52H176.249V2.56H172.249ZM174.249 9.52H163.049V13.52H174.249V9.52ZM165.049 11.52V2.56H161.049V11.52H165.049ZM201.789 38.4L202.361 40.3164L203.789 39.8902V38.4H201.789ZM201.789 34.56H203.789V32.56H201.789V34.56ZM190.909 35.2L192.323 36.6142L192.323 36.6142L190.909 35.2ZM190.909 39.04L189.495 40.4542L189.495 40.4542L190.909 39.04ZM182.269 14.72L182.051 12.7318L180.269 12.9267V14.72H182.269ZM210.365 16.064L208.951 17.4782L208.951 17.4782L210.365 16.064ZM212.989 48V50H214.989V48H212.989ZM203.069 48L201.108 48.3922L201.429 50H203.069V48ZM202.429 44.8L204.39 44.4078L203.807 41.4949L201.328 43.1305L202.429 44.8ZM196.221 47.744L196.77 49.667L196.783 49.6634L196.795 49.6597L196.221 47.744ZM181.693 46.016L180.279 47.4302L180.279 47.4302L181.693 46.016ZM181.693 29.184L183.107 30.5982L183.107 30.5982L181.693 29.184ZM201.789 26.56V28.56H203.789V26.56H201.789ZM201.149 22.4L199.735 23.8142L199.735 23.8142L201.149 22.4ZM190.333 22.144L190.181 20.1497L190.179 20.1499L190.333 22.144ZM182.269 22.72H180.269V24.8489L182.394 24.7161L182.269 22.72ZM194.109 41.68C196.614 41.68 199.372 41.2086 202.361 40.3164L201.217 36.4836C198.488 37.298 196.126 37.68 194.109 37.68V41.68ZM203.789 38.4V34.56H199.789V38.4H203.789ZM201.789 32.56H192.509V36.56H201.789V32.56ZM192.509 32.56C191.374 32.56 190.321 32.9595 189.495 33.7858L192.323 36.6142C192.341 36.5964 192.353 36.5878 192.358 36.5841C192.363 36.5806 192.367 36.5786 192.372 36.577C192.376 36.575 192.414 36.56 192.509 36.56V32.56ZM189.495 33.7858C188.668 34.612 188.269 35.6653 188.269 36.8H192.269C192.269 36.7054 192.284 36.6677 192.286 36.6628C192.287 36.6586 192.289 36.6547 192.293 36.6494C192.297 36.6439 192.305 36.632 192.323 36.6142L189.495 33.7858ZM188.269 36.8V37.44H192.269V36.8H188.269ZM188.269 37.44C188.269 38.5747 188.668 39.628 189.495 40.4542L192.323 37.6258C192.305 37.608 192.297 37.5961 192.293 37.5906C192.289 37.5853 192.287 37.5814 192.286 37.5772C192.284 37.5723 192.269 37.5346 192.269 37.44H188.269ZM189.495 40.4542C190.321 41.2805 191.374 41.68 192.509 41.68V37.68C192.414 37.68 192.376 37.665 192.372 37.663C192.367 37.6614 192.363 37.6594 192.358 37.6559C192.353 37.6522 192.341 37.6436 192.323 37.6258L189.495 40.4542ZM192.509 41.68H194.109V37.68H192.509V41.68ZM182.486 16.7082C190.239 15.8608 197.205 15.44 203.389 15.44V11.44C197.029 11.44 189.915 11.8725 182.051 12.7318L182.486 16.7082ZM203.389 15.44C205.858 15.44 207.641 16.1685 208.951 17.4782L211.779 14.6498C209.59 12.4609 206.722 11.44 203.389 11.44V15.44ZM208.951 17.4782C210.26 18.788 210.989 20.5703 210.989 23.04H214.989C214.989 19.707 213.968 16.8387 211.779 14.6498L208.951 17.4782ZM210.989 23.04V48H214.989V23.04H210.989ZM212.989 46H203.069V50H212.989V46ZM205.03 47.6078L204.39 44.4078L200.468 45.1922L201.108 48.3922L205.03 47.6078ZM201.328 43.1305C199.472 44.3543 197.579 45.2485 195.646 45.8283L196.795 49.6597C199.129 48.9595 201.375 47.8911 203.53 46.4695L201.328 43.1305ZM195.671 45.821C193.68 46.39 192.106 46.64 190.909 46.64V50.64C192.613 50.64 194.58 50.2927 196.77 49.667L195.671 45.821ZM190.909 46.64H188.669V50.64H190.909V46.64ZM188.669 46.64C186.199 46.64 184.417 45.9115 183.107 44.6018L180.279 47.4302C182.467 49.6191 185.336 50.64 188.669 50.64V46.64ZM183.107 44.6018C181.797 43.292 181.069 41.5097 181.069 39.04H177.069C177.069 42.373 178.09 45.2413 180.279 47.4302L183.107 44.6018ZM181.069 39.04V36.16H177.069V39.04H181.069ZM181.069 36.16C181.069 33.6903 181.797 31.908 183.107 30.5982L180.279 27.7698C178.09 29.9587 177.069 32.827 177.069 36.16H181.069ZM183.107 30.5982C184.417 29.2885 186.199 28.56 188.669 28.56V24.56C185.336 24.56 182.467 25.5809 180.279 27.7698L183.107 30.5982ZM188.669 28.56H201.789V24.56H188.669V28.56ZM203.789 26.56V24H199.789V26.56H203.789ZM203.789 24C203.789 22.8653 203.389 21.812 202.563 20.9858L199.735 23.8142C199.752 23.832 199.761 23.8439 199.765 23.8494C199.768 23.8547 199.77 23.8586 199.772 23.8628C199.774 23.8677 199.789 23.9054 199.789 24H203.789ZM202.563 20.9858C201.737 20.1595 200.683 19.76 199.549 19.76V23.76C199.643 23.76 199.681 23.775 199.686 23.777C199.69 23.7786 199.694 23.7806 199.699 23.7841C199.705 23.7878 199.717 23.7964 199.735 23.8142L202.563 20.9858ZM199.549 19.76C196.715 19.76 193.592 19.8907 190.181 20.1497L190.484 24.1383C193.815 23.8853 196.835 23.76 199.549 23.76V19.76ZM190.179 20.1499C186.856 20.4055 184.178 20.5967 182.144 20.7239L182.394 24.7161C184.455 24.5873 187.154 24.3944 190.486 24.1381L190.179 20.1499ZM184.269 22.72V14.72H180.269V22.72H184.269ZM236.011 48L236.306 49.9781L238.011 49.7236V48H236.011ZM221.355 46.016L222.769 44.6018L222.769 44.6018L221.355 46.016ZM218.731 3.2V1.2H216.731V3.2H218.731ZM229.931 3.2H231.931V1.2H229.931V3.2ZM236.011 39.68H238.011V37.68H236.011V39.68ZM235.716 46.0219C232.945 46.4356 230.313 46.64 227.819 46.64V50.64C230.531 50.64 233.361 50.4178 236.306 49.9781L235.716 46.0219ZM227.819 46.64C225.769 46.64 224.129 45.9617 222.769 44.6018L219.941 47.4302C222.08 49.569 224.749 50.64 227.819 50.64V46.64ZM222.769 44.6018C221.46 43.292 220.731 41.5097 220.731 39.04H216.731C216.731 42.373 217.752 45.2413 219.941 47.4302L222.769 44.6018ZM220.731 39.04V3.2H216.731V39.04H220.731ZM218.731 5.2H229.931V1.2H218.731V5.2ZM227.931 3.2V37.44H231.931V3.2H227.931ZM227.931 37.44C227.931 38.5747 228.331 39.628 229.157 40.4542L231.985 37.6258C231.968 37.608 231.959 37.5961 231.955 37.5906C231.952 37.5853 231.95 37.5814 231.948 37.5772C231.946 37.5723 231.931 37.5346 231.931 37.44H227.931ZM229.157 40.4542C229.983 41.2805 231.037 41.68 232.171 41.68V37.68C232.077 37.68 232.039 37.665 232.034 37.663C232.03 37.6614 232.026 37.6594 232.021 37.6559C232.015 37.6522 232.003 37.6436 231.985 37.6258L229.157 40.4542ZM232.171 41.68H236.011V37.68H232.171V41.68ZM234.011 39.68V48H238.011V39.68H234.011ZM297.557 45.632L296.143 44.2178L296.143 44.2178L297.557 45.632ZM262.037 45.632L260.608 47.0312L260.622 47.0463L260.638 47.061L262.037 45.632ZM262.037 5.632L260.623 4.21778L260.623 4.21778L262.037 5.632ZM297.557 5.632L296.128 7.03125L296.142 7.04629L296.158 7.06102L297.557 5.632ZM291.109 15.36C291.109 13.7717 290.71 12.2131 289.563 11.0658C288.416 9.91842 286.857 9.52 285.269 9.52V13.52C286.24 13.52 286.602 13.7616 286.735 13.8942C286.867 14.0269 287.109 14.3883 287.109 15.36H291.109ZM285.269 9.52H274.389V13.52H285.269V9.52ZM274.389 9.52C272.8 9.52 271.242 9.91842 270.095 11.0658C268.947 12.2131 268.549 13.7717 268.549 15.36H272.549C272.549 14.3883 272.79 14.0269 272.923 13.8942C273.056 13.7616 273.417 13.52 274.389 13.52V9.52ZM268.549 15.36V35.84H272.549V15.36H268.549ZM268.549 35.84C268.549 37.4283 268.947 38.9869 270.095 40.1342C271.242 41.2816 272.8 41.68 274.389 41.68V37.68C273.417 37.68 273.056 37.4384 272.923 37.3058C272.79 37.1731 272.549 36.8117 272.549 35.84H268.549ZM274.389 41.68H285.269V37.68H274.389V41.68ZM285.269 41.68C286.857 41.68 288.416 41.2816 289.563 40.1342C290.71 38.9869 291.109 37.4283 291.109 35.84H287.109C287.109 36.8117 286.867 37.1731 286.735 37.3058C286.602 37.4384 286.24 37.68 285.269 37.68V41.68ZM291.109 35.84V15.36H287.109V35.84H291.109ZM298.629 35.84C298.629 40.0726 297.654 42.7063 296.143 44.2178L298.971 47.0462C301.555 44.4617 302.629 40.5674 302.629 35.84H298.629ZM296.143 44.2178C294.68 45.6801 292.076 46.64 287.829 46.64V50.64C292.542 50.64 296.423 49.5946 298.971 47.0462L296.143 44.2178ZM287.829 46.64H271.829V50.64H287.829V46.64ZM271.829 46.64C267.587 46.64 264.947 45.6821 263.436 44.203L260.638 47.061C263.223 49.5925 267.111 50.64 271.829 50.64V46.64ZM263.466 44.2328C261.987 42.7221 261.029 40.0822 261.029 35.84H257.029C257.029 40.5578 258.076 44.4459 260.608 47.0312L263.466 44.2328ZM261.029 35.84V15.36H257.029V35.84H261.029ZM261.029 15.36C261.029 11.1129 261.989 8.50852 263.451 7.04621L260.623 4.21778C258.074 6.76614 257.029 10.6471 257.029 15.36H261.029ZM263.451 7.04621C264.962 5.53471 267.596 4.56 271.829 4.56V0.559998C267.101 0.559998 263.207 1.63329 260.623 4.21778L263.451 7.04621ZM271.829 4.56H287.829V0.559998H271.829V4.56ZM287.829 4.56C292.066 4.56 294.664 5.53669 296.128 7.03125L298.986 4.23275C296.439 1.63131 292.551 0.559998 287.829 0.559998V4.56ZM296.158 7.06102C297.652 8.52444 298.629 11.1226 298.629 15.36H302.629C302.629 10.6374 301.557 6.75022 298.956 4.20298L296.158 7.06102ZM298.629 15.36V35.84H302.629V15.36H298.629ZM333.939 11.84L333.801 13.8353L335.939 13.9827V11.84H333.939ZM320.819 11.84L322.233 13.2542L322.233 13.2542L320.819 11.84ZM320.179 16.64H318.179V18.64H320.179V16.64ZM330.739 16.64H332.739V14.64H330.739V16.64ZM330.739 25.28V27.28H332.739V25.28H330.739ZM320.179 25.28V23.28H318.179V25.28H320.179ZM320.179 48V50H322.179V48H320.179ZM308.979 48H306.979V50H308.979V48ZM308.979 25.28H310.979V23.28H308.979V25.28ZM304.499 25.28H302.499V27.28H304.499V25.28ZM304.499 16.64V14.64H302.499V16.64H304.499ZM308.979 16.64V18.64H310.979V16.64H308.979ZM311.603 5.184L313.017 6.59821L313.017 6.59821L311.603 5.184ZM333.939 3.2H335.939V1.29086L334.032 1.20216L333.939 3.2ZM334.076 9.84474C332.853 9.76034 331.221 9.63322 329.177 9.46291L328.845 13.4491C330.897 13.6201 332.55 13.749 333.801 13.8353L334.076 9.84474ZM329.177 9.46291C327.092 9.28921 325.264 9.2 323.699 9.2V13.2C325.12 13.2 326.833 13.2815 328.845 13.4491L329.177 9.46291ZM323.699 9.2C322.873 9.2 322.1 9.25751 321.425 9.40762C320.785 9.54988 320.007 9.8232 319.405 10.4258L322.233 13.2542C322.057 13.4301 321.973 13.3835 322.293 13.3124C322.577 13.2492 323.031 13.2 323.699 13.2V9.2ZM319.405 10.4258C318.578 11.252 318.179 12.3053 318.179 13.44H322.179C322.179 13.3454 322.194 13.3077 322.196 13.3028C322.197 13.2986 322.199 13.2947 322.203 13.2894C322.207 13.2839 322.215 13.272 322.233 13.2542L319.405 10.4258ZM318.179 13.44V16.64H322.179V13.44H318.179ZM320.179 18.64H330.739V14.64H320.179V18.64ZM328.739 16.64V25.28H332.739V16.64H328.739ZM330.739 23.28H320.179V27.28H330.739V23.28ZM318.179 25.28V48H322.179V25.28H318.179ZM320.179 46H308.979V50H320.179V46ZM310.979 48V25.28H306.979V48H310.979ZM308.979 23.28H304.499V27.28H308.979V23.28ZM306.499 25.28V16.64H302.499V25.28H306.499ZM304.499 18.64H308.979V14.64H304.499V18.64ZM310.979 16.64V12.16H306.979V16.64H310.979ZM310.979 12.16C310.979 9.69031 311.707 7.90796 313.017 6.59821L310.189 3.76978C308 5.9587 306.979 8.82702 306.979 12.16H310.979ZM313.017 6.59821C314.327 5.28846 316.109 4.56 318.579 4.56V0.559998C315.246 0.559998 312.377 1.58086 310.189 3.76978L313.017 6.59821ZM318.579 4.56C321.138 4.56 323.851 4.64392 326.717 4.81255L326.952 0.819449C324.016 0.646743 321.225 0.559998 318.579 0.559998V4.56ZM326.717 4.81255C329.623 4.98345 332 5.11197 333.846 5.19784L334.032 1.20216C332.208 1.11736 329.849 0.989877 326.952 0.819449L326.717 4.81255ZM331.939 3.2V11.84H335.939V3.2H331.939ZM362.751 11.84L362.614 13.8353L364.751 13.9827V11.84H362.751ZM349.631 11.84L351.045 13.2542L351.045 13.2542L349.631 11.84ZM348.991 16.64H346.991V18.64H348.991V16.64ZM359.551 16.64H361.551V14.64H359.551V16.64ZM359.551 25.28V27.28H361.551V25.28H359.551ZM348.991 25.28V23.28H346.991V25.28H348.991ZM348.991 48V50H350.991V48H348.991ZM337.791 48H335.791V50H337.791V48ZM337.791 25.28H339.791V23.28H337.791V25.28ZM333.311 25.28H331.311V27.28H333.311V25.28ZM333.311 16.64V14.64H331.311V16.64H333.311ZM337.791 16.64V18.64H339.791V16.64H337.791ZM340.415 5.184L341.829 6.59821L341.829 6.59821L340.415 5.184ZM362.751 3.2H364.751V1.29086L362.844 1.20216L362.751 3.2ZM362.889 9.84474C361.665 9.76034 360.033 9.63322 357.989 9.46291L357.657 13.4491C359.709 13.6201 361.363 13.749 362.614 13.8353L362.889 9.84474ZM357.989 9.46291C355.905 9.28921 354.076 9.2 352.511 9.2V13.2C353.933 13.2 355.646 13.2815 357.657 13.4491L357.989 9.46291ZM352.511 9.2C351.686 9.2 350.913 9.25751 350.237 9.40762C349.597 9.54988 348.82 9.8232 348.217 10.4258L351.045 13.2542C350.87 13.4301 350.785 13.3835 351.105 13.3124C351.39 13.2492 351.844 13.2 352.511 13.2V9.2ZM348.217 10.4258C347.391 11.252 346.991 12.3053 346.991 13.44H350.991C350.991 13.3454 351.006 13.3077 351.008 13.3028C351.01 13.2986 351.012 13.2947 351.015 13.2894C351.019 13.2839 351.028 13.272 351.045 13.2542L348.217 10.4258ZM346.991 13.44V16.64H350.991V13.44H346.991ZM348.991 18.64H359.551V14.64H348.991V18.64ZM357.551 16.64V25.28H361.551V16.64H357.551ZM359.551 23.28H348.991V27.28H359.551V23.28ZM346.991 25.28V48H350.991V25.28H346.991ZM348.991 46H337.791V50H348.991V46ZM339.791 48V25.28H335.791V48H339.791ZM337.791 23.28H333.311V27.28H337.791V23.28ZM335.311 25.28V16.64H331.311V25.28H335.311ZM333.311 18.64H337.791V14.64H333.311V18.64ZM339.791 16.64V12.16H335.791V16.64H339.791ZM339.791 12.16C339.791 9.69031 340.52 7.90796 341.829 6.59821L339.001 3.76978C336.812 5.9587 335.791 8.82702 335.791 12.16H339.791ZM341.829 6.59821C343.139 5.28846 344.922 4.56 347.391 4.56V0.559998C344.058 0.559998 341.19 1.58086 339.001 3.76978L341.829 6.59821ZM347.391 4.56C349.951 4.56 352.663 4.64392 355.53 4.81255L355.765 0.819449C352.829 0.646743 350.037 0.559998 347.391 0.559998V4.56ZM355.53 4.81255C358.435 4.98345 360.812 5.11197 362.658 5.19784L362.844 1.20216C361.021 1.11736 358.662 0.989877 355.765 0.819449L355.53 4.81255ZM360.751 3.2V11.84H364.751V3.2H360.751ZM374.604 27.52H372.604V29.52H374.604V27.52ZM385.484 27.52V29.52H387.484V27.52H385.484ZM395.404 47.36L395.61 49.3493L397.404 49.1635V47.36H395.404ZM366.028 46.016L364.614 47.4302L364.614 47.4302L366.028 46.016ZM366.092 16.192L367.506 17.6062L367.506 17.6062L366.092 16.192ZM393.932 16.192L392.501 17.5895L392.517 17.6063L392.534 17.6228L393.932 16.192ZM396.684 35.52V37.52H398.684V35.52H396.684ZM374.604 35.52V33.52H372.604V35.52H374.604ZM375.244 39.68L376.658 38.2658L376.658 38.2658L375.244 39.68ZM395.404 39.36H397.404V37.1968L395.247 37.3661L395.404 39.36ZM377.164 19.44C376.002 19.44 374.764 19.7318 373.83 20.6658C372.896 21.5998 372.604 22.8384 372.604 24H376.604C376.604 23.455 376.739 23.4135 376.658 23.4942C376.577 23.5749 376.619 23.44 377.164 23.44V19.44ZM372.604 24V27.52H376.604V24H372.604ZM374.604 29.52H385.484V25.52H374.604V29.52ZM387.484 27.52V24H383.484V27.52H387.484ZM387.484 24C387.484 22.8384 387.192 21.5998 386.258 20.6658C385.324 19.7318 384.085 19.44 382.924 19.44V23.44C383.469 23.44 383.51 23.5749 383.43 23.4942C383.349 23.4135 383.484 23.455 383.484 24H387.484ZM382.924 19.44H377.164V23.44H382.924V19.44ZM395.198 45.3707C387.016 46.2185 379.62 46.64 373.004 46.64V50.64C379.785 50.64 387.322 50.2082 395.61 49.3493L395.198 45.3707ZM373.004 46.64C370.534 46.64 368.752 45.9115 367.442 44.6018L364.614 47.4302C366.802 49.6191 369.671 50.64 373.004 50.64V46.64ZM367.442 44.6018C366.132 43.292 365.404 41.5097 365.404 39.04H361.404C361.404 42.373 362.425 45.2413 364.614 47.4302L367.442 44.6018ZM365.404 39.04V23.68H361.404V39.04H365.404ZM365.404 23.68C365.404 20.8637 366.181 18.9308 367.506 17.6062L364.678 14.7778C362.418 17.0372 361.404 20.0963 361.404 23.68H365.404ZM367.506 17.6062C368.882 16.2303 370.843 15.44 373.644 15.44V11.44C370.045 11.44 366.971 12.4844 364.678 14.7778L367.506 17.6062ZM373.644 15.44H386.444V11.44H373.644V15.44ZM386.444 15.44C389.247 15.44 391.174 16.2308 392.501 17.5895L395.363 14.7945C393.106 12.4839 390.041 11.44 386.444 11.44V15.44ZM392.534 17.6228C393.893 18.9498 394.684 20.877 394.684 23.68H398.684C398.684 20.083 397.64 17.0182 395.329 14.7612L392.534 17.6228ZM394.684 23.68V35.52H398.684V23.68H394.684ZM396.684 33.52H374.604V37.52H396.684V33.52ZM372.604 35.52V38.08H376.604V35.52H372.604ZM372.604 38.08C372.604 39.2147 373.003 40.268 373.83 41.0942L376.658 38.2658C376.64 38.248 376.632 38.2361 376.628 38.2306C376.624 38.2253 376.622 38.2214 376.621 38.2172C376.619 38.2123 376.604 38.1746 376.604 38.08H372.604ZM373.83 41.0942C374.656 41.9205 375.709 42.32 376.844 42.32V38.32C376.749 38.32 376.711 38.305 376.707 38.303C376.702 38.3014 376.698 38.2994 376.693 38.2959C376.688 38.2922 376.676 38.2836 376.658 38.2658L373.83 41.0942ZM376.844 42.32C381.148 42.32 387.397 41.9949 395.56 41.3539L395.247 37.3661C387.111 38.0051 380.987 38.32 376.844 38.32V42.32ZM393.404 39.36V47.36H397.404V39.36H393.404ZM413.619 25.28L412.801 23.4546L411.619 23.9842V25.28H413.619ZM413.619 48V50H415.619V48H413.619ZM402.419 48H400.419V50H402.419V48ZM402.419 14.08V12.08H400.419V14.08H402.419ZM412.339 14.08L414.315 13.7759L414.055 12.08H412.339V14.08ZM412.979 18.24L411.002 18.5441L411.555 22.1357L414.293 19.7473L412.979 18.24ZM427.379 13.44H429.379V11.44H427.379V13.44ZM427.379 23.36V25.36H429.379V23.36H427.379ZM421.939 21.36C418.926 21.36 415.875 22.0784 412.801 23.4546L414.436 27.1054C417.08 25.9216 419.575 25.36 421.939 25.36V21.36ZM411.619 25.28V48H415.619V25.28H411.619ZM413.619 46H402.419V50H413.619V46ZM404.419 48V14.08H400.419V48H404.419ZM402.419 16.08H412.339V12.08H402.419V16.08ZM410.362 14.3841L411.002 18.5441L414.955 17.9359L414.315 13.7759L410.362 14.3841ZM414.293 19.7473C417.68 16.794 421.069 15.44 424.499 15.44V11.44C419.907 11.44 415.616 13.286 411.664 16.7327L414.293 19.7473ZM424.499 15.44H427.379V11.44H424.499V15.44ZM425.379 13.44V23.36H429.379V13.44H425.379ZM427.379 21.36H421.939V25.36H427.379V21.36ZM430.576 39.04L430.724 37.0454L428.576 36.8868V39.04H430.576ZM452.656 39.36L454.07 40.7742L454.07 40.7742L452.656 39.36ZM453.296 35.52H455.296V33.52H453.296V35.52ZM432.56 32.896L433.974 31.4818L433.974 31.4818L432.56 32.896ZM432.56 16.704L433.974 18.1182L433.974 18.1182L432.56 16.704ZM461.296 14.08H463.296V12.08H461.296V14.08ZM461.296 22.4V24.4H463.296V22.4H461.296ZM441.776 23.04L443.19 24.4542L443.19 24.4542L441.776 23.04ZM441.776 26.24L440.362 27.6542L440.362 27.6542L441.776 26.24ZM461.872 29.504L463.286 28.0898L463.286 28.0898L461.872 29.504ZM461.872 46.016L463.286 47.4302L463.286 47.4302L461.872 46.016ZM430.576 47.36H428.576V49.1726L430.38 49.3504L430.576 47.36ZM430.429 41.0346C439.109 41.676 445.992 42 451.056 42V38C446.136 38 439.366 37.684 430.724 37.0454L430.429 41.0346ZM451.056 42C452.191 42 453.244 41.6005 454.07 40.7742L451.242 37.9458C451.224 37.9636 451.212 37.9722 451.207 37.9759C451.202 37.9794 451.198 37.9814 451.193 37.983C451.189 37.985 451.151 38 451.056 38V42ZM454.07 40.7742C454.897 39.948 455.296 38.8947 455.296 37.76H451.296C451.296 37.8546 451.281 37.8923 451.279 37.8972C451.278 37.9014 451.276 37.9053 451.272 37.9106C451.268 37.9161 451.26 37.928 451.242 37.9458L454.07 40.7742ZM455.296 37.76V35.52H451.296V37.76H455.296ZM453.296 33.52H439.536V37.52H453.296V33.52ZM439.536 33.52C437.067 33.52 435.284 32.7915 433.974 31.4818L431.146 34.3102C433.335 36.4991 436.203 37.52 439.536 37.52V33.52ZM433.974 31.4818C432.665 30.172 431.936 28.3897 431.936 25.92H427.936C427.936 29.253 428.957 32.1213 431.146 34.3102L433.974 31.4818ZM431.936 25.92V23.68H427.936V25.92H431.936ZM431.936 23.68C431.936 21.2103 432.665 19.428 433.974 18.1182L431.146 15.2898C428.957 17.4787 427.936 20.347 427.936 23.68H431.936ZM433.974 18.1182C435.284 16.8085 437.067 16.08 439.536 16.08V12.08C436.203 12.08 433.335 13.1009 431.146 15.2898L433.974 18.1182ZM439.536 16.08H461.296V12.08H439.536V16.08ZM459.296 14.08V22.4H463.296V14.08H459.296ZM461.296 20.4H443.376V24.4H461.296V20.4ZM443.376 20.4C442.242 20.4 441.188 20.7995 440.362 21.6258L443.19 24.4542C443.208 24.4364 443.22 24.4278 443.226 24.4241C443.231 24.4206 443.235 24.4186 443.239 24.417C443.244 24.415 443.282 24.4 443.376 24.4V20.4ZM440.362 21.6258C439.536 22.452 439.136 23.5053 439.136 24.64H443.136C443.136 24.5454 443.151 24.5077 443.153 24.5028C443.155 24.4986 443.157 24.4947 443.16 24.4894C443.164 24.4839 443.173 24.472 443.19 24.4542L440.362 21.6258ZM439.136 24.64C439.136 25.7747 439.536 26.828 440.362 27.6542L443.19 24.8258C443.173 24.808 443.164 24.7961 443.16 24.7906C443.157 24.7853 443.155 24.7814 443.153 24.7772C443.151 24.7723 443.136 24.7346 443.136 24.64H439.136ZM440.362 27.6542C441.188 28.4805 442.242 28.88 443.376 28.88V24.88C443.282 24.88 443.244 24.865 443.239 24.863C443.235 24.8614 443.231 24.8594 443.226 24.8559C443.22 24.8522 443.208 24.8436 443.19 24.8258L440.362 27.6542ZM443.376 28.88H454.896V24.88H443.376V28.88ZM454.896 28.88C457.366 28.88 459.148 29.6085 460.458 30.9182L463.286 28.0898C461.098 25.9009 458.229 24.88 454.896 24.88V28.88ZM460.458 30.9182C461.768 32.228 462.496 34.0103 462.496 36.48H466.496C466.496 33.147 465.475 30.2787 463.286 28.0898L460.458 30.9182ZM462.496 36.48V39.04H466.496V36.48H462.496ZM462.496 39.04C462.496 41.5097 461.768 43.292 460.458 44.6018L463.286 47.4302C465.475 45.2413 466.496 42.373 466.496 39.04H462.496ZM460.458 44.6018C459.148 45.9115 457.366 46.64 454.896 46.64V50.64C458.229 50.64 461.098 49.6191 463.286 47.4302L460.458 44.6018ZM454.896 46.64C447.419 46.64 439.378 46.2175 430.772 45.3696L430.38 49.3504C439.097 50.2092 447.27 50.64 454.896 50.64V46.64ZM432.576 47.36V39.04H428.576V47.36H432.576Z" fill="black" fill-opacity="0.06"/>
</svg>
