<svg width="1244" height="130" viewBox="0 0 1244 130" fill="none" xmlns="http://www.w3.org/2000/svg">
<path d="M89.48 104V105H90.48V104H89.48ZM63.56 104H62.56V105H63.56V104ZM63.56 62.96H64.56V61.96H63.56V62.96ZM27.56 62.96V61.96H26.56V62.96H27.56ZM27.56 104V105H28.56V104H27.56ZM1.64 104H0.64V105H1.64V104ZM1.64 3.19999V2.19999H0.64V3.19999H1.64ZM27.56 3.19999H28.56V2.19999H27.56V3.19999ZM27.56 42.8H26.56V43.8H27.56V42.8ZM63.56 42.8V43.8H64.56V42.8H63.56ZM63.56 3.19999V2.19999H62.56V3.19999H63.56ZM89.48 3.19999H90.48V2.19999H89.48V3.19999ZM89.48 103H63.56V105H89.48V103ZM64.56 104V62.96H62.56V104H64.56ZM63.56 61.96H27.56V63.96H63.56V61.96ZM26.56 62.96V104H28.56V62.96H26.56ZM27.56 103H1.64V105H27.56V103ZM2.64 104V3.19999H0.64V104H2.64ZM1.64 4.19999H27.56V2.19999H1.64V4.19999ZM26.56 3.19999V42.8H28.56V3.19999H26.56ZM27.56 43.8H63.56V41.8H27.56V43.8ZM64.56 42.8V3.19999H62.56V42.8H64.56ZM63.56 4.19999H89.48V2.19999H63.56V4.19999ZM88.48 3.19999V104H90.48V3.19999H88.48ZM152.908 82.4L153.194 83.3582L153.908 83.1451V82.4H152.908ZM152.908 73.76H153.908V72.76H152.908V73.76ZM128.428 75.2L129.135 75.9071L128.428 75.2ZM128.428 83.84L127.72 84.5471L128.428 83.84ZM108.988 29.12L108.879 28.1259L107.988 28.2233V29.12H108.988ZM172.204 32.144L171.496 32.8511L172.204 32.144ZM178.107 104V105H179.107V104H178.107ZM155.788 104L154.807 104.196L154.968 105H155.788V104ZM154.348 96.8L155.328 96.6039L155.037 95.1474L153.797 95.9652L154.348 96.8ZM140.38 103.424L140.654 104.386L140.667 104.382L140.38 103.424ZM107.691 99.536L106.984 100.243L107.691 99.536ZM107.691 61.664L108.399 62.3711L107.691 61.664ZM152.908 55.76V56.76H153.908V55.76H152.908ZM151.467 46.4L150.76 47.1071V47.1071L151.467 46.4ZM127.132 45.824L127.056 44.8269L127.055 44.8269L127.132 45.824ZM108.988 47.12H107.988V48.1844L109.05 48.118L108.988 47.12ZM135.628 86.28C140.838 86.28 146.696 85.2976 153.194 83.3582L152.621 81.4418C146.255 83.3424 140.593 84.28 135.628 84.28V86.28ZM153.908 82.4V73.76H151.908V82.4H153.908ZM152.908 72.76H132.027V74.76H152.908V72.76ZM132.027 72.76C130.34 72.76 128.88 73.3331 127.72 74.4929L129.135 75.9071C129.895 75.1469 130.835 74.76 132.027 74.76V72.76ZM127.72 74.4929C126.561 75.6527 125.988 77.1126 125.988 78.8H127.988C127.988 77.6074 128.374 76.6673 129.135 75.9071L127.72 74.4929ZM125.988 78.8V80.24H127.988V78.8H125.988ZM125.988 80.24C125.988 81.9274 126.561 83.3873 127.72 84.5471L129.135 83.1329C128.374 82.3727 127.988 81.4326 127.988 80.24H125.988ZM127.72 84.5471C128.88 85.7069 130.34 86.28 132.027 86.28V84.28C130.835 84.28 129.895 83.8931 129.135 83.1329L127.72 84.5471ZM132.027 86.28H135.628V84.28H132.027V86.28ZM109.096 30.1141C126.637 28.1971 142.439 27.24 156.508 27.24V25.24C142.352 25.24 126.474 26.2029 108.879 28.1259L109.096 30.1141ZM156.508 27.24C162.82 27.24 167.78 29.1349 171.496 32.8511L172.911 31.4369C168.755 27.2811 163.251 25.24 156.508 25.24V27.24ZM171.496 32.8511C175.213 36.5673 177.107 41.5278 177.107 47.84H179.107C179.107 41.0962 177.066 35.5927 172.911 31.4369L171.496 32.8511ZM177.107 47.84V104H179.107V47.84H177.107ZM178.107 103H155.788V105H178.107V103ZM156.768 103.804L155.328 96.6039L153.367 96.9961L154.807 104.196L156.768 103.804ZM153.797 95.9652C149.36 98.8918 144.792 101.056 140.092 102.466L140.667 104.382C145.567 102.912 150.311 100.66 154.898 97.6348L153.797 95.9652ZM140.105 102.462C135.45 103.792 131.565 104.44 128.428 104.44V106.44C131.818 106.44 135.901 105.744 140.654 104.386L140.105 102.462ZM128.428 104.44H123.387V106.44H128.428V104.44ZM123.387 104.44C117.075 104.44 112.115 102.545 108.399 98.8289L106.984 100.243C111.14 104.399 116.644 106.44 123.387 106.44V104.44ZM108.399 98.8289C104.682 95.1127 102.787 90.1522 102.787 83.84H100.787C100.787 90.5838 102.829 96.0873 106.984 100.243L108.399 98.8289ZM102.787 83.84V77.36H100.787V83.84H102.787ZM102.787 77.36C102.787 71.0478 104.682 66.0873 108.399 62.3711L106.984 60.9569C102.829 65.1127 100.787 70.6162 100.787 77.36H102.787ZM108.399 62.3711C112.115 58.6549 117.075 56.76 123.387 56.76V54.76C116.644 54.76 111.14 56.8011 106.984 60.9569L108.399 62.3711ZM123.387 56.76H152.908V54.76H123.387V56.76ZM153.908 55.76V50H151.908V55.76H153.908ZM153.908 50C153.908 48.3126 153.334 46.8527 152.175 45.6929L150.76 47.1071C151.521 47.8673 151.908 48.8074 151.908 50H153.908ZM152.175 45.6929C151.015 44.5331 149.555 43.96 147.868 43.96V45.96C149.06 45.96 150 46.3469 150.76 47.1071L152.175 45.6929ZM147.868 43.96C141.597 43.96 134.66 44.2494 127.056 44.8269L127.207 46.8211C134.771 46.2466 141.658 45.96 147.868 45.96V43.96ZM127.055 44.8269C119.569 45.4028 113.526 45.8344 108.925 46.1219L109.05 48.118C113.665 47.8296 119.718 47.3972 127.208 46.8211L127.055 44.8269ZM109.988 47.12V29.12H107.988V47.12H109.988ZM240.742 27.68V26.68H240.012L239.789 27.3757L240.742 27.68ZM267.382 27.68L268.317 28.0331L268.828 26.68H267.382V27.68ZM238.582 104V105H239.273L239.517 104.353L238.582 104ZM209.782 104L208.846 104.353L209.09 105H209.782V104ZM180.982 27.68V26.68H179.536L180.046 28.0331L180.982 27.68ZM207.622 27.68L208.574 27.3757L208.352 26.68H207.622V27.68ZM224.182 79.52L223.229 79.8243L224.182 82.8063L225.134 79.8243L224.182 79.52ZM240.742 28.68H267.382V26.68H240.742V28.68ZM266.446 27.3269L237.646 103.647L239.517 104.353L268.317 28.0331L266.446 27.3269ZM238.582 103H209.782V105H238.582V103ZM210.717 103.647L181.917 27.3269L180.046 28.0331L208.846 104.353L210.717 103.647ZM180.982 28.68H207.622V26.68H180.982V28.68ZM206.669 27.9843L223.229 79.8243L225.134 79.2157L208.574 27.3757L206.669 27.9843ZM225.134 79.8243L241.694 27.9843L239.789 27.3757L223.229 79.2157L225.134 79.8243ZM295.507 57.92H294.507V58.92H295.507V57.92ZM319.987 57.92V58.92H320.987V57.92H319.987ZM342.307 102.56L342.41 103.555L343.307 103.462V102.56H342.307ZM276.211 99.536L275.504 100.243L276.211 99.536ZM276.355 32.432L277.062 33.1391L276.355 32.432ZM338.995 32.432L338.28 33.1307L338.288 33.1392L338.296 33.1474L338.995 32.432ZM345.187 75.92V76.92H346.187V75.92H345.187ZM295.507 75.92V74.92H294.507V75.92H295.507ZM296.947 85.28L297.654 84.5729L296.947 85.28ZM342.307 84.56H343.307V83.4784L342.229 83.5631L342.307 84.56ZM301.267 43.24C299.193 43.24 297.453 43.7592 296.24 44.9729C295.026 46.1866 294.507 47.9258 294.507 50H296.507C296.507 48.2341 296.948 47.0934 297.654 46.3871C298.36 45.6808 299.501 45.24 301.267 45.24V43.24ZM294.507 50V57.92H296.507V50H294.507ZM295.507 58.92H319.987V56.92H295.507V58.92ZM320.987 57.92V50H318.987V57.92H320.987ZM320.987 50C320.987 47.9258 320.468 46.1866 319.254 44.9729C318.04 43.7592 316.301 43.24 314.227 43.24V45.24C315.993 45.24 317.133 45.6808 317.84 46.3871C318.546 47.0934 318.987 48.2341 318.987 50H320.987ZM314.227 43.24H301.267V45.24H314.227V43.24ZM342.204 101.565C323.702 103.483 306.938 104.44 291.907 104.44V106.44C307.02 106.44 323.855 105.477 342.41 103.555L342.204 101.565ZM291.907 104.44C285.595 104.44 280.634 102.545 276.918 98.8289L275.504 100.243C279.66 104.399 285.163 106.44 291.907 106.44V104.44ZM276.918 98.8289C273.202 95.1127 271.307 90.1522 271.307 83.84H269.307C269.307 90.5838 271.348 96.0873 275.504 100.243L276.918 98.8289ZM271.307 83.84V49.28H269.307V83.84H271.307ZM271.307 49.28C271.307 42.2719 273.264 36.9374 277.062 33.1391L275.648 31.7249C271.382 35.9906 269.307 41.8881 269.307 49.28H271.307ZM277.062 33.1391C280.961 29.2405 286.346 27.24 293.347 27.24V25.24C285.947 25.24 280.005 27.3675 275.648 31.7249L277.062 33.1391ZM293.347 27.24H322.147V25.24H293.347V27.24ZM322.147 27.24C329.148 27.24 334.48 29.2407 338.28 33.1307L339.71 31.7333C335.446 27.3673 329.545 25.24 322.147 25.24V27.24ZM338.296 33.1474C342.186 36.9469 344.187 42.2785 344.187 49.28H346.187C346.187 41.8815 344.06 35.9811 339.694 31.7166L338.296 33.1474ZM344.187 49.28V75.92H346.187V49.28H344.187ZM345.187 74.92H295.507V76.92H345.187V74.92ZM294.507 75.92V81.68H296.507V75.92H294.507ZM294.507 81.68C294.507 83.3674 295.08 84.8273 296.24 85.9871L297.654 84.5729C296.894 83.8127 296.507 82.8726 296.507 81.68H294.507ZM296.24 85.9871C297.4 87.1469 298.86 87.72 300.547 87.72V85.72C299.354 85.72 298.414 85.3331 297.654 84.5729L296.24 85.9871ZM300.547 87.72C310.091 87.72 324.042 86.9975 342.385 85.5569L342.229 83.5631C323.899 85.0025 310.011 85.72 300.547 85.72V87.72ZM341.307 84.56V102.56H343.307V84.56H341.307ZM448.783 82.4L449.069 83.3582L449.783 83.1451V82.4H448.783ZM448.783 73.76H449.783V72.76H448.783V73.76ZM424.302 75.2L425.01 75.9071L424.302 75.2ZM424.302 83.84L423.595 84.5471L424.302 83.84ZM404.862 29.12L404.754 28.1259L403.862 28.2233V29.12H404.862ZM468.078 32.144L467.371 32.8511L468.078 32.144ZM473.983 104V105H474.983V104H473.983ZM451.663 104L450.682 104.196L450.843 105H451.663V104ZM450.223 96.8L451.203 96.6039L450.912 95.1474L449.672 95.9652L450.223 96.8ZM436.255 103.424L436.529 104.386L436.542 104.382L436.255 103.424ZM403.566 99.536L402.859 100.243L403.566 99.536ZM403.566 61.664L404.274 62.3711L403.566 61.664ZM448.783 55.76V56.76H449.783V55.76H448.783ZM447.342 46.4L446.635 47.1071V47.1071L447.342 46.4ZM423.007 45.824L422.931 44.8269L422.93 44.8269L423.007 45.824ZM404.862 47.12H403.862V48.1844L404.925 48.118L404.862 47.12ZM431.503 86.28C436.713 86.28 442.571 85.2976 449.069 83.3582L448.496 81.4418C442.13 83.3424 436.468 84.28 431.503 84.28V86.28ZM449.783 82.4V73.76H447.783V82.4H449.783ZM448.783 72.76H427.902V74.76H448.783V72.76ZM427.902 72.76C426.215 72.76 424.755 73.3331 423.595 74.4929L425.01 75.9071C425.77 75.1469 426.71 74.76 427.902 74.76V72.76ZM423.595 74.4929C422.436 75.6527 421.862 77.1126 421.862 78.8H423.862C423.862 77.6074 424.249 76.6673 425.01 75.9071L423.595 74.4929ZM421.862 78.8V80.24H423.862V78.8H421.862ZM421.862 80.24C421.862 81.9274 422.436 83.3873 423.595 84.5471L425.01 83.1329C424.249 82.3727 423.862 81.4326 423.862 80.24H421.862ZM423.595 84.5471C424.755 85.7069 426.215 86.28 427.902 86.28V84.28C426.71 84.28 425.77 83.8931 425.01 83.1329L423.595 84.5471ZM427.902 86.28H431.503V84.28H427.902V86.28ZM404.971 30.1141C422.512 28.1971 438.314 27.24 452.383 27.24V25.24C438.227 25.24 422.349 26.2029 404.754 28.1259L404.971 30.1141ZM452.383 27.24C458.695 27.24 463.655 29.1349 467.371 32.8511L468.786 31.4369C464.63 27.2811 459.126 25.24 452.383 25.24V27.24ZM467.371 32.8511C471.088 36.5673 472.983 41.5278 472.983 47.84H474.983C474.983 41.0962 472.941 35.5927 468.786 31.4369L467.371 32.8511ZM472.983 47.84V104H474.983V47.84H472.983ZM473.983 103H451.663V105H473.983V103ZM452.643 103.804L451.203 96.6039L449.242 96.9961L450.682 104.196L452.643 103.804ZM449.672 95.9652C445.235 98.8918 440.667 101.056 435.967 102.466L436.542 104.382C441.442 102.912 446.186 100.66 450.773 97.6348L449.672 95.9652ZM435.98 102.462C431.325 103.792 427.44 104.44 424.302 104.44V106.44C427.693 106.44 431.776 105.744 436.529 104.386L435.98 102.462ZM424.302 104.44H419.263V106.44H424.302V104.44ZM419.263 104.44C412.95 104.44 407.99 102.545 404.274 98.8289L402.859 100.243C407.015 104.399 412.519 106.44 419.263 106.44V104.44ZM404.274 98.8289C400.557 95.1127 398.663 90.1522 398.663 83.84H396.663C396.663 90.5838 398.704 96.0873 402.859 100.243L404.274 98.8289ZM398.663 83.84V77.36H396.663V83.84H398.663ZM398.663 77.36C398.663 71.0478 400.557 66.0873 404.274 62.3711L402.859 60.9569C398.704 65.1127 396.663 70.6162 396.663 77.36H398.663ZM404.274 62.3711C407.99 58.6549 412.95 56.76 419.263 56.76V54.76C412.519 54.76 407.015 56.8011 402.859 60.9569L404.274 62.3711ZM419.263 56.76H448.783V54.76H419.263V56.76ZM449.783 55.76V50H447.783V55.76H449.783ZM449.783 50C449.783 48.3126 449.209 46.8527 448.05 45.6929L446.635 47.1071C447.396 47.8673 447.783 48.8074 447.783 50H449.783ZM448.05 45.6929C446.89 44.5331 445.43 43.96 443.742 43.96V45.96C444.935 45.96 445.875 46.3469 446.635 47.1071L448.05 45.6929ZM443.742 43.96C437.472 43.96 430.535 44.2494 422.931 44.8269L423.082 46.8211C430.646 46.2466 437.533 45.96 443.742 45.96V43.96ZM422.93 44.8269C415.444 45.4028 409.401 45.8344 404.8 46.1219L404.925 48.118C409.54 47.8296 415.593 47.3972 423.083 46.8211L422.93 44.8269ZM405.862 47.12V29.12H403.862V47.12H405.862ZM579.755 84.56L579.928 85.545L580.755 85.3998V84.56H579.755ZM579.755 47.12H580.755V46.12H579.755V47.12ZM579.755 102.56H580.755V101.333L579.553 101.581L579.755 102.56ZM534.539 99.536L533.832 100.243L534.539 99.536ZM534.683 33.872L535.39 34.5791L534.683 33.872ZM604.955 27.68H605.955V26.68H604.955V27.68ZM604.955 128.48V129.48H605.955V128.48H604.955ZM579.755 128.48H578.755V129.48H579.755V128.48ZM562.475 87C568.576 87 574.394 86.5158 579.928 85.545L579.582 83.575C574.172 84.5242 568.47 85 562.475 85V87ZM580.755 84.56V47.12H578.755V84.56H580.755ZM579.755 46.12H559.595V48.12H579.755V46.12ZM559.595 46.12C557.521 46.12 555.782 46.6392 554.568 47.8529C553.354 49.0666 552.835 50.8059 552.835 52.88H554.835C554.835 51.1141 555.276 49.9734 555.982 49.2671C556.688 48.5608 557.829 48.12 559.595 48.12V46.12ZM552.835 52.88V80.96H554.835V52.88H552.835ZM552.835 80.96C552.835 82.6474 553.408 84.1073 554.568 85.2671L555.982 83.8529C555.222 83.0927 554.835 82.1526 554.835 80.96H552.835ZM554.568 85.2671C555.728 86.4269 557.188 87 558.875 87V85C557.682 85 556.742 84.6131 555.982 83.8529L554.568 85.2671ZM558.875 87H562.475V85H558.875V87ZM579.553 101.581C570.286 103.491 562.196 104.44 555.275 104.44V106.44C562.37 106.44 570.6 105.469 579.957 103.539L579.553 101.581ZM555.275 104.44H550.235V106.44H555.275V104.44ZM550.235 104.44C543.923 104.44 538.962 102.545 535.246 98.8289L533.832 100.243C537.988 104.399 543.491 106.44 550.235 106.44V104.44ZM535.246 98.8289C531.53 95.1127 529.635 90.1522 529.635 83.84H527.635C527.635 90.5838 529.676 96.0873 533.832 100.243L535.246 98.8289ZM529.635 83.84V50.72H527.635V83.84H529.635ZM529.635 50.72C529.635 43.7119 531.592 38.3774 535.39 34.5791L533.976 33.1649C529.71 37.4306 527.635 43.3281 527.635 50.72H529.635ZM535.39 34.5791C539.289 30.6805 544.675 28.68 551.675 28.68V26.68C544.275 26.68 538.333 28.8075 533.976 33.1649L535.39 34.5791ZM551.675 28.68H604.955V26.68H551.675V28.68ZM603.955 27.68V128.48H605.955V27.68H603.955ZM604.955 127.48H579.755V129.48H604.955V127.48ZM580.755 128.48V102.56H578.755V128.48H580.755ZM671.932 81.68L672.218 82.6382L672.932 82.4251V81.68H671.932ZM671.932 27.68V26.68H670.932V27.68H671.932ZM697.132 27.68H698.132V26.68H697.132V27.68ZM697.132 104V105H698.132V104H697.132ZM674.812 104L673.831 104.196L673.992 105H674.812V104ZM673.372 96.8L674.352 96.6039L674.061 95.1474L672.821 95.9652L673.372 96.8ZM659.404 103.424L659.679 104.386L659.691 104.382L659.404 103.424ZM625.276 99.536L625.983 98.8289L625.276 99.536ZM619.372 27.68V26.68H618.372V27.68H619.372ZM644.572 27.68H645.572V26.68H644.572V27.68ZM646.012 83.12L646.719 82.4129V82.4129L646.012 83.12ZM654.652 85.56C659.862 85.56 665.721 84.5776 672.218 82.6382L671.646 80.7218C665.279 82.6224 659.618 83.56 654.652 83.56V85.56ZM672.932 81.68V27.68H670.932V81.68H672.932ZM671.932 28.68H697.132V26.68H671.932V28.68ZM696.132 27.68V104H698.132V27.68H696.132ZM697.132 103H674.812V105H697.132V103ZM675.792 103.804L674.352 96.6039L672.391 96.9961L673.831 104.196L675.792 103.804ZM672.821 95.9652C668.384 98.8918 663.816 101.056 659.117 102.466L659.691 104.382C664.592 102.912 669.336 100.66 673.922 97.6348L672.821 95.9652ZM659.129 102.462C654.475 103.792 650.589 104.44 647.452 104.44V106.44C650.843 106.44 654.925 105.744 659.679 104.386L659.129 102.462ZM647.452 104.44H640.972V106.44H647.452V104.44ZM640.972 104.44C634.66 104.44 629.699 102.545 625.983 98.8289L624.569 100.243C628.725 104.399 634.228 106.44 640.972 106.44V104.44ZM625.983 98.8289C622.267 95.1127 620.372 90.1522 620.372 83.84H618.372C618.372 90.5838 620.413 96.0873 624.569 100.243L625.983 98.8289ZM620.372 83.84V27.68H618.372V83.84H620.372ZM619.372 28.68H644.572V26.68H619.372V28.68ZM643.572 27.68V79.52H645.572V27.68H643.572ZM643.572 79.52C643.572 81.2074 644.145 82.6673 645.305 83.8271L646.719 82.4129C645.959 81.6527 645.572 80.7126 645.572 79.52H643.572ZM645.305 83.8271C646.465 84.9869 647.924 85.56 649.612 85.56V83.56C648.419 83.56 647.479 83.1731 646.719 82.4129L645.305 83.8271ZM649.612 85.56H654.652V83.56H649.612V85.56ZM735.241 57.92H734.241V58.92H735.241V57.92ZM759.721 57.92V58.92H760.721V57.92H759.721ZM782.041 102.56L782.144 103.555L783.041 103.462V102.56H782.041ZM715.945 99.536L715.238 100.243L715.945 99.536ZM716.089 32.432L716.796 33.1391L716.089 32.432ZM778.729 32.432L778.014 33.1307L778.022 33.1392L778.031 33.1474L778.729 32.432ZM784.921 75.92V76.92H785.921V75.92H784.921ZM735.241 75.92V74.92H734.241V75.92H735.241ZM736.681 85.28L737.388 84.5729L736.681 85.28ZM782.041 84.56H783.041V83.4784L781.963 83.5631L782.041 84.56ZM741.001 43.24C738.927 43.24 737.188 43.7592 735.974 44.9729C734.76 46.1866 734.241 47.9258 734.241 50H736.241C736.241 48.2341 736.682 47.0934 737.388 46.3871C738.095 45.6808 739.235 45.24 741.001 45.24V43.24ZM734.241 50V57.92H736.241V50H734.241ZM735.241 58.92H759.721V56.92H735.241V58.92ZM760.721 57.92V50H758.721V57.92H760.721ZM760.721 50C760.721 47.9258 760.202 46.1866 758.988 44.9729C757.775 43.7592 756.035 43.24 753.961 43.24V45.24C755.727 45.24 756.868 45.6808 757.574 46.3871C758.28 47.0934 758.721 48.2341 758.721 50H760.721ZM753.961 43.24H741.001V45.24H753.961V43.24ZM781.938 101.565C763.437 103.483 746.672 104.44 731.641 104.44V106.44C746.755 106.44 763.59 105.477 782.144 103.555L781.938 101.565ZM731.641 104.44C725.329 104.44 720.369 102.545 716.652 98.8289L715.238 100.243C719.394 104.399 724.897 106.44 731.641 106.44V104.44ZM716.652 98.8289C712.936 95.1127 711.041 90.1522 711.041 83.84H709.041C709.041 90.5838 711.082 96.0873 715.238 100.243L716.652 98.8289ZM711.041 83.84V49.28H709.041V83.84H711.041ZM711.041 49.28C711.041 42.2719 712.998 36.9374 716.796 33.1391L715.382 31.7249C711.116 35.9906 709.041 41.8881 709.041 49.28H711.041ZM716.796 33.1391C720.695 29.2405 726.081 27.24 733.081 27.24V25.24C725.682 25.24 719.74 27.3675 715.382 31.7249L716.796 33.1391ZM733.081 27.24H761.881V25.24H733.081V27.24ZM761.881 27.24C768.883 27.24 774.214 29.2407 778.014 33.1307L779.445 31.7333C775.18 27.3673 769.28 25.24 761.881 25.24V27.24ZM778.031 33.1474C781.921 36.9469 783.921 42.2785 783.921 49.28H785.921C785.921 41.8815 783.794 35.9811 779.428 31.7166L778.031 33.1474ZM783.921 49.28V75.92H785.921V49.28H783.921ZM784.921 74.92H735.241V76.92H784.921V74.92ZM734.241 75.92V81.68H736.241V75.92H734.241ZM734.241 81.68C734.241 83.3674 734.814 84.8273 735.974 85.9871L737.388 84.5729C736.628 83.8127 736.241 82.8726 736.241 81.68H734.241ZM735.974 85.9871C737.134 87.1469 738.594 87.72 740.281 87.72V85.72C739.089 85.72 738.149 85.3331 737.388 84.5729L735.974 85.9871ZM740.281 87.72C749.825 87.72 763.777 86.9975 782.12 85.5569L781.963 83.5631C763.634 85.0025 749.745 85.72 740.281 85.72V87.72ZM781.041 84.56V102.56H783.041V84.56H781.041ZM794.945 83.84L795.019 82.8427L793.945 82.7634V83.84H794.945ZM844.625 84.56L845.332 85.2671L844.625 84.56ZM846.065 75.92H847.065V74.92H846.065V75.92ZM799.409 70.016L800.116 69.3089L799.409 70.016ZM799.409 33.584L800.116 34.2911L799.409 33.584ZM864.065 27.68H865.065V26.68H864.065V27.68ZM864.065 46.4V47.4H865.065V46.4H864.065ZM820.145 47.84L820.852 48.5471L820.145 47.84ZM820.145 55.04L819.438 55.7471L820.145 55.04ZM865.361 62.384L866.068 61.6769L865.361 62.384ZM865.361 99.536L866.068 100.243L865.361 99.536ZM794.945 102.56H793.945V103.466L794.847 103.555L794.945 102.56ZM794.871 84.8373C814.369 86.278 829.757 87 841.025 87V85C829.829 85 814.497 84.282 795.019 82.8427L794.871 84.8373ZM841.025 87C842.712 87 844.172 86.4269 845.332 85.2671L843.918 83.8529C843.158 84.6131 842.218 85 841.025 85V87ZM845.332 85.2671C846.492 84.1073 847.065 82.6474 847.065 80.96H845.065C845.065 82.1526 844.678 83.0927 843.918 83.8529L845.332 85.2671ZM847.065 80.96V75.92H845.065V80.96H847.065ZM846.065 74.92H815.105V76.92H846.065V74.92ZM815.105 74.92C808.793 74.92 803.832 73.0251 800.116 69.3089L798.702 70.7231C802.858 74.8789 808.361 76.92 815.105 76.92V74.92ZM800.116 69.3089C796.4 65.5927 794.505 60.6322 794.505 54.32H792.505C792.505 61.0638 794.546 66.5673 798.702 70.7231L800.116 69.3089ZM794.505 54.32V49.28H792.505V54.32H794.505ZM794.505 49.28C794.505 42.9678 796.4 38.0073 800.116 34.2911L798.702 32.8769C794.546 37.0327 792.505 42.5362 792.505 49.28H794.505ZM800.116 34.2911C803.832 30.5749 808.793 28.68 815.105 28.68V26.68C808.361 26.68 802.858 28.7211 798.702 32.8769L800.116 34.2911ZM815.105 28.68H864.065V26.68H815.105V28.68ZM863.065 27.68V46.4H865.065V27.68H863.065ZM864.065 45.4H823.745V47.4H864.065V45.4ZM823.745 45.4C822.058 45.4 820.598 45.9731 819.438 47.1329L820.852 48.5471C821.612 47.7869 822.552 47.4 823.745 47.4V45.4ZM819.438 47.1329C818.278 48.2927 817.705 49.7526 817.705 51.44H819.705C819.705 50.2474 820.092 49.3073 820.852 48.5471L819.438 47.1329ZM817.705 51.44C817.705 53.1274 818.278 54.5873 819.438 55.7471L820.852 54.3329C820.092 53.5727 819.705 52.6326 819.705 51.44H817.705ZM819.438 55.7471C820.598 56.9069 822.058 57.48 823.745 57.48V55.48C822.552 55.48 821.612 55.0931 820.852 54.3329L819.438 55.7471ZM823.745 57.48H849.665V55.48H823.745V57.48ZM849.665 57.48C855.977 57.48 860.938 59.3749 864.654 63.0911L866.068 61.6769C861.912 57.5211 856.409 55.48 849.665 55.48V57.48ZM864.654 63.0911C868.37 66.8073 870.265 71.7678 870.265 78.08H872.265C872.265 71.3362 870.224 65.8327 866.068 61.6769L864.654 63.0911ZM870.265 78.08V83.84H872.265V78.08H870.265ZM870.265 83.84C870.265 90.1522 868.37 95.1127 864.654 98.8289L866.068 100.243C870.224 96.0873 872.265 90.5838 872.265 83.84H870.265ZM864.654 98.8289C860.938 102.545 855.977 104.44 849.665 104.44V106.44C856.409 106.44 861.912 104.399 866.068 100.243L864.654 98.8289ZM849.665 104.44C832.71 104.44 814.503 103.482 795.043 101.565L794.847 103.555C814.363 105.478 832.636 106.44 849.665 106.44V104.44ZM795.945 102.56V83.84H793.945V102.56H795.945ZM934.636 104L934.739 104.995L935.636 104.902V104H934.636ZM891.58 99.536L892.287 98.8289L891.58 99.536ZM885.676 47.12H886.676V46.12H885.676V47.12ZM877.036 47.12H876.036V48.12H877.036V47.12ZM877.036 27.68V26.68H876.036V27.68H877.036ZM885.676 27.68V28.68H886.523L886.663 27.8444L885.676 27.68ZM888.556 10.4V9.39999H887.709L887.57 10.2356L888.556 10.4ZM910.876 10.4H911.876V9.39999H910.876V10.4ZM910.876 27.68H909.876V28.68H910.876V27.68ZM928.876 27.68H929.876V26.68H928.876V27.68ZM928.876 47.12V48.12H929.876V47.12H928.876ZM910.876 47.12V46.12H909.876V47.12H910.876ZM912.316 83.84L911.609 84.5471L912.316 83.84ZM934.636 85.28H935.636V84.28H934.636V85.28ZM934.534 103.005C925.254 103.962 916.168 104.44 907.276 104.44V106.44C916.24 106.44 925.394 105.958 934.739 104.995L934.534 103.005ZM907.276 104.44C900.964 104.44 896.004 102.545 892.287 98.8289L890.873 100.243C895.029 104.399 900.532 106.44 907.276 106.44V104.44ZM892.287 98.8289C888.571 95.1127 886.676 90.1522 886.676 83.84H884.676C884.676 90.5838 886.717 96.0873 890.873 100.243L892.287 98.8289ZM886.676 83.84V47.12H884.676V83.84H886.676ZM885.676 46.12H877.036V48.12H885.676V46.12ZM878.036 47.12V27.68H876.036V47.12H878.036ZM877.036 28.68H885.676V26.68H877.036V28.68ZM886.663 27.8444L889.543 10.5644L887.57 10.2356L884.69 27.5156L886.663 27.8444ZM888.556 11.4H910.876V9.39999H888.556V11.4ZM909.876 10.4V27.68H911.876V10.4H909.876ZM910.876 28.68H928.876V26.68H910.876V28.68ZM927.876 27.68V47.12H929.876V27.68H927.876ZM928.876 46.12H910.876V48.12H928.876V46.12ZM909.876 47.12V80.24H911.876V47.12H909.876ZM909.876 80.24C909.876 81.9274 910.449 83.3873 911.609 84.5471L913.023 83.1329C912.263 82.3727 911.876 81.4326 911.876 80.24H909.876ZM911.609 84.5471C912.769 85.7069 914.229 86.28 915.916 86.28V84.28C914.724 84.28 913.784 83.8931 913.023 83.1329L911.609 84.5471ZM915.916 86.28H934.636V84.28H915.916V86.28ZM933.636 85.28V104H935.636V85.28H933.636ZM973.646 30.56H974.646V29.56H973.646V30.56ZM973.646 104V105H974.646V104H973.646ZM948.446 104H947.446V105H948.446V104ZM948.446 50H949.446V49H948.446V50ZM937.646 50H936.646V51H937.646V50ZM937.646 30.56V29.56H936.646V30.56H937.646ZM948.446 1.75999V0.759995H947.446V1.75999H948.446ZM973.646 1.75999H974.646V0.759995H973.646V1.75999ZM973.646 21.92V22.92H974.646V21.92H973.646ZM948.446 21.92H947.446V22.92H948.446V21.92ZM972.646 30.56V104H974.646V30.56H972.646ZM973.646 103H948.446V105H973.646V103ZM949.446 104V50H947.446V104H949.446ZM948.446 49H937.646V51H948.446V49ZM938.646 50V30.56H936.646V50H938.646ZM937.646 31.56H973.646V29.56H937.646V31.56ZM948.446 2.75999H973.646V0.759995H948.446V2.75999ZM972.646 1.75999V21.92H974.646V1.75999H972.646ZM973.646 20.92H948.446V22.92H973.646V20.92ZM949.446 21.92V1.75999H947.446V21.92H949.446ZM1059.66 99.392L1060.37 100.099L1059.66 99.392ZM992.699 99.392L991.983 100.091L991.991 100.099L992 100.107L992.699 99.392ZM992.699 32.432L993.406 33.1391L992.699 32.432ZM1059.66 32.432L1058.94 33.1307L1058.95 33.1392L1058.96 33.1474L1059.66 32.432ZM1064.85 82.4C1064.85 89.4004 1062.85 94.7862 1058.95 98.6849L1060.37 100.099C1064.72 95.7418 1066.85 89.7996 1066.85 82.4H1064.85ZM1058.95 98.6849C1055.15 102.483 1049.82 104.44 1042.81 104.44V106.44C1050.2 106.44 1056.1 104.365 1060.37 100.099L1058.95 98.6849ZM1042.81 104.44H1009.69V106.44H1042.81V104.44ZM1009.69 104.44C1002.68 104.44 997.295 102.484 993.397 98.6766L992 100.107C996.358 104.364 1002.3 106.44 1009.69 106.44V104.44ZM993.414 98.6933C989.607 94.7957 987.651 89.407 987.651 82.4H985.651C985.651 89.793 987.726 95.7323 991.983 100.091L993.414 98.6933ZM987.651 82.4V49.28H985.651V82.4H987.651ZM987.651 49.28C987.651 42.2719 989.607 36.9374 993.406 33.1391L991.992 31.7249C987.726 35.9906 985.651 41.8881 985.651 49.28H987.651ZM993.406 33.1391C997.304 29.2405 1002.69 27.24 1009.69 27.24V25.24C1002.29 25.24 996.349 27.3675 991.992 31.7249L993.406 33.1391ZM1009.69 27.24H1042.81V25.24H1009.69V27.24ZM1042.81 27.24C1049.81 27.24 1055.14 29.2407 1058.94 33.1307L1060.37 31.7333C1056.11 27.3673 1050.21 25.24 1042.81 25.24V27.24ZM1058.96 33.1474C1062.85 36.9469 1064.85 42.2785 1064.85 49.28H1066.85C1066.85 41.8815 1064.72 35.9811 1060.36 31.7166L1058.96 33.1474ZM1064.85 49.28V82.4H1066.85V49.28H1064.85ZM1041.65 51.44C1041.65 49.3659 1041.13 47.6266 1039.92 46.4129C1038.7 45.1992 1036.96 44.68 1034.89 44.68V46.68C1036.66 46.68 1037.8 47.1208 1038.5 47.8271C1039.21 48.5334 1039.65 49.6741 1039.65 51.44H1041.65ZM1034.89 44.68H1017.61V46.68H1034.89V44.68ZM1017.61 44.68C1015.54 44.68 1013.8 45.1992 1012.58 46.4129C1011.37 47.6266 1010.85 49.3659 1010.85 51.44H1012.85C1012.85 49.6741 1013.29 48.5334 1014 47.8271C1014.7 47.1208 1015.84 46.68 1017.61 46.68V44.68ZM1010.85 51.44V80.24H1012.85V51.44H1010.85ZM1010.85 80.24C1010.85 82.3141 1011.37 84.0534 1012.58 85.2671C1013.8 86.4808 1015.54 87 1017.61 87V85C1015.84 85 1014.7 84.5592 1014 83.8529C1013.29 83.1466 1012.85 82.0059 1012.85 80.24H1010.85ZM1017.61 87H1034.89V85H1017.61V87ZM1034.89 87C1036.96 87 1038.7 86.4808 1039.92 85.2671C1041.13 84.0534 1041.65 82.3141 1041.65 80.24H1039.65C1039.65 82.0059 1039.21 83.1466 1038.5 83.8529C1037.8 84.5592 1036.66 85 1034.89 85V87ZM1041.65 80.24V51.44H1039.65V80.24H1041.65ZM1103.99 50L1103.71 49.0418L1102.99 49.2549V50H1103.99ZM1103.99 104V105H1104.99V104H1103.99ZM1078.79 104H1077.79V105H1078.79V104ZM1078.79 27.68V26.68H1077.79V27.68H1078.79ZM1101.11 27.68L1102.09 27.4839L1101.93 26.68H1101.11V27.68ZM1102.55 34.88L1101.57 35.0761L1101.86 36.5326L1103.1 35.7148L1102.55 34.88ZM1116.38 28.4L1116.65 29.3616L1116.67 29.3578L1116.38 28.4ZM1150.65 32.144L1149.94 32.8511L1150.65 32.144ZM1156.55 104V105H1157.55V104H1156.55ZM1131.35 104H1130.35V105H1131.35V104ZM1129.91 48.56L1130.62 47.8529L1129.91 48.56ZM1121.27 46.12C1116.06 46.12 1110.2 47.1024 1103.71 49.0418L1104.28 50.9582C1110.65 49.0576 1116.31 48.12 1121.27 48.12V46.12ZM1102.99 50V104H1104.99V50H1102.99ZM1103.99 103H1078.79V105H1103.99V103ZM1079.79 104V27.68H1077.79V104H1079.79ZM1078.79 28.68H1101.11V26.68H1078.79V28.68ZM1100.13 27.8761L1101.57 35.0761L1103.53 34.6839L1102.09 27.4839L1100.13 27.8761ZM1103.1 35.7148C1107.54 32.789 1112.06 30.6748 1116.65 29.3615L1116.1 27.4385C1111.29 28.8132 1106.59 31.019 1102 34.0452L1103.1 35.7148ZM1116.67 29.3578C1121.42 27.9325 1125.34 27.24 1128.47 27.24V25.24C1125.08 25.24 1120.94 25.9875 1116.09 27.4422L1116.67 29.3578ZM1128.47 27.24H1134.95V25.24H1128.47V27.24ZM1134.95 27.24C1141.27 27.24 1146.23 29.1349 1149.94 32.8511L1151.36 31.4369C1147.2 27.2811 1141.7 25.24 1134.95 25.24V27.24ZM1149.94 32.8511C1153.66 36.5673 1155.55 41.5278 1155.55 47.84H1157.55C1157.55 41.0962 1155.51 35.5927 1151.36 31.4369L1149.94 32.8511ZM1155.55 47.84V104H1157.55V47.84H1155.55ZM1156.55 103H1131.35V105H1156.55V103ZM1132.35 104V52.16H1130.35V104H1132.35ZM1132.35 52.16C1132.35 50.4726 1131.78 49.0127 1130.62 47.8529L1129.21 49.2671C1129.97 50.0273 1130.35 50.9674 1130.35 52.16H1132.35ZM1130.62 47.8529C1129.46 46.6931 1128 46.12 1126.31 46.12V48.12C1127.51 48.12 1128.45 48.5069 1129.21 49.2671L1130.62 47.8529ZM1126.31 46.12H1121.27V48.12H1126.31V46.12ZM1163.74 4.63999L1163.63 3.64532L1162.74 3.73826V4.63999H1163.74ZM1236.31 8.384L1235.61 9.0911L1236.31 8.384ZM1238.62 52.016L1237.82 51.4062L1237.82 51.416L1238.62 52.016ZM1223.5 61.52L1223.17 60.5752L1223.17 60.5761L1223.5 61.52ZM1209.1 66.56L1208.77 65.6161L1208.1 65.8505V66.56H1209.1ZM1209.1 73.76V74.76H1210.1V73.76H1209.1ZM1183.18 73.76H1182.18V74.76H1183.18V73.76ZM1183.18 53.6L1182.84 52.6596L1182.18 52.8983V53.6H1183.18ZM1217.02 41.36L1217.36 42.3004L1218.02 42.0617V41.36H1217.02ZM1215 23.936L1214.27 24.6164L1214.29 24.6436L1214.32 24.6688L1215 23.936ZM1185.91 22.784L1185.85 21.7859L1185.85 21.786L1185.91 22.784ZM1163.74 24.08H1162.74V25.1321L1163.79 25.0787L1163.74 24.08ZM1183.18 82.4V81.4H1182.18V82.4H1183.18ZM1209.1 82.4H1210.1V81.4H1209.1V82.4ZM1209.1 104V105H1210.1V104H1209.1ZM1183.18 104H1182.18V105H1183.18V104ZM1163.84 5.63467C1182.34 3.71766 1199.58 2.75999 1215.58 2.75999V0.759995C1199.51 0.759995 1182.19 1.72232 1163.63 3.64532L1163.84 5.63467ZM1215.58 2.75999C1224.85 2.75999 1231.45 4.93917 1235.61 9.0911L1237.02 7.67689C1232.34 2.99682 1225.12 0.759995 1215.58 0.759995V2.75999ZM1235.61 9.0911C1239.76 13.243 1241.94 19.8447 1241.94 29.12H1243.94C1243.94 19.5793 1241.7 12.357 1237.02 7.67689L1235.61 9.0911ZM1241.94 29.12V35.6H1243.94V29.12H1241.94ZM1241.94 35.6C1241.94 42.689 1240.52 47.9076 1237.82 51.4063L1239.41 52.6257C1242.48 48.6364 1243.94 42.911 1243.94 35.6H1241.94ZM1237.82 51.416C1235.11 55.028 1230.28 58.1092 1223.17 60.5752L1223.82 62.4648C1231.11 59.9388 1236.37 56.684 1239.42 52.616L1237.82 51.416ZM1223.17 60.5761L1208.77 65.6161L1209.43 67.5039L1223.83 62.4639L1223.17 60.5761ZM1208.1 66.56V73.76H1210.1V66.56H1208.1ZM1209.1 72.76H1183.18V74.76H1209.1V72.76ZM1184.18 73.76V53.6H1182.18V73.76H1184.18ZM1183.52 54.5404L1217.36 42.3004L1216.68 40.4196L1182.84 52.6596L1183.52 54.5404ZM1218.02 41.36V29.12H1216.02V41.36H1218.02ZM1218.02 29.12C1218.02 26.6953 1217.27 24.6785 1215.68 23.2032L1214.32 24.6688C1215.42 25.6895 1216.02 27.1287 1216.02 29.12H1218.02ZM1215.73 23.2555C1214.2 21.601 1211.63 20.92 1208.38 20.92V22.92C1211.46 22.92 1213.31 23.583 1214.27 24.6164L1215.73 23.2555ZM1208.38 20.92C1202.59 20.92 1195.08 21.2093 1185.85 21.7859L1185.98 23.7821C1195.18 23.2067 1202.65 22.92 1208.38 22.92V20.92ZM1185.85 21.786C1176.73 22.3619 1169.34 22.7936 1163.69 23.0813L1163.79 25.0787C1169.46 24.7904 1176.85 24.3581 1185.98 23.782L1185.85 21.786ZM1164.74 24.08V4.63999H1162.74V24.08H1164.74ZM1183.18 83.4H1209.1V81.4H1183.18V83.4ZM1208.1 82.4V104H1210.1V82.4H1208.1ZM1209.1 103H1183.18V105H1209.1V103ZM1184.18 104V82.4H1182.18V104H1184.18Z" fill="black" fill-opacity="0.13"/>
</svg>
