<svg width="493" height="61" viewBox="0 0 493 61" fill="none" xmlns="http://www.w3.org/2000/svg">
<path d="M40.6675 2.2L42.6 1.68467L42.2041 0.199997H40.6675V2.2ZM48.3475 31L46.415 31.5153L50.2952 31.4545L48.3475 31ZM55.0675 2.2V0.199997H53.4804L53.1198 1.74554L55.0675 2.2ZM67.5475 2.2L69.4777 2.7239L70.1627 0.199997H67.5475V2.2ZM55.3875 47V49H56.917L57.3177 47.5239L55.3875 47ZM43.2275 47L41.2995 47.5319L41.7045 49H43.2275V47ZM35.5475 19.16L37.4755 18.6281L35.5475 11.6392L33.6195 18.6281L35.5475 19.16ZM27.8675 47V49H29.3905L29.7955 47.5319L27.8675 47ZM15.7075 47L13.7773 47.5239L14.178 49H15.7075V47ZM3.5475 2.2V0.199997H0.932279L1.61734 2.7239L3.5475 2.2ZM16.0275 2.2L17.9752 1.74554L17.6146 0.199997H16.0275V2.2ZM22.7475 31L20.7998 31.4545L24.68 31.5153L22.7475 31ZM30.4275 2.2V0.199997H28.8909L28.495 1.68467L30.4275 2.2ZM38.735 2.71532L46.415 31.5153L50.28 30.4847L42.6 1.68467L38.735 2.71532ZM50.2952 31.4545L57.0152 2.65446L53.1198 1.74554L46.3998 30.5455L50.2952 31.4545ZM55.0675 4.2H67.5475V0.199997H55.0675V4.2ZM65.6173 1.6761L53.4573 46.4761L57.3177 47.5239L69.4777 2.7239L65.6173 1.6761ZM55.3875 45H43.2275V49H55.3875V45ZM45.1555 46.4681L37.4755 18.6281L33.6195 19.6919L41.2995 47.5319L45.1555 46.4681ZM33.6195 18.6281L25.9395 46.4681L29.7955 47.5319L37.4755 19.6919L33.6195 18.6281ZM27.8675 45H15.7075V49H27.8675V45ZM17.6377 46.4761L5.47766 1.6761L1.61734 2.7239L13.7773 47.5239L17.6377 46.4761ZM3.5475 4.2H16.0275V0.199997H3.5475V4.2ZM14.0798 2.65446L20.7998 31.4545L24.6952 30.5455L17.9752 1.74554L14.0798 2.65446ZM24.68 31.5153L32.36 2.71532L28.495 1.68467L20.815 30.4847L24.68 31.5153ZM30.4275 4.2H40.6675V0.199997H30.4275V4.2ZM81.3375 13.72H79.3375V16.1744L81.7414 15.6788L81.3375 13.72ZM102.074 15.064L100.659 16.4782L100.659 16.4782L102.074 15.064ZM104.698 47V49H106.698V47H104.698ZM93.4975 47H91.4975V49H93.4975V47ZM84.5375 21.336L84.2894 19.3514L84.2816 19.3524L84.5375 21.336ZM81.3375 21.72L81.1281 19.731L79.3375 19.9195V21.72H81.3375ZM81.3375 47V49H83.3375V47H81.3375ZM70.1375 47H68.1375V49H70.1375V47ZM70.1375 2.2V0.199997H68.1375V2.2H70.1375ZM81.3375 2.2H83.3375V0.199997H81.3375V2.2ZM81.7414 15.6788C85.7908 14.8439 89.2768 14.44 92.2175 14.44V10.44C88.9289 10.44 85.1616 10.8895 80.9336 11.7612L81.7414 15.6788ZM92.2175 14.44H95.0975V10.44H92.2175V14.44ZM95.0975 14.44C97.5672 14.44 99.3495 15.1685 100.659 16.4782L103.488 13.6498C101.299 11.4609 98.4305 10.44 95.0975 10.44V14.44ZM100.659 16.4782C101.969 17.788 102.698 19.5703 102.698 22.04H106.698C106.698 18.707 105.677 15.8387 103.488 13.6498L100.659 16.4782ZM102.698 22.04V47H106.698V22.04H102.698ZM104.698 45H93.4975V49H104.698V45ZM95.4975 47V23.32H91.4975V47H95.4975ZM95.4975 23.32C95.4975 22.1853 95.098 21.132 94.2717 20.3058L91.4433 23.1342C91.4611 23.152 91.4697 23.1639 91.4734 23.1694C91.4769 23.1747 91.4789 23.1786 91.4805 23.1828C91.4825 23.1877 91.4975 23.2254 91.4975 23.32H95.4975ZM94.2717 20.3058C93.4455 19.4795 92.3922 19.08 91.2575 19.08V23.08C91.3521 23.08 91.3898 23.095 91.3947 23.097C91.3989 23.0986 91.4028 23.1006 91.4081 23.1041C91.4136 23.1078 91.4255 23.1164 91.4433 23.1342L94.2717 20.3058ZM91.2575 19.08H89.0175V23.08H91.2575V19.08ZM89.0175 19.08C87.3274 19.08 85.75 19.1689 84.2894 19.3514L84.7856 23.3206C86.0557 23.1618 87.4649 23.08 89.0175 23.08V19.08ZM84.2816 19.3524C82.966 19.5222 81.9167 19.648 81.1281 19.731L81.5469 23.709C82.3797 23.6213 83.4637 23.4911 84.7934 23.3196L84.2816 19.3524ZM79.3375 21.72V47H83.3375V21.72H79.3375ZM81.3375 45H70.1375V49H81.3375V45ZM72.1375 47V2.2H68.1375V47H72.1375ZM70.1375 4.2H81.3375V0.199997H70.1375V4.2ZM79.3375 2.2V13.72H83.3375V2.2H79.3375ZM111.09 57.88H109.09V59.6371L110.832 59.8633L111.09 57.88ZM111.09 49.56V47.56H109.09V49.56H111.09ZM119.986 48.216L118.25 47.2237L118.231 47.2555L118.214 47.288L119.986 48.216ZM119.73 44.44L117.885 45.2119L117.887 45.2161L119.73 44.44ZM106.61 13.08V11.08H103.605L104.765 13.8519L106.61 13.08ZM118.45 13.08L120.327 12.3899L119.846 11.08H118.45V13.08ZM126.45 34.84L124.573 35.5301L126.615 41.0843L128.361 35.4301L126.45 34.84ZM133.17 13.08V11.08H131.694L131.259 12.4899L133.17 13.08ZM145.01 13.08L146.89 13.7635L147.865 11.08H145.01V13.08ZM132.21 48.28L134.088 48.9692L134.09 48.9635L132.21 48.28ZM127.41 55.896L126.098 54.3868L126.088 54.3948L126.079 54.403L127.41 55.896ZM119.41 56.52C117.264 56.52 114.583 56.3168 111.348 55.8967L110.832 59.8633C114.168 60.2965 117.033 60.52 119.41 60.52V56.52ZM113.09 57.88V49.56H109.09V57.88H113.09ZM111.09 51.56H116.85V47.56H111.09V51.56ZM116.85 51.56C118.733 51.56 120.766 51.0381 121.758 49.144L118.214 47.288C118.21 47.2971 118.207 47.3007 118.199 47.308C118.188 47.3174 118.15 47.3479 118.062 47.3857C117.871 47.4678 117.496 47.56 116.85 47.56V51.56ZM121.722 49.2083C122.707 47.4847 122.331 45.4638 121.573 43.6639L117.887 45.2161C118.494 46.6588 118.289 47.1553 118.25 47.2237L121.722 49.2083ZM121.575 43.6681L108.455 12.3081L104.765 13.8519L117.885 45.2119L121.575 43.6681ZM106.61 15.08H118.45V11.08H106.61V15.08ZM116.573 13.7701L124.573 35.5301L128.327 34.1499L120.327 12.3899L116.573 13.7701ZM128.361 35.4301L135.081 13.6701L131.259 12.4899L124.539 34.2499L128.361 35.4301ZM133.17 15.08H145.01V11.08H133.17V15.08ZM143.13 12.3965L130.33 47.5965L134.09 48.9635L146.89 13.7635L143.13 12.3965ZM130.333 47.5908C129.169 50.7594 127.727 52.9697 126.098 54.3868L128.722 57.4052C131.018 55.409 132.776 52.5419 134.087 48.9692L130.333 47.5908ZM126.079 54.403C124.577 55.742 122.432 56.52 119.41 56.52V60.52C123.129 60.52 126.318 59.5487 128.741 57.389L126.079 54.403ZM196.218 46.36L196.43 48.3487L198.218 48.1575V46.36H196.218ZM168.122 45.016L166.707 46.4302L166.707 46.4302L168.122 45.016ZM168.186 15.832L169.6 17.2462L169.6 17.2462L168.186 15.832ZM196.218 13.08H198.218V11.08H196.218V13.08ZM196.218 21.72V23.72H198.218V21.72H196.218ZM196.218 38.04H198.218V35.8664L196.051 36.0469L196.218 38.04ZM196.005 44.3713C188.076 45.2193 181.11 45.64 175.098 45.64V49.64C181.288 49.64 188.401 49.2073 196.43 48.3487L196.005 44.3713ZM175.098 45.64C172.628 45.64 170.845 44.9115 169.536 43.6018L166.707 46.4302C168.896 48.6191 171.765 49.64 175.098 49.64V45.64ZM169.536 43.6018C168.226 42.292 167.498 40.5097 167.498 38.04H163.498C163.498 41.373 164.518 44.2413 166.707 46.4302L169.536 43.6018ZM167.498 38.04V23.32H163.498V38.04H167.498ZM167.498 23.32C167.498 20.5037 168.275 18.5708 169.6 17.2462L166.771 14.4178C164.512 16.6772 163.498 19.7363 163.498 23.32H167.498ZM169.6 17.2462C170.976 15.8703 172.937 15.08 175.738 15.08V11.08C172.138 11.08 169.065 12.1244 166.771 14.4178L169.6 17.2462ZM175.738 15.08H196.218V11.08H175.738V15.08ZM194.218 13.08V21.72H198.218V13.08H194.218ZM196.218 19.72H179.258V23.72H196.218V19.72ZM179.258 19.72C178.096 19.72 176.857 20.0118 175.923 20.9458C174.989 21.8798 174.698 23.1184 174.698 24.28H178.698C178.698 23.735 178.832 23.6935 178.752 23.7742C178.671 23.8549 178.712 23.72 179.258 23.72V19.72ZM174.698 24.28V36.76H178.698V24.28H174.698ZM174.698 36.76C174.698 37.8947 175.097 38.948 175.923 39.7742L178.752 36.9458C178.734 36.928 178.725 36.9161 178.722 36.9106C178.718 36.9053 178.716 36.9014 178.714 36.8972C178.712 36.8923 178.698 36.8546 178.698 36.76H174.698ZM175.923 39.7742C176.75 40.6005 177.803 41 178.938 41V37C178.843 37 178.805 36.985 178.8 36.983C178.796 36.9814 178.792 36.9794 178.787 36.9759C178.781 36.9722 178.77 36.9636 178.752 36.9458L175.923 39.7742ZM178.938 41C182.864 41 188.692 40.6741 196.384 40.0331L196.051 36.0469C188.383 36.6859 182.691 37 178.938 37V41ZM194.218 38.04V46.36H198.218V38.04H194.218ZM212.525 13.72H210.525V16.1744L212.929 15.6788L212.525 13.72ZM233.261 15.064L231.847 16.4782L231.847 16.4782L233.261 15.064ZM235.885 47V49H237.885V47H235.885ZM224.685 47H222.685V49H224.685V47ZM215.725 21.336L215.477 19.3514L215.469 19.3524L215.725 21.336ZM212.525 21.72L212.316 19.731L210.525 19.9195V21.72H212.525ZM212.525 47V49H214.525V47H212.525ZM201.325 47H199.325V49H201.325V47ZM201.325 2.2V0.199997H199.325V2.2H201.325ZM212.525 2.2H214.525V0.199997H212.525V2.2ZM212.929 15.6788C216.978 14.8439 220.464 14.44 223.405 14.44V10.44C220.116 10.44 216.349 10.8895 212.121 11.7612L212.929 15.6788ZM223.405 14.44H226.285V10.44H223.405V14.44ZM226.285 14.44C228.755 14.44 230.537 15.1685 231.847 16.4782L234.675 13.6498C232.486 11.4609 229.618 10.44 226.285 10.44V14.44ZM231.847 16.4782C233.157 17.788 233.885 19.5703 233.885 22.04H237.885C237.885 18.707 236.864 15.8387 234.675 13.6498L231.847 16.4782ZM233.885 22.04V47H237.885V22.04H233.885ZM235.885 45H224.685V49H235.885V45ZM226.685 47V23.32H222.685V47H226.685ZM226.685 23.32C226.685 22.1853 226.285 21.132 225.459 20.3058L222.631 23.1342C222.649 23.152 222.657 23.1639 222.661 23.1694C222.664 23.1747 222.666 23.1786 222.668 23.1828C222.67 23.1877 222.685 23.2254 222.685 23.32H226.685ZM225.459 20.3058C224.633 19.4795 223.58 19.08 222.445 19.08V23.08C222.54 23.08 222.577 23.095 222.582 23.097C222.586 23.0986 222.59 23.1006 222.596 23.1041C222.601 23.1078 222.613 23.1164 222.631 23.1342L225.459 20.3058ZM222.445 19.08H220.205V23.08H222.445V19.08ZM220.205 19.08C218.515 19.08 216.938 19.1689 215.477 19.3514L215.973 23.3206C217.243 23.1618 218.652 23.08 220.205 23.08V19.08ZM215.469 19.3524C214.154 19.5222 213.104 19.648 212.316 19.731L212.734 23.709C213.567 23.6213 214.651 23.4911 215.981 23.3196L215.469 19.3524ZM210.525 21.72V47H214.525V21.72H210.525ZM212.525 45H201.325V49H212.525V45ZM203.325 47V2.2H199.325V47H203.325ZM201.325 4.2H212.525V0.199997H201.325V4.2ZM210.525 2.2V13.72H214.525V2.2H210.525ZM273.446 44.952L274.86 46.3662L274.86 46.3662L273.446 44.952ZM243.686 44.952L242.255 46.3495L242.271 46.3663L242.288 46.3828L243.686 44.952ZM243.686 15.192L245.1 16.6062L245.1 16.6062L243.686 15.192ZM273.446 15.192L272.015 16.5895L272.031 16.6063L272.048 16.6228L273.446 15.192ZM274.198 37.4C274.198 40.2009 273.407 42.1618 272.031 43.5378L274.86 46.3662C277.153 44.0728 278.198 40.9991 278.198 37.4H274.198ZM272.031 43.5378C270.707 44.8624 268.774 45.64 265.958 45.64V49.64C269.541 49.64 272.6 48.6256 274.86 46.3662L272.031 43.5378ZM265.958 45.64H251.238V49.64H265.958V45.64ZM251.238 45.64C248.424 45.64 246.457 44.863 245.083 43.5212L242.288 46.3828C244.584 48.625 247.651 49.64 251.238 49.64V45.64ZM245.116 43.5545C243.774 42.1808 242.998 40.214 242.998 37.4H238.998C238.998 40.986 240.013 44.0539 242.255 46.3495L245.116 43.5545ZM242.998 37.4V22.68H238.998V37.4H242.998ZM242.998 22.68C242.998 19.8637 243.775 17.9308 245.1 16.6062L242.271 13.7778C240.012 16.0372 238.998 19.0963 238.998 22.68H242.998ZM245.1 16.6062C246.476 15.2303 248.437 14.44 251.238 14.44V10.44C247.638 10.44 244.565 11.4844 242.271 13.7778L245.1 16.6062ZM251.238 14.44H265.958V10.44H251.238V14.44ZM265.958 14.44C268.76 14.44 270.688 15.2308 272.015 16.5895L274.876 13.7945C272.619 11.4839 269.555 10.44 265.958 10.44V14.44ZM272.048 16.6228C273.407 17.9498 274.198 19.877 274.198 22.68H278.198C278.198 19.083 277.154 16.0182 274.843 13.7612L272.048 16.6228ZM274.198 22.68V37.4H278.198V22.68H274.198ZM266.998 23.64C266.998 22.4784 266.706 21.2398 265.772 20.3058C264.838 19.3718 263.599 19.08 262.438 19.08V23.08C262.983 23.08 263.024 23.2149 262.943 23.1342C262.863 23.0535 262.998 23.095 262.998 23.64H266.998ZM262.438 19.08H254.758V23.08H262.438V19.08ZM254.758 19.08C253.596 19.08 252.357 19.3718 251.423 20.3058C250.489 21.2398 250.198 22.4784 250.198 23.64H254.198C254.198 23.095 254.332 23.0535 254.252 23.1342C254.171 23.2149 254.212 23.08 254.758 23.08V19.08ZM250.198 23.64V36.44H254.198V23.64H250.198ZM250.198 36.44C250.198 37.6016 250.489 38.8402 251.423 39.7742C252.357 40.7082 253.596 41 254.758 41V37C254.212 37 254.171 36.8651 254.252 36.9458C254.332 37.0265 254.198 36.985 254.198 36.44H250.198ZM254.758 41H262.438V37H254.758V41ZM262.438 41C263.599 41 264.838 40.7082 265.772 39.7742C266.706 38.8402 266.998 37.6016 266.998 36.44H262.998C262.998 36.985 262.863 37.0265 262.943 36.9458C263.024 36.8651 262.983 37 262.438 37V41ZM266.998 36.44V23.64H262.998V36.44H266.998ZM313.758 44.952L315.172 46.3662L315.172 46.3662L313.758 44.952ZM283.998 44.952L282.567 46.3495L282.584 46.3663L282.601 46.3828L283.998 44.952ZM283.998 15.192L285.412 16.6062L285.412 16.6062L283.998 15.192ZM313.758 15.192L312.327 16.5895L312.344 16.6063L312.361 16.6228L313.758 15.192ZM314.51 37.4C314.51 40.2009 313.72 42.1618 312.344 43.5378L315.172 46.3662C317.466 44.0728 318.51 40.9991 318.51 37.4H314.51ZM312.344 43.5378C311.019 44.8624 309.086 45.64 306.27 45.64V49.64C309.854 49.64 312.913 48.6256 315.172 46.3662L312.344 43.5378ZM306.27 45.64H291.55V49.64H306.27V45.64ZM291.55 45.64C288.736 45.64 286.769 44.863 285.395 43.5212L282.601 46.3828C284.896 48.625 287.964 49.64 291.55 49.64V45.64ZM285.429 43.5545C284.087 42.1808 283.31 40.214 283.31 37.4H279.31C279.31 40.986 280.325 44.0539 282.567 46.3495L285.429 43.5545ZM283.31 37.4V22.68H279.31V37.4H283.31ZM283.31 22.68C283.31 19.8637 284.088 17.9308 285.412 16.6062L282.584 13.7778C280.324 16.0372 279.31 19.0963 279.31 22.68H283.31ZM285.412 16.6062C286.788 15.2303 288.749 14.44 291.55 14.44V10.44C287.951 10.44 284.877 11.4844 282.584 13.7778L285.412 16.6062ZM291.55 14.44H306.27V10.44H291.55V14.44ZM306.27 14.44C309.073 14.44 311 15.2308 312.327 16.5895L315.189 13.7945C312.932 11.4839 309.867 10.44 306.27 10.44V14.44ZM312.361 16.6228C313.719 17.9498 314.51 19.877 314.51 22.68H318.51C318.51 19.083 317.466 16.0182 315.155 13.7612L312.361 16.6228ZM314.51 22.68V37.4H318.51V22.68H314.51ZM307.31 23.64C307.31 22.4784 307.018 21.2398 306.084 20.3058C305.15 19.3718 303.912 19.08 302.75 19.08V23.08C303.295 23.08 303.336 23.2149 303.256 23.1342C303.175 23.0535 303.31 23.095 303.31 23.64H307.31ZM302.75 19.08H295.07V23.08H302.75V19.08ZM295.07 19.08C293.908 19.08 292.67 19.3718 291.736 20.3058C290.802 21.2398 290.51 22.4784 290.51 23.64H294.51C294.51 23.095 294.645 23.0535 294.564 23.1342C294.484 23.2149 294.525 23.08 295.07 23.08V19.08ZM290.51 23.64V36.44H294.51V23.64H290.51ZM290.51 36.44C290.51 37.6016 290.802 38.8402 291.736 39.7742C292.67 40.7082 293.908 41 295.07 41V37C294.525 37 294.484 36.8651 294.564 36.9458C294.645 37.0265 294.51 36.985 294.51 36.44H290.51ZM295.07 41H302.75V37H295.07V41ZM302.75 41C303.912 41 305.15 40.7082 306.084 39.7742C307.018 38.8402 307.31 37.6016 307.31 36.44H303.31C303.31 36.985 303.175 37.0265 303.256 36.9458C303.336 36.8651 303.295 37 302.75 37V41ZM307.31 36.44V23.64H303.31V36.44H307.31ZM320.983 38.04L321.13 36.0454L318.983 35.8868V38.04H320.983ZM343.063 38.36L344.477 39.7742L344.477 39.7742L343.063 38.36ZM343.703 34.52H345.703V32.52H343.703V34.52ZM322.967 31.896L324.381 30.4818L324.381 30.4818L322.967 31.896ZM322.967 15.704L324.381 17.1182L324.381 17.1182L322.967 15.704ZM351.703 13.08H353.703V11.08H351.703V13.08ZM351.703 21.4V23.4H353.703V21.4H351.703ZM332.183 22.04L333.597 23.4542L333.597 23.4542L332.183 22.04ZM332.183 25.24L330.768 26.6542L330.768 26.6542L332.183 25.24ZM352.279 28.504L353.693 27.0898L353.693 27.0898L352.279 28.504ZM352.279 45.016L353.693 46.4302L353.693 46.4302L352.279 45.016ZM320.983 46.36H318.983V48.1726L320.786 48.3504L320.983 46.36ZM320.835 40.0346C329.515 40.676 336.398 41 341.463 41V37C336.543 37 329.772 36.684 321.13 36.0454L320.835 40.0346ZM341.463 41C342.597 41 343.65 40.6005 344.477 39.7742L341.648 36.9458C341.63 36.9636 341.619 36.9722 341.613 36.9759C341.608 36.9794 341.604 36.9814 341.6 36.983C341.595 36.985 341.557 37 341.463 37V41ZM344.477 39.7742C345.303 38.948 345.703 37.8947 345.703 36.76H341.703C341.703 36.8546 341.688 36.8923 341.686 36.8972C341.684 36.9014 341.682 36.9053 341.678 36.9106C341.675 36.9161 341.666 36.928 341.648 36.9458L344.477 39.7742ZM345.703 36.76V34.52H341.703V36.76H345.703ZM343.703 32.52H329.943V36.52H343.703V32.52ZM329.943 32.52C327.473 32.52 325.69 31.7915 324.381 30.4818L321.552 33.3102C323.741 35.4991 326.61 36.52 329.943 36.52V32.52ZM324.381 30.4818C323.071 29.172 322.343 27.3897 322.343 24.92H318.343C318.343 28.253 319.363 31.1213 321.552 33.3102L324.381 30.4818ZM322.343 24.92V22.68H318.343V24.92H322.343ZM322.343 22.68C322.343 20.2103 323.071 18.428 324.381 17.1182L321.552 14.2898C319.363 16.4787 318.343 19.347 318.343 22.68H322.343ZM324.381 17.1182C325.69 15.8085 327.473 15.08 329.943 15.08V11.08C326.61 11.08 323.741 12.1009 321.552 14.2898L324.381 17.1182ZM329.943 15.08H351.703V11.08H329.943V15.08ZM349.703 13.08V21.4H353.703V13.08H349.703ZM351.703 19.4H333.783V23.4H351.703V19.4ZM333.783 19.4C332.648 19.4 331.595 19.7995 330.768 20.6258L333.597 23.4542C333.615 23.4364 333.626 23.4278 333.632 23.4241C333.637 23.4206 333.641 23.4186 333.645 23.417C333.65 23.415 333.688 23.4 333.783 23.4V19.4ZM330.768 20.6258C329.942 21.452 329.543 22.5053 329.543 23.64H333.543C333.543 23.5454 333.557 23.5077 333.559 23.5028C333.561 23.4986 333.563 23.4947 333.567 23.4894C333.57 23.4839 333.579 23.472 333.597 23.4542L330.768 20.6258ZM329.543 23.64C329.543 24.7747 329.942 25.828 330.768 26.6542L333.597 23.8258C333.579 23.808 333.57 23.7961 333.567 23.7906C333.563 23.7853 333.561 23.7814 333.559 23.7772C333.557 23.7723 333.543 23.7346 333.543 23.64H329.543ZM330.768 26.6542C331.595 27.4805 332.648 27.88 333.783 27.88V23.88C333.688 23.88 333.65 23.865 333.645 23.863C333.641 23.8614 333.637 23.8594 333.632 23.8559C333.626 23.8522 333.615 23.8436 333.597 23.8258L330.768 26.6542ZM333.783 27.88H345.303V23.88H333.783V27.88ZM345.303 27.88C347.772 27.88 349.555 28.6085 350.864 29.9182L353.693 27.0898C351.504 24.9009 348.635 23.88 345.303 23.88V27.88ZM350.864 29.9182C352.174 31.228 352.903 33.0103 352.903 35.48H356.903C356.903 32.147 355.882 29.2787 353.693 27.0898L350.864 29.9182ZM352.903 35.48V38.04H356.903V35.48H352.903ZM352.903 38.04C352.903 40.5097 352.174 42.292 350.864 43.6018L353.693 46.4302C355.882 44.2413 356.903 41.373 356.903 38.04H352.903ZM350.864 43.6018C349.555 44.9115 347.772 45.64 345.303 45.64V49.64C348.635 49.64 351.504 48.6191 353.693 46.4302L350.864 43.6018ZM345.303 45.64C337.825 45.64 329.784 45.2175 321.179 44.3696L320.786 48.3504C329.503 49.2092 337.676 49.64 345.303 49.64V45.64ZM322.983 46.36V38.04H318.983V46.36H322.983ZM369.948 26.52H367.948V28.52H369.948V26.52ZM380.828 26.52V28.52H382.828V26.52H380.828ZM390.748 46.36L390.954 48.3493L392.748 48.1635V46.36H390.748ZM361.372 45.016L359.957 46.4302L359.957 46.4302L361.372 45.016ZM361.436 15.192L362.85 16.6062L362.85 16.6062L361.436 15.192ZM389.276 15.192L387.845 16.5895L387.861 16.6063L387.878 16.6228L389.276 15.192ZM392.028 34.52V36.52H394.028V34.52H392.028ZM369.948 34.52V32.52H367.948V34.52H369.948ZM370.588 38.68L372.002 37.2658L372.002 37.2658L370.588 38.68ZM390.748 38.36H392.748V36.1968L390.591 36.3661L390.748 38.36ZM372.508 18.44C371.346 18.44 370.107 18.7318 369.173 19.6658C368.239 20.5998 367.948 21.8384 367.948 23H371.948C371.948 22.455 372.082 22.4135 372.002 22.4942C371.921 22.5749 371.962 22.44 372.508 22.44V18.44ZM367.948 23V26.52H371.948V23H367.948ZM369.948 28.52H380.828V24.52H369.948V28.52ZM382.828 26.52V23H378.828V26.52H382.828ZM382.828 23C382.828 21.8384 382.536 20.5998 381.602 19.6658C380.668 18.7318 379.429 18.44 378.268 18.44V22.44C378.813 22.44 378.854 22.5749 378.773 22.4942C378.693 22.4135 378.828 22.455 378.828 23H382.828ZM378.268 18.44H372.508V22.44H378.268V18.44ZM390.541 44.3707C382.36 45.2185 374.964 45.64 368.348 45.64V49.64C375.129 49.64 382.666 49.2082 390.954 48.3493L390.541 44.3707ZM368.348 45.64C365.878 45.64 364.095 44.9115 362.786 43.6018L359.957 46.4302C362.146 48.6191 365.015 49.64 368.348 49.64V45.64ZM362.786 43.6018C361.476 42.292 360.748 40.5097 360.748 38.04H356.748C356.748 41.373 357.768 44.2413 359.957 46.4302L362.786 43.6018ZM360.748 38.04V22.68H356.748V38.04H360.748ZM360.748 22.68C360.748 19.8637 361.525 17.9308 362.85 16.6062L360.021 13.7778C357.762 16.0372 356.748 19.0963 356.748 22.68H360.748ZM362.85 16.6062C364.226 15.2303 366.187 14.44 368.988 14.44V10.44C365.388 10.44 362.315 11.4844 360.021 13.7778L362.85 16.6062ZM368.988 14.44H381.788V10.44H368.988V14.44ZM381.788 14.44C384.59 14.44 386.518 15.2308 387.845 16.5895L390.706 13.7945C388.449 11.4839 385.385 10.44 381.788 10.44V14.44ZM387.878 16.6228C389.237 17.9498 390.028 19.877 390.028 22.68H394.028C394.028 19.083 392.984 16.0182 390.673 13.7612L387.878 16.6228ZM390.028 22.68V34.52H394.028V22.68H390.028ZM392.028 32.52H369.948V36.52H392.028V32.52ZM367.948 34.52V37.08H371.948V34.52H367.948ZM367.948 37.08C367.948 38.2147 368.347 39.268 369.173 40.0942L372.002 37.2658C371.984 37.248 371.975 37.2361 371.972 37.2306C371.968 37.2253 371.966 37.2214 371.964 37.2172C371.962 37.2123 371.948 37.1746 371.948 37.08H367.948ZM369.173 40.0942C370 40.9205 371.053 41.32 372.188 41.32V37.32C372.093 37.32 372.055 37.305 372.05 37.303C372.046 37.3014 372.042 37.2994 372.037 37.2959C372.031 37.2922 372.02 37.2836 372.002 37.2658L369.173 40.0942ZM372.188 41.32C376.492 41.32 382.741 40.9949 390.904 40.3539L390.591 36.3661C382.455 37.0051 376.331 37.32 372.188 37.32V41.32ZM388.748 38.36V46.36H392.748V38.36H388.748ZM440.31 37.08L440.882 38.9964L442.31 38.5702V37.08H440.31ZM440.31 13.08V11.08H438.31V13.08H440.31ZM451.51 13.08H453.51V11.08H451.51V13.08ZM451.51 47V49H453.51V47H451.51ZM441.59 47L439.629 47.3922L439.95 49H441.59V47ZM440.95 43.8L442.911 43.4078L442.329 40.4949L439.849 42.1305L440.95 43.8ZM434.742 46.744L435.291 48.667L435.304 48.6634L435.317 48.6597L434.742 46.744ZM419.574 45.016L420.988 43.6018L420.988 43.6018L419.574 45.016ZM416.95 13.08V11.08H414.95V13.08H416.95ZM428.15 13.08H430.15V11.08H428.15V13.08ZM428.79 37.72L430.204 36.3058L430.204 36.3058L428.79 37.72ZM432.63 40.36C435.136 40.36 437.893 39.8886 440.882 38.9964L439.738 35.1636C437.009 35.978 434.647 36.36 432.63 36.36V40.36ZM442.31 37.08V13.08H438.31V37.08H442.31ZM440.31 15.08H451.51V11.08H440.31V15.08ZM449.51 13.08V47H453.51V13.08H449.51ZM451.51 45H441.59V49H451.51V45ZM443.551 46.6078L442.911 43.4078L438.989 44.1922L439.629 47.3922L443.551 46.6078ZM439.849 42.1305C437.993 43.3543 436.1 44.2485 434.167 44.8283L435.317 48.6597C437.651 47.9595 439.896 46.8911 442.051 45.4695L439.849 42.1305ZM434.193 44.821C432.201 45.39 430.627 45.64 429.43 45.64V49.64C431.134 49.64 433.102 49.2927 435.291 48.667L434.193 44.821ZM429.43 45.64H426.55V49.64H429.43V45.64ZM426.55 45.64C424.08 45.64 422.298 44.9115 420.988 43.6018L418.16 46.4302C420.349 48.6191 423.217 49.64 426.55 49.64V45.64ZM420.988 43.6018C419.678 42.292 418.95 40.5097 418.95 38.04H414.95C414.95 41.373 415.971 44.2413 418.16 46.4302L420.988 43.6018ZM418.95 38.04V13.08H414.95V38.04H418.95ZM416.95 15.08H428.15V11.08H416.95V15.08ZM426.15 13.08V36.12H430.15V13.08H426.15ZM426.15 36.12C426.15 37.2547 426.55 38.308 427.376 39.1342L430.204 36.3058C430.186 36.288 430.178 36.2761 430.174 36.2706C430.171 36.2653 430.169 36.2614 430.167 36.2572C430.165 36.2523 430.15 36.2146 430.15 36.12H426.15ZM427.376 39.1342C428.202 39.9605 429.255 40.36 430.39 40.36V36.36C430.295 36.36 430.258 36.345 430.253 36.343C430.249 36.3414 430.245 36.3394 430.239 36.3359C430.234 36.3322 430.222 36.3236 430.204 36.3058L427.376 39.1342ZM430.39 40.36H432.63V36.36H430.39V40.36ZM456.608 38.04L456.755 36.0454L454.608 35.8868V38.04H456.608ZM478.688 38.36L480.102 39.7742L480.102 39.7742L478.688 38.36ZM479.328 34.52H481.328V32.52H479.328V34.52ZM458.592 31.896L460.006 30.4818L460.006 30.4818L458.592 31.896ZM458.592 15.704L460.006 17.1182L460.006 17.1182L458.592 15.704ZM487.328 13.08H489.328V11.08H487.328V13.08ZM487.328 21.4V23.4H489.328V21.4H487.328ZM467.808 22.04L469.222 23.4542L469.222 23.4542L467.808 22.04ZM467.808 25.24L466.393 26.6542L466.393 26.6542L467.808 25.24ZM487.904 28.504L489.318 27.0898L489.318 27.0898L487.904 28.504ZM487.904 45.016L489.318 46.4302L489.318 46.4302L487.904 45.016ZM456.608 46.36H454.608V48.1726L456.411 48.3504L456.608 46.36ZM456.46 40.0346C465.14 40.676 472.023 41 477.088 41V37C472.168 37 465.397 36.684 456.755 36.0454L456.46 40.0346ZM477.088 41C478.222 41 479.275 40.6005 480.102 39.7742L477.273 36.9458C477.255 36.9636 477.244 36.9722 477.238 36.9759C477.233 36.9794 477.229 36.9814 477.225 36.983C477.22 36.985 477.182 37 477.088 37V41ZM480.102 39.7742C480.928 38.948 481.328 37.8947 481.328 36.76H477.328C477.328 36.8546 477.313 36.8923 477.311 36.8972C477.309 36.9014 477.307 36.9053 477.303 36.9106C477.3 36.9161 477.291 36.928 477.273 36.9458L480.102 39.7742ZM481.328 36.76V34.52H477.328V36.76H481.328ZM479.328 32.52H465.568V36.52H479.328V32.52ZM465.568 32.52C463.098 32.52 461.315 31.7915 460.006 30.4818L457.177 33.3102C459.366 35.4991 462.235 36.52 465.568 36.52V32.52ZM460.006 30.4818C458.696 29.172 457.968 27.3897 457.968 24.92H453.968C453.968 28.253 454.988 31.1213 457.177 33.3102L460.006 30.4818ZM457.968 24.92V22.68H453.968V24.92H457.968ZM457.968 22.68C457.968 20.2103 458.696 18.428 460.006 17.1182L457.177 14.2898C454.988 16.4787 453.968 19.347 453.968 22.68H457.968ZM460.006 17.1182C461.315 15.8085 463.098 15.08 465.568 15.08V11.08C462.235 11.08 459.366 12.1009 457.177 14.2898L460.006 17.1182ZM465.568 15.08H487.328V11.08H465.568V15.08ZM485.328 13.08V21.4H489.328V13.08H485.328ZM487.328 19.4H469.408V23.4H487.328V19.4ZM469.408 19.4C468.273 19.4 467.22 19.7995 466.393 20.6258L469.222 23.4542C469.24 23.4364 469.251 23.4278 469.257 23.4241C469.262 23.4206 469.266 23.4186 469.27 23.417C469.275 23.415 469.313 23.4 469.408 23.4V19.4ZM466.393 20.6258C465.567 21.452 465.168 22.5053 465.168 23.64H469.168C469.168 23.5454 469.182 23.5077 469.184 23.5028C469.186 23.4986 469.188 23.4947 469.192 23.4894C469.195 23.4839 469.204 23.472 469.222 23.4542L466.393 20.6258ZM465.168 23.64C465.168 24.7747 465.567 25.828 466.393 26.6542L469.222 23.8258C469.204 23.808 469.195 23.7961 469.192 23.7906C469.188 23.7853 469.186 23.7814 469.184 23.7772C469.182 23.7723 469.168 23.7346 469.168 23.64H465.168ZM466.393 26.6542C467.22 27.4805 468.273 27.88 469.408 27.88V23.88C469.313 23.88 469.275 23.865 469.27 23.863C469.266 23.8614 469.262 23.8594 469.257 23.8559C469.251 23.8522 469.24 23.8436 469.222 23.8258L466.393 26.6542ZM469.408 27.88H480.928V23.88H469.408V27.88ZM480.928 27.88C483.397 27.88 485.18 28.6085 486.489 29.9182L489.318 27.0898C487.129 24.9009 484.26 23.88 480.928 23.88V27.88ZM486.489 29.9182C487.799 31.228 488.528 33.0103 488.528 35.48H492.528C492.528 32.147 491.507 29.2787 489.318 27.0898L486.489 29.9182ZM488.528 35.48V38.04H492.528V35.48H488.528ZM488.528 38.04C488.528 40.5097 487.799 42.292 486.489 43.6018L489.318 46.4302C491.507 44.2413 492.528 41.373 492.528 38.04H488.528ZM486.489 43.6018C485.18 44.9115 483.397 45.64 480.928 45.64V49.64C484.26 49.64 487.129 48.6191 489.318 46.4302L486.489 43.6018ZM480.928 45.64C473.45 45.64 465.409 45.2175 456.804 44.3696L456.411 48.3504C465.128 49.2092 473.301 49.64 480.928 49.64V45.64ZM458.608 46.36V38.04H454.608V46.36H458.608Z" fill="black" fill-opacity="0.06"/>
</svg>
