<svg width="554" height="68" viewBox="0 0 554 68" fill="none" xmlns="http://www.w3.org/2000/svg">
<path d="M45.2509 2.6L47.1834 2.08467L46.7875 0.599997H45.2509V2.6ZM53.8909 35L51.9585 35.5153L55.8386 35.4545L53.8909 35ZM61.4509 2.6V0.599997H59.8639L59.5033 2.14554L61.4509 2.6ZM75.4909 2.6L77.4211 3.1239L78.1062 0.599997H75.4909V2.6ZM61.8109 53V55H63.3404L63.7411 53.5239L61.8109 53ZM48.1309 53L46.203 53.5319L46.608 55H48.1309V53ZM39.4909 21.68L41.4189 21.1481L39.4909 14.1592L37.563 21.1481L39.4909 21.68ZM30.8509 53V55H32.3739L32.7789 53.5319L30.8509 53ZM17.1709 53L15.2408 53.5239L15.6414 55H17.1709V53ZM3.49094 2.6V0.599997H0.875716L1.56077 3.1239L3.49094 2.6ZM17.5309 2.6L19.4786 2.14554L19.118 0.599997H17.5309V2.6ZM25.0909 35L23.1433 35.4545L27.0234 35.5153L25.0909 35ZM33.7309 2.6V0.599997H32.1944L31.7985 2.08467L33.7309 2.6ZM43.3185 3.11532L51.9585 35.5153L55.8234 34.4847L47.1834 2.08467L43.3185 3.11532ZM55.8386 35.4545L63.3986 3.05446L59.5033 2.14554L51.9433 34.5455L55.8386 35.4545ZM61.4509 4.6H75.4909V0.599997H61.4509V4.6ZM73.5608 2.0761L59.8808 52.4761L63.7411 53.5239L77.4211 3.1239L73.5608 2.0761ZM61.8109 51H48.1309V55H61.8109V51ZM50.0589 52.4681L41.4189 21.1481L37.563 22.2119L46.203 53.5319L50.0589 52.4681ZM37.563 21.1481L28.923 52.4681L32.7789 53.5319L41.4189 22.2119L37.563 21.1481ZM30.8509 51H17.1709V55H30.8509V51ZM19.1011 52.4761L5.4211 2.0761L1.56077 3.1239L15.2408 53.5239L19.1011 52.4761ZM3.49094 4.6H17.5309V0.599997H3.49094V4.6ZM15.5833 3.05446L23.1433 35.4545L27.0386 34.5455L19.4786 2.14554L15.5833 3.05446ZM27.0234 35.5153L35.6634 3.11532L31.7985 2.08467L23.1585 34.4847L27.0234 35.5153ZM33.7309 4.6H45.2509V0.599997H33.7309V4.6ZM91.0047 15.56H89.0047V18.0144L91.4086 17.5188L91.0047 15.56ZM114.333 17.072L112.918 18.4862L112.918 18.4862L114.333 17.072ZM117.285 53V55H119.285V53H117.285ZM104.685 53H102.685V55H104.685V53ZM94.6047 24.128L94.3566 22.1434L94.3487 22.1444L94.6047 24.128ZM91.0047 24.56L90.7953 22.571L89.0047 22.7595V24.56H91.0047ZM91.0047 53V55H93.0047V53H91.0047ZM78.4047 53H76.4047V55H78.4047V53ZM78.4047 2.6V0.599997H76.4047V2.6H78.4047ZM91.0047 2.6H93.0047V0.599997H91.0047V2.6ZM91.4086 17.5188C95.9753 16.5772 99.9146 16.12 103.245 16.12V12.12C99.5668 12.12 95.3461 12.6228 90.6008 13.6012L91.4086 17.5188ZM103.245 16.12H106.485V12.12H103.245V16.12ZM106.485 16.12C109.317 16.12 111.39 16.9578 112.918 18.4862L115.747 15.6578C113.339 13.2502 110.18 12.12 106.485 12.12V16.12ZM112.918 18.4862C114.447 20.0146 115.285 22.0876 115.285 24.92H119.285C119.285 21.2244 118.154 18.0654 115.747 15.6578L112.918 18.4862ZM115.285 24.92V53H119.285V24.92H115.285ZM117.285 51H104.685V55H117.285V51ZM106.685 53V26.36H102.685V53H106.685ZM106.685 26.36C106.685 25.1453 106.258 24.0254 105.379 23.1458L102.55 25.9742C102.631 26.0546 102.685 26.1347 102.685 26.36H106.685ZM105.379 23.1458C104.499 22.2662 103.379 21.84 102.165 21.84V25.84C102.39 25.84 102.47 25.8938 102.55 25.9742L105.379 23.1458ZM102.165 21.84H99.6447V25.84H102.165V21.84ZM99.6447 21.84C97.7519 21.84 95.9879 21.9395 94.3566 22.1434L94.8528 26.1126C96.2935 25.9325 97.8894 25.84 99.6447 25.84V21.84ZM94.3487 22.1444C92.8679 22.3355 91.6852 22.4773 90.7953 22.571L91.2141 26.549C92.1482 26.4507 93.3655 26.3045 94.8606 26.1116L94.3487 22.1444ZM89.0047 24.56V53H93.0047V24.56H89.0047ZM91.0047 51H78.4047V55H91.0047V51ZM80.4047 53V2.6H76.4047V53H80.4047ZM78.4047 4.6H91.0047V0.599997H78.4047V4.6ZM89.0047 2.6V15.56H93.0047V2.6H89.0047ZM124.476 65.24H122.476V66.9971L124.219 67.2233L124.476 65.24ZM124.476 55.88V53.88H122.476V55.88H124.476ZM134.484 54.368L132.748 53.3757L132.73 53.4075L132.713 53.44L134.484 54.368ZM134.196 50.12L132.351 50.8919L132.353 50.8961L134.196 50.12ZM119.436 14.84V12.84H116.432L117.591 15.6119L119.436 14.84ZM132.756 14.84L134.633 14.1499L134.152 12.84H132.756V14.84ZM141.756 39.32L139.879 40.0101L141.921 45.5643L143.667 39.9101L141.756 39.32ZM149.316 14.84V12.84H147.841L147.405 14.2499L149.316 14.84ZM162.636 14.84L164.516 15.5235L165.492 12.84H162.636V14.84ZM148.236 54.44L150.114 55.1292L150.116 55.1235L148.236 54.44ZM142.836 63.008L141.524 61.4988L141.515 61.5068L141.506 61.515L142.836 63.008ZM133.836 63.96C131.408 63.96 128.38 63.7302 124.734 63.2567L124.219 67.2233C127.965 67.7098 131.177 67.96 133.836 67.96V63.96ZM126.476 65.24V55.88H122.476V65.24H126.476ZM124.476 57.88H130.956V53.88H124.476V57.88ZM130.956 57.88C133.042 57.88 135.205 57.3021 136.256 55.296L132.713 53.44C132.689 53.4858 132.639 53.5691 132.418 53.6637C132.162 53.7738 131.704 53.88 130.956 53.88V57.88ZM136.221 55.3603C137.27 53.5247 136.883 51.3465 136.04 49.3439L132.353 50.8961C133.046 52.5415 132.851 53.1953 132.748 53.3757L136.221 55.3603ZM136.041 49.3481L121.281 14.0681L117.591 15.6119L132.351 50.8919L136.041 49.3481ZM119.436 16.84H132.756V12.84H119.436V16.84ZM130.879 15.5301L139.879 40.0101L143.633 38.6299L134.633 14.1499L130.879 15.5301ZM143.667 39.9101L151.227 15.4301L147.405 14.2499L139.845 38.7299L143.667 39.9101ZM149.316 16.84H162.636V12.84H149.316V16.84ZM160.757 14.1565L146.357 53.7565L150.116 55.1235L164.516 15.5235L160.757 14.1565ZM146.359 53.7508C145.041 57.3408 143.399 59.8684 141.524 61.4988L144.149 64.5172C146.69 62.3077 148.648 59.1232 150.114 55.1292L146.359 53.7508ZM141.506 61.515C139.758 63.0726 137.28 63.96 133.836 63.96V67.96C137.976 67.96 141.499 66.8794 144.167 64.501L141.506 61.515ZM220.245 52.28L220.457 54.2687L222.245 54.0775V52.28H220.245ZM188.637 50.768L187.222 52.1822L187.222 52.1822L188.637 50.768ZM188.709 17.936L190.123 19.3502L190.123 19.3502L188.709 17.936ZM220.245 14.84H222.245V12.84H220.245V14.84ZM220.245 24.56V26.56H222.245V24.56H220.245ZM220.245 42.92H222.245V40.7464L220.079 40.9269L220.245 42.92ZM220.032 50.2913C211.106 51.246 203.26 51.72 196.485 51.72V55.72C203.438 55.72 211.431 55.234 220.457 54.2687L220.032 50.2913ZM196.485 51.72C193.652 51.72 191.579 50.8822 190.051 49.3538L187.222 52.1822C189.63 54.5898 192.789 55.72 196.485 55.72V51.72ZM190.051 49.3538C188.522 47.8254 187.685 45.7524 187.685 42.92H183.685C183.685 46.6156 184.815 49.7746 187.222 52.1822L190.051 49.3538ZM187.685 42.92V26.36H183.685V42.92H187.685ZM187.685 26.36C187.685 23.1437 188.574 20.8988 190.123 19.3502L187.294 16.5218C184.811 19.0052 183.685 22.3763 183.685 26.36H187.685ZM190.123 19.3502C191.728 17.7449 194.004 16.84 197.205 16.84V12.84C193.206 12.84 189.817 13.9991 187.294 16.5218L190.123 19.3502ZM197.205 16.84H220.245V12.84H197.205V16.84ZM218.245 14.84V24.56H222.245V14.84H218.245ZM220.245 22.56H201.165V26.56H220.245V22.56ZM201.165 22.56C199.896 22.56 198.578 22.8784 197.59 23.8658C196.603 24.8531 196.285 26.1717 196.285 27.44H200.285C200.285 27.1207 200.325 26.9227 200.362 26.8125C200.38 26.7593 200.396 26.7288 200.405 26.714C200.413 26.6999 200.418 26.6951 200.419 26.6942C200.42 26.6934 200.425 26.6885 200.439 26.68C200.454 26.6711 200.484 26.6551 200.537 26.6374C200.647 26.6006 200.845 26.56 201.165 26.56V22.56ZM196.285 27.44V41.48H200.285V27.44H196.285ZM196.285 41.48C196.285 42.6947 196.711 43.8146 197.59 44.6942L200.419 41.8658C200.338 41.7854 200.285 41.7053 200.285 41.48H196.285ZM197.59 44.6942C198.47 45.5738 199.59 46 200.805 46V42C200.579 42 200.499 41.9462 200.419 41.8658L197.59 44.6942ZM200.805 46C205.211 46 211.759 45.6341 220.411 44.9131L220.079 40.9269C211.451 41.6459 205.038 42 200.805 42V46ZM218.245 42.92V52.28H222.245V42.92H218.245ZM238.591 15.56H236.591V18.0144L238.995 17.5188L238.591 15.56ZM261.919 17.072L260.504 18.4862L260.504 18.4862L261.919 17.072ZM264.871 53V55H266.871V53H264.871ZM252.271 53H250.271V55H252.271V53ZM242.191 24.128L241.943 22.1434L241.935 22.1444L242.191 24.128ZM238.591 24.56L238.381 22.571L236.591 22.7595V24.56H238.591ZM238.591 53V55H240.591V53H238.591ZM225.991 53H223.991V55H225.991V53ZM225.991 2.6V0.599997H223.991V2.6H225.991ZM238.591 2.6H240.591V0.599997H238.591V2.6ZM238.995 17.5188C243.561 16.5772 247.501 16.12 250.831 16.12V12.12C247.153 12.12 242.932 12.6228 238.187 13.6012L238.995 17.5188ZM250.831 16.12H254.071V12.12H250.831V16.12ZM254.071 16.12C256.903 16.12 258.976 16.9578 260.504 18.4862L263.333 15.6578C260.925 13.2502 257.766 12.12 254.071 12.12V16.12ZM260.504 18.4862C262.033 20.0146 262.871 22.0876 262.871 24.92H266.871C266.871 21.2244 265.74 18.0654 263.333 15.6578L260.504 18.4862ZM262.871 24.92V53H266.871V24.92H262.871ZM264.871 51H252.271V55H264.871V51ZM254.271 53V26.36H250.271V53H254.271ZM254.271 26.36C254.271 25.1453 253.844 24.0254 252.965 23.1458L250.136 25.9742C250.217 26.0546 250.271 26.1347 250.271 26.36H254.271ZM252.965 23.1458C252.085 22.2662 250.965 21.84 249.751 21.84V25.84C249.976 25.84 250.056 25.8938 250.136 25.9742L252.965 23.1458ZM249.751 21.84H247.231V25.84H249.751V21.84ZM247.231 21.84C245.338 21.84 243.574 21.9395 241.943 22.1434L242.439 26.1126C243.879 25.9325 245.475 25.84 247.231 25.84V21.84ZM241.935 22.1444C240.454 22.3355 239.271 22.4773 238.381 22.571L238.8 26.549C239.734 26.4507 240.951 26.3045 242.447 26.1116L241.935 22.1444ZM236.591 24.56V53H240.591V24.56H236.591ZM238.591 51H225.991V55H238.591V51ZM227.991 53V2.6H223.991V53H227.991ZM225.991 4.6H238.591V0.599997H225.991V4.6ZM236.591 2.6V15.56H240.591V2.6H236.591ZM307.126 50.696L308.54 52.1102L308.54 52.1102L307.126 50.696ZM273.646 50.696L272.215 52.0935L272.232 52.1103L272.249 52.1268L273.646 50.696ZM273.646 17.216L275.06 18.6302L275.06 18.6302L273.646 17.216ZM307.126 17.216L305.695 18.6135L305.712 18.6303L305.729 18.6468L307.126 17.216ZM308.222 42.2C308.222 45.4009 307.317 47.6765 305.712 49.2818L308.54 52.1102C311.063 49.5875 312.222 46.1991 312.222 42.2H308.222ZM305.712 49.2818C304.163 50.8304 301.918 51.72 298.702 51.72V55.72C302.686 55.72 306.057 54.5936 308.54 52.1102L305.712 49.2818ZM298.702 51.72H282.142V55.72H298.702V51.72ZM282.142 51.72C278.928 51.72 276.647 50.831 275.044 49.2652L272.249 52.1268C274.774 54.593 278.156 55.72 282.142 55.72V51.72ZM275.077 49.2985C273.511 47.6955 272.622 45.414 272.622 42.2H268.622C268.622 46.186 269.749 49.5685 272.215 52.0935L275.077 49.2985ZM272.622 42.2V25.64H268.622V42.2H272.622ZM272.622 25.64C272.622 22.4237 273.512 20.1788 275.06 18.6302L272.232 15.8018C269.749 18.2852 268.622 21.6563 268.622 25.64H272.622ZM275.06 18.6302C276.666 17.0249 278.941 16.12 282.142 16.12V12.12C278.143 12.12 274.755 13.2791 272.232 15.8018L275.06 18.6302ZM282.142 16.12H298.702V12.12H282.142V16.12ZM298.702 16.12C301.905 16.12 304.144 17.0255 305.695 18.6135L308.557 15.8185C306.076 13.2785 302.699 12.12 298.702 12.12V16.12ZM305.729 18.6468C307.317 20.1978 308.222 22.437 308.222 25.64H312.222C312.222 21.643 311.064 18.2662 308.524 15.7852L305.729 18.6468ZM308.222 25.64V42.2H312.222V25.64H308.222ZM299.622 26.72C299.622 25.4517 299.304 24.1331 298.316 23.1458C297.329 22.1584 296.01 21.84 294.742 21.84V25.84C295.061 25.84 295.259 25.8806 295.37 25.9174C295.423 25.9351 295.453 25.9511 295.468 25.96C295.482 25.9684 295.487 25.9734 295.488 25.9742C295.489 25.9751 295.494 25.9799 295.502 25.994C295.511 26.0088 295.527 26.0393 295.545 26.0925C295.582 26.2027 295.622 26.4007 295.622 26.72H299.622ZM294.742 21.84H286.102V25.84H294.742V21.84ZM286.102 21.84C284.834 21.84 283.515 22.1584 282.528 23.1458C281.541 24.1331 281.222 25.4517 281.222 26.72H285.222C285.222 26.4007 285.263 26.2027 285.3 26.0925C285.317 26.0393 285.333 26.0088 285.342 25.994C285.351 25.9799 285.356 25.9751 285.356 25.9742C285.357 25.9734 285.362 25.9685 285.376 25.96C285.391 25.9511 285.422 25.9351 285.475 25.9174C285.585 25.8806 285.783 25.84 286.102 25.84V21.84ZM281.222 26.72V41.12H285.222V26.72H281.222ZM281.222 41.12C281.222 42.3883 281.541 43.7069 282.528 44.6942C283.515 45.6816 284.834 46 286.102 46V42C285.783 42 285.585 41.9594 285.475 41.9226C285.422 41.9049 285.391 41.8889 285.376 41.88C285.362 41.8715 285.357 41.8666 285.356 41.8658C285.356 41.8649 285.351 41.8601 285.342 41.846C285.333 41.8312 285.317 41.8007 285.3 41.7475C285.263 41.6373 285.222 41.4393 285.222 41.12H281.222ZM286.102 46H294.742V42H286.102V46ZM294.742 46C296.01 46 297.329 45.6816 298.316 44.6942C299.304 43.7069 299.622 42.3883 299.622 41.12H295.622C295.622 41.4393 295.582 41.6373 295.545 41.7475C295.527 41.8007 295.511 41.8312 295.502 41.846C295.494 41.8601 295.489 41.8649 295.488 41.8658C295.487 41.8666 295.482 41.8715 295.468 41.88C295.453 41.8889 295.423 41.9049 295.37 41.9226C295.259 41.9594 295.061 42 294.742 42V46ZM299.622 41.12V26.72H295.622V41.12H299.622ZM352.478 50.696L353.892 52.1102L353.892 52.1102L352.478 50.696ZM318.998 50.696L317.567 52.0935L317.583 52.1103L317.6 52.1268L318.998 50.696ZM318.998 17.216L320.412 18.6302L320.412 18.6302L318.998 17.216ZM352.478 17.216L351.047 18.6135L351.063 18.6303L351.08 18.6468L352.478 17.216ZM353.574 42.2C353.574 45.4009 352.669 47.6765 351.064 49.2818L353.892 52.1102C356.415 49.5875 357.574 46.1991 357.574 42.2H353.574ZM351.064 49.2818C349.515 50.8304 347.27 51.72 344.054 51.72V55.72C348.037 55.72 351.409 54.5936 353.892 52.1102L351.064 49.2818ZM344.054 51.72H327.494V55.72H344.054V51.72ZM327.494 51.72C324.28 51.72 321.998 50.831 320.395 49.2652L317.6 52.1268C320.125 54.593 323.508 55.72 327.494 55.72V51.72ZM320.429 49.2985C318.863 47.6955 317.974 45.414 317.974 42.2H313.974C313.974 46.186 315.101 49.5685 317.567 52.0935L320.429 49.2985ZM317.974 42.2V25.64H313.974V42.2H317.974ZM317.974 25.64C317.974 22.4237 318.863 20.1788 320.412 18.6302L317.584 15.8018C315.1 18.2852 313.974 21.6563 313.974 25.64H317.974ZM320.412 18.6302C322.017 17.0249 324.293 16.12 327.494 16.12V12.12C323.495 12.12 320.106 13.2791 317.584 15.8018L320.412 18.6302ZM327.494 16.12H344.054V12.12H327.494V16.12ZM344.054 16.12C347.257 16.12 349.496 17.0255 351.047 18.6135L353.909 15.8185C351.428 13.2785 348.051 12.12 344.054 12.12V16.12ZM351.08 18.6468C352.668 20.1978 353.574 22.437 353.574 25.64H357.574C357.574 21.643 356.415 18.2662 353.875 15.7852L351.08 18.6468ZM353.574 25.64V42.2H357.574V25.64H353.574ZM344.974 26.72C344.974 25.4517 344.655 24.1331 343.668 23.1458C342.681 22.1584 341.362 21.84 340.094 21.84V25.84C340.413 25.84 340.611 25.8806 340.721 25.9174C340.774 25.9351 340.805 25.9511 340.82 25.96C340.834 25.9684 340.839 25.9734 340.84 25.9742C340.84 25.9751 340.845 25.9799 340.854 25.994C340.863 26.0088 340.879 26.0393 340.896 26.0925C340.933 26.2027 340.974 26.4007 340.974 26.72H344.974ZM340.094 21.84H331.454V25.84H340.094V21.84ZM331.454 21.84C330.185 21.84 328.867 22.1584 327.88 23.1458C326.892 24.1331 326.574 25.4517 326.574 26.72H330.574C330.574 26.4007 330.614 26.2027 330.651 26.0925C330.669 26.0393 330.685 26.0088 330.694 25.994C330.702 25.9799 330.707 25.9751 330.708 25.9742C330.709 25.9734 330.714 25.9685 330.728 25.96C330.743 25.9511 330.773 25.9351 330.826 25.9174C330.936 25.8806 331.134 25.84 331.454 25.84V21.84ZM326.574 26.72V41.12H330.574V26.72H326.574ZM326.574 41.12C326.574 42.3883 326.892 43.7069 327.88 44.6942C328.867 45.6816 330.185 46 331.454 46V42C331.134 42 330.936 41.9594 330.826 41.9226C330.773 41.9049 330.743 41.8889 330.728 41.88C330.714 41.8715 330.709 41.8666 330.708 41.8658C330.707 41.8649 330.702 41.8601 330.694 41.846C330.685 41.8312 330.669 41.8007 330.651 41.7475C330.614 41.6373 330.574 41.4393 330.574 41.12H326.574ZM331.454 46H340.094V42H331.454V46ZM340.094 46C341.362 46 342.681 45.6816 343.668 44.6942C344.655 43.7069 344.974 42.3883 344.974 41.12H340.974C340.974 41.4393 340.933 41.6373 340.896 41.7475C340.879 41.8007 340.863 41.8312 340.854 41.846C340.845 41.8601 340.84 41.8649 340.84 41.8658C340.839 41.8666 340.834 41.8715 340.82 41.88C340.805 41.8889 340.774 41.9049 340.721 41.9226C340.611 41.9594 340.413 42 340.094 42V46ZM344.974 41.12V26.72H340.974V41.12H344.974ZM360.605 42.92L360.753 40.9254L358.605 40.7668V42.92H360.605ZM385.445 43.28L386.86 44.6942L386.86 44.6942L385.445 43.28ZM386.165 38.96H388.165V36.96H386.165V38.96ZM362.837 36.008L364.252 34.5938L364.252 34.5938L362.837 36.008ZM362.837 17.792L364.252 19.2062L362.837 17.792ZM395.165 14.84H397.165V12.84H395.165V14.84ZM395.165 24.2V26.2H397.165V24.2H395.165ZM373.205 24.92L374.62 26.3342L374.62 26.3342L373.205 24.92ZM373.205 28.52L371.791 29.9342L371.791 29.9342L373.205 28.52ZM395.813 32.192L397.228 30.7778L397.228 30.7778L395.813 32.192ZM395.813 50.768L397.228 52.1822L397.228 52.1822L395.813 50.768ZM360.605 52.28H358.605V54.0926L360.409 54.2704L360.605 52.28ZM360.458 44.9146C370.221 45.636 377.957 46 383.645 46V42C378.101 42 370.478 41.644 360.753 40.9254L360.458 44.9146ZM383.645 46C384.86 46 385.98 45.5738 386.86 44.6942L384.031 41.8658C383.951 41.9462 383.871 42 383.645 42V46ZM386.86 44.6942C387.739 43.8146 388.165 42.6947 388.165 41.48H384.165C384.165 41.7053 384.112 41.7854 384.031 41.8658L386.86 44.6942ZM388.165 41.48V38.96H384.165V41.48H388.165ZM386.165 36.96H370.685V40.96H386.165V36.96ZM370.685 36.96C367.853 36.96 365.78 36.1222 364.252 34.5938L361.423 37.4222C363.831 39.8298 366.99 40.96 370.685 40.96V36.96ZM364.252 34.5938C362.723 33.0654 361.885 30.9924 361.885 28.16H357.885C357.885 31.8556 359.016 35.0146 361.423 37.4222L364.252 34.5938ZM361.885 28.16V25.64H357.885V28.16H361.885ZM361.885 25.64C361.885 22.8076 362.723 20.7346 364.252 19.2062L361.423 16.3778C359.016 18.7854 357.885 21.9444 357.885 25.64H361.885ZM364.252 19.2062C365.78 17.6778 367.853 16.84 370.685 16.84V12.84C366.99 12.84 363.831 13.9702 361.423 16.3778L364.252 19.2062ZM370.685 16.84H395.165V12.84H370.685V16.84ZM393.165 14.84V24.2H397.165V14.84H393.165ZM395.165 22.2H375.005V26.2H395.165V22.2ZM375.005 22.2C373.791 22.2 372.671 22.6262 371.791 23.5058L374.62 26.3342C374.7 26.2538 374.78 26.2 375.005 26.2V22.2ZM371.791 23.5058C370.912 24.3854 370.485 25.5053 370.485 26.72H374.485C374.485 26.4947 374.539 26.4146 374.62 26.3342L371.791 23.5058ZM370.485 26.72C370.485 27.9347 370.912 29.0546 371.791 29.9342L374.62 27.1058C374.539 27.0254 374.485 26.9453 374.485 26.72H370.485ZM371.791 29.9342C372.671 30.8138 373.791 31.24 375.005 31.24V27.24C374.78 27.24 374.7 27.1862 374.62 27.1058L371.791 29.9342ZM375.005 31.24H387.965V27.24H375.005V31.24ZM387.965 31.24C390.798 31.24 392.871 32.0778 394.399 33.6062L397.228 30.7778C394.82 28.3702 391.661 27.24 387.965 27.24V31.24ZM394.399 33.6062C395.928 35.1346 396.765 37.2076 396.765 40.04H400.765C400.765 36.3444 399.635 33.1854 397.228 30.7778L394.399 33.6062ZM396.765 40.04V42.92H400.765V40.04H396.765ZM396.765 42.92C396.765 45.7524 395.928 47.8254 394.399 49.3538L397.228 52.1822C399.635 49.7746 400.765 46.6156 400.765 42.92H396.765ZM394.399 49.3538C392.871 50.8822 390.798 51.72 387.965 51.72V55.72C391.661 55.72 394.82 54.5898 397.228 52.1822L394.399 49.3538ZM387.965 51.72C379.544 51.72 370.49 51.2442 360.801 50.2896L360.409 54.2704C370.209 55.2358 379.395 55.72 387.965 55.72V51.72ZM362.605 52.28V42.92H358.605V52.28H362.605ZM415.691 29.96H413.691V31.96H415.691V29.96ZM427.931 29.96V31.96H429.931V29.96H427.931ZM439.091 52.28L439.297 54.2693L441.091 54.0835V52.28H439.091ZM406.043 50.768L404.629 52.1822L404.629 52.1822L406.043 50.768ZM406.115 17.216L407.529 18.6302L407.529 18.6302L406.115 17.216ZM437.435 17.216L436.004 18.6135L436.021 18.6303L436.037 18.6468L437.435 17.216ZM440.531 38.96V40.96H442.531V38.96H440.531ZM415.691 38.96V36.96H413.691V38.96H415.691ZM416.411 43.64L417.825 42.2258L417.825 42.2258L416.411 43.64ZM439.091 43.28H441.091V41.1168L438.934 41.2861L439.091 43.28ZM418.571 21.12C417.303 21.12 415.984 21.4384 414.997 22.4258C414.009 23.4131 413.691 24.7317 413.691 26H417.691C417.691 25.6807 417.732 25.4827 417.768 25.3725C417.786 25.3193 417.802 25.2888 417.811 25.274C417.819 25.2599 417.824 25.2551 417.825 25.2542C417.826 25.2534 417.831 25.2485 417.845 25.24C417.86 25.2311 417.89 25.2151 417.943 25.1974C418.054 25.1606 418.252 25.12 418.571 25.12V21.12ZM413.691 26V29.96H417.691V26H413.691ZM415.691 31.96H427.931V27.96H415.691V31.96ZM429.931 29.96V26H425.931V29.96H429.931ZM429.931 26C429.931 24.7317 429.613 23.4131 428.625 22.4258C427.638 21.4384 426.319 21.12 425.051 21.12V25.12C425.37 25.12 425.568 25.1606 425.678 25.1974C425.732 25.2151 425.762 25.2311 425.777 25.24C425.791 25.2485 425.796 25.2534 425.797 25.2542C425.798 25.2551 425.802 25.2599 425.811 25.274C425.82 25.2888 425.836 25.3193 425.854 25.3725C425.89 25.4827 425.931 25.6807 425.931 26H429.931ZM425.051 21.12H418.571V25.12H425.051V21.12ZM438.885 50.2907C429.674 51.2451 421.344 51.72 413.891 51.72V55.72C421.51 55.72 429.98 55.2349 439.297 54.2693L438.885 50.2907ZM413.891 51.72C411.059 51.72 408.986 50.8822 407.457 49.3538L404.629 52.1822C407.036 54.5898 410.195 55.72 413.891 55.72V51.72ZM407.457 49.3538C405.929 47.8254 405.091 45.7524 405.091 42.92H401.091C401.091 46.6156 402.221 49.7746 404.629 52.1822L407.457 49.3538ZM405.091 42.92V25.64H401.091V42.92H405.091ZM405.091 25.64C405.091 22.4237 405.981 20.1788 407.529 18.6302L404.701 15.8018C402.217 18.2852 401.091 21.6563 401.091 25.64H405.091ZM407.529 18.6302C409.134 17.0249 411.41 16.12 414.611 16.12V12.12C410.612 12.12 407.223 13.2791 404.701 15.8018L407.529 18.6302ZM414.611 16.12H429.011V12.12H414.611V16.12ZM429.011 16.12C432.214 16.12 434.453 17.0255 436.004 18.6135L438.866 15.8185C436.385 13.2785 433.008 12.12 429.011 12.12V16.12ZM436.037 18.6468C437.625 20.1978 438.531 22.437 438.531 25.64H442.531C442.531 21.643 441.372 18.2662 438.832 15.7852L436.037 18.6468ZM438.531 25.64V38.96H442.531V25.64H438.531ZM440.531 36.96H415.691V40.96H440.531V36.96ZM413.691 38.96V41.84H417.691V38.96H413.691ZM413.691 41.84C413.691 43.0547 414.117 44.1746 414.997 45.0542L417.825 42.2258C417.745 42.1454 417.691 42.0653 417.691 41.84H413.691ZM414.997 45.0542C415.876 45.9338 416.996 46.36 418.211 46.36V42.36C417.986 42.36 417.906 42.3062 417.825 42.2258L414.997 45.0542ZM418.211 46.36C423.043 46.36 430.066 45.9949 439.248 45.2739L438.934 41.2861C429.78 42.0051 422.883 42.36 418.211 42.36V46.36ZM437.091 43.28V52.28H441.091V43.28H437.091ZM494.849 41.84L495.421 43.7564L496.849 43.3302V41.84H494.849ZM494.849 14.84V12.84H492.849V14.84H494.849ZM507.449 14.84H509.449V12.84H507.449V14.84ZM507.449 53V55H509.449V53H507.449ZM496.289 53L494.328 53.3922L494.649 55H496.289V53ZM495.569 49.4L497.53 49.0078L496.947 46.0949L494.468 47.7305L495.569 49.4ZM488.585 52.712L489.134 54.635L489.147 54.6314L489.159 54.6277L488.585 52.712ZM471.521 50.768L472.935 49.3538L472.935 49.3538L471.521 50.768ZM468.569 14.84V12.84H466.569V14.84H468.569ZM481.169 14.84H483.169V12.84H481.169V14.84ZM481.889 42.56L483.303 41.1458L483.303 41.1458L481.889 42.56ZM486.209 45.28C488.997 45.28 492.075 44.7553 495.421 43.7564L494.277 39.9236C491.191 40.8447 488.509 41.28 486.209 41.28V45.28ZM496.849 41.84V14.84H492.849V41.84H496.849ZM494.849 16.84H507.449V12.84H494.849V16.84ZM505.449 14.84V53H509.449V14.84H505.449ZM507.449 51H496.289V55H507.449V51ZM498.25 52.6078L497.53 49.0078L493.608 49.7922L494.328 53.3922L498.25 52.6078ZM494.468 47.7305C492.361 49.1196 490.209 50.1365 488.01 50.7963L489.159 54.6277C491.76 53.8475 494.264 52.6564 496.67 51.0695L494.468 47.7305ZM488.035 50.789C485.782 51.4326 483.987 51.72 482.609 51.72V55.72C484.494 55.72 486.683 55.3354 489.134 54.635L488.035 50.789ZM482.609 51.72H479.369V55.72H482.609V51.72ZM479.369 51.72C476.536 51.72 474.463 50.8822 472.935 49.3538L470.107 52.1822C472.514 54.5898 475.673 55.72 479.369 55.72V51.72ZM472.935 49.3538C471.407 47.8254 470.569 45.7524 470.569 42.92H466.569C466.569 46.6156 467.699 49.7746 470.107 52.1822L472.935 49.3538ZM470.569 42.92V14.84H466.569V42.92H470.569ZM468.569 16.84H481.169V12.84H468.569V16.84ZM479.169 14.84V40.76H483.169V14.84H479.169ZM479.169 40.76C479.169 41.9747 479.595 43.0946 480.475 43.9742L483.303 41.1458C483.223 41.0654 483.169 40.9853 483.169 40.76H479.169ZM480.475 43.9742C481.354 44.8538 482.474 45.28 483.689 45.28V41.28C483.463 41.28 483.383 41.2262 483.303 41.1458L480.475 43.9742ZM483.689 45.28H486.209V41.28H483.689V45.28ZM513.183 42.92L513.331 40.9254L511.183 40.7668V42.92H513.183ZM538.023 43.28L539.438 44.6942L539.438 44.6942L538.023 43.28ZM538.743 38.96H540.743V36.96H538.743V38.96ZM515.415 36.008L516.83 34.5938L516.83 34.5938L515.415 36.008ZM515.415 17.792L516.83 19.2062L515.415 17.792ZM547.743 14.84H549.743V12.84H547.743V14.84ZM547.743 24.2V26.2H549.743V24.2H547.743ZM525.783 24.92L527.198 26.3342L527.198 26.3342L525.783 24.92ZM525.783 28.52L524.369 29.9342L524.369 29.9342L525.783 28.52ZM548.391 32.192L549.806 30.7778L549.806 30.7778L548.391 32.192ZM548.391 50.768L549.806 52.1822L549.806 52.1822L548.391 50.768ZM513.183 52.28H511.183V54.0926L512.987 54.2704L513.183 52.28ZM513.036 44.9146C522.799 45.636 530.535 46 536.223 46V42C530.68 42 523.056 41.644 513.331 40.9254L513.036 44.9146ZM536.223 46C537.438 46 538.558 45.5738 539.438 44.6942L536.609 41.8658C536.529 41.9462 536.449 42 536.223 42V46ZM539.438 44.6942C540.317 43.8146 540.743 42.6947 540.743 41.48H536.743C536.743 41.7053 536.69 41.7854 536.609 41.8658L539.438 44.6942ZM540.743 41.48V38.96H536.743V41.48H540.743ZM538.743 36.96H523.263V40.96H538.743V36.96ZM523.263 36.96C520.431 36.96 518.358 36.1222 516.83 34.5938L514.001 37.4222C516.409 39.8298 519.568 40.96 523.263 40.96V36.96ZM516.83 34.5938C515.301 33.0654 514.463 30.9924 514.463 28.16H510.463C510.463 31.8556 511.594 35.0146 514.001 37.4222L516.83 34.5938ZM514.463 28.16V25.64H510.463V28.16H514.463ZM514.463 25.64C514.463 22.8076 515.301 20.7346 516.83 19.2062L514.001 16.3778C511.594 18.7854 510.463 21.9444 510.463 25.64H514.463ZM516.83 19.2062C518.358 17.6778 520.431 16.84 523.263 16.84V12.84C519.568 12.84 516.409 13.9702 514.001 16.3778L516.83 19.2062ZM523.263 16.84H547.743V12.84H523.263V16.84ZM545.743 14.84V24.2H549.743V14.84H545.743ZM547.743 22.2H527.583V26.2H547.743V22.2ZM527.583 22.2C526.369 22.2 525.249 22.6262 524.369 23.5058L527.198 26.3342C527.278 26.2538 527.358 26.2 527.583 26.2V22.2ZM524.369 23.5058C523.49 24.3854 523.063 25.5053 523.063 26.72H527.063C527.063 26.4947 527.117 26.4146 527.198 26.3342L524.369 23.5058ZM523.063 26.72C523.063 27.9347 523.49 29.0546 524.369 29.9342L527.198 27.1058C527.117 27.0254 527.063 26.9453 527.063 26.72H523.063ZM524.369 29.9342C525.249 30.8138 526.369 31.24 527.583 31.24V27.24C527.358 27.24 527.278 27.1862 527.198 27.1058L524.369 29.9342ZM527.583 31.24H540.543V27.24H527.583V31.24ZM540.543 31.24C543.376 31.24 545.449 32.0778 546.977 33.6062L549.806 30.7778C547.398 28.3702 544.239 27.24 540.543 27.24V31.24ZM546.977 33.6062C548.506 35.1346 549.343 37.2076 549.343 40.04H553.343C553.343 36.3444 552.213 33.1854 549.806 30.7778L546.977 33.6062ZM549.343 40.04V42.92H553.343V40.04H549.343ZM549.343 42.92C549.343 45.7524 548.506 47.8254 546.977 49.3538L549.806 52.1822C552.213 49.7746 553.343 46.6156 553.343 42.92H549.343ZM546.977 49.3538C545.449 50.8822 543.376 51.72 540.543 51.72V55.72C544.239 55.72 547.398 54.5898 549.806 52.1822L546.977 49.3538ZM540.543 51.72C532.122 51.72 523.068 51.2442 513.38 50.2896L512.987 54.2704C522.787 55.2358 531.973 55.72 540.543 55.72V51.72ZM515.183 52.28V42.92H511.183V52.28H515.183Z" fill="black" fill-opacity="0.06"/>
</svg>
