<svg width="370" height="47" viewBox="0 0 370 47" fill="none" xmlns="http://www.w3.org/2000/svg">
<path d="M30.5006 2.4L32.4331 1.88467L32.0372 0.399998H30.5006V2.4ZM36.2606 24L34.3282 24.5153L38.2083 24.4545L36.2606 24ZM41.3006 2.4V0.399998H39.7136L39.3529 1.94554L41.3006 2.4ZM50.6606 2.4L52.5908 2.9239L53.2758 0.399998H50.6606V2.4ZM41.5406 36V38H43.0701L43.4708 36.5239L41.5406 36ZM32.4206 36L30.4926 36.5319L30.8976 38H32.4206V36ZM26.6606 15.12L28.5886 14.5881L26.6606 7.59919L24.7326 14.5881L26.6606 15.12ZM20.9006 36V38H22.4236L22.8286 36.5319L20.9006 36ZM11.7806 36L9.85046 36.5239L10.2511 38H11.7806V36ZM2.66062 2.4V0.399998H0.0454035L0.730462 2.9239L2.66062 2.4ZM12.0206 2.4L13.9683 1.94554L13.6077 0.399998H12.0206V2.4ZM17.0606 24L15.1129 24.4545L18.9931 24.5153L17.0606 24ZM22.8206 2.4V0.399998H21.2841L20.8882 1.88467L22.8206 2.4ZM28.5682 2.91532L34.3282 24.5153L38.1931 23.4847L32.4331 1.88467L28.5682 2.91532ZM38.2083 24.4545L43.2483 2.85446L39.3529 1.94554L34.3129 23.5455L38.2083 24.4545ZM41.3006 4.4H50.6606V0.399998H41.3006V4.4ZM48.7305 1.8761L39.6105 35.4761L43.4708 36.5239L52.5908 2.9239L48.7305 1.8761ZM41.5406 34H32.4206V38H41.5406V34ZM34.3486 35.4681L28.5886 14.5881L24.7326 15.6519L30.4926 36.5319L34.3486 35.4681ZM24.7326 14.5881L18.9726 35.4681L22.8286 36.5319L28.5886 15.6519L24.7326 14.5881ZM20.9006 34H11.7806V38H20.9006V34ZM13.7108 35.4761L4.59079 1.8761L0.730462 2.9239L9.85046 36.5239L13.7108 35.4761ZM2.66062 4.4H12.0206V0.399998H2.66062V4.4ZM10.0729 2.85446L15.1129 24.4545L19.0083 23.5455L13.9683 1.94554L10.0729 2.85446ZM18.9931 24.5153L24.7531 2.91532L20.8882 1.88467L15.1282 23.4847L18.9931 24.5153ZM22.8206 4.4H30.5006V0.399998H22.8206V4.4ZM61.0031 11.04H59.0031V13.4944L61.407 12.9988L61.0031 11.04ZM76.5551 12.048L75.1409 13.4622L75.1409 13.4622L76.5551 12.048ZM78.5231 36V38H80.5231V36H78.5231ZM70.1231 36H68.1231V38H70.1231V36ZM63.4031 16.752L63.1551 14.7674L63.1472 14.7684L63.4031 16.752ZM61.0031 17.04L60.7938 15.051L59.0031 15.2395V17.04H61.0031ZM61.0031 36V38H63.0031V36H61.0031ZM52.6031 36H50.6031V38H52.6031V36ZM52.6031 2.4V0.399998H50.6031V2.4H52.6031ZM61.0031 2.4H63.0031V0.399998H61.0031V2.4ZM61.407 12.9988C64.4217 12.3772 67.0011 12.08 69.1631 12.08V8.08C66.6532 8.08 63.7925 8.42279 60.5993 9.0812L61.407 12.9988ZM69.1631 12.08H71.3231V8.08H69.1631V12.08ZM71.3231 12.08C73.0675 12.08 74.2685 12.5898 75.1409 13.4622L77.9693 10.6338C76.2178 8.8822 73.9308 8.08 71.3231 8.08V12.08ZM75.1409 13.4622C76.0133 14.3346 76.5231 15.5356 76.5231 17.28H80.5231C80.5231 14.6724 79.7209 12.3854 77.9693 10.6338L75.1409 13.4622ZM76.5231 17.28V36H80.5231V17.28H76.5231ZM78.5231 34H70.1231V38H78.5231V34ZM72.1231 36V18.24H68.1231V36H72.1231ZM72.1231 18.24C72.1231 17.2653 71.7769 16.3454 71.0573 15.6258L68.2289 18.4542C68.2072 18.4325 68.1718 18.3869 68.1462 18.3228C68.1215 18.261 68.1231 18.2254 68.1231 18.24H72.1231ZM71.0573 15.6258C70.3377 14.9062 69.4179 14.56 68.4431 14.56V18.56C68.4577 18.56 68.4221 18.5617 68.3603 18.537C68.2963 18.5113 68.2506 18.4759 68.2289 18.4542L71.0573 15.6258ZM68.4431 14.56H66.7631V18.56H68.4431V14.56ZM66.7631 14.56C65.4784 14.56 64.2743 14.6275 63.1551 14.7674L63.6512 18.7366C64.5799 18.6205 65.6159 18.56 66.7631 18.56V14.56ZM63.1472 14.7684C62.1623 14.8955 61.3796 14.9893 60.7938 15.051L61.2125 19.029C61.8426 18.9627 62.66 18.8645 63.6591 18.7356L63.1472 14.7684ZM59.0031 17.04V36H63.0031V17.04H59.0031ZM61.0031 34H52.6031V38H61.0031V34ZM54.6031 36V2.4H50.6031V36H54.6031ZM52.6031 4.4H61.0031V0.399998H52.6031V4.4ZM59.0031 2.4V11.04H63.0031V2.4H59.0031ZM83.3175 44.16H81.3175V45.9171L83.0599 46.1433L83.3175 44.16ZM83.3175 37.92V35.92H81.3175V37.92H83.3175ZM89.9895 36.912L88.253 35.9197L88.2348 35.9515L88.2178 35.984L89.9895 36.912ZM89.7975 34.08L87.9525 34.8519L87.9542 34.8561L89.7975 34.08ZM79.9575 10.56V8.56H76.9528L78.1125 11.3319L79.9575 10.56ZM88.8375 10.56L90.7147 9.86987L90.2331 8.56H88.8375V10.56ZM94.8375 26.88L92.9603 27.5701L95.0023 33.1243L96.7484 27.4701L94.8375 26.88ZM99.8775 10.56V8.56H98.4019L97.9666 9.96985L99.8775 10.56ZM108.758 10.56L110.637 11.2435L111.613 8.56H108.758V10.56ZM99.1575 36.96L101.035 37.6492L101.037 37.6435L99.1575 36.96ZM95.5575 42.672L94.2451 41.1628L94.2359 41.1708L94.2268 41.179L95.5575 42.672ZM89.5575 42.64C87.9771 42.64 85.989 42.4902 83.5751 42.1767L83.0599 46.1433C85.574 46.4698 87.7459 46.64 89.5575 46.64V42.64ZM85.3175 44.16V37.92H81.3175V44.16H85.3175ZM83.3175 39.92H87.6375V35.92H83.3175V39.92ZM87.6375 39.92C89.115 39.92 90.8864 39.5101 91.7612 37.84L88.2178 35.984C88.2424 35.9371 88.278 35.8917 88.3171 35.857C88.3539 35.8244 88.3726 35.8199 88.3497 35.8297C88.2888 35.8558 88.0812 35.92 87.6375 35.92V39.92ZM91.726 37.9043C92.5829 36.4047 92.228 34.6985 91.6408 33.3039L87.9542 34.8561C88.1557 35.3345 88.2216 35.6519 88.2341 35.8353C88.2454 36.0024 88.2098 35.9953 88.253 35.9197L91.726 37.9043ZM91.6425 33.3081L81.8025 9.78809L78.1125 11.3319L87.9525 34.8519L91.6425 33.3081ZM79.9575 12.56H88.8375V8.56H79.9575V12.56ZM86.9603 11.2501L92.9603 27.5701L96.7147 26.1899L90.7147 9.86987L86.9603 11.2501ZM96.7484 27.4701L101.788 11.1501L97.9666 9.96985L92.9266 26.2899L96.7484 27.4701ZM99.8775 12.56H108.758V8.56H99.8775V12.56ZM106.878 9.87651L97.2779 36.2765L101.037 37.6435L110.637 11.2435L106.878 9.87651ZM97.28 36.2708C96.4262 38.5968 95.3841 40.1724 94.2451 41.1628L96.8699 44.1812C98.6749 42.6117 100.033 40.3792 101.035 37.6492L97.28 36.2708ZM94.2268 41.179C93.2151 42.0806 91.7373 42.64 89.5575 42.64V46.64C92.4337 46.64 94.9559 45.8874 96.8882 44.165L94.2268 41.179ZM147.163 35.52L147.376 37.5087L149.163 37.3175V35.52H147.163ZM126.091 34.512L124.677 35.9262L124.677 35.9262L126.091 34.512ZM126.139 12.624L127.553 14.0382L127.553 14.0382L126.139 12.624ZM147.163 10.56H149.163V8.56H147.163V10.56ZM147.163 17.04V19.04H149.163V17.04H147.163ZM147.163 29.28H149.163V27.1064L146.997 27.2869L147.163 29.28ZM146.95 33.5313C141.016 34.166 135.81 34.48 131.323 34.48V38.48C135.988 38.48 141.342 38.154 147.376 37.5087L146.95 33.5313ZM131.323 34.48C129.579 34.48 128.378 33.9702 127.505 33.0978L124.677 35.9262C126.428 37.6778 128.715 38.48 131.323 38.48V34.48ZM127.505 33.0978C126.633 32.2254 126.123 31.0244 126.123 29.28H122.123C122.123 31.8876 122.925 34.1746 124.677 35.9262L127.505 33.0978ZM126.123 29.28V18.24H122.123V29.28H126.123ZM126.123 18.24C126.123 16.2237 126.677 14.9148 127.553 14.0382L124.725 11.2098C122.913 13.0212 122.123 15.4563 122.123 18.24H126.123ZM127.553 14.0382C128.471 13.1209 129.802 12.56 131.803 12.56V8.56C129.004 8.56 126.56 9.37508 124.725 11.2098L127.553 14.0382ZM131.803 12.56H147.163V8.56H131.803V12.56ZM145.163 10.56V17.04H149.163V10.56H145.163ZM147.163 15.04H134.443V19.04H147.163V15.04ZM134.443 15.04C133.495 15.04 132.416 15.2784 131.589 16.1058C130.762 16.9331 130.523 18.0117 130.523 18.96H134.523C134.523 18.8826 134.528 18.8279 134.533 18.7928C134.538 18.7579 134.543 18.7462 134.54 18.7525C134.538 18.7593 134.529 18.7838 134.508 18.819C134.487 18.8549 134.456 18.8951 134.417 18.9342C134.378 18.9734 134.338 19.0035 134.302 19.025C134.267 19.0461 134.242 19.0551 134.236 19.0574C134.229 19.0594 134.241 19.0549 134.276 19.0499C134.311 19.0449 134.366 19.04 134.443 19.04V15.04ZM130.523 18.96V28.32H134.523V18.96H130.523ZM130.523 28.32C130.523 29.2947 130.869 30.2146 131.589 30.9342L134.417 28.1058C134.439 28.1275 134.474 28.1731 134.5 28.2372C134.525 28.299 134.523 28.3346 134.523 28.32H130.523ZM131.589 30.9342C132.309 31.6538 133.228 32 134.203 32V28C134.189 28 134.224 27.9983 134.286 28.023C134.35 28.0487 134.396 28.0841 134.417 28.1058L131.589 30.9342ZM134.203 32C137.17 32 141.557 31.7541 147.329 31.2731L146.997 27.2869C141.249 27.7659 136.997 28 134.203 28V32ZM145.163 29.28V35.52H149.163V29.28H145.163ZM159.394 11.04H157.394V13.4944L159.798 12.9988L159.394 11.04ZM174.946 12.048L173.532 13.4622L173.532 13.4622L174.946 12.048ZM176.914 36V38H178.914V36H176.914ZM168.514 36H166.514V38H168.514V36ZM161.794 16.752L161.546 14.7674L161.538 14.7684L161.794 16.752ZM159.394 17.04L159.184 15.051L157.394 15.2395V17.04H159.394ZM159.394 36V38H161.394V36H159.394ZM150.994 36H148.994V38H150.994V36ZM150.994 2.4V0.399998H148.994V2.4H150.994ZM159.394 2.4H161.394V0.399998H159.394V2.4ZM159.798 12.9988C162.812 12.3772 165.392 12.08 167.554 12.08V8.08C165.044 8.08 162.183 8.42279 158.99 9.0812L159.798 12.9988ZM167.554 12.08H169.714V8.08H167.554V12.08ZM169.714 12.08C171.458 12.08 172.659 12.5898 173.532 13.4622L176.36 10.6338C174.608 8.8822 172.321 8.08 169.714 8.08V12.08ZM173.532 13.4622C174.404 14.3346 174.914 15.5356 174.914 17.28H178.914C178.914 14.6724 178.112 12.3854 176.36 10.6338L173.532 13.4622ZM174.914 17.28V36H178.914V17.28H174.914ZM176.914 34H168.514V38H176.914V34ZM170.514 36V18.24H166.514V36H170.514ZM170.514 18.24C170.514 17.2653 170.168 16.3454 169.448 15.6258L166.62 18.4542C166.598 18.4325 166.562 18.3869 166.537 18.3228C166.512 18.261 166.514 18.2254 166.514 18.24H170.514ZM169.448 15.6258C168.728 14.9062 167.808 14.56 166.834 14.56V18.56C166.848 18.56 166.813 18.5617 166.751 18.537C166.687 18.5113 166.641 18.4759 166.62 18.4542L169.448 15.6258ZM166.834 14.56H165.154V18.56H166.834V14.56ZM165.154 14.56C163.869 14.56 162.665 14.6275 161.546 14.7674L162.042 18.7366C162.971 18.6205 164.007 18.56 165.154 18.56V14.56ZM161.538 14.7684C160.553 14.8955 159.77 14.9893 159.184 15.051L159.603 19.029C160.233 18.9627 161.051 18.8645 162.05 18.7356L161.538 14.7684ZM157.394 17.04V36H161.394V17.04H157.394ZM159.394 34H150.994V38H159.394V34ZM152.994 36V2.4H148.994V36H152.994ZM150.994 4.4H159.394V0.399998H150.994V4.4ZM157.394 2.4V11.04H161.394V2.4H157.394ZM205.084 34.464L206.498 35.8782L206.498 35.8782L205.084 34.464ZM182.764 34.464L181.333 35.8615L181.35 35.8783L181.367 35.8948L182.764 34.464ZM182.764 12.144L184.178 13.5582L184.178 13.5582L182.764 12.144ZM205.084 12.144L203.653 13.5415L203.67 13.5583L203.687 13.5748L205.084 12.144ZM205.148 28.8C205.148 30.8009 204.587 32.1325 203.67 33.0498L206.498 35.8782C208.333 34.0435 209.148 31.5991 209.148 28.8H205.148ZM203.67 33.0498C202.793 33.9264 201.484 34.48 199.468 34.48V38.48C202.252 38.48 204.687 37.6896 206.498 35.8782L203.67 33.0498ZM199.468 34.48H188.428V38.48H199.468V34.48ZM188.428 34.48C186.414 34.48 185.077 33.927 184.162 33.0332L181.367 35.8948C183.204 37.689 185.642 38.48 188.428 38.48V34.48ZM184.195 33.0665C183.301 32.1515 182.748 30.814 182.748 28.8H178.748C178.748 31.586 179.539 34.0245 181.333 35.8615L184.195 33.0665ZM182.748 28.8V17.76H178.748V28.8H182.748ZM182.748 17.76C182.748 15.7437 183.302 14.4348 184.178 13.5582L181.35 10.7298C179.538 12.5412 178.748 14.9763 178.748 17.76H182.748ZM184.178 13.5582C185.096 12.6409 186.427 12.08 188.428 12.08V8.08C185.629 8.08 183.185 8.89508 181.35 10.7298L184.178 13.5582ZM188.428 12.08H199.468V8.08H188.428V12.08ZM199.468 12.08C201.471 12.08 202.774 12.6415 203.653 13.5415L206.515 10.7465C204.706 8.89454 202.265 8.08 199.468 8.08V12.08ZM203.687 13.5748C204.587 14.4538 205.148 15.757 205.148 17.76H209.148C209.148 14.963 208.334 12.5222 206.482 10.7132L203.687 13.5748ZM205.148 17.76V28.8H209.148V17.76H205.148ZM200.748 18.48C200.748 17.5317 200.51 16.4531 199.682 15.6258C198.855 14.7984 197.776 14.56 196.828 14.56V18.56C196.906 18.56 196.96 18.5649 196.995 18.5699C197.03 18.5749 197.042 18.5794 197.036 18.5774C197.029 18.5751 197.004 18.5661 196.969 18.545C196.933 18.5235 196.893 18.4934 196.854 18.4542C196.815 18.4151 196.785 18.3749 196.763 18.339C196.742 18.3038 196.733 18.2793 196.731 18.2725C196.729 18.2662 196.733 18.2779 196.738 18.3128C196.743 18.3479 196.748 18.4026 196.748 18.48H200.748ZM196.828 14.56H191.068V18.56H196.828V14.56ZM191.068 14.56C190.12 14.56 189.041 14.7984 188.214 15.6258C187.387 16.4531 187.148 17.5317 187.148 18.48H191.148C191.148 18.4026 191.153 18.3479 191.158 18.3128C191.163 18.2779 191.168 18.2662 191.165 18.2725C191.163 18.2793 191.154 18.3038 191.133 18.339C191.112 18.3749 191.081 18.4151 191.042 18.4542C191.003 18.4934 190.963 18.5235 190.927 18.545C190.892 18.5661 190.867 18.5751 190.861 18.5774C190.854 18.5794 190.866 18.5749 190.901 18.5699C190.936 18.5649 190.991 18.56 191.068 18.56V14.56ZM187.148 18.48V28.08H191.148V18.48H187.148ZM187.148 28.08C187.148 29.0283 187.387 30.1069 188.214 30.9342C189.041 31.7616 190.12 32 191.068 32V28C190.991 28 190.936 27.9951 190.901 27.9901C190.866 27.9851 190.854 27.9806 190.861 27.9826C190.867 27.9849 190.892 27.9939 190.927 28.015C190.963 28.0365 191.003 28.0666 191.042 28.1058C191.081 28.1449 191.112 28.1851 191.133 28.221C191.154 28.2562 191.163 28.2807 191.165 28.2875C191.168 28.2938 191.163 28.2821 191.158 28.2472C191.153 28.2121 191.148 28.1574 191.148 28.08H187.148ZM191.068 32H196.828V28H191.068V32ZM196.828 32C197.776 32 198.855 31.7616 199.682 30.9342C200.51 30.1069 200.748 29.0283 200.748 28.08H196.748C196.748 28.1574 196.743 28.2121 196.738 28.2472C196.733 28.2821 196.729 28.2938 196.731 28.2875C196.733 28.2807 196.742 28.2562 196.763 28.221C196.785 28.1851 196.815 28.1449 196.854 28.1058C196.893 28.0666 196.933 28.0365 196.969 28.015C197.004 27.9939 197.029 27.9849 197.036 27.9826C197.042 27.9806 197.03 27.9851 196.995 27.9901C196.96 27.9951 196.906 28 196.828 28V32ZM200.748 28.08V18.48H196.748V28.08H200.748ZM235.319 34.464L236.733 35.8782L236.733 35.8782L235.319 34.464ZM212.999 34.464L211.568 35.8615L211.584 35.8783L211.601 35.8948L212.999 34.464ZM212.999 12.144L214.413 13.5582L214.413 13.5582L212.999 12.144ZM235.319 12.144L233.888 13.5415L233.904 13.5583L233.921 13.5748L235.319 12.144ZM235.383 28.8C235.383 30.8009 234.822 32.1325 233.904 33.0498L236.733 35.8782C238.567 34.0435 239.383 31.5991 239.383 28.8H235.383ZM233.904 33.0498C233.028 33.9264 231.719 34.48 229.703 34.48V38.48C232.486 38.48 234.921 37.6896 236.733 35.8782L233.904 33.0498ZM229.703 34.48H218.663V38.48H229.703V34.48ZM218.663 34.48C216.649 34.48 215.311 33.927 214.396 33.0332L211.601 35.8948C213.438 37.689 215.876 38.48 218.663 38.48V34.48ZM214.429 33.0665C213.535 32.1515 212.983 30.814 212.983 28.8H208.983C208.983 31.586 209.774 34.0245 211.568 35.8615L214.429 33.0665ZM212.983 28.8V17.76H208.983V28.8H212.983ZM212.983 17.76C212.983 15.7437 213.536 14.4348 214.413 13.5582L211.584 10.7298C209.773 12.5412 208.983 14.9763 208.983 17.76H212.983ZM214.413 13.5582C215.33 12.6409 216.662 12.08 218.663 12.08V8.08C215.863 8.08 213.419 8.89508 211.584 10.7298L214.413 13.5582ZM218.663 12.08H229.703V8.08H218.663V12.08ZM229.703 12.08C231.705 12.08 233.009 12.6415 233.888 13.5415L236.749 10.7465C234.94 8.89454 232.5 8.08 229.703 8.08V12.08ZM233.921 13.5748C234.821 14.4538 235.383 15.757 235.383 17.76H239.383C239.383 14.963 238.568 12.5222 236.716 10.7132L233.921 13.5748ZM235.383 17.76V28.8H239.383V17.76H235.383ZM230.983 18.48C230.983 17.5317 230.744 16.4531 229.917 15.6258C229.089 14.7984 228.011 14.56 227.063 14.56V18.56C227.14 18.56 227.195 18.5649 227.23 18.5699C227.265 18.5749 227.276 18.5794 227.27 18.5774C227.263 18.5751 227.239 18.5661 227.204 18.545C227.168 18.5235 227.127 18.4934 227.088 18.4542C227.049 18.4151 227.019 18.3749 226.998 18.339C226.976 18.3038 226.967 18.2793 226.965 18.2725C226.963 18.2662 226.968 18.2779 226.973 18.3128C226.978 18.3479 226.983 18.4026 226.983 18.48H230.983ZM227.063 14.56H221.303V18.56H227.063V14.56ZM221.303 14.56C220.354 14.56 219.276 14.7984 218.448 15.6258C217.621 16.4531 217.383 17.5317 217.383 18.48H221.383C221.383 18.4026 221.387 18.3479 221.392 18.3128C221.397 18.2779 221.402 18.2662 221.4 18.2725C221.398 18.2793 221.389 18.3038 221.367 18.339C221.346 18.3749 221.316 18.4151 221.277 18.4542C221.238 18.4934 221.197 18.5235 221.161 18.545C221.126 18.5661 221.102 18.5751 221.095 18.5774C221.089 18.5794 221.1 18.5749 221.135 18.5699C221.17 18.5649 221.225 18.56 221.303 18.56V14.56ZM217.383 18.48V28.08H221.383V18.48H217.383ZM217.383 28.08C217.383 29.0283 217.621 30.1069 218.448 30.9342C219.276 31.7616 220.354 32 221.303 32V28C221.225 28 221.17 27.9951 221.135 27.9901C221.1 27.9851 221.089 27.9806 221.095 27.9826C221.102 27.9849 221.126 27.9939 221.161 28.015C221.197 28.0365 221.238 28.0666 221.277 28.1058C221.316 28.1449 221.346 28.1851 221.367 28.221C221.389 28.2562 221.398 28.2807 221.4 28.2875C221.402 28.2938 221.397 28.2821 221.392 28.2472C221.387 28.2121 221.383 28.1574 221.383 28.08H217.383ZM221.303 32H227.063V28H221.303V32ZM227.063 32C228.011 32 229.089 31.7616 229.917 30.9342C230.744 30.1069 230.983 29.0283 230.983 28.08H226.983C226.983 28.1574 226.978 28.2121 226.973 28.2472C226.968 28.2821 226.963 28.2938 226.965 28.2875C226.967 28.2807 226.976 28.2562 226.998 28.221C227.019 28.1851 227.049 28.1449 227.088 28.1058C227.127 28.0666 227.168 28.0365 227.204 28.015C227.239 27.9939 227.263 27.9849 227.27 27.9826C227.276 27.9806 227.265 27.9851 227.23 27.9901C227.195 27.9951 227.14 28 227.063 28V32ZM230.983 28.08V18.48H226.983V28.08H230.983ZM240.737 29.28L240.884 27.2854L238.737 27.1268V29.28H240.737ZM257.297 29.52L258.711 30.9342L258.711 30.9342L257.297 29.52ZM257.777 26.64H259.777V24.64H257.777V26.64ZM242.225 24.672L243.639 23.2578L243.639 23.2578L242.225 24.672ZM242.225 12.528L243.639 13.9422L242.225 12.528ZM263.777 10.56H265.777V8.56H263.777V10.56ZM263.777 16.8V18.8H265.777V16.8H263.777ZM249.137 17.28L250.551 18.6942L250.551 18.6942L249.137 17.28ZM249.137 19.68L247.723 21.0942L247.723 21.0942L249.137 19.68ZM264.209 22.128L265.623 20.7138L265.623 20.7138L264.209 22.128ZM264.209 34.512L265.623 35.9262L265.623 35.9262L264.209 34.512ZM240.737 35.52H238.737V37.3326L240.541 37.5104L240.737 35.52ZM240.589 31.2746C247.104 31.756 252.281 32 256.097 32V28C252.425 28 247.361 27.764 240.884 27.2854L240.589 31.2746ZM256.097 32C257.072 32 257.991 31.6538 258.711 30.9342L255.883 28.1058C255.904 28.0841 255.95 28.0487 256.014 28.023C256.076 27.9983 256.111 28 256.097 28V32ZM258.711 30.9342C259.431 30.2146 259.777 29.2947 259.777 28.32H255.777C255.777 28.3346 255.775 28.299 255.8 28.2372C255.826 28.1731 255.861 28.1275 255.883 28.1058L258.711 30.9342ZM259.777 28.32V26.64H255.777V28.32H259.777ZM257.777 24.64H247.457V28.64H257.777V24.64ZM247.457 24.64C245.713 24.64 244.512 24.1302 243.639 23.2578L240.811 26.0862C242.562 27.8378 244.849 28.64 247.457 28.64V24.64ZM243.639 23.2578C242.767 22.3854 242.257 21.1844 242.257 19.44H238.257C238.257 22.0476 239.059 24.3346 240.811 26.0862L243.639 23.2578ZM242.257 19.44V17.76H238.257V19.44H242.257ZM242.257 17.76C242.257 16.0156 242.767 14.8146 243.639 13.9422L240.811 11.1138C239.059 12.8654 238.257 15.1524 238.257 17.76H242.257ZM243.639 13.9422C244.512 13.0698 245.713 12.56 247.457 12.56V8.56C244.849 8.56 242.562 9.3622 240.811 11.1138L243.639 13.9422ZM247.457 12.56H263.777V8.56H247.457V12.56ZM261.777 10.56V16.8H265.777V10.56H261.777ZM263.777 14.8H250.337V18.8H263.777V14.8ZM250.337 14.8C249.362 14.8 248.442 15.1462 247.723 15.8658L250.551 18.6942C250.529 18.7159 250.484 18.7513 250.42 18.777C250.358 18.8017 250.322 18.8 250.337 18.8V14.8ZM247.723 15.8658C247.003 16.5854 246.657 17.5053 246.657 18.48H250.657C250.657 18.4654 250.659 18.501 250.634 18.5628C250.608 18.6269 250.573 18.6725 250.551 18.6942L247.723 15.8658ZM246.657 18.48C246.657 19.4547 247.003 20.3746 247.723 21.0942L250.551 18.2658C250.573 18.2875 250.608 18.3331 250.634 18.3972C250.659 18.459 250.657 18.4946 250.657 18.48H246.657ZM247.723 21.0942C248.442 21.8138 249.362 22.16 250.337 22.16V18.16C250.322 18.16 250.358 18.1583 250.42 18.183C250.484 18.2087 250.529 18.2441 250.551 18.2658L247.723 21.0942ZM250.337 22.16H258.977V18.16H250.337V22.16ZM258.977 22.16C260.721 22.16 261.922 22.6698 262.795 23.5422L265.623 20.7138C263.872 18.9622 261.585 18.16 258.977 18.16V22.16ZM262.795 23.5422C263.667 24.4146 264.177 25.6156 264.177 27.36H268.177C268.177 24.7524 267.375 22.4654 265.623 20.7138L262.795 23.5422ZM264.177 27.36V29.28H268.177V27.36H264.177ZM264.177 29.28C264.177 31.0244 263.667 32.2254 262.795 33.0978L265.623 35.9262C267.375 34.1746 268.177 31.8876 268.177 29.28H264.177ZM262.795 33.0978C261.922 33.9702 260.721 34.48 258.977 34.48V38.48C261.585 38.48 263.872 37.6778 265.623 35.9262L262.795 33.0978ZM258.977 34.48C253.387 34.48 247.373 34.1642 240.933 33.5296L240.541 37.5104C247.092 38.1558 253.238 38.48 258.977 38.48V34.48ZM242.737 35.52V29.28H238.737V35.52H242.737ZM277.461 20.64H275.461V22.64H277.461V20.64ZM285.621 20.64V22.64H287.621V20.64H285.621ZM293.061 35.52L293.267 37.5093L295.061 37.3235V35.52H293.061ZM271.029 34.512L269.614 35.9262L269.614 35.9262L271.029 34.512ZM271.077 12.144L272.491 13.5582L272.491 13.5582L271.077 12.144ZM291.957 12.144L290.526 13.5415L290.542 13.5583L290.559 13.5748L291.957 12.144ZM294.021 26.64V28.64H296.021V26.64H294.021ZM277.461 26.64V24.64H275.461V26.64H277.461ZM277.941 29.76L279.355 28.3458L279.355 28.3458L277.941 29.76ZM293.061 29.52H295.061V27.3568L292.904 27.5261L293.061 29.52ZM279.381 14.08C278.432 14.08 277.354 14.3184 276.526 15.1458C275.699 15.9731 275.461 17.0517 275.461 18H279.461C279.461 17.9226 279.466 17.8679 279.471 17.8328C279.476 17.7979 279.48 17.7862 279.478 17.7925C279.476 17.7993 279.467 17.8238 279.446 17.859C279.424 17.8949 279.394 17.9351 279.355 17.9742C279.316 18.0134 279.276 18.0435 279.24 18.065C279.204 18.0861 279.18 18.0951 279.173 18.0974C279.167 18.0994 279.179 18.0949 279.213 18.0899C279.249 18.0849 279.303 18.08 279.381 18.08V14.08ZM275.461 18V20.64H279.461V18H275.461ZM277.461 22.64H285.621V18.64H277.461V22.64ZM287.621 20.64V18H283.621V20.64H287.621ZM287.621 18C287.621 17.0517 287.382 15.9731 286.555 15.1458C285.727 14.3184 284.649 14.08 283.701 14.08V18.08C283.778 18.08 283.833 18.0849 283.868 18.0899C283.903 18.0949 283.914 18.0994 283.908 18.0974C283.901 18.0951 283.877 18.0861 283.842 18.065C283.806 18.0435 283.766 18.0134 283.726 17.9742C283.687 17.9351 283.657 17.8949 283.636 17.859C283.615 17.8238 283.606 17.7993 283.603 17.7925C283.601 17.7862 283.606 17.7979 283.611 17.8328C283.616 17.8679 283.621 17.9226 283.621 18H287.621ZM283.701 14.08H279.381V18.08H283.701V14.08ZM292.854 33.5307C286.732 34.1651 281.202 34.48 276.261 34.48V38.48C281.367 38.48 287.038 38.1549 293.267 37.5093L292.854 33.5307ZM276.261 34.48C274.516 34.48 273.315 33.9702 272.443 33.0978L269.614 35.9262C271.366 37.6778 273.653 38.48 276.261 38.48V34.48ZM272.443 33.0978C271.57 32.2254 271.061 31.0244 271.061 29.28H267.061C267.061 31.8876 267.863 34.1746 269.614 35.9262L272.443 33.0978ZM271.061 29.28V17.76H267.061V29.28H271.061ZM271.061 17.76C271.061 15.7437 271.614 14.4348 272.491 13.5582L269.662 10.7298C267.851 12.5412 267.061 14.9763 267.061 17.76H271.061ZM272.491 13.5582C273.408 12.6409 274.74 12.08 276.741 12.08V8.08C273.941 8.08 271.497 8.89508 269.662 10.7298L272.491 13.5582ZM276.741 12.08H286.341V8.08H276.741V12.08ZM286.341 12.08C288.344 12.08 289.647 12.6415 290.526 13.5415L293.387 10.7465C291.578 8.89454 289.138 8.08 286.341 8.08V12.08ZM290.559 13.5748C291.459 14.4538 292.021 15.757 292.021 17.76H296.021C296.021 14.963 295.206 12.5222 293.354 10.7132L290.559 13.5748ZM292.021 17.76V26.64H296.021V17.76H292.021ZM294.021 24.64H277.461V28.64H294.021V24.64ZM275.461 26.64V28.56H279.461V26.64H275.461ZM275.461 28.56C275.461 29.5347 275.807 30.4546 276.526 31.1742L279.355 28.3458C279.377 28.3675 279.412 28.4131 279.438 28.4772C279.462 28.539 279.461 28.5746 279.461 28.56H275.461ZM276.526 31.1742C277.246 31.8938 278.166 32.24 279.141 32.24V28.24C279.126 28.24 279.162 28.2383 279.223 28.263C279.287 28.2887 279.333 28.3241 279.355 28.3458L276.526 31.1742ZM279.141 32.24C282.389 32.24 287.092 31.9949 293.217 31.5139L292.904 27.5261C286.806 28.0051 282.228 28.24 279.141 28.24V32.24ZM291.061 29.52V35.52H295.061V29.52H291.061ZM330.233 28.56L330.805 30.4764L332.233 30.0502V28.56H330.233ZM330.233 10.56V8.56H328.233V10.56H330.233ZM338.633 10.56H340.633V8.56H338.633V10.56ZM338.633 36V38H340.633V36H338.633ZM331.193 36L329.231 36.3922L329.553 38H331.193V36ZM330.713 33.6L332.674 33.2078L332.091 30.2949L329.611 31.9305L330.713 33.6ZM326.057 35.808L326.606 37.731L326.619 37.7274L326.631 37.7237L326.057 35.808ZM314.681 34.512L316.095 33.0978L316.095 33.0978L314.681 34.512ZM312.713 10.56V8.56H310.713V10.56H312.713ZM321.113 10.56H323.113V8.56H321.113V10.56ZM321.593 29.04L323.007 27.6258L323.007 27.6258L321.593 29.04ZM324.473 31.52C326.413 31.52 328.53 31.1553 330.805 30.4764L329.66 26.6436C327.647 27.2447 325.924 27.52 324.473 27.52V31.52ZM332.233 28.56V10.56H328.233V28.56H332.233ZM330.233 12.56H338.633V8.56H330.233V12.56ZM336.633 10.56V36H340.633V10.56H336.633ZM338.633 34H331.193V38H338.633V34ZM333.154 35.6078L332.674 33.2078L328.751 33.9922L329.231 36.3922L333.154 35.6078ZM329.611 31.9305C328.257 32.8236 326.881 33.4725 325.482 33.8923L326.631 37.7237C328.432 37.1835 330.16 36.3604 331.814 35.2695L329.611 31.9305ZM325.507 33.885C324.038 34.3046 322.907 34.48 322.073 34.48V38.48C323.414 38.48 324.939 38.2074 326.606 37.731L325.507 33.885ZM322.073 34.48H319.913V38.48H322.073V34.48ZM319.913 34.48C318.168 34.48 316.967 33.9702 316.095 33.0978L313.266 35.9262C315.018 37.6778 317.305 38.48 319.913 38.48V34.48ZM316.095 33.0978C315.222 32.2254 314.713 31.0244 314.713 29.28H310.713C310.713 31.8876 311.515 34.1746 313.266 35.9262L316.095 33.0978ZM314.713 29.28V10.56H310.713V29.28H314.713ZM312.713 12.56H321.113V8.56H312.713V12.56ZM319.113 10.56V27.84H323.113V10.56H319.113ZM319.113 27.84C319.113 28.8147 319.459 29.7346 320.178 30.4542L323.007 27.6258C323.028 27.6475 323.064 27.6931 323.089 27.7572C323.114 27.819 323.113 27.8546 323.113 27.84H319.113ZM320.178 30.4542C320.898 31.1738 321.818 31.52 322.793 31.52V27.52C322.778 27.52 322.814 27.5183 322.875 27.543C322.939 27.5687 322.985 27.6041 323.007 27.6258L320.178 30.4542ZM322.793 31.52H324.473V27.52H322.793V31.52ZM342.456 29.28L342.603 27.2854L340.456 27.1268V29.28H342.456ZM359.016 29.52L360.43 30.9342L360.43 30.9342L359.016 29.52ZM359.496 26.64H361.496V24.64H359.496V26.64ZM343.944 24.672L345.358 23.2578L345.358 23.2578L343.944 24.672ZM343.944 12.528L345.358 13.9422L343.944 12.528ZM365.496 10.56H367.496V8.56H365.496V10.56ZM365.496 16.8V18.8H367.496V16.8H365.496ZM350.856 17.28L352.27 18.6942L352.27 18.6942L350.856 17.28ZM350.856 19.68L349.441 21.0942L349.441 21.0942L350.856 19.68ZM365.928 22.128L367.342 20.7138L367.342 20.7138L365.928 22.128ZM365.928 34.512L367.342 35.9262L367.342 35.9262L365.928 34.512ZM342.456 35.52H340.456V37.3326L342.26 37.5104L342.456 35.52ZM342.308 31.2746C348.823 31.756 353.999 32 357.816 32V28C354.144 28 349.08 27.764 342.603 27.2854L342.308 31.2746ZM357.816 32C358.79 32 359.71 31.6538 360.43 30.9342L357.601 28.1058C357.623 28.0841 357.669 28.0487 357.733 28.023C357.795 27.9983 357.83 28 357.816 28V32ZM360.43 30.9342C361.149 30.2146 361.496 29.2947 361.496 28.32H357.496C357.496 28.3346 357.494 28.299 357.519 28.2372C357.544 28.1731 357.58 28.1275 357.601 28.1058L360.43 30.9342ZM361.496 28.32V26.64H357.496V28.32H361.496ZM359.496 24.64H349.176V28.64H359.496V24.64ZM349.176 24.64C347.431 24.64 346.23 24.1302 345.358 23.2578L342.529 26.0862C344.281 27.8378 346.568 28.64 349.176 28.64V24.64ZM345.358 23.2578C344.485 22.3854 343.976 21.1844 343.976 19.44H339.976C339.976 22.0476 340.778 24.3346 342.529 26.0862L345.358 23.2578ZM343.976 19.44V17.76H339.976V19.44H343.976ZM343.976 17.76C343.976 16.0156 344.485 14.8146 345.358 13.9422L342.529 11.1138C340.778 12.8654 339.976 15.1524 339.976 17.76H343.976ZM345.358 13.9422C346.23 13.0698 347.431 12.56 349.176 12.56V8.56C346.568 8.56 344.281 9.3622 342.529 11.1138L345.358 13.9422ZM349.176 12.56H365.496V8.56H349.176V12.56ZM363.496 10.56V16.8H367.496V10.56H363.496ZM365.496 14.8H352.056V18.8H365.496V14.8ZM352.056 14.8C351.081 14.8 350.161 15.1462 349.441 15.8658L352.27 18.6942C352.248 18.7159 352.202 18.7513 352.138 18.777C352.077 18.8017 352.041 18.8 352.056 18.8V14.8ZM349.441 15.8658C348.722 16.5854 348.376 17.5053 348.376 18.48H352.376C352.376 18.4654 352.377 18.501 352.353 18.5628C352.327 18.6269 352.292 18.6725 352.27 18.6942L349.441 15.8658ZM348.376 18.48C348.376 19.4547 348.722 20.3746 349.441 21.0942L352.27 18.2658C352.292 18.2875 352.327 18.3331 352.353 18.3972C352.377 18.459 352.376 18.4946 352.376 18.48H348.376ZM349.441 21.0942C350.161 21.8138 351.081 22.16 352.056 22.16V18.16C352.041 18.16 352.077 18.1583 352.138 18.183C352.202 18.2087 352.248 18.2441 352.27 18.2658L349.441 21.0942ZM352.056 22.16H360.696V18.16H352.056V22.16ZM360.696 22.16C362.44 22.16 363.641 22.6698 364.513 23.5422L367.342 20.7138C365.59 18.9622 363.303 18.16 360.696 18.16V22.16ZM364.513 23.5422C365.386 24.4146 365.896 25.6156 365.896 27.36H369.896C369.896 24.7524 369.093 22.4654 367.342 20.7138L364.513 23.5422ZM365.896 27.36V29.28H369.896V27.36H365.896ZM365.896 29.28C365.896 31.0244 365.386 32.2254 364.513 33.0978L367.342 35.9262C369.093 34.1746 369.896 31.8876 369.896 29.28H365.896ZM364.513 33.0978C363.641 33.9702 362.44 34.48 360.696 34.48V38.48C363.303 38.48 365.59 37.6778 367.342 35.9262L364.513 33.0978ZM360.696 34.48C355.106 34.48 349.092 34.1642 342.652 33.5296L342.26 37.5104C348.811 38.1558 354.957 38.48 360.696 38.48V34.48ZM344.456 35.52V29.28H340.456V35.52H344.456Z" fill="black" fill-opacity="0.06"/>
</svg>
