<svg width="1101" height="131" viewBox="0 0 1101 131" fill="none" xmlns="http://www.w3.org/2000/svg">
<path d="M86.5019 2.19999L88.4343 1.68467L88.0384 0.199993H86.5019V2.19999ZM103.782 67L101.849 67.5153L105.73 67.4545L103.782 67ZM118.902 2.19999V0.199993H117.315L116.954 1.74553L118.902 2.19999ZM146.982 2.19999L148.912 2.7239L149.597 0.199993H146.982V2.19999ZM119.622 103V105H121.151L121.552 103.524L119.622 103ZM92.2619 103L90.3339 103.532L90.7389 105H92.2619V103ZM74.9819 40.36L76.9099 39.8281L74.9819 32.8392L73.0539 39.8281L74.9819 40.36ZM57.7019 103V105H59.2249L59.6299 103.532L57.7019 103ZM30.3419 103L28.4117 103.524L28.8124 105H30.3419V103ZM2.98187 2.19999V0.199993H0.366653L1.05171 2.7239L2.98187 2.19999ZM31.0619 2.19999L33.0096 1.74553L32.6489 0.199993H31.0619V2.19999ZM46.1819 67L44.2342 67.4545L48.1143 67.5153L46.1819 67ZM63.4619 2.19999V0.199993H61.9253L61.5294 1.68467L63.4619 2.19999ZM84.5694 2.71532L101.849 67.5153L105.714 66.4847L88.4343 1.68467L84.5694 2.71532ZM105.73 67.4545L120.85 2.65445L116.954 1.74553L101.834 66.5455L105.73 67.4545ZM118.902 4.19999H146.982V0.199993H118.902V4.19999ZM145.052 1.67609L117.692 102.476L121.552 103.524L148.912 2.7239L145.052 1.67609ZM119.622 101H92.2619V105H119.622V101ZM94.1899 102.468L76.9099 39.8281L73.0539 40.8919L90.3339 103.532L94.1899 102.468ZM73.0539 39.8281L55.7739 102.468L59.6299 103.532L76.9099 40.8919L73.0539 39.8281ZM57.7019 101H30.3419V105H57.7019V101ZM32.272 102.476L4.91204 1.67609L1.05171 2.7239L28.4117 103.524L32.272 102.476ZM2.98187 4.19999H31.0619V0.199993H2.98187V4.19999ZM29.1142 2.65445L44.2342 67.4545L48.1296 66.5455L33.0096 1.74553L29.1142 2.65445ZM48.1143 67.5153L65.3943 2.71532L61.5294 1.68467L44.2494 66.4847L48.1143 67.5153ZM63.4619 4.19999H86.5019V0.199993H63.4619V4.19999ZM178.009 28.12H176.009V30.5744L178.413 30.0788L178.009 28.12ZM224.665 31.144L223.251 32.5582L224.665 31.144ZM230.569 103V105H232.569V103H230.569ZM205.369 103H203.369V105H205.369V103ZM185.209 45.256L184.961 43.2714L184.953 43.2724L185.209 45.256ZM178.009 46.12L177.8 44.131L176.009 44.3195V46.12H178.009ZM178.009 103V105H180.009V103H178.009ZM152.809 103H150.809V105H152.809V103ZM152.809 2.19999V0.199993H150.809V2.19999H152.809ZM178.009 2.19999H180.009V0.199993H178.009V2.19999ZM178.413 30.0788C187.636 28.1772 195.655 27.24 202.489 27.24V23.24C195.307 23.24 187.007 24.2228 177.605 26.1612L178.413 30.0788ZM202.489 27.24H208.969V23.24H202.489V27.24ZM208.969 27.24C215.066 27.24 219.755 29.0618 223.251 32.5582L226.08 29.7298C221.704 25.3542 215.929 23.24 208.969 23.24V27.24ZM223.251 32.5582C226.748 36.0546 228.569 40.7436 228.569 46.84H232.569C232.569 39.8803 230.455 34.1054 226.08 29.7298L223.251 32.5582ZM228.569 46.84V103H232.569V46.84H228.569ZM230.569 101H205.369V105H230.569V101ZM207.369 103V49.72H203.369V103H207.369ZM207.369 49.72C207.369 47.7853 206.703 46.0654 205.344 44.7058L202.515 47.5342C203.076 48.0946 203.369 48.7747 203.369 49.72H207.369ZM205.344 44.7058C203.984 43.3462 202.264 42.68 200.329 42.68V46.68C201.275 46.68 201.955 46.9738 202.515 47.5342L205.344 44.7058ZM200.329 42.68H195.289V46.68H200.329V42.68ZM195.289 42.68C191.573 42.68 188.129 42.8755 184.961 43.2714L185.457 47.2406C188.434 46.8685 191.71 46.68 195.289 46.68V42.68ZM184.953 43.2724C181.985 43.6555 179.602 43.9413 177.8 44.131L178.219 48.109C180.065 47.9147 182.482 47.6245 185.465 47.2396L184.953 43.2724ZM176.009 46.12V103H180.009V46.12H176.009ZM178.009 101H152.809V105H178.009V101ZM154.809 103V2.19999H150.809V103H154.809ZM152.809 4.19999H178.009V0.199993H152.809V4.19999ZM176.009 2.19999V28.12H180.009V2.19999H176.009ZM244.952 127.48H242.952V129.237L244.695 129.463L244.952 127.48ZM244.952 108.76V106.76H242.952V108.76H244.952ZM264.969 105.736L263.232 104.744L263.214 104.776L263.197 104.808L264.969 105.736ZM264.392 97.24L262.547 98.0119L262.549 98.0161L264.392 97.24ZM234.872 26.68V24.68H231.868L233.027 27.4519L234.872 26.68ZM261.513 26.68L263.39 25.9899L262.908 24.68H261.513V26.68ZM279.513 75.64L277.635 76.3301L279.677 81.8843L281.423 76.2301L279.513 75.64ZM294.633 26.68V24.68H293.157L292.722 26.0898L294.633 26.68ZM321.272 26.68L323.152 27.3635L324.128 24.68H321.272V26.68ZM292.473 105.88L294.35 106.569L294.352 106.563L292.473 105.88ZM281.673 123.016L280.36 121.507L280.351 121.515L280.342 121.523L281.673 123.016ZM263.673 126.92C258.7 126.92 252.552 126.45 245.21 125.497L244.695 129.463C252.137 130.43 258.469 130.92 263.673 130.92V126.92ZM246.952 127.48V108.76H242.952V127.48H246.952ZM244.952 110.76H257.913V106.76H244.952V110.76ZM257.913 110.76C261.822 110.76 265.161 109.678 266.74 106.664L263.197 104.808C262.664 105.826 261.299 106.76 257.913 106.76V110.76ZM266.705 106.728C268.33 103.885 267.847 100.29 266.236 96.4639L262.549 98.0161C264.01 101.486 263.911 103.555 263.232 104.744L266.705 106.728ZM266.238 96.4681L236.718 25.9081L233.027 27.4519L262.547 98.0119L266.238 96.4681ZM234.872 28.68H261.513V24.68H234.872V28.68ZM259.635 27.3701L277.635 76.3301L281.39 74.9499L263.39 25.9899L259.635 27.3701ZM281.423 76.2301L296.543 27.2701L292.722 26.0898L277.602 75.0499L281.423 76.2301ZM294.633 28.68H321.272V24.68H294.633V28.68ZM319.393 25.9965L290.593 105.197L294.352 106.563L323.152 27.3635L319.393 25.9965ZM290.595 105.191C287.885 112.573 284.443 117.956 280.36 121.507L282.985 124.525C287.734 120.396 291.492 114.355 294.35 106.569L290.595 105.191ZM280.342 121.523C276.386 125.049 270.908 126.92 263.673 126.92V130.92C271.605 130.92 278.127 128.855 283.003 124.509L280.342 121.523ZM436.489 101.56L436.702 103.549L438.489 103.357V101.56H436.489ZM373.273 98.536L371.859 99.9502L373.273 98.536ZM373.417 32.872L374.832 34.2862L373.417 32.872ZM436.489 26.68H438.489V24.68H436.489V26.68ZM436.489 46.12V48.12H438.489V46.12H436.489ZM436.489 82.84H438.489V80.6664L436.323 80.8469L436.489 82.84ZM436.277 99.5713C418.375 101.486 402.608 102.44 388.969 102.44V106.44C402.786 106.44 418.7 105.474 436.702 103.549L436.277 99.5713ZM388.969 102.44C382.873 102.44 378.184 100.618 374.688 97.1218L371.859 99.9502C376.235 104.326 382.01 106.44 388.969 106.44V102.44ZM374.688 97.1218C371.191 93.6254 369.369 88.9364 369.369 82.84H365.369C365.369 89.7996 367.484 95.5746 371.859 99.9502L374.688 97.1218ZM369.369 82.84V49.72H365.369V82.84H369.369ZM369.369 49.72C369.369 42.9037 371.267 37.8508 374.832 34.2862L372.003 31.4578C367.504 35.9572 365.369 42.1363 365.369 49.72H369.369ZM374.832 34.2862C378.501 30.6169 383.608 28.68 390.409 28.68V24.68C382.81 24.68 376.59 26.8711 372.003 31.4578L374.832 34.2862ZM390.409 28.68H436.489V24.68H390.409V28.68ZM434.489 26.68V46.12H438.489V26.68H434.489ZM436.489 44.12H398.329V48.12H436.489V44.12ZM398.329 44.12C396.101 44.12 394.063 44.6784 392.595 46.1458C391.128 47.6131 390.569 49.6517 390.569 51.88H394.569C394.569 50.2683 394.971 49.4268 395.424 48.9742C395.876 48.5216 396.718 48.12 398.329 48.12V44.12ZM390.569 51.88V79.96H394.569V51.88H390.569ZM390.569 79.96C390.569 81.8947 391.236 83.6146 392.595 84.9742L395.424 82.1458C394.863 81.5854 394.569 80.9053 394.569 79.96H390.569ZM392.595 84.9742C393.955 86.3338 395.675 87 397.609 87V83C396.664 83 395.984 82.7062 395.424 82.1458L392.595 84.9742ZM397.609 87C406.336 87 419.363 86.2741 436.655 84.8331L436.323 80.8469C419.055 82.2859 406.163 83 397.609 83V87ZM434.489 82.84V101.56H438.489V82.84H434.489ZM473.181 28.12H471.181V30.5744L473.585 30.0788L473.181 28.12ZM519.837 31.144L518.423 32.5582L519.837 31.144ZM525.741 103V105H527.741V103H525.741ZM500.541 103H498.541V105H500.541V103ZM480.381 45.256L480.133 43.2714L480.125 43.2724L480.381 45.256ZM473.181 46.12L472.972 44.131L471.181 44.3195V46.12H473.181ZM473.181 103V105H475.181V103H473.181ZM447.981 103H445.981V105H447.981V103ZM447.981 2.19999V0.199993H445.981V2.19999H447.981ZM473.181 2.19999H475.181V0.199993H473.181V2.19999ZM473.585 30.0788C482.808 28.1772 490.827 27.24 497.661 27.24V23.24C490.479 23.24 482.179 24.2228 472.777 26.1612L473.585 30.0788ZM497.661 27.24H504.141V23.24H497.661V27.24ZM504.141 27.24C510.238 27.24 514.927 29.0618 518.423 32.5582L521.251 29.7298C516.876 25.3542 511.101 23.24 504.141 23.24V27.24ZM518.423 32.5582C521.919 36.0546 523.741 40.7436 523.741 46.84H527.741C527.741 39.8803 525.627 34.1054 521.251 29.7298L518.423 32.5582ZM523.741 46.84V103H527.741V46.84H523.741ZM525.741 101H500.541V105H525.741V101ZM502.541 103V49.72H498.541V103H502.541ZM502.541 49.72C502.541 47.7853 501.875 46.0654 500.515 44.7058L497.687 47.5342C498.247 48.0946 498.541 48.7747 498.541 49.72H502.541ZM500.515 44.7058C499.156 43.3462 497.436 42.68 495.501 42.68V46.68C496.447 46.68 497.127 46.9738 497.687 47.5342L500.515 44.7058ZM495.501 42.68H490.461V46.68H495.501V42.68ZM490.461 42.68C486.745 42.68 483.3 42.8755 480.133 43.2714L480.629 47.2406C483.606 46.8685 486.882 46.68 490.461 46.68V42.68ZM480.125 43.2724C477.156 43.6555 474.774 43.9413 472.972 44.131L473.391 48.109C475.237 47.9147 477.654 47.6245 480.637 47.2396L480.125 43.2724ZM471.181 46.12V103H475.181V46.12H471.181ZM473.181 101H447.981V105H473.181V101ZM449.981 103V2.19999H445.981V103H449.981ZM447.981 4.19999H473.181V0.199993H447.981V4.19999ZM471.181 2.19999V28.12H475.181V2.19999H471.181ZM610.252 98.392L611.667 99.8062H611.667L610.252 98.392ZM543.292 98.392L541.862 99.7895L541.878 99.8063L541.895 99.8228L543.292 98.392ZM543.292 31.432L544.707 32.8462L543.292 31.432ZM610.252 31.432L608.822 32.8295L608.838 32.8463L608.855 32.8628L610.252 31.432ZM614.444 81.4C614.444 88.2009 612.507 93.3085 608.838 96.9778L611.667 99.8062C616.253 95.2195 618.444 88.9991 618.444 81.4H614.444ZM608.838 96.9778C605.274 100.542 600.221 102.44 593.404 102.44V106.44C600.988 106.44 607.167 104.306 611.667 99.8062L608.838 96.9778ZM593.404 102.44H560.284V106.44H593.404V102.44ZM560.284 102.44C553.47 102.44 548.357 100.543 544.69 96.9613L541.895 99.8228C546.484 104.305 552.698 106.44 560.284 106.44V102.44ZM544.723 96.9945C541.141 93.3275 539.244 88.214 539.244 81.4H535.244C535.244 88.986 537.379 95.2005 541.862 99.7895L544.723 96.9945ZM539.244 81.4V48.28H535.244V81.4H539.244ZM539.244 48.28C539.244 41.4637 541.142 36.4108 544.707 32.8462L541.878 30.0178C537.379 34.5172 535.244 40.6963 535.244 48.28H539.244ZM544.707 32.8462C548.376 29.1769 553.484 27.24 560.284 27.24V23.24C552.685 23.24 546.465 25.4311 541.878 30.0178L544.707 32.8462ZM560.284 27.24H593.404V23.24H560.284V27.24ZM593.404 27.24C600.207 27.24 605.255 29.1775 608.822 32.8295L611.683 30.0345C607.186 25.4305 601.001 23.24 593.404 23.24V27.24ZM608.855 32.8628C612.507 36.4298 614.444 41.477 614.444 48.28H618.444C618.444 40.683 616.254 34.4982 611.65 30.0012L608.855 32.8628ZM614.444 48.28V81.4H618.444V48.28H614.444ZM593.244 50.44C593.244 48.2117 592.686 46.1731 591.219 44.7058C589.751 43.2384 587.713 42.68 585.484 42.68V46.68C587.096 46.68 587.938 47.0816 588.39 47.5342C588.843 47.9868 589.244 48.8283 589.244 50.44H593.244ZM585.484 42.68H568.204V46.68H585.484V42.68ZM568.204 42.68C565.976 42.68 563.938 43.2384 562.47 44.7058C561.003 46.1731 560.444 48.2117 560.444 50.44H564.444C564.444 48.8283 564.846 47.9869 565.299 47.5342C565.751 47.0816 566.593 46.68 568.204 46.68V42.68ZM560.444 50.44V79.24H564.444V50.44H560.444ZM560.444 79.24C560.444 81.4683 561.003 83.5069 562.47 84.9742C563.938 86.4416 565.976 87 568.204 87V83C566.593 83 565.751 82.5984 565.299 82.1458C564.846 81.6931 564.444 80.8517 564.444 79.24H560.444ZM568.204 87H585.484V83H568.204V87ZM585.484 87C587.713 87 589.751 86.4416 591.219 84.9742C592.686 83.5069 593.244 81.4683 593.244 79.24H589.244C589.244 80.8517 588.843 81.6931 588.39 82.1458C587.938 82.5984 587.096 83 585.484 83V87ZM593.244 79.24V50.44H589.244V79.24H593.244ZM700.956 98.392L702.37 99.8062H702.37L700.956 98.392ZM633.995 98.392L632.565 99.7895L632.581 99.8063L632.598 99.8228L633.995 98.392ZM633.995 31.432L635.41 32.8462L633.995 31.432ZM700.956 31.432L699.525 32.8295L699.541 32.8463L699.558 32.8628L700.956 31.432ZM705.148 81.4C705.148 88.2009 703.211 93.3085 699.541 96.9778L702.37 99.8062C706.956 95.2195 709.148 88.9991 709.148 81.4H705.148ZM699.541 96.9778C695.977 100.542 690.924 102.44 684.107 102.44V106.44C691.691 106.44 697.87 104.306 702.37 99.8062L699.541 96.9778ZM684.107 102.44H650.987V106.44H684.107V102.44ZM650.987 102.44C644.174 102.44 639.06 100.543 635.393 96.9613L632.598 99.8228C637.187 104.305 643.401 106.44 650.987 106.44V102.44ZM635.426 96.9945C631.844 93.3275 629.948 88.214 629.948 81.4H625.948C625.948 88.986 628.083 95.2005 632.565 99.7895L635.426 96.9945ZM629.948 81.4V48.28H625.948V81.4H629.948ZM629.948 48.28C629.948 41.4637 631.845 36.4108 635.41 32.8462L632.581 30.0178C628.082 34.5172 625.948 40.6963 625.948 48.28H629.948ZM635.41 32.8462C639.079 29.1769 644.187 27.24 650.987 27.24V23.24C643.388 23.24 637.168 25.4311 632.581 30.0178L635.41 32.8462ZM650.987 27.24H684.107V23.24H650.987V27.24ZM684.107 27.24C690.91 27.24 695.958 29.1775 699.525 32.8295L702.386 30.0345C697.889 25.4305 691.705 23.24 684.107 23.24V27.24ZM699.558 32.8628C703.21 36.4298 705.148 41.477 705.148 48.28H709.148C709.148 40.683 706.957 34.4982 702.353 30.0012L699.558 32.8628ZM705.148 48.28V81.4H709.148V48.28H705.148ZM683.948 50.44C683.948 48.2117 683.389 46.1731 681.922 44.7058C680.454 43.2384 678.416 42.68 676.188 42.68V46.68C677.799 46.68 678.641 47.0816 679.093 47.5342C679.546 47.9868 679.948 48.8283 679.948 50.44H683.948ZM676.188 42.68H658.908V46.68H676.188V42.68ZM658.908 42.68C656.679 42.68 654.641 43.2384 653.173 44.7058C651.706 46.1731 651.148 48.2117 651.148 50.44H655.148C655.148 48.8283 655.549 47.9869 656.002 47.5342C656.454 47.0816 657.296 46.68 658.908 46.68V42.68ZM651.148 50.44V79.24H655.148V50.44H651.148ZM651.148 79.24C651.148 81.4683 651.706 83.5069 653.173 84.9742C654.641 86.4416 656.679 87 658.908 87V83C657.296 83 656.454 82.5984 656.002 82.1458C655.549 81.6931 655.148 80.8517 655.148 79.24H651.148ZM658.908 87H676.188V83H658.908V87ZM676.188 87C678.416 87 680.454 86.4416 681.922 84.9742C683.389 83.5069 683.948 81.4683 683.948 79.24H679.948C679.948 80.8517 679.546 81.6931 679.093 82.1458C678.641 82.5984 677.799 83 676.188 83V87ZM683.948 79.24V50.44H679.948V79.24H683.948ZM717.211 82.84L717.358 80.8454L715.211 80.6868V82.84H717.211ZM766.891 83.56L768.305 84.9742L766.891 83.56ZM768.331 74.92H770.331V72.92H768.331V74.92ZM721.675 69.016L723.089 67.6018L721.675 69.016ZM721.675 32.584L723.089 33.9982L721.675 32.584ZM786.331 26.68H788.331V24.68H786.331V26.68ZM786.331 45.4V47.4H788.331V45.4H786.331ZM742.411 46.84L743.825 48.2542L742.411 46.84ZM742.411 54.04L740.996 55.4542V55.4542L742.411 54.04ZM787.627 61.384L789.041 59.9698L787.627 61.384ZM787.627 98.536L789.041 99.9502L787.627 98.536ZM717.211 101.56H715.211V103.373L717.015 103.55L717.211 101.56ZM717.063 84.8346C736.57 86.276 751.986 87 763.291 87V83C752.131 83 736.827 82.284 717.358 80.8454L717.063 84.8346ZM763.291 87C765.225 87 766.945 86.3338 768.305 84.9742L765.476 82.1458C764.916 82.7062 764.236 83 763.291 83V87ZM768.305 84.9742C769.664 83.6146 770.331 81.8947 770.331 79.96H766.331C766.331 80.9053 766.037 81.5854 765.476 82.1458L768.305 84.9742ZM770.331 79.96V74.92H766.331V79.96H770.331ZM768.331 72.92H737.371V76.92H768.331V72.92ZM737.371 72.92C731.274 72.92 726.585 71.0982 723.089 67.6018L720.26 70.4302C724.636 74.8058 730.411 76.92 737.371 76.92V72.92ZM723.089 67.6018C719.592 64.1054 717.771 59.4164 717.771 53.32H713.771C713.771 60.2796 715.885 66.0546 720.26 70.4302L723.089 67.6018ZM717.771 53.32V48.28H713.771V53.32H717.771ZM717.771 48.28C717.771 42.1836 719.592 37.4946 723.089 33.9982L720.26 31.1698C715.885 35.5454 713.771 41.3204 713.771 48.28H717.771ZM723.089 33.9982C726.585 30.5018 731.274 28.68 737.371 28.68V24.68C730.411 24.68 724.636 26.7942 720.26 31.1698L723.089 33.9982ZM737.371 28.68H786.331V24.68H737.371V28.68ZM784.331 26.68V45.4H788.331V26.68H784.331ZM786.331 43.4H746.011V47.4H786.331V43.4ZM746.011 43.4C744.076 43.4 742.356 44.0662 740.996 45.4258L743.825 48.2542C744.385 47.6938 745.065 47.4 746.011 47.4V43.4ZM740.996 45.4258C739.637 46.7854 738.971 48.5053 738.971 50.44H742.971C742.971 49.4947 743.264 48.8146 743.825 48.2542L740.996 45.4258ZM738.971 50.44C738.971 52.3747 739.637 54.0946 740.996 55.4542L743.825 52.6258C743.264 52.0654 742.971 51.3853 742.971 50.44H738.971ZM740.996 55.4542C742.356 56.8138 744.076 57.48 746.011 57.48V53.48C745.065 53.48 744.385 53.1862 743.825 52.6258L740.996 55.4542ZM746.011 57.48H771.931V53.48H746.011V57.48ZM771.931 57.48C778.027 57.48 782.716 59.3018 786.212 62.7982L789.041 59.9698C784.665 55.5942 778.89 53.48 771.931 53.48V57.48ZM786.212 62.7982C789.709 66.2946 791.531 70.9836 791.531 77.08H795.531C795.531 70.1204 793.416 64.3454 789.041 59.9698L786.212 62.7982ZM791.531 77.08V82.84H795.531V77.08H791.531ZM791.531 82.84C791.531 88.9364 789.709 93.6254 786.212 97.1218L789.041 99.9502C793.416 95.5746 795.531 89.7996 795.531 82.84H791.531ZM786.212 97.1218C782.716 100.618 778.027 102.44 771.931 102.44V106.44C778.89 106.44 784.665 104.326 789.041 99.9502L786.212 97.1218ZM771.931 102.44C755.013 102.44 736.839 101.484 717.407 99.5696L717.015 103.55C736.558 105.476 754.864 106.44 771.931 106.44V102.44ZM719.211 101.56V82.84H715.211V101.56H719.211ZM827.382 56.92H825.382V58.92H827.382V56.92ZM851.862 56.92V58.92H853.862V56.92H851.862ZM874.182 101.56L874.388 103.549L876.182 103.363V101.56H874.182ZM808.086 98.536L806.672 99.9502H806.672L808.086 98.536ZM808.23 31.432L809.644 32.8462L808.23 31.432ZM870.87 31.432L869.439 32.8295L869.456 32.8463L869.472 32.8628L870.87 31.432ZM877.062 74.92V76.92H879.062V74.92H877.062ZM827.382 74.92V72.92H825.382V74.92H827.382ZM828.822 84.28L830.236 82.8658L828.822 84.28ZM874.182 83.56H876.182V81.3968L874.025 81.5661L874.182 83.56ZM833.142 41.24C830.914 41.24 828.875 41.7984 827.408 43.2658C825.94 44.7331 825.382 46.7717 825.382 49H829.382C829.382 47.3883 829.783 46.5469 830.236 46.0942C830.689 45.6416 831.53 45.24 833.142 45.24V41.24ZM825.382 49V56.92H829.382V49H825.382ZM827.382 58.92H851.862V54.92H827.382V58.92ZM853.862 56.92V49H849.862V56.92H853.862ZM853.862 49C853.862 46.7717 853.303 44.7331 851.836 43.2658C850.369 41.7984 848.33 41.24 846.102 41.24V45.24C847.714 45.24 848.555 45.6416 849.008 46.0942C849.46 46.5469 849.862 47.3883 849.862 49H853.862ZM846.102 41.24H833.142V45.24H846.102V41.24ZM873.976 99.5706C855.501 101.485 838.771 102.44 823.782 102.44V106.44C838.937 106.44 855.807 105.475 874.388 103.549L873.976 99.5706ZM823.782 102.44C817.686 102.44 812.997 100.618 809.5 97.1218L806.672 99.9502C811.047 104.326 816.822 106.44 823.782 106.44V102.44ZM809.5 97.1218C806.004 93.6254 804.182 88.9364 804.182 82.84H800.182C800.182 89.7996 802.296 95.5746 806.672 99.9502L809.5 97.1218ZM804.182 82.84V48.28H800.182V82.84H804.182ZM804.182 48.28C804.182 41.4637 806.08 36.4108 809.644 32.8462L806.816 30.0178C802.316 34.5172 800.182 40.6963 800.182 48.28H804.182ZM809.644 32.8462C813.313 29.1769 818.421 27.24 825.222 27.24V23.24C817.623 23.24 811.402 25.4311 806.816 30.0178L809.644 32.8462ZM825.222 27.24H854.022V23.24H825.222V27.24ZM854.022 27.24C860.825 27.24 865.872 29.1775 869.439 32.8295L872.301 30.0345C867.804 25.4305 861.619 23.24 854.022 23.24V27.24ZM869.472 32.8628C873.124 36.4298 875.062 41.477 875.062 48.28H879.062C879.062 40.683 876.871 34.4982 872.267 30.0012L869.472 32.8628ZM875.062 48.28V74.92H879.062V48.28H875.062ZM877.062 72.92H827.382V76.92H877.062V72.92ZM825.382 74.92V80.68H829.382V74.92H825.382ZM825.382 80.68C825.382 82.6147 826.048 84.3346 827.408 85.6942L830.236 82.8658C829.676 82.3054 829.382 81.6253 829.382 80.68H825.382ZM827.408 85.6942C828.767 87.0538 830.487 87.72 832.422 87.72V83.72C831.477 83.72 830.797 83.4262 830.236 82.8658L827.408 85.6942ZM832.422 87.72C842.006 87.72 855.989 86.9949 874.338 85.5539L874.025 81.5661C855.703 83.0051 841.846 83.72 832.422 83.72V87.72ZM872.182 83.56V101.56H876.182V83.56H872.182ZM985.698 80.68L986.27 82.5964L987.698 82.1702V80.68H985.698ZM985.698 26.68V24.68H983.698V26.68H985.698ZM1010.9 26.68H1012.9V24.68H1010.9V26.68ZM1010.9 103V105H1012.9V103H1010.9ZM988.578 103L986.616 103.392L986.938 105H988.578V103ZM987.138 95.8L989.099 95.4078L988.516 92.4949L986.036 94.1305L987.138 95.8ZM973.169 102.424L973.719 104.347L973.732 104.343L973.744 104.34L973.169 102.424ZM939.042 98.536L940.456 97.1218L939.042 98.536ZM933.138 26.68V24.68H931.138V26.68H933.138ZM958.338 26.68H960.338V24.68H958.338V26.68ZM959.778 82.12L961.192 80.7058V80.7058L959.778 82.12ZM968.417 85.56C973.75 85.56 979.707 84.5553 986.27 82.5964L985.125 78.7636C978.824 80.6447 973.261 81.56 968.417 81.56V85.56ZM987.698 80.68V26.68H983.698V80.68H987.698ZM985.698 28.68H1010.9V24.68H985.698V28.68ZM1008.9 26.68V103H1012.9V26.68H1008.9ZM1010.9 101H988.578V105H1010.9V101ZM990.539 102.608L989.099 95.4078L985.176 96.1922L986.616 103.392L990.539 102.608ZM986.036 94.1305C981.674 97.0076 977.194 99.1285 972.595 100.508L973.744 104.34C978.745 102.839 983.577 100.544 988.239 97.4695L986.036 94.1305ZM972.62 100.501C968.015 101.817 964.228 102.44 961.218 102.44V106.44C964.735 106.44 968.916 105.719 973.719 104.347L972.62 100.501ZM961.218 102.44H954.737V106.44H961.218V102.44ZM954.737 102.44C948.641 102.44 943.952 100.618 940.456 97.1218L937.627 99.9502C942.003 104.326 947.778 106.44 954.737 106.44V102.44ZM940.456 97.1218C936.959 93.6254 935.138 88.9364 935.138 82.84H931.138C931.138 89.7996 933.252 95.5746 937.627 99.9502L940.456 97.1218ZM935.138 82.84V26.68H931.138V82.84H935.138ZM933.138 28.68H958.338V24.68H933.138V28.68ZM956.338 26.68V78.52H960.338V26.68H956.338ZM956.338 78.52C956.338 80.4547 957.004 82.1746 958.363 83.5342L961.192 80.7058C960.631 80.1454 960.338 79.4653 960.338 78.52H956.338ZM958.363 83.5342C959.723 84.8938 961.443 85.56 963.378 85.56V81.56C962.432 81.56 961.752 81.2662 961.192 80.7058L958.363 83.5342ZM963.378 85.56H968.417V81.56H963.378V85.56ZM1022.37 82.84L1022.51 80.8454L1020.37 80.6868V82.84H1022.37ZM1072.05 83.56L1073.46 84.9742L1072.05 83.56ZM1073.49 74.92H1075.49V72.92H1073.49V74.92ZM1026.83 69.016L1028.25 67.6018L1026.83 69.016ZM1026.83 32.584L1028.25 33.9982L1026.83 32.584ZM1091.49 26.68H1093.49V24.68H1091.49V26.68ZM1091.49 45.4V47.4H1093.49V45.4H1091.49ZM1047.57 46.84L1048.98 48.2542L1047.57 46.84ZM1047.57 54.04L1046.15 55.4542V55.4542L1047.57 54.04ZM1092.78 61.384L1094.2 59.9698L1092.78 61.384ZM1092.78 98.536L1094.2 99.9502L1092.78 98.536ZM1022.37 101.56H1020.37V103.373L1022.17 103.55L1022.37 101.56ZM1022.22 84.8346C1041.73 86.276 1057.14 87 1068.45 87V83C1057.29 83 1041.98 82.284 1022.51 80.8454L1022.22 84.8346ZM1068.45 87C1070.38 87 1072.1 86.3338 1073.46 84.9742L1070.63 82.1458C1070.07 82.7062 1069.39 83 1068.45 83V87ZM1073.46 84.9742C1074.82 83.6146 1075.49 81.8947 1075.49 79.96H1071.49C1071.49 80.9053 1071.19 81.5854 1070.63 82.1458L1073.46 84.9742ZM1075.49 79.96V74.92H1071.49V79.96H1075.49ZM1073.49 72.92H1042.53V76.92H1073.49V72.92ZM1042.53 72.92C1036.43 72.92 1031.74 71.0982 1028.25 67.6018L1025.42 70.4302C1029.79 74.8058 1035.57 76.92 1042.53 76.92V72.92ZM1028.25 67.6018C1024.75 64.1054 1022.93 59.4164 1022.93 53.32H1018.93C1018.93 60.2796 1021.04 66.0546 1025.42 70.4302L1028.25 67.6018ZM1022.93 53.32V48.28H1018.93V53.32H1022.93ZM1022.93 48.28C1022.93 42.1836 1024.75 37.4946 1028.25 33.9982L1025.42 31.1698C1021.04 35.5454 1018.93 41.3204 1018.93 48.28H1022.93ZM1028.25 33.9982C1031.74 30.5018 1036.43 28.68 1042.53 28.68V24.68C1035.57 24.68 1029.79 26.7942 1025.42 31.1698L1028.25 33.9982ZM1042.53 28.68H1091.49V24.68H1042.53V28.68ZM1089.49 26.68V45.4H1093.49V26.68H1089.49ZM1091.49 43.4H1051.17V47.4H1091.49V43.4ZM1051.17 43.4C1049.23 43.4 1047.51 44.0662 1046.15 45.4258L1048.98 48.2542C1049.54 47.6938 1050.22 47.4 1051.17 47.4V43.4ZM1046.15 45.4258C1044.79 46.7854 1044.13 48.5053 1044.13 50.44H1048.13C1048.13 49.4947 1048.42 48.8146 1048.98 48.2542L1046.15 45.4258ZM1044.13 50.44C1044.13 52.3747 1044.79 54.0946 1046.15 55.4542L1048.98 52.6258C1048.42 52.0654 1048.13 51.3853 1048.13 50.44H1044.13ZM1046.15 55.4542C1047.51 56.8138 1049.23 57.48 1051.17 57.48V53.48C1050.22 53.48 1049.54 53.1862 1048.98 52.6258L1046.15 55.4542ZM1051.17 57.48H1077.09V53.48H1051.17V57.48ZM1077.09 57.48C1083.18 57.48 1087.87 59.3018 1091.37 62.7982L1094.2 59.9698C1089.82 55.5942 1084.05 53.48 1077.09 53.48V57.48ZM1091.37 62.7982C1094.87 66.2946 1096.69 70.9836 1096.69 77.08H1100.69C1100.69 70.1204 1098.57 64.3454 1094.2 59.9698L1091.37 62.7982ZM1096.69 77.08V82.84H1100.69V77.08H1096.69ZM1096.69 82.84C1096.69 88.9364 1094.87 93.6254 1091.37 97.1218L1094.2 99.9502C1098.57 95.5746 1100.69 89.7996 1100.69 82.84H1096.69ZM1091.37 97.1218C1087.87 100.618 1083.18 102.44 1077.09 102.44V106.44C1084.05 106.44 1089.82 104.326 1094.2 99.9502L1091.37 97.1218ZM1077.09 102.44C1060.17 102.44 1042 101.484 1022.56 99.5696L1022.17 103.55C1041.71 105.476 1060.02 106.44 1077.09 106.44V102.44ZM1024.37 101.56V82.84H1020.37V101.56H1024.37Z" fill="black" fill-opacity="0.06"/>
</svg>
