<svg width="736" height="90" viewBox="0 0 736 90" fill="none" xmlns="http://www.w3.org/2000/svg">
<path d="M59.0013 2.8L60.9337 2.28467L60.5378 0.799995H59.0013V2.8ZM70.5213 46L68.5888 46.5153L72.4689 46.4545L70.5213 46ZM80.6013 2.8V0.799995H79.0142L78.6536 2.34554L80.6013 2.8ZM99.3213 2.8L101.251 3.3239L101.936 0.799995H99.3213V2.8ZM81.0813 70V72H82.6108L83.0114 70.5239L81.0813 70ZM62.8413 70L60.9133 70.5319L61.3183 72H62.8413V70ZM51.3213 28.24L53.2492 27.7081L51.3213 20.7192L49.3933 27.7081L51.3213 28.24ZM39.8013 70V72H41.3242L41.7292 70.5319L39.8013 70ZM21.5613 70L19.6311 70.5239L20.0317 72H21.5613V70ZM3.32125 2.8V0.799995H0.706028L1.39109 3.3239L3.32125 2.8ZM22.0413 2.8L23.9889 2.34554L23.6283 0.799995H22.0413V2.8ZM32.1213 46L30.1736 46.4545L34.0537 46.5153L32.1213 46ZM43.6413 2.8V0.799995H42.1047L41.7088 2.28467L43.6413 2.8ZM57.0688 3.31532L68.5888 46.5153L72.4537 45.4847L60.9337 2.28467L57.0688 3.31532ZM72.4689 46.4545L82.5489 3.25445L78.6536 2.34554L68.5736 45.5455L72.4689 46.4545ZM80.6013 4.8H99.3213V0.799995H80.6013V4.8ZM97.3911 2.27609L79.1511 69.4761L83.0114 70.5239L101.251 3.3239L97.3911 2.27609ZM81.0813 68H62.8413V72H81.0813V68ZM64.7692 69.4681L53.2492 27.7081L49.3933 28.7719L60.9133 70.5319L64.7692 69.4681ZM49.3933 27.7081L37.8733 69.4681L41.7292 70.5319L53.2492 28.7719L49.3933 27.7081ZM39.8013 68H21.5613V72H39.8013V68ZM23.4914 69.4761L5.25141 2.27609L1.39109 3.3239L19.6311 70.5239L23.4914 69.4761ZM3.32125 4.8H22.0413V0.799995H3.32125V4.8ZM20.0936 3.25445L30.1736 46.4545L34.0689 45.5455L23.9889 2.34554L20.0936 3.25445ZM34.0537 46.5153L45.5737 3.31532L41.7088 2.28467L30.1888 45.4847L34.0537 46.5153ZM43.6413 4.8H59.0013V0.799995H43.6413V4.8ZM120.006 20.08H118.006V22.5344L120.41 22.0388L120.006 20.08ZM151.11 22.096L149.696 23.5102L149.696 23.5102L151.11 22.096ZM155.046 70V72H157.046V70H155.046ZM138.246 70H136.246V72H138.246V70ZM124.806 31.504L124.558 29.5194L124.55 29.5204L124.806 31.504ZM120.006 32.08L119.797 30.091L118.006 30.2795V32.08H120.006ZM120.006 70V72H122.006V70H120.006ZM103.206 70H101.206V72H103.206V70ZM103.206 2.8V0.799995H101.206V2.8H103.206ZM120.006 2.8H122.006V0.799995H120.006V2.8ZM120.41 22.0388C126.529 20.7772 131.828 20.16 136.326 20.16V16.16C131.48 16.16 125.9 16.8228 119.602 18.1212L120.41 22.0388ZM136.326 20.16H140.646V16.16H136.326V20.16ZM140.646 20.16C144.567 20.16 147.512 21.3258 149.696 23.5102L152.524 20.6818C149.461 17.6182 145.43 16.16 140.646 16.16V20.16ZM149.696 23.5102C151.88 25.6946 153.046 28.6396 153.046 32.56H157.046C157.046 27.7764 155.588 23.7454 152.524 20.6818L149.696 23.5102ZM153.046 32.56V70H157.046V32.56H153.046ZM155.046 68H138.246V72H155.046V68ZM140.246 70V34.48H136.246V70H140.246ZM140.246 34.48C140.246 33.0253 139.74 31.7054 138.7 30.6658L135.872 33.4942C136.112 33.7346 136.246 34.0147 136.246 34.48H140.246ZM138.7 30.6658C137.661 29.6262 136.341 29.12 134.886 29.12V33.12C135.352 33.12 135.632 33.2538 135.872 33.4942L138.7 30.6658ZM134.886 29.12H131.526V33.12H134.886V29.12ZM131.526 29.12C129.025 29.12 126.701 29.2515 124.558 29.5194L125.054 33.4886C127.007 33.2445 129.163 33.12 131.526 33.12V29.12ZM124.55 29.5204C122.573 29.7755 120.991 29.9653 119.797 30.091L120.216 34.069C121.454 33.9387 123.071 33.7445 125.062 33.4876L124.55 29.5204ZM118.006 32.08V70H122.006V32.08H118.006ZM120.006 68H103.206V72H120.006V68ZM105.206 70V2.8H101.206V70H105.206ZM103.206 4.8H120.006V0.799995H103.206V4.8ZM118.006 2.8V20.08H122.006V2.8H118.006ZM164.635 86.32H162.635V88.0771L164.377 88.3033L164.635 86.32ZM164.635 73.84V71.84H162.635V73.84H164.635ZM177.979 71.824L176.243 70.8317L176.224 70.8635L176.207 70.896L177.979 71.824ZM177.595 66.16L175.75 66.9319L175.752 66.9361L177.595 66.16ZM157.915 19.12V17.12H154.91L156.07 19.8919L157.915 19.12ZM175.675 19.12L177.552 18.4299L177.071 17.12H175.675V19.12ZM187.675 51.76L185.798 52.4501L187.84 58.0043L189.586 52.3501L187.675 51.76ZM197.755 19.12V17.12H196.279L195.844 18.5299L197.755 19.12ZM215.515 19.12L217.395 19.8035L218.37 17.12H215.515V19.12ZM196.315 71.92L198.193 72.6092L198.195 72.6035L196.315 71.92ZM189.115 83.344L187.803 81.8348L187.793 81.8428L187.784 81.851L189.115 83.344ZM177.115 85.28C173.839 85.28 169.771 84.9702 164.893 84.3367L164.377 88.3033C169.355 88.9498 173.607 89.28 177.115 89.28V85.28ZM166.635 86.32V73.84H162.635V86.32H166.635ZM164.635 75.84H173.275V71.84H164.635V75.84ZM173.275 75.84C175.968 75.84 178.524 75.0941 179.751 72.752L176.207 70.896C176.026 71.2419 175.446 71.84 173.275 71.84V75.84ZM179.715 72.8163C180.956 70.6447 180.537 67.9945 179.438 65.3839L175.752 66.9361C176.701 69.1895 176.538 70.3153 176.243 70.8317L179.715 72.8163ZM179.44 65.3881L159.76 18.3481L156.07 19.8919L175.75 66.9319L179.44 65.3881ZM157.915 21.12H175.675V17.12H157.915V21.12ZM173.798 19.8101L185.798 52.4501L189.552 51.0699L177.552 18.4299L173.798 19.8101ZM189.586 52.3501L199.666 19.7101L195.844 18.5299L185.764 51.1699L189.586 52.3501ZM197.755 21.12H215.515V17.12H197.755V21.12ZM213.635 18.4365L194.435 71.2365L198.195 72.6035L217.395 19.8035L213.635 18.4365ZM194.438 71.2308C192.656 76.0848 190.414 79.5644 187.803 81.8348L190.427 84.8532C193.704 82.0037 196.262 77.8672 198.192 72.6092L194.438 71.2308ZM187.784 81.851C185.301 84.0646 181.823 85.28 177.115 85.28V89.28C182.519 89.28 187.041 87.8714 190.446 84.837L187.784 81.851ZM292.326 69.04L292.539 71.0287L294.326 70.8375V69.04H292.326ZM250.182 67.024L248.768 68.4382L248.768 68.4382L250.182 67.024ZM250.278 23.248L251.692 24.6622L251.692 24.6622L250.278 23.248ZM292.326 19.12H294.326V17.12H292.326V19.12ZM292.326 32.08V34.08H294.326V32.08H292.326ZM292.326 56.56H294.326V54.3864L292.16 54.5669L292.326 56.56ZM292.114 67.0513C280.196 68.326 269.709 68.96 260.646 68.96V72.96C269.887 72.96 280.521 72.314 292.539 71.0287L292.114 67.0513ZM260.646 68.96C256.726 68.96 253.781 67.7942 251.596 65.6098L248.768 68.4382C251.832 71.5018 255.863 72.96 260.646 72.96V68.96ZM251.596 65.6098C249.412 63.4254 248.246 60.4804 248.246 56.56H244.246C244.246 61.3436 245.704 65.3746 248.768 68.4382L251.596 65.6098ZM248.246 56.56V34.48H244.246V56.56H248.246ZM248.246 34.48C248.246 30.0637 249.472 26.8828 251.692 24.6622L248.864 21.8338C245.709 24.9892 244.246 29.2963 244.246 34.48H248.246ZM251.692 24.6622C253.986 22.3689 257.205 21.12 261.606 21.12V17.12C256.407 17.12 252.075 18.6231 248.864 21.8338L251.692 24.6622ZM261.606 21.12H292.326V17.12H261.606V21.12ZM290.326 19.12V32.08H294.326V19.12H290.326ZM292.326 30.08H266.886V34.08H292.326V30.08ZM266.886 30.08C265.298 30.08 263.739 30.4784 262.592 31.6258C261.445 32.7731 261.046 34.3317 261.046 35.92H265.046C265.046 34.9483 265.288 34.5869 265.42 34.4542C265.553 34.3216 265.915 34.08 266.886 34.08V30.08ZM261.046 35.92V54.64H265.046V35.92H261.046ZM261.046 54.64C261.046 56.0947 261.552 57.4146 262.592 58.4542L265.42 55.6258C265.18 55.3854 265.046 55.1053 265.046 54.64H261.046ZM262.592 58.4542C263.632 59.4938 264.952 60 266.406 60V56C265.941 56 265.661 55.8662 265.42 55.6258L262.592 58.4542ZM266.406 60C272.253 60 280.96 59.5141 292.492 58.5531L292.16 54.5669C280.652 55.5259 272.08 56 266.406 56V60ZM290.326 56.56V69.04H294.326V56.56H290.326ZM316.788 20.08H314.788V22.5344L317.191 22.0388L316.788 20.08ZM347.892 22.096L346.477 23.5102L346.477 23.5102L347.892 22.096ZM351.828 70V72H353.828V70H351.828ZM335.028 70H333.028V72H335.028V70ZM321.588 31.504L321.339 29.5194L321.332 29.5204L321.588 31.504ZM316.788 32.08L316.578 30.091L314.788 30.2795V32.08H316.788ZM316.788 70V72H318.788V70H316.788ZM299.988 70H297.988V72H299.988V70ZM299.988 2.8V0.799995H297.988V2.8H299.988ZM316.788 2.8H318.788V0.799995H316.788V2.8ZM317.191 22.0388C323.31 20.7772 328.609 20.16 333.108 20.16V16.16C328.262 16.16 322.681 16.8228 316.384 18.1212L317.191 22.0388ZM333.108 20.16H337.428V16.16H333.108V20.16ZM337.428 20.16C341.348 20.16 344.293 21.3258 346.477 23.5102L349.306 20.6818C346.242 17.6182 342.211 16.16 337.428 16.16V20.16ZM346.477 23.5102C348.662 25.6946 349.828 28.6396 349.828 32.56H353.828C353.828 27.7764 352.369 23.7454 349.306 20.6818L346.477 23.5102ZM349.828 32.56V70H353.828V32.56H349.828ZM351.828 68H335.028V72H351.828V68ZM337.028 70V34.48H333.028V70H337.028ZM337.028 34.48C337.028 33.0253 336.521 31.7054 335.482 30.6658L332.653 33.4942C332.894 33.7346 333.028 34.0147 333.028 34.48H337.028ZM335.482 30.6658C334.442 29.6262 333.122 29.12 331.668 29.12V33.12C332.133 33.12 332.413 33.2538 332.653 33.4942L335.482 30.6658ZM331.668 29.12H328.308V33.12H331.668V29.12ZM328.308 29.12C325.807 29.12 323.483 29.2515 321.339 29.5194L321.836 33.4886C323.788 33.2445 325.944 33.12 328.308 33.12V29.12ZM321.332 29.5204C319.355 29.7755 317.772 29.9653 316.578 30.091L316.997 34.069C318.235 33.9387 319.852 33.7445 321.843 33.4876L321.332 29.5204ZM314.788 32.08V70H318.788V32.08H314.788ZM316.788 68H299.988V72H316.788V68ZM301.988 70V2.8H297.988V70H301.988ZM299.988 4.8H316.788V0.799995H299.988V4.8ZM314.788 2.8V20.08H318.788V2.8H314.788ZM408.168 66.928L409.582 68.3422L409.582 68.3422L408.168 66.928ZM363.528 66.928L362.097 68.3255L362.114 68.3423L362.131 68.3588L363.528 66.928ZM363.528 22.288L364.942 23.7022L364.942 23.7022L363.528 22.288ZM408.168 22.288L406.738 23.6855L406.754 23.7023L406.771 23.7188L408.168 22.288ZM410.296 55.6C410.296 60.0009 409.047 63.2205 406.754 65.5138L409.582 68.3422C412.793 65.1315 414.296 60.7991 414.296 55.6H410.296ZM406.754 65.5138C404.533 67.7344 401.353 68.96 396.936 68.96V72.96C402.12 72.96 406.427 71.4976 409.582 68.3422L406.754 65.5138ZM396.936 68.96H374.856V72.96H396.936V68.96ZM374.856 68.96C370.442 68.96 367.217 67.735 364.926 65.4972L362.131 68.3588C365.344 71.497 369.67 72.96 374.856 72.96V68.96ZM364.959 65.5305C362.721 63.2395 361.496 60.014 361.496 55.6H357.496C357.496 60.786 358.959 65.1125 362.097 68.3255L364.959 65.5305ZM361.496 55.6V33.52H357.496V55.6H361.496ZM361.496 33.52C361.496 29.1037 362.722 25.9228 364.942 23.7022L362.114 20.8738C358.959 24.0292 357.496 28.3363 357.496 33.52H361.496ZM364.942 23.7022C367.236 21.4089 370.455 20.16 374.856 20.16V16.16C369.657 16.16 365.325 17.6631 362.114 20.8738L364.942 23.7022ZM374.856 20.16H396.936V16.16H374.856V20.16ZM396.936 20.16C401.339 20.16 404.514 21.4095 406.738 23.6855L409.599 20.8905C406.446 17.6625 402.133 16.16 396.936 16.16V20.16ZM406.771 23.7188C409.047 25.9418 410.296 29.117 410.296 33.52H414.296C414.296 28.323 412.794 24.0102 409.566 20.8572L406.771 23.7188ZM410.296 33.52V55.6H414.296V33.52H410.296ZM397.496 34.96C397.496 33.3717 397.098 31.8131 395.95 30.6658C394.803 29.5184 393.245 29.12 391.656 29.12V33.12C392.628 33.12 392.989 33.3616 393.122 33.4942C393.255 33.6269 393.496 33.9883 393.496 34.96H397.496ZM391.656 29.12H380.136V33.12H391.656V29.12ZM380.136 29.12C378.548 29.12 376.989 29.5184 375.842 30.6658C374.695 31.8131 374.296 33.3717 374.296 34.96H378.296C378.296 33.9883 378.538 33.6269 378.67 33.4942C378.803 33.3616 379.165 33.12 380.136 33.12V29.12ZM374.296 34.96V54.16H378.296V34.96H374.296ZM374.296 54.16C374.296 55.7483 374.695 57.3069 375.842 58.4542C376.989 59.6016 378.548 60 380.136 60V56C379.165 56 378.803 55.7584 378.67 55.6258C378.538 55.4931 378.296 55.1317 378.296 54.16H374.296ZM380.136 60H391.656V56H380.136V60ZM391.656 60C393.245 60 394.803 59.6016 395.95 58.4542C397.098 57.3069 397.496 55.7483 397.496 54.16H393.496C393.496 55.1317 393.255 55.4931 393.122 55.6258C392.989 55.7584 392.628 56 391.656 56V60ZM397.496 54.16V34.96H393.496V54.16H397.496ZM468.637 66.928L470.051 68.3422L470.051 68.3422L468.637 66.928ZM423.997 66.928L422.566 68.3255L422.583 68.3423L422.6 68.3588L423.997 66.928ZM423.997 22.288L425.411 23.7022L425.411 23.7022L423.997 22.288ZM468.637 22.288L467.206 23.6855L467.223 23.7023L467.24 23.7188L468.637 22.288ZM470.765 55.6C470.765 60.0009 469.516 63.2205 467.223 65.5138L470.051 68.3422C473.262 65.1315 474.765 60.7991 474.765 55.6H470.765ZM467.223 65.5138C465.002 67.7344 461.821 68.96 457.405 68.96V72.96C462.589 72.96 466.896 71.4976 470.051 68.3422L467.223 65.5138ZM457.405 68.96H435.325V72.96H457.405V68.96ZM435.325 68.96C430.911 68.96 427.686 67.735 425.394 65.4972L422.6 68.3588C425.812 71.497 430.139 72.96 435.325 72.96V68.96ZM425.428 65.5305C423.19 63.2395 421.965 60.014 421.965 55.6H417.965C417.965 60.786 419.428 65.1125 422.566 68.3255L425.428 65.5305ZM421.965 55.6V33.52H417.965V55.6H421.965ZM421.965 33.52C421.965 29.1037 423.191 25.9228 425.411 23.7022L422.583 20.8738C419.427 24.0292 417.965 28.3363 417.965 33.52H421.965ZM425.411 23.7022C427.705 21.4089 430.924 20.16 435.325 20.16V16.16C430.126 16.16 425.793 17.6631 422.583 20.8738L425.411 23.7022ZM435.325 20.16H457.405V16.16H435.325V20.16ZM457.405 20.16C461.808 20.16 464.983 21.4095 467.206 23.6855L470.068 20.8905C466.915 17.6625 462.602 16.16 457.405 16.16V20.16ZM467.24 23.7188C469.516 25.9418 470.765 29.117 470.765 33.52H474.765C474.765 28.323 473.262 24.0102 470.034 20.8572L467.24 23.7188ZM470.765 33.52V55.6H474.765V33.52H470.765ZM457.965 34.96C457.965 33.3717 457.567 31.8131 456.419 30.6658C455.272 29.5184 453.713 29.12 452.125 29.12V33.12C453.097 33.12 453.458 33.3616 453.591 33.4942C453.723 33.6269 453.965 33.9883 453.965 34.96H457.965ZM452.125 29.12H440.605V33.12H452.125V29.12ZM440.605 29.12C439.017 29.12 437.458 29.5184 436.311 30.6658C435.163 31.8131 434.765 33.3717 434.765 34.96H438.765C438.765 33.9883 439.007 33.6269 439.139 33.4942C439.272 33.3616 439.633 33.12 440.605 33.12V29.12ZM434.765 34.96V54.16H438.765V34.96H434.765ZM434.765 54.16C434.765 55.7483 435.163 57.3069 436.311 58.4542C437.458 59.6016 439.017 60 440.605 60V56C439.633 56 439.272 55.7584 439.139 55.6258C439.007 55.4931 438.765 55.1317 438.765 54.16H434.765ZM440.605 60H452.125V56H440.605V60ZM452.125 60C453.713 60 455.272 59.6016 456.419 58.4542C457.567 57.3069 457.965 55.7483 457.965 54.16H453.965C453.965 55.1317 453.723 55.4931 453.591 55.6258C453.458 55.7584 453.097 56 452.125 56V60ZM457.965 54.16V34.96H453.965V54.16H457.965ZM479.474 56.56L479.621 54.5654L477.474 54.4068V56.56H479.474ZM512.594 57.04L514.008 58.4542L514.008 58.4542L512.594 57.04ZM513.554 51.28H515.554V49.28H513.554V51.28ZM482.45 47.344L483.864 45.9298L483.864 45.9298L482.45 47.344ZM482.45 23.056L483.864 24.4702L482.45 23.056ZM525.554 19.12H527.554V17.12H525.554V19.12ZM525.554 31.6V33.6H527.554V31.6H525.554ZM496.274 32.56L497.688 33.9742L497.688 33.9742L496.274 32.56ZM496.274 37.36L494.86 38.7742L494.86 38.7742L496.274 37.36ZM526.418 42.256L527.832 40.8418L527.832 40.8418L526.418 42.256ZM526.418 67.024L527.832 68.4382L527.832 68.4382L526.418 67.024ZM479.474 69.04H477.474V70.8526L479.278 71.0304L479.474 69.04ZM479.326 58.5546C492.337 59.516 502.634 60 510.194 60V56C502.778 56 492.594 55.524 479.621 54.5654L479.326 58.5546ZM510.194 60C511.648 60 512.968 59.4938 514.008 58.4542L511.18 55.6258C510.939 55.8662 510.659 56 510.194 56V60ZM514.008 58.4542C515.048 57.4146 515.554 56.0947 515.554 54.64H511.554C511.554 55.1053 511.42 55.3854 511.18 55.6258L514.008 58.4542ZM515.554 54.64V51.28H511.554V54.64H515.554ZM513.554 49.28H492.914V53.28H513.554V49.28ZM492.914 49.28C488.993 49.28 486.048 48.1142 483.864 45.9298L481.036 48.7582C484.099 51.8218 488.13 53.28 492.914 53.28V49.28ZM483.864 45.9298C481.68 43.7454 480.514 40.8004 480.514 36.88H476.514C476.514 41.6636 477.972 45.6946 481.036 48.7582L483.864 45.9298ZM480.514 36.88V33.52H476.514V36.88H480.514ZM480.514 33.52C480.514 29.5996 481.68 26.6546 483.864 24.4702L481.036 21.6418C477.972 24.7054 476.514 28.7364 476.514 33.52H480.514ZM483.864 24.4702C486.048 22.2858 488.993 21.12 492.914 21.12V17.12C488.13 17.12 484.099 18.5782 481.036 21.6418L483.864 24.4702ZM492.914 21.12H525.554V17.12H492.914V21.12ZM523.554 19.12V31.6H527.554V19.12H523.554ZM525.554 29.6H498.674V33.6H525.554V29.6ZM498.674 29.6C497.219 29.6 495.899 30.1062 494.86 31.1458L497.688 33.9742C497.928 33.7338 498.208 33.6 498.674 33.6V29.6ZM494.86 31.1458C493.82 32.1854 493.314 33.5053 493.314 34.96H497.314C497.314 34.4947 497.448 34.2146 497.688 33.9742L494.86 31.1458ZM493.314 34.96C493.314 36.4147 493.82 37.7346 494.86 38.7742L497.688 35.9458C497.448 35.7054 497.314 35.4253 497.314 34.96H493.314ZM494.86 38.7742C495.899 39.8138 497.219 40.32 498.674 40.32V36.32C498.208 36.32 497.928 36.1862 497.688 35.9458L494.86 38.7742ZM498.674 40.32H515.954V36.32H498.674V40.32ZM515.954 40.32C519.874 40.32 522.819 41.4858 525.004 43.6702L527.832 40.8418C524.768 37.7782 520.737 36.32 515.954 36.32V40.32ZM525.004 43.6702C527.188 45.8546 528.354 48.7996 528.354 52.72H532.354C532.354 47.9364 530.896 43.9054 527.832 40.8418L525.004 43.6702ZM528.354 52.72V56.56H532.354V52.72H528.354ZM528.354 56.56C528.354 60.4804 527.188 63.4254 525.004 65.6098L527.832 68.4382C530.896 65.3746 532.354 61.3436 532.354 56.56H528.354ZM525.004 65.6098C522.819 67.7942 519.874 68.96 515.954 68.96V72.96C520.737 72.96 524.768 71.5018 527.832 68.4382L525.004 65.6098ZM515.954 68.96C504.7 68.96 492.606 68.3242 479.67 67.0496L479.278 71.0304C492.325 72.3158 504.551 72.96 515.954 72.96V68.96ZM481.474 69.04V56.56H477.474V69.04H481.474ZM552.921 39.28H550.921V41.28H552.921V39.28ZM569.241 39.28V41.28H571.241V39.28H569.241ZM584.121 69.04L584.327 71.0293L586.121 70.8435V69.04H584.121ZM540.057 67.024L538.643 68.4382L538.643 68.4382L540.057 67.024ZM540.153 22.288L541.567 23.7022L541.567 23.7022L540.153 22.288ZM581.913 22.288L580.482 23.6855L580.499 23.7023L580.516 23.7188L581.913 22.288ZM586.041 51.28V53.28H588.041V51.28H586.041ZM552.921 51.28V49.28H550.921V51.28H552.921ZM553.881 57.52L555.295 56.1058L555.295 56.1058L553.881 57.52ZM584.121 57.04H586.121V54.8768L583.965 55.0461L584.121 57.04ZM556.761 28.16C555.173 28.16 553.614 28.5584 552.467 29.7058C551.32 30.8531 550.921 32.4117 550.921 34H554.921C554.921 33.0283 555.163 32.6669 555.295 32.5342C555.428 32.4016 555.79 32.16 556.761 32.16V28.16ZM550.921 34V39.28H554.921V34H550.921ZM552.921 41.28H569.241V37.28H552.921V41.28ZM571.241 39.28V34H567.241V39.28H571.241ZM571.241 34C571.241 32.4117 570.843 30.8531 569.695 29.7058C568.548 28.5584 566.99 28.16 565.401 28.16V32.16C566.373 32.16 566.734 32.4016 566.867 32.5342C567 32.6669 567.241 33.0283 567.241 34H571.241ZM565.401 28.16H556.761V32.16H565.401V28.16ZM583.915 67.0507C571.616 68.3251 560.487 68.96 550.521 68.96V72.96C560.652 72.96 571.922 72.3149 584.327 71.0293L583.915 67.0507ZM550.521 68.96C546.601 68.96 543.656 67.7942 541.471 65.6098L538.643 68.4382C541.707 71.5018 545.738 72.96 550.521 72.96V68.96ZM541.471 65.6098C539.287 63.4254 538.121 60.4804 538.121 56.56H534.121C534.121 61.3436 535.579 65.3746 538.643 68.4382L541.471 65.6098ZM538.121 56.56V33.52H534.121V56.56H538.121ZM538.121 33.52C538.121 29.1037 539.347 25.9228 541.567 23.7022L538.739 20.8738C535.584 24.0292 534.121 28.3363 534.121 33.52H538.121ZM541.567 23.7022C543.861 21.4089 547.08 20.16 551.481 20.16V16.16C546.282 16.16 541.95 17.6631 538.739 20.8738L541.567 23.7022ZM551.481 20.16H570.681V16.16H551.481V20.16ZM570.681 20.16C575.084 20.16 578.259 21.4095 580.482 23.6855L583.344 20.8905C580.191 17.6625 575.878 16.16 570.681 16.16V20.16ZM580.516 23.7188C582.792 25.9418 584.041 29.117 584.041 33.52H588.041C588.041 28.323 586.539 24.0102 583.311 20.8572L580.516 23.7188ZM584.041 33.52V51.28H588.041V33.52H584.041ZM586.041 49.28H552.921V53.28H586.041V49.28ZM550.921 51.28V55.12H554.921V51.28H550.921ZM550.921 55.12C550.921 56.5747 551.427 57.8946 552.467 58.9342L555.295 56.1058C555.055 55.8654 554.921 55.5853 554.921 55.12H550.921ZM552.467 58.9342C553.507 59.9738 554.827 60.48 556.281 60.48V56.48C555.816 56.48 555.536 56.3462 555.295 56.1058L552.467 58.9342ZM556.281 60.48C562.698 60.48 572.04 59.9949 584.278 59.0339L583.965 55.0461C571.754 56.0051 562.537 56.48 556.281 56.48V60.48ZM582.121 57.04V69.04H586.121V57.04H582.121ZM658.465 55.12L659.037 57.0364L660.465 56.6102V55.12H658.465ZM658.465 19.12V17.12H656.465V19.12H658.465ZM675.265 19.12H677.265V17.12H675.265V19.12ZM675.265 70V72H677.265V70H675.265ZM660.385 70L658.424 70.3922L658.745 72H660.385V70ZM659.425 65.2L661.386 64.8078L660.804 61.8949L658.324 63.5305L659.425 65.2ZM650.113 69.616L650.662 71.539L650.675 71.5354L650.688 71.5317L650.113 69.616ZM627.361 67.024L628.775 65.6098L628.775 65.6098L627.361 67.024ZM623.425 19.12V17.12H621.425V19.12H623.425ZM640.225 19.12H642.225V17.12H640.225V19.12ZM641.185 56.08L642.599 54.6658L642.599 54.6658L641.185 56.08ZM646.945 59.04C650.581 59.04 654.619 58.3553 659.037 57.0364L657.893 53.2036C653.735 54.4447 650.093 55.04 646.945 55.04V59.04ZM660.465 55.12V19.12H656.465V55.12H660.465ZM658.465 21.12H675.265V17.12H658.465V21.12ZM673.265 19.12V70H677.265V19.12H673.265ZM675.265 68H660.385V72H675.265V68ZM662.346 69.6078L661.386 64.8078L657.464 65.5922L658.424 70.3922L662.346 69.6078ZM658.324 63.5305C655.466 65.4156 652.538 66.8005 649.538 67.7003L650.688 71.5317C654.088 70.5115 657.368 68.9524 660.526 66.8695L658.324 63.5305ZM649.564 67.693C646.527 68.5606 644.067 68.96 642.145 68.96V72.96C644.575 72.96 647.427 72.4634 650.662 71.539L649.564 67.693ZM642.145 68.96H637.825V72.96H642.145V68.96ZM637.825 68.96C633.905 68.96 630.96 67.7942 628.775 65.6098L625.947 68.4382C629.01 71.5018 633.041 72.96 637.825 72.96V68.96ZM628.775 65.6098C626.591 63.4254 625.425 60.4804 625.425 56.56H621.425C621.425 61.3436 622.883 65.3746 625.947 68.4382L628.775 65.6098ZM625.425 56.56V19.12H621.425V56.56H625.425ZM623.425 21.12H640.225V17.12H623.425V21.12ZM638.225 19.12V53.68H642.225V19.12H638.225ZM638.225 53.68C638.225 55.1347 638.731 56.4546 639.771 57.4942L642.599 54.6658C642.359 54.4254 642.225 54.1453 642.225 53.68H638.225ZM639.771 57.4942C640.81 58.5338 642.13 59.04 643.585 59.04V55.04C643.12 55.04 642.84 54.9062 642.599 54.6658L639.771 57.4942ZM643.585 59.04H646.945V55.04H643.585V59.04ZM682.911 56.56L683.059 54.5654L680.911 54.4068V56.56H682.911ZM716.031 57.04L717.445 58.4542L717.445 58.4542L716.031 57.04ZM716.991 51.28H718.991V49.28H716.991V51.28ZM685.887 47.344L687.301 45.9298L687.301 45.9298L685.887 47.344ZM685.887 23.056L687.301 24.4702L685.887 23.056ZM728.991 19.12H730.991V17.12H728.991V19.12ZM728.991 31.6V33.6H730.991V31.6H728.991ZM699.711 32.56L701.125 33.9742L701.125 33.9742L699.711 32.56ZM699.711 37.36L698.297 38.7742L698.297 38.7742L699.711 37.36ZM729.855 42.256L731.269 40.8418L731.269 40.8418L729.855 42.256ZM729.855 67.024L731.269 68.4382L731.269 68.4382L729.855 67.024ZM682.911 69.04H680.911V70.8526L682.715 71.0304L682.911 69.04ZM682.764 58.5546C695.775 59.516 706.071 60 713.631 60V56C706.215 56 696.032 55.524 683.059 54.5654L682.764 58.5546ZM713.631 60C715.086 60 716.406 59.4938 717.445 58.4542L714.617 55.6258C714.377 55.8662 714.097 56 713.631 56V60ZM717.445 58.4542C718.485 57.4146 718.991 56.0947 718.991 54.64H714.991C714.991 55.1053 714.857 55.3854 714.617 55.6258L717.445 58.4542ZM718.991 54.64V51.28H714.991V54.64H718.991ZM716.991 49.28H696.351V53.28H716.991V49.28ZM696.351 49.28C692.431 49.28 689.486 48.1142 687.301 45.9298L684.473 48.7582C687.537 51.8218 691.568 53.28 696.351 53.28V49.28ZM687.301 45.9298C685.117 43.7454 683.951 40.8004 683.951 36.88H679.951C679.951 41.6636 681.409 45.6946 684.473 48.7582L687.301 45.9298ZM683.951 36.88V33.52H679.951V36.88H683.951ZM683.951 33.52C683.951 29.5996 685.117 26.6546 687.301 24.4702L684.473 21.6418C681.409 24.7054 679.951 28.7364 679.951 33.52H683.951ZM687.301 24.4702C689.486 22.2858 692.431 21.12 696.351 21.12V17.12C691.568 17.12 687.537 18.5782 684.473 21.6418L687.301 24.4702ZM696.351 21.12H728.991V17.12H696.351V21.12ZM726.991 19.12V31.6H730.991V19.12H726.991ZM728.991 29.6H702.111V33.6H728.991V29.6ZM702.111 29.6C700.657 29.6 699.337 30.1062 698.297 31.1458L701.125 33.9742C701.366 33.7338 701.646 33.6 702.111 33.6V29.6ZM698.297 31.1458C697.257 32.1854 696.751 33.5053 696.751 34.96H700.751C700.751 34.4947 700.885 34.2146 701.125 33.9742L698.297 31.1458ZM696.751 34.96C696.751 36.4147 697.257 37.7346 698.297 38.7742L701.125 35.9458C700.885 35.7054 700.751 35.4253 700.751 34.96H696.751ZM698.297 38.7742C699.337 39.8138 700.657 40.32 702.111 40.32V36.32C701.646 36.32 701.366 36.1862 701.125 35.9458L698.297 38.7742ZM702.111 40.32H719.391V36.32H702.111V40.32ZM719.391 40.32C723.312 40.32 726.257 41.4858 728.441 43.6702L731.269 40.8418C728.206 37.7782 724.175 36.32 719.391 36.32V40.32ZM728.441 43.6702C730.625 45.8546 731.791 48.7996 731.791 52.72H735.791C735.791 47.9364 734.333 43.9054 731.269 40.8418L728.441 43.6702ZM731.791 52.72V56.56H735.791V52.72H731.791ZM731.791 56.56C731.791 60.4804 730.625 63.4254 728.441 65.6098L731.269 68.4382C734.333 65.3746 735.791 61.3436 735.791 56.56H731.791ZM728.441 65.6098C726.257 67.7942 723.312 68.96 719.391 68.96V72.96C724.175 72.96 728.206 71.5018 731.269 68.4382L728.441 65.6098ZM719.391 68.96C708.138 68.96 696.044 68.3242 683.107 67.0496L682.715 71.0304C695.763 72.3158 707.989 72.96 719.391 72.96V68.96ZM684.911 69.04V56.56H680.911V69.04H684.911Z" fill="black" fill-opacity="0.06"/>
</svg>
