<svg width="33" height="35" viewBox="0 0 33 35" fill="none" xmlns="http://www.w3.org/2000/svg">
<path d="M0 27.7061V30.625C0 33.0381 5.54297 35 12.375 35C19.207 35 24.75 33.0381 24.75 30.625V27.7061C22.0881 29.6953 17.2219 30.625 12.375 30.625C7.52813 30.625 2.66191 29.6953 0 27.7061ZM20.625 8.75C27.457 8.75 33 6.78809 33 4.375C33 1.96191 27.457 0 20.625 0C13.793 0 8.25 1.96191 8.25 4.375C8.25 6.78809 13.793 8.75 20.625 8.75ZM0 20.5352V24.0625C0 26.4756 5.54297 28.4375 12.375 28.4375C19.207 28.4375 24.75 26.4756 24.75 24.0625V20.5352C22.0881 22.8594 17.2154 24.0625 12.375 24.0625C7.53457 24.0625 2.66191 22.8594 0 20.5352ZM26.8125 21.2871C30.5057 20.5283 33 19.1201 33 17.5V14.5811C31.5047 15.7021 29.3068 16.4678 26.8125 16.9395V21.2871ZM12.375 10.9375C5.54297 10.9375 0 13.3848 0 16.4062C0 19.4277 5.54297 21.875 12.375 21.875C19.207 21.875 24.75 19.4277 24.75 16.4062C24.75 13.3848 19.207 10.9375 12.375 10.9375ZM26.5096 14.7861C30.3768 14.0479 33 12.5986 33 10.9375V8.01855C30.7119 9.73438 26.7803 10.6572 22.6424 10.876C24.5437 11.8535 25.9424 13.166 26.5096 14.7861Z" fill="black"/>
</svg>
