<svg width="188" height="26" viewBox="0 0 188 26" fill="none" xmlns="http://www.w3.org/2000/svg">
<path d="M16.7503 2.2L18.6828 1.68467L18.2869 0.199999H16.7503V2.2ZM19.6303 13L17.6978 13.5153L21.578 13.4545L19.6303 13ZM22.1503 2.2V0.199999H20.5633L20.2026 1.74554L22.1503 2.2ZM26.8303 2.2L28.7605 2.7239L29.4455 0.199999H26.8303V2.2ZM22.2703 19V21H23.7998L24.2005 19.5239L22.2703 19ZM17.7103 19L15.7823 19.5319L16.1873 21H17.7103V19ZM14.8303 8.56L16.7583 8.02814L14.8303 1.03919L12.9023 8.02814L14.8303 8.56ZM11.9503 19V21H13.4733L13.8783 19.5319L11.9503 19ZM7.39031 19L5.46015 19.5239L5.86081 21H7.39031V19ZM2.83031 2.2V0.199999H0.215091L0.90015 2.7239L2.83031 2.2ZM7.51031 2.2L9.45799 1.74554L9.09737 0.199999H7.51031V2.2ZM10.0303 13L8.08263 13.4545L11.9628 13.5153L10.0303 13ZM12.9103 2.2V0.199999H11.3738L10.9778 1.68467L12.9103 2.2ZM14.8178 2.71532L17.6978 13.5153L21.5628 12.4847L18.6828 1.68467L14.8178 2.71532ZM21.578 13.4545L24.098 2.65446L20.2026 1.74554L17.6826 12.5455L21.578 13.4545ZM22.1503 4.2H26.8303V0.199999H22.1503V4.2ZM24.9002 1.6761L20.3402 18.4761L24.2005 19.5239L28.7605 2.7239L24.9002 1.6761ZM22.2703 17H17.7103V21H22.2703V17ZM19.6383 18.4681L16.7583 8.02814L12.9023 9.09186L15.7823 19.5319L19.6383 18.4681ZM12.9023 8.02814L10.0223 18.4681L13.8783 19.5319L16.7583 9.09186L12.9023 8.02814ZM11.9503 17H7.39031V21H11.9503V17ZM9.32048 18.4761L4.76048 1.6761L0.90015 2.7239L5.46015 19.5239L9.32048 18.4761ZM2.83031 4.2H7.51031V0.199999H2.83031V4.2ZM5.56263 2.65446L8.08263 13.4545L11.978 12.5455L9.45799 1.74554L5.56263 2.65446ZM11.9628 13.5153L14.8428 2.71532L10.9778 1.68467L8.09784 12.4847L11.9628 13.5153ZM12.9103 4.2H16.7503V0.199999H12.9103V4.2ZM32.0016 6.52H30.0016V8.97444L32.4054 8.4788L32.0016 6.52ZM39.7776 7.024L38.3633 8.43821L38.3634 8.43821L39.7776 7.024ZM40.7616 19V21H42.7616V19H40.7616ZM36.5616 19H34.5616V21H36.5616V19ZM33.2016 9.376L32.9535 7.39143L32.9456 7.39244L33.2016 9.376ZM32.0016 9.52L31.7922 7.53099L30.0016 7.71948V9.52H32.0016ZM32.0016 19V21H34.0016V19H32.0016ZM27.8016 19H25.8016V21H27.8016V19ZM27.8016 2.2V0.199999H25.8016V2.2H27.8016ZM32.0016 2.2H34.0016V0.199999H32.0016V2.2ZM32.4054 8.4788C33.8682 8.1772 35.0875 8.04 36.0816 8.04V4.04C34.7396 4.04 33.239 4.22279 31.5977 4.5612L32.4054 8.4788ZM36.0816 8.04H37.1616V4.04H36.0816V8.04ZM37.1616 8.04C37.8179 8.04 38.1469 8.2218 38.3633 8.43821L41.1918 5.60979C40.0962 4.5142 38.6812 4.04 37.1616 4.04V8.04ZM38.3634 8.43821C38.5798 8.65463 38.7616 8.98364 38.7616 9.64H42.7616C42.7616 8.12035 42.2874 6.70537 41.1918 5.60979L38.3634 8.43821ZM38.7616 9.64V19H42.7616V9.64H38.7616ZM40.7616 17H36.5616V21H40.7616V17ZM38.5616 19V10.12H34.5616V19H38.5616ZM38.5616 10.12C38.5616 9.38528 38.2954 8.66538 37.7358 8.10579L34.9073 10.9342C34.8057 10.8325 34.7102 10.6969 34.6446 10.5328C34.5799 10.371 34.5616 10.2254 34.5616 10.12H38.5616ZM37.7358 8.10579C37.1762 7.5462 36.4563 7.28 35.7216 7.28V11.28C35.6161 11.28 35.4705 11.2617 35.3088 11.197C35.1447 11.1313 35.009 11.0359 34.9073 10.9342L37.7358 8.10579ZM35.7216 7.28H34.8816V11.28H35.7216V7.28ZM34.8816 7.28C34.2048 7.28 33.5607 7.31554 32.9535 7.39144L33.4496 11.3606C33.8664 11.3085 34.3423 11.28 34.8816 11.28V7.28ZM32.9456 7.39244C32.4567 7.45553 32.0741 7.50132 31.7922 7.53099L32.2109 11.509C32.5371 11.4747 32.9544 11.4245 33.4575 11.3596L32.9456 7.39244ZM30.0016 9.52V19H34.0016V9.52H30.0016ZM32.0016 17H27.8016V21H32.0016V17ZM29.8016 19V2.2H25.8016V19H29.8016ZM27.8016 4.2H32.0016V0.199999H27.8016V4.2ZM30.0016 2.2V6.52H34.0016V2.2H30.0016ZM43.1588 23.08H41.1588V24.8371L42.9012 25.0633L43.1588 23.08ZM43.1588 19.96V17.96H41.1588V19.96H43.1588ZM46.4948 19.456L44.7583 18.4637L44.7401 18.4955L44.7231 18.528L46.4948 19.456ZM46.3988 18.04L44.5537 18.8119L44.5555 18.8161L46.3988 18.04ZM41.4787 6.28V4.28H38.474L39.6337 7.0519L41.4787 6.28ZM45.9188 6.28L47.7959 5.58987L47.3143 4.28H45.9188V6.28ZM48.9188 14.44L47.0416 15.1301L49.0836 20.6843L50.8297 15.0301L48.9188 14.44ZM51.4388 6.28V4.28H49.9632L49.5278 5.68985L51.4388 6.28ZM55.8788 6.28L57.7583 6.96349L58.7342 4.28H55.8788V6.28ZM51.0788 19.48L52.9563 20.1692L52.9583 20.1635L51.0788 19.48ZM49.2788 22.336L47.9664 20.8268L47.9572 20.8348L47.948 20.843L49.2788 22.336ZM46.2788 21.32C45.5464 21.32 44.5983 21.2502 43.4163 21.0967L42.9012 25.0633C44.1832 25.2298 45.3151 25.32 46.2788 25.32V21.32ZM45.1588 23.08V19.96H41.1588V23.08H45.1588ZM43.1588 21.96H45.3188V17.96H43.1588V21.96ZM45.3188 21.96C46.1882 21.96 47.5676 21.7181 48.2664 20.384L44.7231 18.528C44.7917 18.3971 44.8847 18.2782 44.9948 18.1805C45.1026 18.0849 45.2059 18.0279 45.2809 17.9957C45.416 17.9378 45.4585 17.96 45.3188 17.96V21.96ZM48.2312 20.4483C48.8961 19.2847 48.5732 18.0505 48.242 17.2639L44.5555 18.8161C44.6289 18.9905 44.6229 19.0379 44.6193 18.9853C44.6147 18.9164 44.6191 18.7073 44.7583 18.4637L48.2312 20.4483ZM48.2438 17.2681L43.3238 5.5081L39.6337 7.0519L44.5537 18.8119L48.2438 17.2681ZM41.4787 8.28H45.9188V4.28H41.4787V8.28ZM44.0416 6.97013L47.0416 15.1301L50.7959 13.7499L47.7959 5.58987L44.0416 6.97013ZM50.8297 15.0301L53.3497 6.87015L49.5278 5.68985L47.0078 13.8499L50.8297 15.0301ZM51.4388 8.28H55.8788V4.28H51.4388V8.28ZM53.9992 5.59651L49.1992 18.7965L52.9583 20.1635L57.7583 6.96349L53.9992 5.59651ZM49.2013 18.7908C48.8114 19.8528 48.3694 20.4764 47.9664 20.8268L50.5911 23.8452C51.6601 22.9157 52.4181 21.6352 52.9562 20.1692L49.2013 18.7908ZM47.948 20.843C47.6724 21.0886 47.1945 21.32 46.2788 21.32V25.32C47.891 25.32 49.4131 24.8954 50.6095 23.829L47.948 20.843ZM75.0816 18.76L75.2943 20.7487L77.0816 20.5575V18.76H75.0816ZM64.5456 18.256L63.1313 19.6702L63.1313 19.6702L64.5456 18.256ZM64.5696 7.312L65.9838 8.72621L65.9838 8.72621L64.5696 7.312ZM75.0816 6.28H77.0816V4.28H75.0816V6.28ZM75.0816 9.52V11.52H77.0816V9.52H75.0816ZM75.0816 15.64H77.0816V13.4664L74.9155 13.6469L75.0816 15.64ZM74.8689 16.7713C71.9269 17.086 69.3605 17.24 67.1616 17.24V21.24C69.5387 21.24 72.2522 21.074 75.2943 20.7487L74.8689 16.7713ZM67.1616 17.24C66.5052 17.24 66.1762 17.0582 65.9598 16.8418L63.1313 19.6702C64.2269 20.7658 65.6419 21.24 67.1616 21.24V17.24ZM65.9598 16.8418C65.7434 16.6254 65.5616 16.2964 65.5616 15.64H61.5616C61.5616 17.1596 62.0358 18.5746 63.1313 19.6702L65.9598 16.8418ZM65.5616 15.64V10.12H61.5616V15.64H65.5616ZM65.5616 10.12C65.5616 9.30375 65.7792 8.93079 65.9838 8.72621L63.1553 5.89779C62.0159 7.03721 61.5616 8.53625 61.5616 10.12H65.5616ZM65.9838 8.72621C66.2131 8.49692 66.6007 8.28 67.4016 8.28V4.28C65.8024 4.28 64.3021 4.75108 63.1553 5.89779L65.9838 8.72621ZM67.4016 8.28H75.0816V4.28H67.4016V8.28ZM73.0816 6.28V9.52H77.0816V6.28H73.0816ZM75.0816 7.52H68.7216V11.52H75.0816V7.52ZM68.7216 7.52C68.0933 7.52 67.2547 7.67843 66.5873 8.34579C65.92 9.01315 65.7616 9.85171 65.7616 10.48H69.7616C69.7616 10.4807 69.7622 10.5627 69.7189 10.6925C69.6725 10.8319 69.5801 11.0099 69.4158 11.1742C69.2515 11.3385 69.0734 11.4309 68.934 11.4774C68.8043 11.5206 68.7223 11.52 68.7216 11.52V7.52ZM65.7616 10.48V15.16H69.7616V10.48H65.7616ZM65.7616 15.16C65.7616 15.8947 66.0278 16.6146 66.5873 17.1742L69.4158 14.3458C69.5175 14.4475 69.6129 14.5831 69.6785 14.7472C69.7432 14.909 69.7616 15.0546 69.7616 15.16H65.7616ZM66.5873 17.1742C67.1469 17.7338 67.8668 18 68.6016 18V14C68.707 14 68.8526 14.0183 69.0143 14.083C69.1784 14.1487 69.3141 14.2441 69.4158 14.3458L66.5873 17.1742ZM68.6016 18C70.1279 18 72.3557 17.8741 75.2477 17.6331L74.9155 13.6469C72.0475 13.8859 69.9552 14 68.6016 14V18ZM73.0816 15.64V18.76H77.0816V15.64H73.0816ZM81.1969 6.52H79.1969V8.97444L81.6008 8.4788L81.1969 6.52ZM88.9729 7.024L87.5587 8.43821L87.5587 8.43821L88.9729 7.024ZM89.9569 19V21H91.9569V19H89.9569ZM85.7569 19H83.7569V21H85.7569V19ZM82.3969 9.376L82.1488 7.39143L82.1409 7.39244L82.3969 9.376ZM81.1969 9.52L80.9875 7.53099L79.1969 7.71948V9.52H81.1969ZM81.1969 19V21H83.1969V19H81.1969ZM76.9969 19H74.9969V21H76.9969V19ZM76.9969 2.2V0.199999H74.9969V2.2H76.9969ZM81.1969 2.2H83.1969V0.199999H81.1969V2.2ZM81.6008 8.4788C83.0635 8.1772 84.2828 8.04 85.2769 8.04V4.04C83.9349 4.04 82.4343 4.22279 80.793 4.5612L81.6008 8.4788ZM85.2769 8.04H86.3569V4.04H85.2769V8.04ZM86.3569 8.04C87.0132 8.04 87.3422 8.2218 87.5587 8.43821L90.3871 5.60979C89.2915 4.5142 87.8765 4.04 86.3569 4.04V8.04ZM87.5587 8.43821C87.7751 8.65463 87.9569 8.98364 87.9569 9.64H91.9569C91.9569 8.12035 91.4827 6.70537 90.3871 5.60979L87.5587 8.43821ZM87.9569 9.64V19H91.9569V9.64H87.9569ZM89.9569 17H85.7569V21H89.9569V17ZM87.7569 19V10.12H83.7569V19H87.7569ZM87.7569 10.12C87.7569 9.38528 87.4907 8.66538 86.9311 8.10579L84.1027 10.9342C84.001 10.8325 83.9056 10.6969 83.8399 10.5328C83.7752 10.371 83.7569 10.2254 83.7569 10.12H87.7569ZM86.9311 8.10579C86.3715 7.5462 85.6516 7.28 84.9169 7.28V11.28C84.8114 11.28 84.6658 11.2617 84.5041 11.197C84.34 11.1313 84.2043 11.0359 84.1027 10.9342L86.9311 8.10579ZM84.9169 7.28H84.0769V11.28H84.9169V7.28ZM84.0769 7.28C83.4001 7.28 82.7561 7.31554 82.1488 7.39144L82.6449 11.3606C83.0617 11.3085 83.5376 11.28 84.0769 11.28V7.28ZM82.1409 7.39244C81.652 7.45553 81.2694 7.50132 80.9875 7.53099L81.4062 11.509C81.7324 11.4747 82.1497 11.4245 82.6528 11.3596L82.1409 7.39244ZM79.1969 9.52V19H83.1969V9.52H79.1969ZM81.1969 17H76.9969V21H81.1969V17ZM78.9969 19V2.2H74.9969V19H78.9969ZM76.9969 4.2H81.1969V0.199999H76.9969V4.2ZM79.1969 2.2V6.52H83.1969V2.2H79.1969ZM104.042 18.232L105.456 19.6462L105.456 19.6462L104.042 18.232ZM92.8821 18.232L91.4513 19.6295L91.4678 19.6463L91.4846 19.6628L92.8821 18.232ZM92.8821 7.072L94.2963 8.48621L94.2963 8.48621L92.8821 7.072ZM104.042 7.072L102.611 8.46948L102.628 8.48631L102.645 8.50275L104.042 7.072ZM103.074 15.4C103.074 16.2009 102.857 16.5885 102.628 16.8178L105.456 19.6462C106.603 18.4995 107.074 16.9991 107.074 15.4H103.074ZM102.628 16.8178C102.423 17.0224 102.05 17.24 101.234 17.24V21.24C102.818 21.24 104.317 20.7856 105.456 19.6462L102.628 16.8178ZM101.234 17.24H95.7141V21.24H101.234V17.24ZM95.7141 17.24C94.9001 17.24 94.5066 17.023 94.2795 16.8012L91.4846 19.6628C92.6335 20.785 94.128 21.24 95.7141 21.24V17.24ZM94.3128 16.8345C94.091 16.6075 93.8741 16.214 93.8741 15.4H89.8741C89.8741 16.986 90.3291 18.4805 91.4513 19.6295L94.3128 16.8345ZM93.8741 15.4V9.88H89.8741V15.4H93.8741ZM93.8741 9.88C93.8741 9.06375 94.0917 8.69079 94.2963 8.48621L91.4678 5.65779C90.3284 6.79721 89.8741 8.29625 89.8741 9.88H93.8741ZM94.2963 8.48621C94.5256 8.25692 94.9132 8.04 95.7141 8.04V4.04C94.1149 4.04 92.6146 4.51108 91.4678 5.65779L94.2963 8.48621ZM95.7141 8.04H101.234V4.04H95.7141V8.04ZM101.234 8.04C102.037 8.04 102.404 8.25746 102.611 8.46948L105.473 5.67452C104.336 4.51054 102.831 4.04 101.234 4.04V8.04ZM102.645 8.50275C102.857 8.70984 103.074 9.07704 103.074 9.88H107.074C107.074 8.28296 106.604 6.77816 105.44 5.64125L102.645 8.50275ZM103.074 9.88V15.4H107.074V9.88H103.074ZM102.874 10.24C102.874 9.61171 102.716 8.77315 102.048 8.10579C101.381 7.43843 100.542 7.28 99.9141 7.28V11.28C99.9134 11.28 99.8313 11.2806 99.7016 11.2374C99.5622 11.1909 99.3842 11.0985 99.2198 10.9342C99.0555 10.7699 98.9632 10.5919 98.9167 10.4525C98.8735 10.3227 98.8741 10.2407 98.8741 10.24H102.874ZM99.9141 7.28H97.0341V11.28H99.9141V7.28ZM97.0341 7.28C96.4058 7.28 95.5672 7.43843 94.8998 8.10579C94.2325 8.77315 94.0741 9.61171 94.0741 10.24H98.0741C98.0741 10.2407 98.0747 10.3227 98.0314 10.4525C97.985 10.5919 97.8926 10.7699 97.7283 10.9342C97.564 11.0985 97.3859 11.1909 97.2465 11.2374C97.1168 11.2806 97.0348 11.28 97.0341 11.28V7.28ZM94.0741 10.24V15.04H98.0741V10.24H94.0741ZM94.0741 15.04C94.0741 15.6683 94.2325 16.5069 94.8998 17.1742C95.5672 17.8416 96.4058 18 97.0341 18V14C97.0348 14 97.1168 13.9994 97.2465 14.0426C97.3859 14.0891 97.564 14.1815 97.7283 14.3458C97.8926 14.5101 97.985 14.6881 98.0314 14.8275C98.0747 14.9573 98.0741 15.0393 98.0741 15.04H94.0741ZM97.0341 18H99.9141V14H97.0341V18ZM99.9141 18C100.542 18 101.381 17.8416 102.048 17.1742C102.716 16.5069 102.874 15.6683 102.874 15.04H98.8741C98.8741 15.0393 98.8735 14.9573 98.9167 14.8275C98.9632 14.6881 99.0555 14.5101 99.2198 14.3458C99.3842 14.1815 99.5622 14.0891 99.7016 14.0426C99.8313 13.9994 99.9134 14 99.9141 14V18ZM102.874 15.04V10.24H98.8741V15.04H102.874ZM119.159 18.232L120.573 19.6462L120.573 19.6462L119.159 18.232ZM107.999 18.232L106.568 19.6295L106.585 19.6463L106.602 19.6628L107.999 18.232ZM107.999 7.072L109.413 8.48621L109.413 8.48621L107.999 7.072ZM119.159 7.072L117.728 8.46948L117.745 8.48631L117.762 8.50275L119.159 7.072ZM118.191 15.4C118.191 16.2009 117.974 16.5885 117.745 16.8178L120.573 19.6462C121.72 18.4995 122.191 16.9991 122.191 15.4H118.191ZM117.745 16.8178C117.54 17.0224 117.168 17.24 116.351 17.24V21.24C117.935 21.24 119.434 20.7856 120.573 19.6462L117.745 16.8178ZM116.351 17.24H110.831V21.24H116.351V17.24ZM110.831 17.24C110.017 17.24 109.624 17.023 109.397 16.8012L106.602 19.6628C107.751 20.785 109.245 21.24 110.831 21.24V17.24ZM109.43 16.8345C109.208 16.6075 108.991 16.214 108.991 15.4H104.991C104.991 16.986 105.446 18.4805 106.568 19.6295L109.43 16.8345ZM108.991 15.4V9.88H104.991V15.4H108.991ZM108.991 9.88C108.991 9.06375 109.209 8.69079 109.413 8.48621L106.585 5.65779C105.446 6.79721 104.991 8.29625 104.991 9.88H108.991ZM109.413 8.48621C109.643 8.25692 110.03 8.04 110.831 8.04V4.04C109.232 4.04 107.732 4.51108 106.585 5.65779L109.413 8.48621ZM110.831 8.04H116.351V4.04H110.831V8.04ZM116.351 8.04C117.154 8.04 117.521 8.25746 117.728 8.46948L120.59 5.67452C119.453 4.51054 117.948 4.04 116.351 4.04V8.04ZM117.762 8.50275C117.974 8.70984 118.191 9.07704 118.191 9.88H122.191C122.191 8.28296 121.721 6.77816 120.557 5.64125L117.762 8.50275ZM118.191 9.88V15.4H122.191V9.88H118.191ZM117.991 10.24C117.991 9.61171 117.833 8.77315 117.165 8.10579C116.498 7.43843 115.66 7.28 115.031 7.28V11.28C115.031 11.28 114.949 11.2806 114.819 11.2374C114.679 11.1909 114.501 11.0985 114.337 10.9342C114.173 10.7699 114.08 10.5919 114.034 10.4525C113.991 10.3227 113.991 10.2407 113.991 10.24H117.991ZM115.031 7.28H112.151V11.28H115.031V7.28ZM112.151 7.28C111.523 7.28 110.684 7.43843 110.017 8.10579C109.35 8.77315 109.191 9.61171 109.191 10.24H113.191C113.191 10.2407 113.192 10.3227 113.149 10.4525C113.102 10.5919 113.01 10.7699 112.845 10.9342C112.681 11.0985 112.503 11.1909 112.364 11.2374C112.234 11.2806 112.152 11.28 112.151 11.28V7.28ZM109.191 10.24V15.04H113.191V10.24H109.191ZM109.191 15.04C109.191 15.6683 109.35 16.5069 110.017 17.1742C110.684 17.8416 111.523 18 112.151 18V14C112.152 14 112.234 13.9994 112.364 14.0426C112.503 14.0891 112.681 14.1815 112.845 14.3458C113.01 14.5101 113.102 14.6881 113.149 14.8275C113.192 14.9573 113.191 15.0393 113.191 15.04H109.191ZM112.151 18H115.031V14H112.151V18ZM115.031 18C115.66 18 116.498 17.8416 117.165 17.1742C117.833 16.5069 117.991 15.6683 117.991 15.04H113.991C113.991 15.0393 113.991 14.9573 114.034 14.8275C114.08 14.6881 114.173 14.5101 114.337 14.3458C114.501 14.1815 114.679 14.0891 114.819 14.0426C114.949 13.9994 115.031 14 115.031 14V18ZM117.991 15.04V10.24H113.991V15.04H117.991ZM121.868 15.64L122.016 13.6454L119.868 13.4868V15.64H121.868ZM130.148 15.76L131.563 17.1742L131.563 17.1742L130.148 15.76ZM130.388 14.32H132.388V12.32H130.388V14.32ZM122.612 13.336L124.027 11.9218L124.027 11.9218L122.612 13.336ZM122.612 7.264L124.027 8.67821L122.612 7.264ZM133.388 6.28H135.388V4.28H133.388V6.28ZM133.388 9.4V11.4H135.388V9.4H133.388ZM126.068 9.64L127.483 11.0542L127.483 11.0542L126.068 9.64ZM126.068 10.84L124.654 12.2542L124.654 12.2542L126.068 10.84ZM133.604 12.064L135.019 10.6498L135.019 10.6498L133.604 12.064ZM133.604 18.256L135.019 19.6702L135.019 19.6702L133.604 18.256ZM121.868 18.76H119.868V20.5726L121.672 20.7504L121.868 18.76ZM121.721 17.6346C124.988 17.876 127.604 18 129.548 18V14C127.749 14 125.245 13.884 122.016 13.6454L121.721 17.6346ZM129.548 18C130.283 18 131.003 17.7338 131.563 17.1742L128.734 14.3458C128.836 14.2441 128.972 14.1487 129.136 14.083C129.297 14.0183 129.443 14 129.548 14V18ZM131.563 17.1742C132.122 16.6146 132.388 15.8947 132.388 15.16H128.388C128.388 15.0546 128.407 14.909 128.471 14.7472C128.537 14.5831 128.633 14.4475 128.734 14.3458L131.563 17.1742ZM132.388 15.16V14.32H128.388V15.16H132.388ZM130.388 12.32H125.228V16.32H130.388V12.32ZM125.228 12.32C124.572 12.32 124.243 12.1382 124.027 11.9218L121.198 14.7502C122.294 15.8458 123.709 16.32 125.228 16.32V12.32ZM124.027 11.9218C123.81 11.7054 123.628 11.3764 123.628 10.72H119.628C119.628 12.2396 120.103 13.6546 121.198 14.7502L124.027 11.9218ZM123.628 10.72V9.88H119.628V10.72H123.628ZM123.628 9.88C123.628 9.22364 123.81 8.89463 124.027 8.67821L121.198 5.84979C120.103 6.94537 119.628 8.36035 119.628 9.88H123.628ZM124.027 8.67821C124.243 8.4618 124.572 8.28 125.228 8.28V4.28C123.709 4.28 122.294 4.7542 121.198 5.84979L124.027 8.67821ZM125.228 8.28H133.388V4.28H125.228V8.28ZM131.388 6.28V9.4H135.388V6.28H131.388ZM133.388 7.4H126.668V11.4H133.388V7.4ZM126.668 7.4C125.934 7.4 125.214 7.66619 124.654 8.22579L127.483 11.0542C127.381 11.1559 127.245 11.2513 127.081 11.317C126.919 11.3817 126.774 11.4 126.668 11.4V7.4ZM124.654 8.22579C124.095 8.78538 123.828 9.50528 123.828 10.24H127.828C127.828 10.3454 127.81 10.491 127.745 10.6528C127.68 10.8169 127.584 10.9525 127.483 11.0542L124.654 8.22579ZM123.828 10.24C123.828 10.9747 124.095 11.6946 124.654 12.2542L127.483 9.42579C127.584 9.52747 127.68 9.66313 127.745 9.82722C127.81 9.98897 127.828 10.1346 127.828 10.24H123.828ZM124.654 12.2542C125.214 12.8138 125.934 13.08 126.668 13.08V9.08C126.774 9.08 126.919 9.09834 127.081 9.16305C127.245 9.22868 127.381 9.3241 127.483 9.42579L124.654 12.2542ZM126.668 13.08H130.988V9.08H126.668V13.08ZM130.988 13.08C131.645 13.08 131.974 13.2618 132.19 13.4782L135.019 10.6498C133.923 9.5542 132.508 9.08 130.988 9.08V13.08ZM132.19 13.4782C132.407 13.6946 132.588 14.0236 132.588 14.68H136.588C136.588 13.1604 136.114 11.7454 135.019 10.6498L132.19 13.4782ZM132.588 14.68V15.64H136.588V14.68H132.588ZM132.588 15.64C132.588 16.2964 132.407 16.6254 132.19 16.8418L135.019 19.6702C136.114 18.5746 136.588 17.1596 136.588 15.64H132.588ZM132.19 16.8418C131.974 17.0582 131.645 17.24 130.988 17.24V21.24C132.508 21.24 133.923 20.7658 135.019 19.6702L132.19 16.8418ZM130.988 17.24C128.231 17.24 125.257 17.0842 122.065 16.7696L121.672 20.7504C124.976 21.0758 128.082 21.24 130.988 21.24V17.24ZM123.868 18.76V15.64H119.868V18.76H123.868ZM140.23 11.32H138.23V13.32H140.23V11.32ZM144.31 11.32V13.32H146.31V11.32H144.31ZM148.03 18.76L148.236 20.7493L150.03 20.5635V18.76H148.03ZM137.014 18.256L135.6 19.6702L135.6 19.6702L137.014 18.256ZM137.038 7.072L138.453 8.48621L138.453 8.48621L137.038 7.072ZM147.478 7.072L146.048 8.46948L146.064 8.48631L146.081 8.50275L147.478 7.072ZM148.51 14.32V16.32H150.51V14.32H148.51ZM140.23 14.32V12.32H138.23V14.32H140.23ZM140.47 15.88L141.885 14.4658L141.885 14.4658L140.47 15.88ZM148.03 15.76H150.03V13.5968L147.874 13.7661L148.03 15.76ZM141.19 7.04C140.562 7.04 139.723 7.19843 139.056 7.86579C138.389 8.53314 138.23 9.37171 138.23 10H142.23C142.23 10.0007 142.231 10.0827 142.188 10.2125C142.141 10.3519 142.049 10.5299 141.885 10.6942C141.72 10.8585 141.542 10.9509 141.403 10.9974C141.273 11.0406 141.191 11.04 141.19 11.04V7.04ZM138.23 10V11.32H142.23V10H138.23ZM140.23 13.32H144.31V9.32H140.23V13.32ZM146.31 11.32V10H142.31V11.32H146.31ZM146.31 10C146.31 9.37171 146.152 8.53315 145.485 7.86579C144.817 7.19843 143.979 7.04 143.35 7.04V11.04C143.35 11.04 143.268 11.0406 143.138 10.9974C142.998 10.9509 142.82 10.8585 142.656 10.6942C142.492 10.5299 142.399 10.3519 142.353 10.2125C142.31 10.0827 142.31 10.0007 142.31 10H146.31ZM143.35 7.04H141.19V11.04H143.35V7.04ZM147.824 16.7707C144.789 17.0851 142.06 17.24 139.63 17.24V21.24C142.225 21.24 145.095 21.0749 148.236 20.7493L147.824 16.7707ZM139.63 17.24C138.974 17.24 138.645 17.0582 138.429 16.8418L135.6 19.6702C136.696 20.7658 138.111 21.24 139.63 21.24V17.24ZM138.429 16.8418C138.212 16.6254 138.03 16.2964 138.03 15.64H134.03C134.03 17.1596 134.505 18.5746 135.6 19.6702L138.429 16.8418ZM138.03 15.64V9.88H134.03V15.64H138.03ZM138.03 9.88C138.03 9.06375 138.248 8.69079 138.453 8.48621L135.624 5.65779C134.485 6.79721 134.03 8.29625 134.03 9.88H138.03ZM138.453 8.48621C138.682 8.25692 139.069 8.04 139.87 8.04V4.04C138.271 4.04 136.771 4.51108 135.624 5.65779L138.453 8.48621ZM139.87 8.04H144.67V4.04H139.87V8.04ZM144.67 8.04C145.473 8.04 145.84 8.25746 146.048 8.46948L148.909 5.67452C147.772 4.51054 146.267 4.04 144.67 4.04V8.04ZM146.081 8.50275C146.293 8.70984 146.51 9.07704 146.51 9.88H150.51C150.51 8.28296 150.04 6.77816 148.876 5.64125L146.081 8.50275ZM146.51 9.88V14.32H150.51V9.88H146.51ZM148.51 12.32H140.23V16.32H148.51V12.32ZM138.23 14.32V15.28H142.23V14.32H138.23ZM138.23 15.28C138.23 16.0147 138.497 16.7346 139.056 17.2942L141.885 14.4658C141.986 14.5675 142.082 14.7031 142.147 14.8672C142.212 15.029 142.23 15.1746 142.23 15.28H138.23ZM139.056 17.2942C139.616 17.8538 140.336 18.12 141.07 18.12V14.12C141.176 14.12 141.321 14.1383 141.483 14.203C141.647 14.2687 141.783 14.3641 141.885 14.4658L139.056 17.2942ZM141.07 18.12C142.735 18.12 145.117 17.9949 148.187 17.7539L147.874 13.7661C144.831 14.0051 142.574 14.12 141.07 14.12V18.12ZM146.03 15.76V18.76H150.03V15.76H146.03ZM166.616 15.28L167.188 17.1964L168.616 16.7702V15.28H166.616ZM166.616 6.28V4.28H164.616V6.28H166.616ZM170.816 6.28H172.816V4.28H170.816V6.28ZM170.816 19V21H172.816V19H170.816ZM167.096 19L165.135 19.3922L165.457 21H167.096V19ZM166.856 17.8L168.817 17.4078L168.235 14.4949L165.755 16.1305L166.856 17.8ZM164.528 18.904L165.078 20.827L165.09 20.8234L165.103 20.8197L164.528 18.904ZM158.84 18.256L160.254 16.8418L160.254 16.8418L158.84 18.256ZM157.856 6.28V4.28H155.856V6.28H157.856ZM162.056 6.28H164.056V4.28H162.056V6.28ZM162.296 15.52L163.71 14.1058L163.71 14.1058L162.296 15.52ZM163.736 17.76C164.828 17.76 165.986 17.5553 167.188 17.1964L166.044 13.3636C165.102 13.6447 164.34 13.76 163.736 13.76V17.76ZM168.616 15.28V6.28H164.616V15.28H168.616ZM166.616 8.28H170.816V4.28H166.616V8.28ZM168.816 6.28V19H172.816V6.28H168.816ZM170.816 17H167.096V21H170.816V17ZM169.057 18.6078L168.817 17.4078L164.895 18.1922L165.135 19.3922L169.057 18.6078ZM165.755 16.1305C165.153 16.5276 164.553 16.8085 163.954 16.9883L165.103 20.8197C166.104 20.5195 167.056 20.0644 167.957 19.4695L165.755 16.1305ZM163.979 16.981C163.294 17.1766 162.827 17.24 162.536 17.24V21.24C163.334 21.24 164.195 21.0794 165.078 20.827L163.979 16.981ZM162.536 17.24H161.456V21.24H162.536V17.24ZM161.456 17.24C160.8 17.24 160.471 17.0582 160.254 16.8418L157.426 19.6702C158.522 20.7658 159.937 21.24 161.456 21.24V17.24ZM160.254 16.8418C160.038 16.6254 159.856 16.2964 159.856 15.64H155.856C155.856 17.1596 156.33 18.5746 157.426 19.6702L160.254 16.8418ZM159.856 15.64V6.28H155.856V15.64H159.856ZM157.856 8.28H162.056V4.28H157.856V8.28ZM160.056 6.28V14.92H164.056V6.28H160.056ZM160.056 14.92C160.056 15.6547 160.322 16.3746 160.882 16.9342L163.71 14.1058C163.812 14.2075 163.908 14.3431 163.973 14.5072C164.038 14.669 164.056 14.8146 164.056 14.92H160.056ZM160.882 16.9342C161.442 17.4938 162.162 17.76 162.896 17.76V13.76C163.002 13.76 163.147 13.7783 163.309 13.843C163.473 13.9087 163.609 14.0041 163.71 14.1058L160.882 16.9342ZM162.896 17.76H163.736V13.76H162.896V17.76ZM172.728 15.64L172.875 13.6454L170.728 13.4868V15.64H172.728ZM181.008 15.76L182.422 17.1742L182.422 17.1742L181.008 15.76ZM181.248 14.32H183.248V12.32H181.248V14.32ZM173.472 13.336L174.886 11.9218L174.886 11.9218L173.472 13.336ZM173.472 7.264L174.886 8.67821L173.472 7.264ZM184.248 6.28H186.248V4.28H184.248V6.28ZM184.248 9.4V11.4H186.248V9.4H184.248ZM176.928 9.64L178.342 11.0542L178.342 11.0542L176.928 9.64ZM176.928 10.84L175.514 12.2542L175.514 12.2542L176.928 10.84ZM184.464 12.064L185.878 10.6498L185.878 10.6498L184.464 12.064ZM184.464 18.256L185.878 19.6702L185.878 19.6702L184.464 18.256ZM172.728 18.76H170.728V20.5726L172.532 20.7504L172.728 18.76ZM172.58 17.6346C175.847 17.876 178.464 18 180.408 18V14C178.608 14 176.104 13.884 172.875 13.6454L172.58 17.6346ZM180.408 18C181.143 18 181.862 17.7338 182.422 17.1742L179.594 14.3458C179.695 14.2441 179.831 14.1487 179.995 14.083C180.157 14.0183 180.302 14 180.408 14V18ZM182.422 17.1742C182.982 16.6146 183.248 15.8947 183.248 15.16H179.248C179.248 15.0546 179.266 14.909 179.331 14.7472C179.396 14.5831 179.492 14.4475 179.594 14.3458L182.422 17.1742ZM183.248 15.16V14.32H179.248V15.16H183.248ZM181.248 12.32H176.088V16.32H181.248V12.32ZM176.088 12.32C175.431 12.32 175.102 12.1382 174.886 11.9218L172.058 14.7502C173.153 15.8458 174.568 16.32 176.088 16.32V12.32ZM174.886 11.9218C174.67 11.7054 174.488 11.3764 174.488 10.72H170.488C170.488 12.2396 170.962 13.6546 172.058 14.7502L174.886 11.9218ZM174.488 10.72V9.88H170.488V10.72H174.488ZM174.488 9.88C174.488 9.22364 174.67 8.89463 174.886 8.67821L172.058 5.84979C170.962 6.94537 170.488 8.36035 170.488 9.88H174.488ZM174.886 8.67821C175.102 8.4618 175.431 8.28 176.088 8.28V4.28C174.568 4.28 173.153 4.7542 172.058 5.84979L174.886 8.67821ZM176.088 8.28H184.248V4.28H176.088V8.28ZM182.248 6.28V9.4H186.248V6.28H182.248ZM184.248 7.4H177.528V11.4H184.248V7.4ZM177.528 7.4C176.793 7.4 176.073 7.66619 175.514 8.22579L178.342 11.0542C178.24 11.1559 178.105 11.2513 177.941 11.317C177.779 11.3817 177.633 11.4 177.528 11.4V7.4ZM175.514 8.22579C174.954 8.78538 174.688 9.50528 174.688 10.24H178.688C178.688 10.3454 178.669 10.491 178.605 10.6528C178.539 10.8169 178.444 10.9525 178.342 11.0542L175.514 8.22579ZM174.688 10.24C174.688 10.9747 174.954 11.6946 175.514 12.2542L178.342 9.42579C178.444 9.52747 178.539 9.66313 178.605 9.82722C178.669 9.98897 178.688 10.1346 178.688 10.24H174.688ZM175.514 12.2542C176.073 12.8138 176.793 13.08 177.528 13.08V9.08C177.633 9.08 177.779 9.09834 177.941 9.16305C178.105 9.22868 178.24 9.3241 178.342 9.42579L175.514 12.2542ZM177.528 13.08H181.848V9.08H177.528V13.08ZM181.848 13.08C182.504 13.08 182.833 13.2618 183.05 13.4782L185.878 10.6498C184.782 9.5542 183.367 9.08 181.848 9.08V13.08ZM183.05 13.4782C183.266 13.6946 183.448 14.0236 183.448 14.68H187.448C187.448 13.1604 186.974 11.7454 185.878 10.6498L183.05 13.4782ZM183.448 14.68V15.64H187.448V14.68H183.448ZM183.448 15.64C183.448 16.2964 183.266 16.6254 183.05 16.8418L185.878 19.6702C186.974 18.5746 187.448 17.1596 187.448 15.64H183.448ZM183.05 16.8418C182.833 17.0582 182.504 17.24 181.848 17.24V21.24C183.367 21.24 184.782 20.7658 185.878 19.6702L183.05 16.8418ZM181.848 17.24C179.09 17.24 176.116 17.0842 172.924 16.7696L172.532 20.7504C175.835 21.0758 178.941 21.24 181.848 21.24V17.24ZM174.728 18.76V15.64H170.728V18.76H174.728Z" fill="black" fill-opacity="0.06"/>
</svg>
