<svg width="34" height="38" viewBox="0 0 34 38" fill="none" xmlns="http://www.w3.org/2000/svg">
<path d="M12.75 15.4375C12.75 14.1261 11.7984 13.0625 10.625 13.0625H9.5625C7.21504 13.0625 5.3125 15.1889 5.3125 17.8125V21.375C5.3125 23.9986 7.21504 26.125 9.5625 26.125H10.625C11.7984 26.125 12.75 25.0614 12.75 23.75V15.4375ZM24.4375 26.125C26.785 26.125 28.6875 23.9986 28.6875 21.375V17.8125C28.6875 15.1889 26.785 13.0625 24.4375 13.0625H23.375C22.2016 13.0625 21.25 14.1261 21.25 15.4375V23.75C21.25 25.0614 22.2016 26.125 23.375 26.125H24.4375ZM17 0C7.51586 0 0.304141 8.81941 0 19V20.1875C0 20.8436 0.475469 21.375 1.0625 21.375H2.125C2.71203 21.375 3.1875 20.8436 3.1875 20.1875V19C3.1875 10.4879 9.38387 3.5625 17 3.5625C24.6161 3.5625 30.8125 10.4879 30.8125 19H30.8045C30.8098 19.1804 30.8125 31.2995 30.8125 31.2995C30.8125 33.0325 29.5554 34.4375 28.0048 34.4375H21.25C21.25 32.47 19.8229 30.875 18.0625 30.875H15.9375C14.1771 30.875 12.75 32.47 12.75 34.4375C12.75 36.405 14.1771 38 15.9375 38H28.0048C31.3159 38 34 35.0001 34 31.2995V19C33.6959 8.81941 26.4841 0 17 0Z" fill="black"/>
</svg>
